%TF.GenerationSoftware,KiCad,Pcbnew,10.0.6*%
%TF.CreationDate,2026-09-19T17:13:57+03:00*%
%TF.ProjectId,Gateway-X6,47617465-7761-4792-9d58-362e6b696361,rev?*%
%TF.SameCoordinates,Original*%
%TF.FileFunction,Copper,L2,Inr*%
%TF.FilePolarity,Positive*%
%FSLAX46Y46*%
G04 Gerber Fmt 4.6, Leading zero omitted, Abs format (unit mm)*
G04 Created by KiCad (PCBNEW 10.0.6) date 2026-09-19 17:13:57*
%MOMM*%
%LPD*%
G01*
G04 APERTURE LIST*
G04 Aperture macros list*
%AMRoundRect*
0 Rectangle with rounded corners*
0 $1 Rounding radius*
0 $2 $3 $4 $5 $6 $7 $8 $9 X,Y pos of 4 corners*
0 Add a 4 corners polygon primitive as box body*
4,1,4,$2,$3,$4,$5,$6,$7,$8,$9,$2,$3,0*
0 Add four circle primitives for the rounded corners*
1,1,$1+$1,$2,$3*
1,1,$1+$1,$4,$5*
1,1,$1+$1,$6,$7*
1,1,$1+$1,$8,$9*
0 Add four rect primitives between the rounded corners*
20,1,$1+$1,$2,$3,$4,$5,0*
20,1,$1+$1,$4,$5,$6,$7,0*
20,1,$1+$1,$6,$7,$8,$9,0*
20,1,$1+$1,$8,$9,$2,$3,0*%
G04 Aperture macros list end*
%TA.AperFunction,ComponentPad*%
%ADD10R,1.700000X1.700000*%
%TD*%
%TA.AperFunction,ComponentPad*%
%ADD11C,1.700000*%
%TD*%
%TA.AperFunction,ComponentPad*%
%ADD12C,2.600000*%
%TD*%
%TA.AperFunction,ComponentPad*%
%ADD13RoundRect,0.250000X-1.050000X1.050000X-1.050000X-1.050000X1.050000X-1.050000X1.050000X1.050000X0*%
%TD*%
%TA.AperFunction,ComponentPad*%
%ADD14O,1.600000X1.000000*%
%TD*%
%TA.AperFunction,ComponentPad*%
%ADD15O,2.100000X1.000000*%
%TD*%
%TA.AperFunction,ComponentPad*%
%ADD16RoundRect,0.250000X-1.050000X-1.050000X1.050000X-1.050000X1.050000X1.050000X-1.050000X1.050000X0*%
%TD*%
%TA.AperFunction,ViaPad*%
%ADD17C,0.600000*%
%TD*%
G04 APERTURE END LIST*
D10*
%TO.N,+3.3V*%
%TO.C,J3*%
X60420000Y-65130000D03*
D11*
%TO.N,/SWDIO*%
X60420000Y-67670000D03*
%TO.N,/SWCLK*%
X60420000Y-70210000D03*
%TO.N,GND*%
X60420000Y-72750000D03*
%TD*%
D12*
%TO.N,Net-(J2-Pin_2)*%
%TO.C,J2*%
X34025000Y-95425000D03*
D13*
%TO.N,Net-(J2-Pin_1)*%
X34025000Y-90425000D03*
%TD*%
D14*
%TO.N,GND*%
%TO.C,J4*%
X31400000Y-81910000D03*
D15*
X35580000Y-81910000D03*
D14*
X31400000Y-73270000D03*
D15*
X35580000Y-73270000D03*
%TD*%
D12*
%TO.N,GND*%
%TO.C,J1*%
X75325000Y-37617500D03*
D16*
%TO.N,+24V*%
X70325000Y-37617500D03*
%TD*%
D17*
%TO.N,GND*%
X83250000Y-92750000D03*
%TO.N,+3.3V*%
X83300000Y-90850000D03*
X48125000Y-93200000D03*
%TO.N,+5V*%
X89750000Y-42500000D03*
X61150000Y-42500000D03*
%TO.N,+3.3V*%
X76800000Y-88025000D03*
%TO.N,GND*%
X77999997Y-87875000D03*
%TO.N,+3.3V*%
X95625000Y-91950000D03*
X105925000Y-75850000D03*
X113200000Y-73500000D03*
%TO.N,GND*%
X106200000Y-78250000D03*
%TO.N,+3.3V*%
X77425000Y-79400000D03*
%TO.N,GND*%
X105050000Y-83325000D03*
X130850000Y-73000000D03*
X125625000Y-65650000D03*
%TO.N,+3.3V*%
X132975000Y-74525000D03*
X132925000Y-72675000D03*
%TO.N,GND*%
X109725000Y-78126473D03*
X104475000Y-64950000D03*
X100425000Y-59700000D03*
X95725000Y-93775000D03*
X88625000Y-95775000D03*
X74575000Y-87950000D03*
X75500000Y-101825000D03*
X68250000Y-51050000D03*
X60850000Y-91275000D03*
%TO.N,/USER_BTN*%
X47450000Y-59500000D03*
%TO.N,+3.3V*%
X57225000Y-65300000D03*
%TO.N,GND*%
X51425000Y-69475000D03*
X42800000Y-92875000D03*
X58000000Y-73200000D03*
%TO.N,Net-(U5-GND)*%
X45925000Y-93925000D03*
%TO.N,/CAN1_RX*%
X51625000Y-95650000D03*
%TO.N,GND*%
X41300000Y-66750000D03*
X33300000Y-83775000D03*
%TO.N,/CAN1_TX*%
X50375000Y-87450000D03*
%TO.N,GND*%
X33100000Y-71775000D03*
%TO.N,/CAN1_TX*%
X48175000Y-89950000D03*
%TO.N,GND*%
X42925000Y-76225000D03*
%TO.N,Net-(U5-GND)*%
X47725000Y-92175000D03*
%TO.N,GND*%
X42175000Y-80500000D03*
X44625000Y-97000000D03*
X101025000Y-39475000D03*
X121000000Y-52050000D03*
%TO.N,Net-(D3-K)*%
X103750000Y-49650000D03*
X85000000Y-47550000D03*
%TO.N,GND*%
X67725000Y-57000000D03*
X55250000Y-47775000D03*
%TO.N,+3.3V*%
X63925000Y-48025000D03*
%TO.N,GND*%
X48350000Y-33200000D03*
X55925000Y-33300000D03*
X53725000Y-33425000D03*
X52075000Y-43375000D03*
%TO.N,+3.3V*%
X48375000Y-38575000D03*
%TO.N,GND*%
X114050000Y-45125000D03*
X105725000Y-44800000D03*
%TO.N,/CAN1_TX*%
X82235690Y-68435690D03*
X73225000Y-90650000D03*
%TO.N,/CAN1_RX*%
X80975000Y-69400000D03*
%TO.N,/USER_BTN*%
X82725000Y-86725000D03*
%TO.N,GND*%
X77500000Y-93200000D03*
%TO.N,Net-(U3-VDDA)*%
X80675000Y-86100000D03*
X78800000Y-87875000D03*
%TO.N,Net-(U3-NRST)*%
X81450000Y-85850000D03*
X67550000Y-88250000D03*
%TO.N,GND*%
X67250000Y-81275000D03*
%TO.N,+3.3V*%
X67350000Y-76575000D03*
%TO.N,GND*%
X84950000Y-101625000D03*
X75000000Y-68700000D03*
%TO.N,+3.3V*%
X76975000Y-68675000D03*
%TO.N,GND*%
X75625000Y-62775000D03*
%TO.N,+3.3V*%
X77575000Y-62725000D03*
X79275000Y-62650000D03*
%TO.N,GND*%
X82775000Y-62650000D03*
X86625000Y-62600000D03*
%TO.N,+3.3V*%
X88425000Y-62625000D03*
%TO.N,GND*%
X91225000Y-62525000D03*
%TO.N,+3.3V*%
X93150000Y-62600000D03*
%TO.N,GND*%
X96725000Y-63450000D03*
%TO.N,/FMC_SDCKE*%
X124150000Y-96800000D03*
X128450000Y-81150000D03*
%TO.N,+3.3V*%
X90225000Y-91050000D03*
%TO.N,/FMC_SDCLK*%
X91562500Y-91000000D03*
X111800000Y-91600000D03*
%TO.N,/FMC_D10*%
X96562500Y-89950000D03*
X105650000Y-92200000D03*
X133750000Y-81850000D03*
X135700000Y-77450000D03*
%TO.N,/FMC_D9*%
X127700000Y-75000000D03*
X134750000Y-80500000D03*
X108500000Y-92800000D03*
X104800000Y-94050000D03*
%TO.N,/FMC_NBL1*%
X106600000Y-95850000D03*
X108700000Y-93650000D03*
%TO.N,/FMC_D8*%
X133950000Y-77900000D03*
X124350000Y-75900000D03*
%TO.N,GND*%
X131150000Y-76950000D03*
%TO.N,/FMC_D8*%
X107150000Y-93300000D03*
X103950000Y-93350000D03*
%TO.N,GND*%
X100050000Y-90000000D03*
%TO.N,+3.3V*%
X99300000Y-89050000D03*
%TO.N,/FMC_D11*%
X96515544Y-86807772D03*
X102750000Y-88850000D03*
X103700000Y-90400000D03*
X116750000Y-87950000D03*
X121000000Y-81000000D03*
X116600000Y-86200000D03*
%TO.N,/FMC_D12*%
X95800000Y-86450000D03*
X120850000Y-87750000D03*
X121200000Y-86000000D03*
X121900000Y-83000000D03*
X120450000Y-74350000D03*
X124950000Y-71900000D03*
%TO.N,+3.3V*%
X130200000Y-69300000D03*
%TO.N,/FMC_D13*%
X121700000Y-78550000D03*
X117750000Y-82750000D03*
X95200000Y-85550000D03*
%TO.N,/FMC_BA1*%
X109750000Y-83700000D03*
X102175735Y-84974265D03*
%TO.N,/FMC_BA0*%
X99050000Y-83900000D03*
X109700000Y-82850000D03*
%TO.N,/FMC_A10*%
X99000000Y-72750000D03*
X118400000Y-83950000D03*
%TO.N,/FMC_D15*%
X95150000Y-75650000D03*
X99650000Y-63350000D03*
%TO.N,/FMC_NBL0*%
X92350000Y-85900000D03*
X107200000Y-75650000D03*
%TO.N,/FMC_A0*%
X110250000Y-84400000D03*
%TO.N,+3.3V*%
X105225000Y-81250000D03*
%TO.N,/FMC_A8*%
X98792307Y-79488464D03*
X108000000Y-82150000D03*
%TO.N,/FMC_A5*%
X106950000Y-80050000D03*
X99100000Y-78750000D03*
X110200000Y-86800000D03*
X124000000Y-86200000D03*
%TO.N,/FMC_A6*%
X118700000Y-81100000D03*
%TO.N,/FMC_A4*%
X116600000Y-80250000D03*
%TO.N,/FMC_A6*%
X112750000Y-81200000D03*
%TO.N,GND*%
X127700000Y-88150000D03*
%TO.N,/FMC_A4*%
X112950000Y-80250000D03*
%TO.N,/FMC_A0*%
X98900000Y-74500000D03*
%TO.N,+3.3V*%
X113250000Y-87950000D03*
%TO.N,/FMC_A3*%
X110650000Y-86000000D03*
X102550000Y-77250000D03*
%TO.N,/FMC_A2*%
X111387241Y-85270805D03*
X101950000Y-76650000D03*
%TO.N,/FMC_A1*%
X112146604Y-85019070D03*
X109350000Y-75800000D03*
%TO.N,GND*%
X113400000Y-75700000D03*
X113350000Y-71550000D03*
X110200000Y-70500000D03*
X105100000Y-71000000D03*
%TO.N,+3.3V*%
X110000000Y-68650000D03*
X105200000Y-69150000D03*
%TO.N,Net-(U3-VCAP_2)*%
X100300000Y-66350000D03*
X99400000Y-70000000D03*
%TO.N,/FMC_D13*%
X118150000Y-87500000D03*
%TO.N,GND*%
X74700000Y-78650000D03*
%TD*%
%TA.AperFunction,Conductor*%
%TO.N,GND*%
G36*
X136817539Y-30345185D02*
G01*
X136863294Y-30397989D01*
X136874500Y-30449500D01*
X136874500Y-102850500D01*
X136854815Y-102917539D01*
X136802011Y-102963294D01*
X136750500Y-102974500D01*
X27999500Y-102974500D01*
X27932461Y-102954815D01*
X27886706Y-102902011D01*
X27875500Y-102850500D01*
X27875500Y-95306995D01*
X32224500Y-95306995D01*
X32224500Y-95543004D01*
X32224501Y-95543020D01*
X32255306Y-95777010D01*
X32316394Y-96004993D01*
X32406714Y-96223045D01*
X32406719Y-96223056D01*
X32445201Y-96289707D01*
X32524727Y-96427450D01*
X32524729Y-96427453D01*
X32524730Y-96427454D01*
X32668406Y-96614697D01*
X32668412Y-96614704D01*
X32835295Y-96781587D01*
X32835301Y-96781592D01*
X33022550Y-96925273D01*
X33153918Y-97001118D01*
X33226943Y-97043280D01*
X33226948Y-97043282D01*
X33226951Y-97043284D01*
X33445007Y-97133606D01*
X33672986Y-97194693D01*
X33906989Y-97225500D01*
X33906996Y-97225500D01*
X34143004Y-97225500D01*
X34143011Y-97225500D01*
X34377014Y-97194693D01*
X34604993Y-97133606D01*
X34823049Y-97043284D01*
X35027450Y-96925273D01*
X35214699Y-96781592D01*
X35275138Y-96721153D01*
X123349500Y-96721153D01*
X123349500Y-96878846D01*
X123380261Y-97033489D01*
X123380264Y-97033501D01*
X123440602Y-97179172D01*
X123440609Y-97179185D01*
X123528210Y-97310288D01*
X123528213Y-97310292D01*
X123639707Y-97421786D01*
X123639711Y-97421789D01*
X123770814Y-97509390D01*
X123770827Y-97509397D01*
X123916498Y-97569735D01*
X123916503Y-97569737D01*
X124071153Y-97600499D01*
X124071156Y-97600500D01*
X124071158Y-97600500D01*
X124228844Y-97600500D01*
X124228845Y-97600499D01*
X124383497Y-97569737D01*
X124529179Y-97509394D01*
X124660289Y-97421789D01*
X124771789Y-97310289D01*
X124859394Y-97179179D01*
X124919737Y-97033497D01*
X124950500Y-96878842D01*
X124950500Y-96721158D01*
X124950500Y-96721155D01*
X124950499Y-96721153D01*
X124930326Y-96619736D01*
X124919737Y-96566503D01*
X124916791Y-96559390D01*
X124859397Y-96420827D01*
X124859390Y-96420814D01*
X124771789Y-96289711D01*
X124771786Y-96289707D01*
X124660292Y-96178213D01*
X124660288Y-96178210D01*
X124529185Y-96090609D01*
X124529172Y-96090602D01*
X124383501Y-96030264D01*
X124383489Y-96030261D01*
X124228845Y-95999500D01*
X124228842Y-95999500D01*
X124071158Y-95999500D01*
X124071155Y-95999500D01*
X123916510Y-96030261D01*
X123916498Y-96030264D01*
X123770827Y-96090602D01*
X123770814Y-96090609D01*
X123639711Y-96178210D01*
X123639707Y-96178213D01*
X123528213Y-96289707D01*
X123528210Y-96289711D01*
X123440609Y-96420814D01*
X123440602Y-96420827D01*
X123380264Y-96566498D01*
X123380261Y-96566510D01*
X123349500Y-96721153D01*
X35275138Y-96721153D01*
X35381592Y-96614699D01*
X35525273Y-96427450D01*
X35643284Y-96223049D01*
X35733606Y-96004993D01*
X35794693Y-95777014D01*
X35821795Y-95571153D01*
X50824500Y-95571153D01*
X50824500Y-95728846D01*
X50855261Y-95883489D01*
X50855264Y-95883501D01*
X50915602Y-96029172D01*
X50915609Y-96029185D01*
X51003210Y-96160288D01*
X51003213Y-96160292D01*
X51114707Y-96271786D01*
X51114711Y-96271789D01*
X51245814Y-96359390D01*
X51245827Y-96359397D01*
X51391498Y-96419735D01*
X51391503Y-96419737D01*
X51546153Y-96450499D01*
X51546156Y-96450500D01*
X51546158Y-96450500D01*
X51703844Y-96450500D01*
X51703845Y-96450499D01*
X51858497Y-96419737D01*
X52004179Y-96359394D01*
X52135289Y-96271789D01*
X52246789Y-96160289D01*
X52334394Y-96029179D01*
X52394737Y-95883497D01*
X52417083Y-95771158D01*
X52417084Y-95771153D01*
X105799500Y-95771153D01*
X105799500Y-95928846D01*
X105830261Y-96083489D01*
X105830264Y-96083501D01*
X105890602Y-96229172D01*
X105890609Y-96229185D01*
X105978210Y-96360288D01*
X105978213Y-96360292D01*
X106089707Y-96471786D01*
X106089711Y-96471789D01*
X106220814Y-96559390D01*
X106220827Y-96559397D01*
X106320070Y-96600504D01*
X106366503Y-96619737D01*
X106521153Y-96650499D01*
X106521156Y-96650500D01*
X106521158Y-96650500D01*
X106678844Y-96650500D01*
X106678845Y-96650499D01*
X106833497Y-96619737D01*
X106979179Y-96559394D01*
X107110289Y-96471789D01*
X107221789Y-96360289D01*
X107309394Y-96229179D01*
X107369737Y-96083497D01*
X107400500Y-95928842D01*
X107400500Y-95771158D01*
X107400500Y-95771155D01*
X107400499Y-95771153D01*
X107394476Y-95740874D01*
X107369737Y-95616503D01*
X107350955Y-95571158D01*
X107309397Y-95470827D01*
X107309390Y-95470814D01*
X107221789Y-95339711D01*
X107221786Y-95339707D01*
X107110292Y-95228213D01*
X107110288Y-95228210D01*
X106979185Y-95140609D01*
X106979172Y-95140602D01*
X106833501Y-95080264D01*
X106833489Y-95080261D01*
X106678845Y-95049500D01*
X106678842Y-95049500D01*
X106521158Y-95049500D01*
X106521155Y-95049500D01*
X106366510Y-95080261D01*
X106366498Y-95080264D01*
X106220827Y-95140602D01*
X106220814Y-95140609D01*
X106089711Y-95228210D01*
X106089707Y-95228213D01*
X105978213Y-95339707D01*
X105978210Y-95339711D01*
X105890609Y-95470814D01*
X105890602Y-95470827D01*
X105830264Y-95616498D01*
X105830261Y-95616510D01*
X105799500Y-95771153D01*
X52417084Y-95771153D01*
X52423107Y-95740875D01*
X52423107Y-95740874D01*
X52425500Y-95728844D01*
X52425500Y-95571155D01*
X52425499Y-95571153D01*
X52405543Y-95470827D01*
X52394737Y-95416503D01*
X52362929Y-95339711D01*
X52334397Y-95270827D01*
X52334390Y-95270814D01*
X52246789Y-95139711D01*
X52246786Y-95139707D01*
X52135292Y-95028213D01*
X52135288Y-95028210D01*
X52004185Y-94940609D01*
X52004172Y-94940602D01*
X51858501Y-94880264D01*
X51858489Y-94880261D01*
X51703845Y-94849500D01*
X51703842Y-94849500D01*
X51546158Y-94849500D01*
X51546155Y-94849500D01*
X51391510Y-94880261D01*
X51391498Y-94880264D01*
X51245827Y-94940602D01*
X51245814Y-94940609D01*
X51114711Y-95028210D01*
X51114707Y-95028213D01*
X51003213Y-95139707D01*
X51003210Y-95139711D01*
X50915609Y-95270814D01*
X50915602Y-95270827D01*
X50855264Y-95416498D01*
X50855261Y-95416510D01*
X50824500Y-95571153D01*
X35821795Y-95571153D01*
X35825500Y-95543011D01*
X35825500Y-95306989D01*
X35794693Y-95072986D01*
X35733606Y-94845007D01*
X35643284Y-94626951D01*
X35643282Y-94626948D01*
X35643280Y-94626943D01*
X35597001Y-94546786D01*
X35525273Y-94422550D01*
X35466001Y-94345306D01*
X35381593Y-94235302D01*
X35381587Y-94235295D01*
X35214704Y-94068412D01*
X35214697Y-94068406D01*
X35045324Y-93938442D01*
X35027454Y-93924730D01*
X35027453Y-93924729D01*
X35027450Y-93924727D01*
X34945957Y-93877677D01*
X34891357Y-93846153D01*
X45124500Y-93846153D01*
X45124500Y-94003846D01*
X45155261Y-94158489D01*
X45155264Y-94158501D01*
X45215602Y-94304172D01*
X45215609Y-94304185D01*
X45303210Y-94435288D01*
X45303213Y-94435292D01*
X45414707Y-94546786D01*
X45414711Y-94546789D01*
X45545814Y-94634390D01*
X45545827Y-94634397D01*
X45636101Y-94671789D01*
X45691503Y-94694737D01*
X45846153Y-94725499D01*
X45846156Y-94725500D01*
X45846158Y-94725500D01*
X46003844Y-94725500D01*
X46003845Y-94725499D01*
X46158497Y-94694737D01*
X46304179Y-94634394D01*
X46435289Y-94546789D01*
X46546789Y-94435289D01*
X46634394Y-94304179D01*
X46694737Y-94158497D01*
X46725500Y-94003842D01*
X46725500Y-93846158D01*
X46725500Y-93846155D01*
X46725499Y-93846153D01*
X46702165Y-93728846D01*
X46694737Y-93691503D01*
X46686170Y-93670821D01*
X46634397Y-93545827D01*
X46634390Y-93545814D01*
X46546789Y-93414711D01*
X46546786Y-93414707D01*
X46435292Y-93303213D01*
X46435288Y-93303210D01*
X46304185Y-93215609D01*
X46304172Y-93215602D01*
X46158501Y-93155264D01*
X46158489Y-93155261D01*
X46003845Y-93124500D01*
X46003842Y-93124500D01*
X45846158Y-93124500D01*
X45846155Y-93124500D01*
X45691510Y-93155261D01*
X45691498Y-93155264D01*
X45545827Y-93215602D01*
X45545814Y-93215609D01*
X45414711Y-93303210D01*
X45414707Y-93303213D01*
X45303213Y-93414707D01*
X45303210Y-93414711D01*
X45215609Y-93545814D01*
X45215602Y-93545827D01*
X45155264Y-93691498D01*
X45155261Y-93691510D01*
X45124500Y-93846153D01*
X34891357Y-93846153D01*
X34823056Y-93806719D01*
X34823045Y-93806714D01*
X34604993Y-93716394D01*
X34512080Y-93691498D01*
X34377014Y-93655307D01*
X34377013Y-93655306D01*
X34377010Y-93655306D01*
X34143020Y-93624501D01*
X34143017Y-93624500D01*
X34143011Y-93624500D01*
X33906989Y-93624500D01*
X33906983Y-93624500D01*
X33906979Y-93624501D01*
X33672989Y-93655306D01*
X33445006Y-93716394D01*
X33226954Y-93806714D01*
X33226943Y-93806719D01*
X33022545Y-93924730D01*
X32835302Y-94068406D01*
X32835295Y-94068412D01*
X32668412Y-94235295D01*
X32668406Y-94235302D01*
X32524730Y-94422545D01*
X32406719Y-94626943D01*
X32406714Y-94626954D01*
X32316394Y-94845006D01*
X32255306Y-95072989D01*
X32224501Y-95306979D01*
X32224500Y-95306995D01*
X27875500Y-95306995D01*
X27875500Y-89324983D01*
X32224500Y-89324983D01*
X32224500Y-91525001D01*
X32224501Y-91525018D01*
X32235000Y-91627796D01*
X32235001Y-91627799D01*
X32290185Y-91794331D01*
X32290187Y-91794336D01*
X32305855Y-91819738D01*
X32382288Y-91943656D01*
X32506344Y-92067712D01*
X32655666Y-92159814D01*
X32822203Y-92214999D01*
X32924991Y-92225500D01*
X35125008Y-92225499D01*
X35227797Y-92214999D01*
X35394334Y-92159814D01*
X35497546Y-92096153D01*
X46924500Y-92096153D01*
X46924500Y-92253846D01*
X46955261Y-92408489D01*
X46955264Y-92408501D01*
X47015602Y-92554172D01*
X47015609Y-92554185D01*
X47103210Y-92685288D01*
X47103213Y-92685292D01*
X47214707Y-92796786D01*
X47214715Y-92796792D01*
X47299680Y-92853564D01*
X47344486Y-92907176D01*
X47353193Y-92976501D01*
X47352407Y-92980857D01*
X47324500Y-93121153D01*
X47324500Y-93278846D01*
X47355261Y-93433489D01*
X47355264Y-93433501D01*
X47415602Y-93579172D01*
X47415609Y-93579185D01*
X47503210Y-93710288D01*
X47503213Y-93710292D01*
X47614707Y-93821786D01*
X47614711Y-93821789D01*
X47745814Y-93909390D01*
X47745827Y-93909397D01*
X47891498Y-93969735D01*
X47891503Y-93969737D01*
X48046153Y-94000499D01*
X48046156Y-94000500D01*
X48046158Y-94000500D01*
X48203844Y-94000500D01*
X48203845Y-94000499D01*
X48358497Y-93969737D01*
X48504179Y-93909394D01*
X48635289Y-93821789D01*
X48746789Y-93710289D01*
X48834394Y-93579179D01*
X48837719Y-93571153D01*
X48894735Y-93433501D01*
X48894737Y-93433497D01*
X48925500Y-93278842D01*
X48925500Y-93271153D01*
X103149500Y-93271153D01*
X103149500Y-93428846D01*
X103180261Y-93583489D01*
X103180264Y-93583501D01*
X103240602Y-93729172D01*
X103240609Y-93729185D01*
X103328210Y-93860288D01*
X103328213Y-93860292D01*
X103439707Y-93971786D01*
X103439711Y-93971789D01*
X103570814Y-94059390D01*
X103570827Y-94059397D01*
X103670060Y-94100500D01*
X103716503Y-94119737D01*
X103871153Y-94150499D01*
X103871156Y-94150500D01*
X103871158Y-94150500D01*
X103902044Y-94150500D01*
X103969083Y-94170185D01*
X104014838Y-94222989D01*
X104023661Y-94250309D01*
X104030261Y-94283489D01*
X104030264Y-94283501D01*
X104090602Y-94429172D01*
X104090609Y-94429185D01*
X104178210Y-94560288D01*
X104178213Y-94560292D01*
X104289707Y-94671786D01*
X104289711Y-94671789D01*
X104420814Y-94759390D01*
X104420827Y-94759397D01*
X104566498Y-94819735D01*
X104566503Y-94819737D01*
X104693538Y-94845006D01*
X104721153Y-94850499D01*
X104721156Y-94850500D01*
X104721158Y-94850500D01*
X104878844Y-94850500D01*
X104878845Y-94850499D01*
X105033497Y-94819737D01*
X105179179Y-94759394D01*
X105310289Y-94671789D01*
X105421789Y-94560289D01*
X105509394Y-94429179D01*
X105569737Y-94283497D01*
X105600500Y-94128842D01*
X105600500Y-93971158D01*
X105600500Y-93971155D01*
X105600499Y-93971153D01*
X105588213Y-93909390D01*
X105569737Y-93816503D01*
X105533569Y-93729185D01*
X105509397Y-93670827D01*
X105509390Y-93670814D01*
X105421789Y-93539711D01*
X105421786Y-93539707D01*
X105310292Y-93428213D01*
X105310288Y-93428210D01*
X105179185Y-93340609D01*
X105179173Y-93340602D01*
X105152674Y-93329627D01*
X105033501Y-93280264D01*
X105033489Y-93280261D01*
X104878845Y-93249500D01*
X104878842Y-93249500D01*
X104847956Y-93249500D01*
X104780917Y-93229815D01*
X104773411Y-93221153D01*
X106349500Y-93221153D01*
X106349500Y-93378846D01*
X106380261Y-93533489D01*
X106380264Y-93533501D01*
X106440602Y-93679172D01*
X106440609Y-93679185D01*
X106528210Y-93810288D01*
X106528213Y-93810292D01*
X106639707Y-93921786D01*
X106639711Y-93921789D01*
X106770814Y-94009390D01*
X106770827Y-94009397D01*
X106913294Y-94068408D01*
X106916503Y-94069737D01*
X107071153Y-94100499D01*
X107071156Y-94100500D01*
X107071158Y-94100500D01*
X107228844Y-94100500D01*
X107228845Y-94100499D01*
X107383497Y-94069737D01*
X107529179Y-94009394D01*
X107660289Y-93921789D01*
X107731182Y-93850895D01*
X107792503Y-93817412D01*
X107862195Y-93822396D01*
X107918129Y-93864267D01*
X107933423Y-93891126D01*
X107990602Y-94029172D01*
X107990609Y-94029185D01*
X108078210Y-94160288D01*
X108078213Y-94160292D01*
X108189707Y-94271786D01*
X108189711Y-94271789D01*
X108320814Y-94359390D01*
X108320827Y-94359397D01*
X108466498Y-94419735D01*
X108466503Y-94419737D01*
X108621153Y-94450499D01*
X108621156Y-94450500D01*
X108621158Y-94450500D01*
X108778844Y-94450500D01*
X108778845Y-94450499D01*
X108933497Y-94419737D01*
X109079179Y-94359394D01*
X109210289Y-94271789D01*
X109321789Y-94160289D01*
X109409394Y-94029179D01*
X109469737Y-93883497D01*
X109500500Y-93728842D01*
X109500500Y-93571158D01*
X109500500Y-93571155D01*
X109500499Y-93571153D01*
X109494244Y-93539707D01*
X109469737Y-93416503D01*
X109454139Y-93378846D01*
X109409397Y-93270827D01*
X109409390Y-93270814D01*
X109321790Y-93139712D01*
X109321789Y-93139711D01*
X109307617Y-93125539D01*
X109274133Y-93064219D01*
X109273681Y-93013669D01*
X109300500Y-92878842D01*
X109300500Y-92721158D01*
X109300500Y-92721155D01*
X109300499Y-92721153D01*
X109288213Y-92659390D01*
X109269737Y-92566503D01*
X109262694Y-92549500D01*
X109209397Y-92420827D01*
X109209390Y-92420814D01*
X109121789Y-92289711D01*
X109121786Y-92289707D01*
X109010292Y-92178213D01*
X109010288Y-92178210D01*
X108879185Y-92090609D01*
X108879172Y-92090602D01*
X108733501Y-92030264D01*
X108733489Y-92030261D01*
X108578845Y-91999500D01*
X108578842Y-91999500D01*
X108421158Y-91999500D01*
X108421155Y-91999500D01*
X108266510Y-92030261D01*
X108266498Y-92030264D01*
X108120827Y-92090602D01*
X108120814Y-92090609D01*
X107989711Y-92178210D01*
X107989707Y-92178213D01*
X107878213Y-92289707D01*
X107878210Y-92289711D01*
X107790609Y-92420814D01*
X107790604Y-92420823D01*
X107736675Y-92551022D01*
X107692834Y-92605425D01*
X107626540Y-92627490D01*
X107558841Y-92610211D01*
X107553223Y-92606671D01*
X107529185Y-92590609D01*
X107529172Y-92590602D01*
X107383501Y-92530264D01*
X107383489Y-92530261D01*
X107228845Y-92499500D01*
X107228842Y-92499500D01*
X107071158Y-92499500D01*
X107071155Y-92499500D01*
X106916510Y-92530261D01*
X106916498Y-92530264D01*
X106770827Y-92590602D01*
X106770814Y-92590609D01*
X106639711Y-92678210D01*
X106639707Y-92678213D01*
X106528213Y-92789707D01*
X106528210Y-92789711D01*
X106440609Y-92920814D01*
X106440602Y-92920827D01*
X106380264Y-93066498D01*
X106380261Y-93066510D01*
X106349500Y-93221153D01*
X104773411Y-93221153D01*
X104735162Y-93177011D01*
X104726339Y-93149691D01*
X104719738Y-93116510D01*
X104719737Y-93116503D01*
X104719735Y-93116498D01*
X104659397Y-92970827D01*
X104659390Y-92970814D01*
X104571789Y-92839711D01*
X104571786Y-92839707D01*
X104460292Y-92728213D01*
X104460288Y-92728210D01*
X104329185Y-92640609D01*
X104329172Y-92640602D01*
X104183501Y-92580264D01*
X104183489Y-92580261D01*
X104028845Y-92549500D01*
X104028842Y-92549500D01*
X103871158Y-92549500D01*
X103871155Y-92549500D01*
X103716510Y-92580261D01*
X103716498Y-92580264D01*
X103570827Y-92640602D01*
X103570814Y-92640609D01*
X103439711Y-92728210D01*
X103439707Y-92728213D01*
X103328213Y-92839707D01*
X103328210Y-92839711D01*
X103240609Y-92970814D01*
X103240602Y-92970827D01*
X103180264Y-93116498D01*
X103180261Y-93116510D01*
X103149500Y-93271153D01*
X48925500Y-93271153D01*
X48925500Y-93121158D01*
X48925500Y-93121155D01*
X48925499Y-93121153D01*
X48897592Y-92980857D01*
X48894737Y-92966503D01*
X48858427Y-92878842D01*
X48834397Y-92820827D01*
X48834390Y-92820814D01*
X48746789Y-92689711D01*
X48746786Y-92689707D01*
X48635289Y-92578210D01*
X48550318Y-92521435D01*
X48505513Y-92467823D01*
X48496806Y-92398498D01*
X48497586Y-92394173D01*
X48518366Y-92289707D01*
X48525500Y-92253844D01*
X48525500Y-92096155D01*
X48525499Y-92096153D01*
X48512393Y-92030264D01*
X48494737Y-91941503D01*
X48494735Y-91941498D01*
X48465598Y-91871153D01*
X94824500Y-91871153D01*
X94824500Y-92028846D01*
X94855261Y-92183489D01*
X94855264Y-92183501D01*
X94915602Y-92329172D01*
X94915609Y-92329185D01*
X95003210Y-92460288D01*
X95003213Y-92460292D01*
X95114707Y-92571786D01*
X95114711Y-92571789D01*
X95245814Y-92659390D01*
X95245827Y-92659397D01*
X95387408Y-92718041D01*
X95391503Y-92719737D01*
X95546153Y-92750499D01*
X95546156Y-92750500D01*
X95546158Y-92750500D01*
X95703844Y-92750500D01*
X95703845Y-92750499D01*
X95858497Y-92719737D01*
X96004179Y-92659394D01*
X96135289Y-92571789D01*
X96246789Y-92460289D01*
X96334394Y-92329179D01*
X96394737Y-92183497D01*
X96407138Y-92121153D01*
X104849500Y-92121153D01*
X104849500Y-92278846D01*
X104880261Y-92433489D01*
X104880264Y-92433501D01*
X104940602Y-92579172D01*
X104940609Y-92579185D01*
X105028210Y-92710288D01*
X105028213Y-92710292D01*
X105139707Y-92821786D01*
X105139711Y-92821789D01*
X105270814Y-92909390D01*
X105270827Y-92909397D01*
X105408683Y-92966498D01*
X105416503Y-92969737D01*
X105571153Y-93000499D01*
X105571156Y-93000500D01*
X105571158Y-93000500D01*
X105728844Y-93000500D01*
X105728845Y-93000499D01*
X105883497Y-92969737D01*
X106001592Y-92920821D01*
X106029172Y-92909397D01*
X106029172Y-92909396D01*
X106029179Y-92909394D01*
X106160289Y-92821789D01*
X106271789Y-92710289D01*
X106359394Y-92579179D01*
X106419737Y-92433497D01*
X106450500Y-92278842D01*
X106450500Y-92121158D01*
X106450500Y-92121155D01*
X106450499Y-92121153D01*
X106445527Y-92096158D01*
X106419737Y-91966503D01*
X106380242Y-91871153D01*
X106359397Y-91820827D01*
X106359390Y-91820814D01*
X106271789Y-91689711D01*
X106271786Y-91689707D01*
X106160292Y-91578213D01*
X106160288Y-91578210D01*
X106074897Y-91521153D01*
X110999500Y-91521153D01*
X110999500Y-91678846D01*
X111030261Y-91833489D01*
X111030264Y-91833501D01*
X111090602Y-91979172D01*
X111090609Y-91979185D01*
X111178210Y-92110288D01*
X111178213Y-92110292D01*
X111289707Y-92221786D01*
X111289711Y-92221789D01*
X111420814Y-92309390D01*
X111420827Y-92309397D01*
X111566498Y-92369735D01*
X111566503Y-92369737D01*
X111711093Y-92398498D01*
X111721153Y-92400499D01*
X111721156Y-92400500D01*
X111721158Y-92400500D01*
X111878844Y-92400500D01*
X111878845Y-92400499D01*
X112033497Y-92369737D01*
X112179179Y-92309394D01*
X112310289Y-92221789D01*
X112421789Y-92110289D01*
X112509394Y-91979179D01*
X112569737Y-91833497D01*
X112600500Y-91678842D01*
X112600500Y-91521158D01*
X112600500Y-91521155D01*
X112600499Y-91521153D01*
X112590679Y-91471786D01*
X112569737Y-91366503D01*
X112535352Y-91283489D01*
X112509397Y-91220827D01*
X112509390Y-91220814D01*
X112421789Y-91089711D01*
X112421786Y-91089707D01*
X112310292Y-90978213D01*
X112310288Y-90978210D01*
X112179185Y-90890609D01*
X112179172Y-90890602D01*
X112033501Y-90830264D01*
X112033489Y-90830261D01*
X111878845Y-90799500D01*
X111878842Y-90799500D01*
X111721158Y-90799500D01*
X111721155Y-90799500D01*
X111566510Y-90830261D01*
X111566498Y-90830264D01*
X111420827Y-90890602D01*
X111420814Y-90890609D01*
X111289711Y-90978210D01*
X111289707Y-90978213D01*
X111178213Y-91089707D01*
X111178210Y-91089711D01*
X111090609Y-91220814D01*
X111090602Y-91220827D01*
X111030264Y-91366498D01*
X111030261Y-91366510D01*
X110999500Y-91521153D01*
X106074897Y-91521153D01*
X106029185Y-91490609D01*
X106029172Y-91490602D01*
X105883501Y-91430264D01*
X105883489Y-91430261D01*
X105728845Y-91399500D01*
X105728842Y-91399500D01*
X105571158Y-91399500D01*
X105571155Y-91399500D01*
X105416510Y-91430261D01*
X105416498Y-91430264D01*
X105270827Y-91490602D01*
X105270814Y-91490609D01*
X105139711Y-91578210D01*
X105139707Y-91578213D01*
X105028213Y-91689707D01*
X105028210Y-91689711D01*
X104940609Y-91820814D01*
X104940602Y-91820827D01*
X104880264Y-91966498D01*
X104880261Y-91966510D01*
X104849500Y-92121153D01*
X96407138Y-92121153D01*
X96408261Y-92115506D01*
X96413161Y-92090875D01*
X96413161Y-92090874D01*
X96425500Y-92028844D01*
X96425500Y-91871155D01*
X96425499Y-91871153D01*
X96421391Y-91850499D01*
X96394737Y-91716503D01*
X96391791Y-91709390D01*
X96334397Y-91570827D01*
X96334390Y-91570814D01*
X96246789Y-91439711D01*
X96246786Y-91439707D01*
X96135292Y-91328213D01*
X96135288Y-91328210D01*
X96004185Y-91240609D01*
X96004172Y-91240602D01*
X95858501Y-91180264D01*
X95858489Y-91180261D01*
X95703845Y-91149500D01*
X95703842Y-91149500D01*
X95546158Y-91149500D01*
X95546155Y-91149500D01*
X95391510Y-91180261D01*
X95391498Y-91180264D01*
X95245827Y-91240602D01*
X95245814Y-91240609D01*
X95114711Y-91328210D01*
X95114707Y-91328213D01*
X95003213Y-91439707D01*
X95003210Y-91439711D01*
X94915609Y-91570814D01*
X94915602Y-91570827D01*
X94855264Y-91716498D01*
X94855261Y-91716510D01*
X94824500Y-91871153D01*
X48465598Y-91871153D01*
X48434397Y-91795827D01*
X48434390Y-91795814D01*
X48346789Y-91664711D01*
X48346786Y-91664707D01*
X48235292Y-91553213D01*
X48235288Y-91553210D01*
X48104185Y-91465609D01*
X48104172Y-91465602D01*
X47958501Y-91405264D01*
X47958489Y-91405261D01*
X47803845Y-91374500D01*
X47803842Y-91374500D01*
X47646158Y-91374500D01*
X47646155Y-91374500D01*
X47491510Y-91405261D01*
X47491498Y-91405264D01*
X47345827Y-91465602D01*
X47345814Y-91465609D01*
X47214711Y-91553210D01*
X47214707Y-91553213D01*
X47103213Y-91664707D01*
X47103210Y-91664711D01*
X47015609Y-91795814D01*
X47015602Y-91795827D01*
X46955264Y-91941498D01*
X46955261Y-91941510D01*
X46924500Y-92096153D01*
X35497546Y-92096153D01*
X35543656Y-92067712D01*
X35667712Y-91943656D01*
X35759814Y-91794334D01*
X35814999Y-91627797D01*
X35825500Y-91525009D01*
X35825499Y-89871153D01*
X47374500Y-89871153D01*
X47374500Y-90028846D01*
X47405261Y-90183489D01*
X47405264Y-90183501D01*
X47465602Y-90329172D01*
X47465609Y-90329185D01*
X47553210Y-90460288D01*
X47553213Y-90460292D01*
X47664707Y-90571786D01*
X47664711Y-90571789D01*
X47795814Y-90659390D01*
X47795827Y-90659397D01*
X47941498Y-90719735D01*
X47941503Y-90719737D01*
X48096153Y-90750499D01*
X48096156Y-90750500D01*
X48096158Y-90750500D01*
X48253844Y-90750500D01*
X48253845Y-90750499D01*
X48408497Y-90719737D01*
X48526592Y-90670821D01*
X48554172Y-90659397D01*
X48554172Y-90659396D01*
X48554179Y-90659394D01*
X48685289Y-90571789D01*
X48685925Y-90571153D01*
X72424500Y-90571153D01*
X72424500Y-90728846D01*
X72455261Y-90883489D01*
X72455264Y-90883501D01*
X72515602Y-91029172D01*
X72515609Y-91029185D01*
X72603210Y-91160288D01*
X72603213Y-91160292D01*
X72714707Y-91271786D01*
X72714711Y-91271789D01*
X72845814Y-91359390D01*
X72845827Y-91359397D01*
X72991498Y-91419735D01*
X72991503Y-91419737D01*
X73146153Y-91450499D01*
X73146156Y-91450500D01*
X73146158Y-91450500D01*
X73303844Y-91450500D01*
X73303845Y-91450499D01*
X73458497Y-91419737D01*
X73604179Y-91359394D01*
X73735289Y-91271789D01*
X73846789Y-91160289D01*
X73934394Y-91029179D01*
X73994737Y-90883497D01*
X74015486Y-90779185D01*
X74017084Y-90771153D01*
X82499500Y-90771153D01*
X82499500Y-90928846D01*
X82530261Y-91083489D01*
X82530264Y-91083501D01*
X82590602Y-91229172D01*
X82590609Y-91229185D01*
X82678210Y-91360288D01*
X82678213Y-91360292D01*
X82789707Y-91471786D01*
X82789711Y-91471789D01*
X82920814Y-91559390D01*
X82920827Y-91559397D01*
X82966254Y-91578213D01*
X83066503Y-91619737D01*
X83221153Y-91650499D01*
X83221156Y-91650500D01*
X83221158Y-91650500D01*
X83378844Y-91650500D01*
X83378845Y-91650499D01*
X83533497Y-91619737D01*
X83651592Y-91570821D01*
X83679172Y-91559397D01*
X83679172Y-91559396D01*
X83679179Y-91559394D01*
X83810289Y-91471789D01*
X83921789Y-91360289D01*
X84009394Y-91229179D01*
X84012854Y-91220827D01*
X84029655Y-91180264D01*
X84069737Y-91083497D01*
X84084715Y-91008194D01*
X84092084Y-90971153D01*
X89424500Y-90971153D01*
X89424500Y-91128846D01*
X89455261Y-91283489D01*
X89455264Y-91283501D01*
X89515602Y-91429172D01*
X89515609Y-91429185D01*
X89603210Y-91560288D01*
X89603213Y-91560292D01*
X89714707Y-91671786D01*
X89714711Y-91671789D01*
X89845814Y-91759390D01*
X89845827Y-91759397D01*
X89945060Y-91800500D01*
X89991503Y-91819737D01*
X90146153Y-91850499D01*
X90146156Y-91850500D01*
X90146158Y-91850500D01*
X90303844Y-91850500D01*
X90303845Y-91850499D01*
X90458497Y-91819737D01*
X90604179Y-91759394D01*
X90735289Y-91671789D01*
X90779283Y-91627795D01*
X90831069Y-91576010D01*
X90892392Y-91542525D01*
X90962084Y-91547509D01*
X91006431Y-91576010D01*
X91052207Y-91621786D01*
X91052211Y-91621789D01*
X91183314Y-91709390D01*
X91183327Y-91709397D01*
X91328998Y-91769735D01*
X91329003Y-91769737D01*
X91483653Y-91800499D01*
X91483656Y-91800500D01*
X91483658Y-91800500D01*
X91641344Y-91800500D01*
X91641345Y-91800499D01*
X91795997Y-91769737D01*
X91941679Y-91709394D01*
X92072789Y-91621789D01*
X92184289Y-91510289D01*
X92271894Y-91379179D01*
X92332237Y-91233497D01*
X92363000Y-91078842D01*
X92363000Y-90921158D01*
X92363000Y-90921155D01*
X92362999Y-90921153D01*
X92356922Y-90890602D01*
X92332237Y-90766503D01*
X92332235Y-90766498D01*
X92271897Y-90620827D01*
X92271890Y-90620814D01*
X92184289Y-90489711D01*
X92184286Y-90489707D01*
X92072792Y-90378213D01*
X92072788Y-90378210D01*
X91941685Y-90290609D01*
X91941672Y-90290602D01*
X91796001Y-90230264D01*
X91795989Y-90230261D01*
X91641345Y-90199500D01*
X91641342Y-90199500D01*
X91483658Y-90199500D01*
X91483655Y-90199500D01*
X91329010Y-90230261D01*
X91328998Y-90230264D01*
X91183327Y-90290602D01*
X91183314Y-90290609D01*
X91052211Y-90378210D01*
X91052207Y-90378213D01*
X90956431Y-90473990D01*
X90895108Y-90507475D01*
X90825416Y-90502491D01*
X90781069Y-90473990D01*
X90735292Y-90428213D01*
X90735288Y-90428210D01*
X90604185Y-90340609D01*
X90604172Y-90340602D01*
X90458501Y-90280264D01*
X90458489Y-90280261D01*
X90303845Y-90249500D01*
X90303842Y-90249500D01*
X90146158Y-90249500D01*
X90146155Y-90249500D01*
X89991510Y-90280261D01*
X89991498Y-90280264D01*
X89845827Y-90340602D01*
X89845814Y-90340609D01*
X89714711Y-90428210D01*
X89714707Y-90428213D01*
X89603213Y-90539707D01*
X89603210Y-90539711D01*
X89515609Y-90670814D01*
X89515602Y-90670827D01*
X89455264Y-90816498D01*
X89455261Y-90816510D01*
X89424500Y-90971153D01*
X84092084Y-90971153D01*
X84098107Y-90940875D01*
X84098107Y-90940874D01*
X84100500Y-90928844D01*
X84100500Y-90771155D01*
X84100499Y-90771153D01*
X84094476Y-90740874D01*
X84069737Y-90616503D01*
X84050955Y-90571158D01*
X84009397Y-90470827D01*
X84009390Y-90470814D01*
X83921789Y-90339711D01*
X83921786Y-90339707D01*
X83810292Y-90228213D01*
X83810288Y-90228210D01*
X83679185Y-90140609D01*
X83679172Y-90140602D01*
X83533501Y-90080264D01*
X83533489Y-90080261D01*
X83378845Y-90049500D01*
X83378842Y-90049500D01*
X83221158Y-90049500D01*
X83221155Y-90049500D01*
X83066510Y-90080261D01*
X83066498Y-90080264D01*
X82920827Y-90140602D01*
X82920814Y-90140609D01*
X82789711Y-90228210D01*
X82789707Y-90228213D01*
X82678213Y-90339707D01*
X82678210Y-90339711D01*
X82590609Y-90470814D01*
X82590602Y-90470827D01*
X82530264Y-90616498D01*
X82530261Y-90616510D01*
X82499500Y-90771153D01*
X74017084Y-90771153D01*
X74023107Y-90740875D01*
X74023107Y-90740874D01*
X74025500Y-90728844D01*
X74025500Y-90571155D01*
X74025499Y-90571153D01*
X74019244Y-90539707D01*
X73994737Y-90416503D01*
X73962929Y-90339711D01*
X73934397Y-90270827D01*
X73934390Y-90270814D01*
X73846789Y-90139711D01*
X73846786Y-90139707D01*
X73735292Y-90028213D01*
X73735288Y-90028210D01*
X73645429Y-89968168D01*
X73604185Y-89940609D01*
X73604172Y-89940602D01*
X73458501Y-89880264D01*
X73458489Y-89880261D01*
X73412701Y-89871153D01*
X95762000Y-89871153D01*
X95762000Y-90028846D01*
X95792761Y-90183489D01*
X95792764Y-90183501D01*
X95853102Y-90329172D01*
X95853109Y-90329185D01*
X95940710Y-90460288D01*
X95940713Y-90460292D01*
X96052207Y-90571786D01*
X96052211Y-90571789D01*
X96183314Y-90659390D01*
X96183327Y-90659397D01*
X96328998Y-90719735D01*
X96329003Y-90719737D01*
X96483653Y-90750499D01*
X96483656Y-90750500D01*
X96483658Y-90750500D01*
X96641344Y-90750500D01*
X96641345Y-90750499D01*
X96795997Y-90719737D01*
X96914092Y-90670821D01*
X96941672Y-90659397D01*
X96941672Y-90659396D01*
X96941679Y-90659394D01*
X97072789Y-90571789D01*
X97184289Y-90460289D01*
X97271894Y-90329179D01*
X97275219Y-90321153D01*
X97292155Y-90280264D01*
X97332237Y-90183497D01*
X97363000Y-90028842D01*
X97363000Y-89871158D01*
X97363000Y-89871155D01*
X97362999Y-89871153D01*
X97344512Y-89778213D01*
X97332237Y-89716503D01*
X97332235Y-89716498D01*
X97271897Y-89570827D01*
X97271890Y-89570814D01*
X97184289Y-89439711D01*
X97184286Y-89439707D01*
X97072792Y-89328213D01*
X97072788Y-89328210D01*
X96941685Y-89240609D01*
X96941672Y-89240602D01*
X96796001Y-89180264D01*
X96795989Y-89180261D01*
X96641345Y-89149500D01*
X96641342Y-89149500D01*
X96483658Y-89149500D01*
X96483655Y-89149500D01*
X96329010Y-89180261D01*
X96328998Y-89180264D01*
X96183327Y-89240602D01*
X96183314Y-89240609D01*
X96052211Y-89328210D01*
X96052207Y-89328213D01*
X95940713Y-89439707D01*
X95940710Y-89439711D01*
X95853109Y-89570814D01*
X95853102Y-89570827D01*
X95792764Y-89716498D01*
X95792761Y-89716510D01*
X95762000Y-89871153D01*
X73412701Y-89871153D01*
X73303845Y-89849500D01*
X73303842Y-89849500D01*
X73146158Y-89849500D01*
X73146155Y-89849500D01*
X72991510Y-89880261D01*
X72991498Y-89880264D01*
X72845827Y-89940602D01*
X72845814Y-89940609D01*
X72714711Y-90028210D01*
X72714707Y-90028213D01*
X72603213Y-90139707D01*
X72603210Y-90139711D01*
X72515609Y-90270814D01*
X72515602Y-90270827D01*
X72455264Y-90416498D01*
X72455261Y-90416510D01*
X72424500Y-90571153D01*
X48685925Y-90571153D01*
X48717371Y-90539707D01*
X48779694Y-90477385D01*
X48796786Y-90460292D01*
X48796789Y-90460289D01*
X48884394Y-90329179D01*
X48887719Y-90321153D01*
X48904655Y-90280264D01*
X48944737Y-90183497D01*
X48975500Y-90028842D01*
X48975500Y-89871158D01*
X48975500Y-89871155D01*
X48975499Y-89871153D01*
X48957012Y-89778213D01*
X48944737Y-89716503D01*
X48944735Y-89716498D01*
X48884397Y-89570827D01*
X48884390Y-89570814D01*
X48796789Y-89439711D01*
X48796786Y-89439707D01*
X48685292Y-89328213D01*
X48685288Y-89328210D01*
X48554185Y-89240609D01*
X48554172Y-89240602D01*
X48408501Y-89180264D01*
X48408489Y-89180261D01*
X48253845Y-89149500D01*
X48253842Y-89149500D01*
X48096158Y-89149500D01*
X48096155Y-89149500D01*
X47941510Y-89180261D01*
X47941498Y-89180264D01*
X47795827Y-89240602D01*
X47795814Y-89240609D01*
X47664711Y-89328210D01*
X47664707Y-89328213D01*
X47553213Y-89439707D01*
X47553210Y-89439711D01*
X47465609Y-89570814D01*
X47465602Y-89570827D01*
X47405264Y-89716498D01*
X47405261Y-89716510D01*
X47374500Y-89871153D01*
X35825499Y-89871153D01*
X35825499Y-89324992D01*
X35821259Y-89283489D01*
X35814999Y-89222203D01*
X35814998Y-89222200D01*
X35801101Y-89180261D01*
X35759814Y-89055666D01*
X35667712Y-88906344D01*
X35543656Y-88782288D01*
X35394334Y-88690186D01*
X35227797Y-88635001D01*
X35227795Y-88635000D01*
X35125010Y-88624500D01*
X32924998Y-88624500D01*
X32924981Y-88624501D01*
X32822203Y-88635000D01*
X32822200Y-88635001D01*
X32655668Y-88690185D01*
X32655663Y-88690187D01*
X32506342Y-88782289D01*
X32382289Y-88906342D01*
X32290187Y-89055663D01*
X32290185Y-89055668D01*
X32262349Y-89139670D01*
X32235001Y-89222203D01*
X32235001Y-89222204D01*
X32235000Y-89222204D01*
X32224500Y-89324983D01*
X27875500Y-89324983D01*
X27875500Y-87371153D01*
X49574500Y-87371153D01*
X49574500Y-87528846D01*
X49605261Y-87683489D01*
X49605264Y-87683501D01*
X49665602Y-87829172D01*
X49665609Y-87829185D01*
X49753210Y-87960288D01*
X49753213Y-87960292D01*
X49864707Y-88071786D01*
X49864711Y-88071789D01*
X49995814Y-88159390D01*
X49995827Y-88159397D01*
X50122759Y-88211973D01*
X50141503Y-88219737D01*
X50291131Y-88249500D01*
X50296153Y-88250499D01*
X50296156Y-88250500D01*
X50296158Y-88250500D01*
X50453844Y-88250500D01*
X50453845Y-88250499D01*
X50608497Y-88219737D01*
X50725790Y-88171153D01*
X66749500Y-88171153D01*
X66749500Y-88328846D01*
X66780261Y-88483489D01*
X66780264Y-88483501D01*
X66840602Y-88629172D01*
X66840609Y-88629185D01*
X66928210Y-88760288D01*
X66928213Y-88760292D01*
X67039707Y-88871786D01*
X67039711Y-88871789D01*
X67170814Y-88959390D01*
X67170827Y-88959397D01*
X67316498Y-89019735D01*
X67316503Y-89019737D01*
X67471153Y-89050499D01*
X67471156Y-89050500D01*
X67471158Y-89050500D01*
X67628844Y-89050500D01*
X67628845Y-89050499D01*
X67783497Y-89019737D01*
X67900790Y-88971153D01*
X98499500Y-88971153D01*
X98499500Y-89128846D01*
X98530261Y-89283489D01*
X98530264Y-89283501D01*
X98590602Y-89429172D01*
X98590609Y-89429185D01*
X98678210Y-89560288D01*
X98678213Y-89560292D01*
X98789707Y-89671786D01*
X98789711Y-89671789D01*
X98920814Y-89759390D01*
X98920827Y-89759397D01*
X98966254Y-89778213D01*
X99066503Y-89819737D01*
X99216131Y-89849500D01*
X99221153Y-89850499D01*
X99221156Y-89850500D01*
X99221158Y-89850500D01*
X99378844Y-89850500D01*
X99378845Y-89850499D01*
X99533497Y-89819737D01*
X99679179Y-89759394D01*
X99810289Y-89671789D01*
X99921789Y-89560289D01*
X100009394Y-89429179D01*
X100069737Y-89283497D01*
X100100500Y-89128842D01*
X100100500Y-88971158D01*
X100100500Y-88971155D01*
X100100499Y-88971153D01*
X100098159Y-88959390D01*
X100069737Y-88816503D01*
X100060721Y-88794737D01*
X100050952Y-88771153D01*
X101949500Y-88771153D01*
X101949500Y-88928846D01*
X101980261Y-89083489D01*
X101980264Y-89083501D01*
X102040602Y-89229172D01*
X102040609Y-89229185D01*
X102128210Y-89360288D01*
X102128213Y-89360292D01*
X102239707Y-89471786D01*
X102239711Y-89471789D01*
X102370814Y-89559390D01*
X102370827Y-89559397D01*
X102451847Y-89592956D01*
X102516503Y-89619737D01*
X102666508Y-89649575D01*
X102671153Y-89650499D01*
X102671156Y-89650500D01*
X102671158Y-89650500D01*
X102828844Y-89650500D01*
X102828845Y-89650499D01*
X102983497Y-89619737D01*
X103030121Y-89600424D01*
X103099588Y-89592956D01*
X103162067Y-89624231D01*
X103197720Y-89684319D01*
X103195227Y-89754144D01*
X103165254Y-89802667D01*
X103078210Y-89889711D01*
X102990609Y-90020814D01*
X102990602Y-90020827D01*
X102930264Y-90166498D01*
X102930261Y-90166510D01*
X102899500Y-90321153D01*
X102899500Y-90478846D01*
X102930261Y-90633489D01*
X102930264Y-90633501D01*
X102990602Y-90779172D01*
X102990609Y-90779185D01*
X103078210Y-90910288D01*
X103078213Y-90910292D01*
X103189707Y-91021786D01*
X103189711Y-91021789D01*
X103320814Y-91109390D01*
X103320827Y-91109397D01*
X103466498Y-91169735D01*
X103466503Y-91169737D01*
X103621153Y-91200499D01*
X103621156Y-91200500D01*
X103621158Y-91200500D01*
X103778844Y-91200500D01*
X103778845Y-91200499D01*
X103933497Y-91169737D01*
X104079179Y-91109394D01*
X104210289Y-91021789D01*
X104321789Y-90910289D01*
X104409394Y-90779179D01*
X104412719Y-90771153D01*
X104434016Y-90719735D01*
X104469737Y-90633497D01*
X104500500Y-90478842D01*
X104500500Y-90321158D01*
X104500500Y-90321155D01*
X104500499Y-90321153D01*
X104482012Y-90228213D01*
X104469737Y-90166503D01*
X104469735Y-90166498D01*
X104409397Y-90020827D01*
X104409390Y-90020814D01*
X104321789Y-89889711D01*
X104321786Y-89889707D01*
X104210292Y-89778213D01*
X104210288Y-89778210D01*
X104079185Y-89690609D01*
X104079172Y-89690602D01*
X103933501Y-89630264D01*
X103933489Y-89630261D01*
X103778845Y-89599500D01*
X103778842Y-89599500D01*
X103621158Y-89599500D01*
X103621155Y-89599500D01*
X103466510Y-89630261D01*
X103466502Y-89630263D01*
X103419878Y-89649575D01*
X103350408Y-89657042D01*
X103287930Y-89625766D01*
X103252278Y-89565677D01*
X103254773Y-89495852D01*
X103284744Y-89447333D01*
X103371789Y-89360289D01*
X103459394Y-89229179D01*
X103519737Y-89083497D01*
X103550500Y-88928842D01*
X103550500Y-88771158D01*
X103550500Y-88771155D01*
X103550499Y-88771153D01*
X103534394Y-88690187D01*
X103519737Y-88616503D01*
X103519735Y-88616498D01*
X103459397Y-88470827D01*
X103459390Y-88470814D01*
X103371789Y-88339711D01*
X103371786Y-88339707D01*
X103260292Y-88228213D01*
X103260288Y-88228210D01*
X103129185Y-88140609D01*
X103129172Y-88140602D01*
X102983501Y-88080264D01*
X102983489Y-88080261D01*
X102828845Y-88049500D01*
X102828842Y-88049500D01*
X102671158Y-88049500D01*
X102671155Y-88049500D01*
X102516510Y-88080261D01*
X102516498Y-88080264D01*
X102370827Y-88140602D01*
X102370814Y-88140609D01*
X102239711Y-88228210D01*
X102239707Y-88228213D01*
X102128213Y-88339707D01*
X102128210Y-88339711D01*
X102040609Y-88470814D01*
X102040602Y-88470827D01*
X101980264Y-88616498D01*
X101980261Y-88616510D01*
X101949500Y-88771153D01*
X100050952Y-88771153D01*
X100009397Y-88670827D01*
X100009390Y-88670814D01*
X99921789Y-88539711D01*
X99921786Y-88539707D01*
X99810292Y-88428213D01*
X99810288Y-88428210D01*
X99679185Y-88340609D01*
X99679172Y-88340602D01*
X99533501Y-88280264D01*
X99533489Y-88280261D01*
X99378845Y-88249500D01*
X99378842Y-88249500D01*
X99221158Y-88249500D01*
X99221155Y-88249500D01*
X99066510Y-88280261D01*
X99066498Y-88280264D01*
X98920827Y-88340602D01*
X98920814Y-88340609D01*
X98789711Y-88428210D01*
X98789707Y-88428213D01*
X98678213Y-88539707D01*
X98678210Y-88539711D01*
X98590609Y-88670814D01*
X98590602Y-88670827D01*
X98530264Y-88816498D01*
X98530261Y-88816510D01*
X98499500Y-88971153D01*
X67900790Y-88971153D01*
X67929179Y-88959394D01*
X68060289Y-88871789D01*
X68171789Y-88760289D01*
X68259394Y-88629179D01*
X68319737Y-88483497D01*
X68350500Y-88328842D01*
X68350500Y-88171158D01*
X68350500Y-88171155D01*
X68350499Y-88171153D01*
X68330734Y-88071788D01*
X68319737Y-88016503D01*
X68290597Y-87946153D01*
X75999500Y-87946153D01*
X75999500Y-88103846D01*
X76030261Y-88258489D01*
X76030264Y-88258501D01*
X76090602Y-88404172D01*
X76090609Y-88404185D01*
X76178210Y-88535288D01*
X76178213Y-88535292D01*
X76289707Y-88646786D01*
X76289711Y-88646789D01*
X76420814Y-88734390D01*
X76420827Y-88734397D01*
X76566498Y-88794735D01*
X76566503Y-88794737D01*
X76675963Y-88816510D01*
X76721153Y-88825499D01*
X76721156Y-88825500D01*
X76721158Y-88825500D01*
X76878844Y-88825500D01*
X76878845Y-88825499D01*
X77033497Y-88794737D01*
X77179179Y-88734394D01*
X77310289Y-88646789D01*
X77421789Y-88535289D01*
X77509394Y-88404179D01*
X77569737Y-88258497D01*
X77600500Y-88103842D01*
X77600500Y-87946158D01*
X77600500Y-87946155D01*
X77600499Y-87946153D01*
X77574264Y-87814257D01*
X77570662Y-87796153D01*
X77999500Y-87796153D01*
X77999500Y-87953846D01*
X78030261Y-88108489D01*
X78030264Y-88108501D01*
X78090602Y-88254172D01*
X78090609Y-88254185D01*
X78178210Y-88385288D01*
X78178213Y-88385292D01*
X78289707Y-88496786D01*
X78289711Y-88496789D01*
X78420814Y-88584390D01*
X78420827Y-88584397D01*
X78542998Y-88635001D01*
X78566503Y-88644737D01*
X78721153Y-88675499D01*
X78721156Y-88675500D01*
X78721158Y-88675500D01*
X78878844Y-88675500D01*
X78878845Y-88675499D01*
X79033497Y-88644737D01*
X79179179Y-88584394D01*
X79310289Y-88496789D01*
X79421789Y-88385289D01*
X79509394Y-88254179D01*
X79569737Y-88108497D01*
X79600500Y-87953842D01*
X79600500Y-87871153D01*
X112449500Y-87871153D01*
X112449500Y-88028846D01*
X112480261Y-88183489D01*
X112480264Y-88183501D01*
X112540602Y-88329172D01*
X112540609Y-88329185D01*
X112628210Y-88460288D01*
X112628213Y-88460292D01*
X112739707Y-88571786D01*
X112739711Y-88571789D01*
X112870814Y-88659390D01*
X112870827Y-88659397D01*
X112945162Y-88690187D01*
X113016503Y-88719737D01*
X113171153Y-88750499D01*
X113171156Y-88750500D01*
X113171158Y-88750500D01*
X113328844Y-88750500D01*
X113328845Y-88750499D01*
X113483497Y-88719737D01*
X113601592Y-88670821D01*
X113629172Y-88659397D01*
X113629172Y-88659396D01*
X113629179Y-88659394D01*
X113760289Y-88571789D01*
X113871789Y-88460289D01*
X113959394Y-88329179D01*
X114019737Y-88183497D01*
X114050500Y-88028842D01*
X114050500Y-87871158D01*
X114050500Y-87871155D01*
X114050499Y-87871153D01*
X114042148Y-87829172D01*
X114019737Y-87716503D01*
X114000955Y-87671158D01*
X113959397Y-87570827D01*
X113959390Y-87570814D01*
X113871789Y-87439711D01*
X113871786Y-87439707D01*
X113760292Y-87328213D01*
X113760288Y-87328210D01*
X113629185Y-87240609D01*
X113629172Y-87240602D01*
X113483501Y-87180264D01*
X113483489Y-87180261D01*
X113328845Y-87149500D01*
X113328842Y-87149500D01*
X113171158Y-87149500D01*
X113171155Y-87149500D01*
X113016510Y-87180261D01*
X113016498Y-87180264D01*
X112870827Y-87240602D01*
X112870814Y-87240609D01*
X112739711Y-87328210D01*
X112739707Y-87328213D01*
X112628213Y-87439707D01*
X112628210Y-87439711D01*
X112540609Y-87570814D01*
X112540602Y-87570827D01*
X112480264Y-87716498D01*
X112480261Y-87716510D01*
X112449500Y-87871153D01*
X79600500Y-87871153D01*
X79600500Y-87796158D01*
X79600500Y-87796155D01*
X79600499Y-87796153D01*
X79584657Y-87716510D01*
X79569737Y-87641503D01*
X79569477Y-87640875D01*
X79509397Y-87495827D01*
X79509390Y-87495814D01*
X79421789Y-87364711D01*
X79421786Y-87364707D01*
X79310292Y-87253213D01*
X79310288Y-87253210D01*
X79179185Y-87165609D01*
X79179172Y-87165602D01*
X79033501Y-87105264D01*
X79033489Y-87105261D01*
X78878845Y-87074500D01*
X78878842Y-87074500D01*
X78721158Y-87074500D01*
X78721155Y-87074500D01*
X78566510Y-87105261D01*
X78566498Y-87105264D01*
X78420827Y-87165602D01*
X78420814Y-87165609D01*
X78289711Y-87253210D01*
X78289707Y-87253213D01*
X78178213Y-87364707D01*
X78178210Y-87364711D01*
X78090609Y-87495814D01*
X78090602Y-87495827D01*
X78030264Y-87641498D01*
X78030261Y-87641510D01*
X77999500Y-87796153D01*
X77570662Y-87796153D01*
X77569738Y-87791507D01*
X77569735Y-87791498D01*
X77509397Y-87645827D01*
X77509390Y-87645814D01*
X77421789Y-87514711D01*
X77421786Y-87514707D01*
X77310292Y-87403213D01*
X77310288Y-87403210D01*
X77179185Y-87315609D01*
X77179172Y-87315602D01*
X77033501Y-87255264D01*
X77033489Y-87255261D01*
X76878845Y-87224500D01*
X76878842Y-87224500D01*
X76721158Y-87224500D01*
X76721155Y-87224500D01*
X76566510Y-87255261D01*
X76566498Y-87255264D01*
X76420827Y-87315602D01*
X76420814Y-87315609D01*
X76289711Y-87403210D01*
X76289707Y-87403213D01*
X76178213Y-87514707D01*
X76178210Y-87514711D01*
X76090609Y-87645814D01*
X76090602Y-87645827D01*
X76030264Y-87791498D01*
X76030261Y-87791510D01*
X75999500Y-87946153D01*
X68290597Y-87946153D01*
X68279924Y-87920386D01*
X68259397Y-87870827D01*
X68259390Y-87870814D01*
X68171789Y-87739711D01*
X68171786Y-87739707D01*
X68060292Y-87628213D01*
X68060288Y-87628210D01*
X67929185Y-87540609D01*
X67929172Y-87540602D01*
X67783501Y-87480264D01*
X67783489Y-87480261D01*
X67628845Y-87449500D01*
X67628842Y-87449500D01*
X67471158Y-87449500D01*
X67471155Y-87449500D01*
X67316510Y-87480261D01*
X67316498Y-87480264D01*
X67170827Y-87540602D01*
X67170814Y-87540609D01*
X67039711Y-87628210D01*
X67039707Y-87628213D01*
X66928213Y-87739707D01*
X66928210Y-87739711D01*
X66840609Y-87870814D01*
X66840602Y-87870827D01*
X66780264Y-88016498D01*
X66780261Y-88016510D01*
X66749500Y-88171153D01*
X50725790Y-88171153D01*
X50754179Y-88159394D01*
X50885289Y-88071789D01*
X50996789Y-87960289D01*
X51084394Y-87829179D01*
X51144737Y-87683497D01*
X51175500Y-87528842D01*
X51175500Y-87371158D01*
X51175500Y-87371155D01*
X51175499Y-87371153D01*
X51164938Y-87318060D01*
X51144737Y-87216503D01*
X51132496Y-87186951D01*
X51084397Y-87070827D01*
X51084390Y-87070814D01*
X50996789Y-86939711D01*
X50996786Y-86939707D01*
X50885292Y-86828213D01*
X50885288Y-86828210D01*
X50754185Y-86740609D01*
X50754172Y-86740602D01*
X50608501Y-86680264D01*
X50608489Y-86680261D01*
X50453845Y-86649500D01*
X50453842Y-86649500D01*
X50296158Y-86649500D01*
X50296155Y-86649500D01*
X50141510Y-86680261D01*
X50141498Y-86680264D01*
X49995827Y-86740602D01*
X49995814Y-86740609D01*
X49864711Y-86828210D01*
X49864707Y-86828213D01*
X49753213Y-86939707D01*
X49753210Y-86939711D01*
X49665609Y-87070814D01*
X49665602Y-87070827D01*
X49605264Y-87216498D01*
X49605261Y-87216510D01*
X49574500Y-87371153D01*
X27875500Y-87371153D01*
X27875500Y-86021153D01*
X79874500Y-86021153D01*
X79874500Y-86178846D01*
X79905261Y-86333489D01*
X79905264Y-86333501D01*
X79965602Y-86479172D01*
X79965609Y-86479185D01*
X80053210Y-86610288D01*
X80053213Y-86610292D01*
X80164707Y-86721786D01*
X80164711Y-86721789D01*
X80295814Y-86809390D01*
X80295827Y-86809397D01*
X80441498Y-86869735D01*
X80441503Y-86869737D01*
X80596153Y-86900499D01*
X80596156Y-86900500D01*
X80596158Y-86900500D01*
X80753844Y-86900500D01*
X80753845Y-86900499D01*
X80908497Y-86869737D01*
X81054179Y-86809394D01*
X81185289Y-86721789D01*
X81228721Y-86678356D01*
X81290043Y-86644871D01*
X81340593Y-86644420D01*
X81371158Y-86650500D01*
X81528844Y-86650500D01*
X81528845Y-86650499D01*
X81683497Y-86619737D01*
X81753049Y-86590927D01*
X81822516Y-86583459D01*
X81884996Y-86614734D01*
X81920648Y-86674823D01*
X81924500Y-86705489D01*
X81924500Y-86803846D01*
X81955261Y-86958489D01*
X81955264Y-86958501D01*
X82015602Y-87104172D01*
X82015609Y-87104185D01*
X82103210Y-87235288D01*
X82103213Y-87235292D01*
X82214707Y-87346786D01*
X82214711Y-87346789D01*
X82345814Y-87434390D01*
X82345827Y-87434397D01*
X82491498Y-87494735D01*
X82491503Y-87494737D01*
X82604276Y-87517169D01*
X82646153Y-87525499D01*
X82646156Y-87525500D01*
X82646158Y-87525500D01*
X82803844Y-87525500D01*
X82803845Y-87525499D01*
X82958497Y-87494737D01*
X83104179Y-87434394D01*
X83235289Y-87346789D01*
X83346789Y-87235289D01*
X83434394Y-87104179D01*
X83494737Y-86958497D01*
X83525500Y-86803842D01*
X83525500Y-86646158D01*
X83525500Y-86646155D01*
X83525499Y-86646153D01*
X83520245Y-86619738D01*
X83494737Y-86491503D01*
X83470712Y-86433501D01*
X83434397Y-86345827D01*
X83434390Y-86345814D01*
X83346789Y-86214711D01*
X83346786Y-86214707D01*
X83235292Y-86103213D01*
X83235288Y-86103210D01*
X83104185Y-86015609D01*
X83104172Y-86015602D01*
X82958501Y-85955264D01*
X82958491Y-85955261D01*
X82865092Y-85936683D01*
X82865091Y-85936682D01*
X82803845Y-85924500D01*
X82803842Y-85924500D01*
X82646158Y-85924500D01*
X82646155Y-85924500D01*
X82491510Y-85955261D01*
X82491498Y-85955264D01*
X82421952Y-85984071D01*
X82352482Y-85991540D01*
X82290003Y-85960264D01*
X82254352Y-85900175D01*
X82250500Y-85869510D01*
X82250500Y-85821153D01*
X91549500Y-85821153D01*
X91549500Y-85978846D01*
X91580261Y-86133489D01*
X91580264Y-86133501D01*
X91640602Y-86279172D01*
X91640609Y-86279185D01*
X91728210Y-86410288D01*
X91728213Y-86410292D01*
X91839707Y-86521786D01*
X91839711Y-86521789D01*
X91970814Y-86609390D01*
X91970827Y-86609397D01*
X92070060Y-86650500D01*
X92116503Y-86669737D01*
X92227089Y-86691734D01*
X92271153Y-86700499D01*
X92271156Y-86700500D01*
X92271158Y-86700500D01*
X92428844Y-86700500D01*
X92428845Y-86700499D01*
X92583497Y-86669737D01*
X92729179Y-86609394D01*
X92860289Y-86521789D01*
X92971789Y-86410289D01*
X93059394Y-86279179D01*
X93119737Y-86133497D01*
X93150500Y-85978842D01*
X93150500Y-85821158D01*
X93150500Y-85821155D01*
X93150499Y-85821153D01*
X93144065Y-85788807D01*
X93119737Y-85666503D01*
X93104139Y-85628846D01*
X93059394Y-85520820D01*
X93026207Y-85471153D01*
X94399500Y-85471153D01*
X94399500Y-85628846D01*
X94430261Y-85783489D01*
X94430264Y-85783501D01*
X94490602Y-85929172D01*
X94490609Y-85929185D01*
X94578210Y-86060288D01*
X94578213Y-86060292D01*
X94689707Y-86171786D01*
X94689711Y-86171789D01*
X94820814Y-86259390D01*
X94820827Y-86259397D01*
X94922952Y-86301698D01*
X94977356Y-86345538D01*
X94999421Y-86411833D01*
X94999500Y-86416259D01*
X94999500Y-86528846D01*
X95030261Y-86683489D01*
X95030264Y-86683501D01*
X95090602Y-86829172D01*
X95090609Y-86829185D01*
X95178210Y-86960288D01*
X95178213Y-86960292D01*
X95289707Y-87071786D01*
X95289711Y-87071789D01*
X95420814Y-87159390D01*
X95420827Y-87159397D01*
X95554159Y-87214624D01*
X95566503Y-87219737D01*
X95721153Y-87250499D01*
X95721156Y-87250500D01*
X95721158Y-87250500D01*
X95782333Y-87250500D01*
X95849372Y-87270185D01*
X95885434Y-87305608D01*
X95893755Y-87318061D01*
X95893758Y-87318065D01*
X96005251Y-87429558D01*
X96005255Y-87429561D01*
X96136358Y-87517162D01*
X96136371Y-87517169D01*
X96265915Y-87570827D01*
X96282047Y-87577509D01*
X96397625Y-87600499D01*
X96436697Y-87608271D01*
X96436700Y-87608272D01*
X96436702Y-87608272D01*
X96594388Y-87608272D01*
X96594389Y-87608271D01*
X96749041Y-87577509D01*
X96894723Y-87517166D01*
X97025833Y-87429561D01*
X97137333Y-87318061D01*
X97224938Y-87186951D01*
X97285281Y-87041269D01*
X97316044Y-86886614D01*
X97316044Y-86728930D01*
X97316044Y-86728927D01*
X97316043Y-86728925D01*
X97308645Y-86691734D01*
X97285281Y-86574275D01*
X97258779Y-86510292D01*
X97224941Y-86428599D01*
X97224934Y-86428586D01*
X97137333Y-86297483D01*
X97137330Y-86297479D01*
X97025836Y-86185985D01*
X97025832Y-86185982D01*
X96894729Y-86098381D01*
X96894716Y-86098374D01*
X96749045Y-86038036D01*
X96749033Y-86038033D01*
X96594389Y-86007272D01*
X96594386Y-86007272D01*
X96533211Y-86007272D01*
X96466172Y-85987587D01*
X96430109Y-85952163D01*
X96421789Y-85939711D01*
X96421787Y-85939709D01*
X96421785Y-85939706D01*
X96310292Y-85828213D01*
X96310288Y-85828210D01*
X96179185Y-85740609D01*
X96179175Y-85740604D01*
X96077047Y-85698301D01*
X96022644Y-85654460D01*
X96000579Y-85588166D01*
X96000500Y-85583740D01*
X96000500Y-85471155D01*
X96000499Y-85471153D01*
X95986246Y-85399500D01*
X95969737Y-85316503D01*
X95962694Y-85299500D01*
X95909397Y-85170827D01*
X95909390Y-85170814D01*
X95821789Y-85039711D01*
X95821786Y-85039707D01*
X95710292Y-84928213D01*
X95710288Y-84928210D01*
X95661212Y-84895418D01*
X101375235Y-84895418D01*
X101375235Y-85053111D01*
X101405996Y-85207754D01*
X101405999Y-85207766D01*
X101466337Y-85353437D01*
X101466344Y-85353450D01*
X101553945Y-85484553D01*
X101553948Y-85484557D01*
X101665442Y-85596051D01*
X101665446Y-85596054D01*
X101796549Y-85683655D01*
X101796562Y-85683662D01*
X101942233Y-85744000D01*
X101942238Y-85744002D01*
X102078760Y-85771158D01*
X102096888Y-85774764D01*
X102096891Y-85774765D01*
X102096893Y-85774765D01*
X102254579Y-85774765D01*
X102254580Y-85774764D01*
X102409232Y-85744002D01*
X102554914Y-85683659D01*
X102686024Y-85596054D01*
X102797524Y-85484554D01*
X102885129Y-85353444D01*
X102945472Y-85207762D01*
X102976235Y-85053107D01*
X102976235Y-84895423D01*
X102976235Y-84895420D01*
X102976234Y-84895418D01*
X102965330Y-84840602D01*
X102945472Y-84740768D01*
X102916051Y-84669738D01*
X102885132Y-84595092D01*
X102885125Y-84595079D01*
X102797524Y-84463976D01*
X102797521Y-84463972D01*
X102686027Y-84352478D01*
X102686023Y-84352475D01*
X102554920Y-84264874D01*
X102554907Y-84264867D01*
X102409236Y-84204529D01*
X102409224Y-84204526D01*
X102254580Y-84173765D01*
X102254577Y-84173765D01*
X102096893Y-84173765D01*
X102096890Y-84173765D01*
X101942245Y-84204526D01*
X101942233Y-84204529D01*
X101796562Y-84264867D01*
X101796549Y-84264874D01*
X101665446Y-84352475D01*
X101665442Y-84352478D01*
X101553948Y-84463972D01*
X101553945Y-84463976D01*
X101466344Y-84595079D01*
X101466337Y-84595092D01*
X101405999Y-84740763D01*
X101405996Y-84740775D01*
X101375235Y-84895418D01*
X95661212Y-84895418D01*
X95579185Y-84840609D01*
X95579172Y-84840602D01*
X95433501Y-84780264D01*
X95433489Y-84780261D01*
X95278845Y-84749500D01*
X95278842Y-84749500D01*
X95121158Y-84749500D01*
X95121155Y-84749500D01*
X94966510Y-84780261D01*
X94966498Y-84780264D01*
X94820827Y-84840602D01*
X94820814Y-84840609D01*
X94689711Y-84928210D01*
X94689707Y-84928213D01*
X94578213Y-85039707D01*
X94578210Y-85039711D01*
X94490609Y-85170814D01*
X94490602Y-85170827D01*
X94430264Y-85316498D01*
X94430261Y-85316510D01*
X94399500Y-85471153D01*
X93026207Y-85471153D01*
X92971789Y-85389711D01*
X92971786Y-85389707D01*
X92860292Y-85278213D01*
X92860288Y-85278210D01*
X92729185Y-85190609D01*
X92729172Y-85190602D01*
X92583501Y-85130264D01*
X92583489Y-85130261D01*
X92428845Y-85099500D01*
X92428842Y-85099500D01*
X92271158Y-85099500D01*
X92271155Y-85099500D01*
X92116510Y-85130261D01*
X92116498Y-85130264D01*
X91970827Y-85190602D01*
X91970814Y-85190609D01*
X91839711Y-85278210D01*
X91839707Y-85278213D01*
X91728213Y-85389707D01*
X91728210Y-85389711D01*
X91640609Y-85520814D01*
X91640602Y-85520827D01*
X91580264Y-85666498D01*
X91580261Y-85666510D01*
X91549500Y-85821153D01*
X82250500Y-85821153D01*
X82250500Y-85771155D01*
X82250499Y-85771153D01*
X82242008Y-85728467D01*
X82219737Y-85616503D01*
X82211266Y-85596051D01*
X82159397Y-85470827D01*
X82159390Y-85470814D01*
X82071789Y-85339711D01*
X82071786Y-85339707D01*
X81960292Y-85228213D01*
X81960288Y-85228210D01*
X81829185Y-85140609D01*
X81829172Y-85140602D01*
X81683501Y-85080264D01*
X81683489Y-85080261D01*
X81528845Y-85049500D01*
X81528842Y-85049500D01*
X81371158Y-85049500D01*
X81371155Y-85049500D01*
X81216510Y-85080261D01*
X81216498Y-85080264D01*
X81070827Y-85140602D01*
X81070814Y-85140609D01*
X80939714Y-85228208D01*
X80939708Y-85228212D01*
X80896275Y-85271645D01*
X80834952Y-85305129D01*
X80784404Y-85305579D01*
X80753844Y-85299500D01*
X80753842Y-85299500D01*
X80596158Y-85299500D01*
X80596155Y-85299500D01*
X80441510Y-85330261D01*
X80441498Y-85330264D01*
X80295827Y-85390602D01*
X80295814Y-85390609D01*
X80164711Y-85478210D01*
X80164707Y-85478213D01*
X80053213Y-85589707D01*
X80053210Y-85589711D01*
X79965609Y-85720814D01*
X79965602Y-85720827D01*
X79905264Y-85866498D01*
X79905261Y-85866510D01*
X79874500Y-86021153D01*
X27875500Y-86021153D01*
X27875500Y-83821153D01*
X98249500Y-83821153D01*
X98249500Y-83978846D01*
X98280261Y-84133489D01*
X98280264Y-84133501D01*
X98340602Y-84279172D01*
X98340609Y-84279185D01*
X98428210Y-84410288D01*
X98428213Y-84410292D01*
X98539707Y-84521786D01*
X98539711Y-84521789D01*
X98670814Y-84609390D01*
X98670827Y-84609397D01*
X98816498Y-84669735D01*
X98816503Y-84669737D01*
X98971153Y-84700499D01*
X98971156Y-84700500D01*
X98971158Y-84700500D01*
X99128844Y-84700500D01*
X99128845Y-84700499D01*
X99283497Y-84669737D01*
X99429179Y-84609394D01*
X99560289Y-84521789D01*
X99671789Y-84410289D01*
X99759394Y-84279179D01*
X99819737Y-84133497D01*
X99850500Y-83978842D01*
X99850500Y-83821158D01*
X99850500Y-83821155D01*
X99850499Y-83821153D01*
X99846391Y-83800499D01*
X99819737Y-83666503D01*
X99775013Y-83558529D01*
X99759397Y-83520827D01*
X99759390Y-83520814D01*
X99671789Y-83389711D01*
X99671786Y-83389707D01*
X99560292Y-83278213D01*
X99560288Y-83278210D01*
X99429185Y-83190609D01*
X99429172Y-83190602D01*
X99283501Y-83130264D01*
X99283489Y-83130261D01*
X99128845Y-83099500D01*
X99128842Y-83099500D01*
X98971158Y-83099500D01*
X98971155Y-83099500D01*
X98816510Y-83130261D01*
X98816498Y-83130264D01*
X98670827Y-83190602D01*
X98670814Y-83190609D01*
X98539711Y-83278210D01*
X98539707Y-83278213D01*
X98428213Y-83389707D01*
X98428210Y-83389711D01*
X98340609Y-83520814D01*
X98340602Y-83520827D01*
X98280264Y-83666498D01*
X98280261Y-83666510D01*
X98249500Y-83821153D01*
X27875500Y-83821153D01*
X27875500Y-81660000D01*
X30130138Y-81660000D01*
X30933012Y-81660000D01*
X30915795Y-81669940D01*
X30859940Y-81725795D01*
X30820444Y-81794204D01*
X30800000Y-81870504D01*
X30800000Y-81949496D01*
X30820444Y-82025796D01*
X30859940Y-82094205D01*
X30915795Y-82150060D01*
X30933012Y-82160000D01*
X30130138Y-82160000D01*
X30138430Y-82201690D01*
X30138430Y-82201692D01*
X30213807Y-82383671D01*
X30213814Y-82383684D01*
X30323248Y-82547462D01*
X30323251Y-82547466D01*
X30462533Y-82686748D01*
X30462537Y-82686751D01*
X30626315Y-82796185D01*
X30626328Y-82796192D01*
X30808306Y-82871569D01*
X30808318Y-82871572D01*
X31001504Y-82909999D01*
X31001508Y-82910000D01*
X31150000Y-82910000D01*
X31150000Y-82210000D01*
X31650000Y-82210000D01*
X31650000Y-82910000D01*
X31798492Y-82910000D01*
X31798495Y-82909999D01*
X31991681Y-82871572D01*
X31991693Y-82871569D01*
X32173671Y-82796192D01*
X32173684Y-82796185D01*
X32337462Y-82686751D01*
X32337466Y-82686748D01*
X32476748Y-82547466D01*
X32476751Y-82547462D01*
X32586185Y-82383684D01*
X32586192Y-82383671D01*
X32661569Y-82201692D01*
X32661569Y-82201690D01*
X32669862Y-82160000D01*
X31866988Y-82160000D01*
X31884205Y-82150060D01*
X31940060Y-82094205D01*
X31979556Y-82025796D01*
X32000000Y-81949496D01*
X32000000Y-81870504D01*
X31979556Y-81794204D01*
X31940060Y-81725795D01*
X31884205Y-81669940D01*
X31866988Y-81660000D01*
X32669862Y-81660000D01*
X34060138Y-81660000D01*
X34863012Y-81660000D01*
X34845795Y-81669940D01*
X34789940Y-81725795D01*
X34750444Y-81794204D01*
X34730000Y-81870504D01*
X34730000Y-81949496D01*
X34750444Y-82025796D01*
X34789940Y-82094205D01*
X34845795Y-82150060D01*
X34863012Y-82160000D01*
X34060138Y-82160000D01*
X34068430Y-82201690D01*
X34068430Y-82201692D01*
X34143807Y-82383671D01*
X34143814Y-82383684D01*
X34253248Y-82547462D01*
X34253251Y-82547466D01*
X34392533Y-82686748D01*
X34392537Y-82686751D01*
X34556315Y-82796185D01*
X34556328Y-82796192D01*
X34738306Y-82871569D01*
X34738318Y-82871572D01*
X34931504Y-82909999D01*
X34931508Y-82910000D01*
X35330000Y-82910000D01*
X35330000Y-82210000D01*
X35830000Y-82210000D01*
X35830000Y-82910000D01*
X36228492Y-82910000D01*
X36228495Y-82909999D01*
X36421681Y-82871572D01*
X36421693Y-82871569D01*
X36603671Y-82796192D01*
X36603684Y-82796185D01*
X36767462Y-82686751D01*
X36767466Y-82686748D01*
X36906748Y-82547466D01*
X36906751Y-82547462D01*
X37016185Y-82383684D01*
X37016192Y-82383671D01*
X37091569Y-82201692D01*
X37091569Y-82201690D01*
X37099862Y-82160000D01*
X36296988Y-82160000D01*
X36314205Y-82150060D01*
X36370060Y-82094205D01*
X36383369Y-82071153D01*
X107199500Y-82071153D01*
X107199500Y-82228846D01*
X107230261Y-82383489D01*
X107230264Y-82383501D01*
X107290602Y-82529172D01*
X107290609Y-82529185D01*
X107378210Y-82660288D01*
X107378213Y-82660292D01*
X107489707Y-82771786D01*
X107489711Y-82771789D01*
X107620814Y-82859390D01*
X107620827Y-82859397D01*
X107766498Y-82919735D01*
X107766503Y-82919737D01*
X107921153Y-82950499D01*
X107921156Y-82950500D01*
X107921158Y-82950500D01*
X108078844Y-82950500D01*
X108078845Y-82950499D01*
X108233497Y-82919737D01*
X108346166Y-82873067D01*
X108379172Y-82859397D01*
X108379172Y-82859396D01*
X108379179Y-82859394D01*
X108510289Y-82771789D01*
X108510925Y-82771153D01*
X108899500Y-82771153D01*
X108899500Y-82928846D01*
X108930261Y-83083489D01*
X108930264Y-83083501D01*
X108990602Y-83229171D01*
X108990604Y-83229175D01*
X108990606Y-83229179D01*
X108990609Y-83229183D01*
X108990611Y-83229187D01*
X109008082Y-83255335D01*
X109028959Y-83322012D01*
X109019541Y-83371675D01*
X108980263Y-83466503D01*
X108980261Y-83466510D01*
X108949500Y-83621153D01*
X108949500Y-83778846D01*
X108980261Y-83933489D01*
X108980264Y-83933501D01*
X109040602Y-84079172D01*
X109040609Y-84079185D01*
X109128210Y-84210288D01*
X109128213Y-84210292D01*
X109239710Y-84321789D01*
X109370815Y-84409390D01*
X109370821Y-84409394D01*
X109370827Y-84409396D01*
X109370830Y-84409398D01*
X109380276Y-84413311D01*
X109434679Y-84457152D01*
X109454439Y-84503679D01*
X109480261Y-84633491D01*
X109480264Y-84633501D01*
X109540602Y-84779172D01*
X109540609Y-84779185D01*
X109628210Y-84910288D01*
X109628213Y-84910292D01*
X109739707Y-85021786D01*
X109739711Y-85021789D01*
X109870814Y-85109390D01*
X109870827Y-85109397D01*
X109946181Y-85140609D01*
X110016503Y-85169737D01*
X110043423Y-85175091D01*
X110065624Y-85179508D01*
X110127535Y-85211892D01*
X110162109Y-85272608D01*
X110158370Y-85342377D01*
X110129115Y-85388806D01*
X110028210Y-85489711D01*
X109940609Y-85620814D01*
X109940602Y-85620827D01*
X109880264Y-85766498D01*
X109880261Y-85766510D01*
X109849500Y-85921153D01*
X109849500Y-86005164D01*
X109829815Y-86072203D01*
X109794391Y-86108266D01*
X109689710Y-86178210D01*
X109578213Y-86289707D01*
X109578210Y-86289711D01*
X109490609Y-86420814D01*
X109490602Y-86420827D01*
X109430264Y-86566498D01*
X109430261Y-86566510D01*
X109399500Y-86721153D01*
X109399500Y-86878846D01*
X109430261Y-87033489D01*
X109430264Y-87033501D01*
X109490602Y-87179172D01*
X109490609Y-87179185D01*
X109578210Y-87310288D01*
X109578213Y-87310292D01*
X109689707Y-87421786D01*
X109689711Y-87421789D01*
X109820814Y-87509390D01*
X109820827Y-87509397D01*
X109896181Y-87540609D01*
X109966503Y-87569737D01*
X110121153Y-87600499D01*
X110121156Y-87600500D01*
X110121158Y-87600500D01*
X110278844Y-87600500D01*
X110278845Y-87600499D01*
X110433497Y-87569737D01*
X110579179Y-87509394D01*
X110710289Y-87421789D01*
X110821789Y-87310289D01*
X110909394Y-87179179D01*
X110969737Y-87033497D01*
X111000500Y-86878842D01*
X111000500Y-86794836D01*
X111020185Y-86727797D01*
X111055609Y-86691734D01*
X111160289Y-86621789D01*
X111271786Y-86510292D01*
X111271789Y-86510289D01*
X111359394Y-86379179D01*
X111419737Y-86233497D01*
X111435255Y-86155484D01*
X111441561Y-86143426D01*
X111443288Y-86129930D01*
X111450656Y-86121153D01*
X115799500Y-86121153D01*
X115799500Y-86278846D01*
X115830261Y-86433489D01*
X115830264Y-86433501D01*
X115890602Y-86579172D01*
X115890609Y-86579185D01*
X115978210Y-86710288D01*
X115978213Y-86710292D01*
X116089707Y-86821786D01*
X116089711Y-86821789D01*
X116220814Y-86909390D01*
X116220827Y-86909397D01*
X116366498Y-86969735D01*
X116366503Y-86969737D01*
X116389375Y-86974286D01*
X116410284Y-86978446D01*
X116472195Y-87010831D01*
X116506769Y-87071546D01*
X116503030Y-87141316D01*
X116462164Y-87197988D01*
X116433546Y-87214624D01*
X116370824Y-87240604D01*
X116370814Y-87240609D01*
X116239711Y-87328210D01*
X116239707Y-87328213D01*
X116128213Y-87439707D01*
X116128210Y-87439711D01*
X116040609Y-87570814D01*
X116040602Y-87570827D01*
X115980264Y-87716498D01*
X115980261Y-87716510D01*
X115949500Y-87871153D01*
X115949500Y-88028846D01*
X115980261Y-88183489D01*
X115980264Y-88183501D01*
X116040602Y-88329172D01*
X116040609Y-88329185D01*
X116128210Y-88460288D01*
X116128213Y-88460292D01*
X116239707Y-88571786D01*
X116239711Y-88571789D01*
X116370814Y-88659390D01*
X116370827Y-88659397D01*
X116445162Y-88690187D01*
X116516503Y-88719737D01*
X116671153Y-88750499D01*
X116671156Y-88750500D01*
X116671158Y-88750500D01*
X116828844Y-88750500D01*
X116828845Y-88750499D01*
X116983497Y-88719737D01*
X117101592Y-88670821D01*
X117129172Y-88659397D01*
X117129172Y-88659396D01*
X117129179Y-88659394D01*
X117260289Y-88571789D01*
X117371789Y-88460289D01*
X117459394Y-88329179D01*
X117507944Y-88211968D01*
X117551780Y-88157569D01*
X117618074Y-88135503D01*
X117685774Y-88152781D01*
X117691393Y-88156322D01*
X117770814Y-88209390D01*
X117770827Y-88209397D01*
X117916498Y-88269735D01*
X117916503Y-88269737D01*
X118071153Y-88300499D01*
X118071156Y-88300500D01*
X118071158Y-88300500D01*
X118228844Y-88300500D01*
X118228845Y-88300499D01*
X118383497Y-88269737D01*
X118529179Y-88209394D01*
X118660289Y-88121789D01*
X118771789Y-88010289D01*
X118859394Y-87879179D01*
X118862719Y-87871153D01*
X118880102Y-87829185D01*
X118919737Y-87733497D01*
X118932138Y-87671153D01*
X120049500Y-87671153D01*
X120049500Y-87828846D01*
X120080261Y-87983489D01*
X120080264Y-87983501D01*
X120140602Y-88129172D01*
X120140609Y-88129185D01*
X120228210Y-88260288D01*
X120228213Y-88260292D01*
X120339707Y-88371786D01*
X120339711Y-88371789D01*
X120470814Y-88459390D01*
X120470827Y-88459397D01*
X120561101Y-88496789D01*
X120616503Y-88519737D01*
X120771153Y-88550499D01*
X120771156Y-88550500D01*
X120771158Y-88550500D01*
X120928844Y-88550500D01*
X120928845Y-88550499D01*
X121083497Y-88519737D01*
X121201592Y-88470821D01*
X121229172Y-88459397D01*
X121229172Y-88459396D01*
X121229179Y-88459394D01*
X121360289Y-88371789D01*
X121471789Y-88260289D01*
X121559394Y-88129179D01*
X121619737Y-87983497D01*
X121650500Y-87828842D01*
X121650500Y-87671158D01*
X121650500Y-87671155D01*
X121650499Y-87671153D01*
X121631872Y-87577509D01*
X121619737Y-87516503D01*
X121611170Y-87495821D01*
X121559397Y-87370827D01*
X121559390Y-87370814D01*
X121471789Y-87239711D01*
X121471786Y-87239707D01*
X121360292Y-87128213D01*
X121360288Y-87128210D01*
X121229185Y-87040609D01*
X121229178Y-87040605D01*
X121225451Y-87039062D01*
X121171047Y-86995222D01*
X121148981Y-86928928D01*
X121166259Y-86861229D01*
X121217395Y-86813617D01*
X121272902Y-86800500D01*
X121278844Y-86800500D01*
X121278845Y-86800499D01*
X121433497Y-86769737D01*
X121550790Y-86721153D01*
X121579172Y-86709397D01*
X121579172Y-86709396D01*
X121579179Y-86709394D01*
X121710289Y-86621789D01*
X121821789Y-86510289D01*
X121909394Y-86379179D01*
X121969737Y-86233497D01*
X121989628Y-86133501D01*
X121992084Y-86121153D01*
X123199500Y-86121153D01*
X123199500Y-86278846D01*
X123230261Y-86433489D01*
X123230264Y-86433501D01*
X123290602Y-86579172D01*
X123290609Y-86579185D01*
X123378210Y-86710288D01*
X123378213Y-86710292D01*
X123489707Y-86821786D01*
X123489711Y-86821789D01*
X123620814Y-86909390D01*
X123620827Y-86909397D01*
X123766498Y-86969735D01*
X123766503Y-86969737D01*
X123894624Y-86995222D01*
X123921153Y-87000499D01*
X123921156Y-87000500D01*
X123921158Y-87000500D01*
X124078844Y-87000500D01*
X124078845Y-87000499D01*
X124233497Y-86969737D01*
X124379179Y-86909394D01*
X124510289Y-86821789D01*
X124621789Y-86710289D01*
X124709394Y-86579179D01*
X124769737Y-86433497D01*
X124800500Y-86278842D01*
X124800500Y-86121158D01*
X124800500Y-86121155D01*
X124800499Y-86121153D01*
X124793009Y-86083497D01*
X124769737Y-85966503D01*
X124765081Y-85955263D01*
X124709397Y-85820827D01*
X124709390Y-85820814D01*
X124621789Y-85689711D01*
X124621786Y-85689707D01*
X124510292Y-85578213D01*
X124510288Y-85578210D01*
X124379185Y-85490609D01*
X124379172Y-85490602D01*
X124233501Y-85430264D01*
X124233489Y-85430261D01*
X124078845Y-85399500D01*
X124078842Y-85399500D01*
X123921158Y-85399500D01*
X123921155Y-85399500D01*
X123766510Y-85430261D01*
X123766498Y-85430264D01*
X123620827Y-85490602D01*
X123620814Y-85490609D01*
X123489711Y-85578210D01*
X123489707Y-85578213D01*
X123378213Y-85689707D01*
X123378210Y-85689711D01*
X123290609Y-85820814D01*
X123290602Y-85820827D01*
X123230264Y-85966498D01*
X123230261Y-85966510D01*
X123199500Y-86121153D01*
X121992084Y-86121153D01*
X121998107Y-86090875D01*
X121998107Y-86090874D01*
X122000500Y-86078844D01*
X122000500Y-85921155D01*
X122000499Y-85921153D01*
X121994818Y-85892594D01*
X121969737Y-85766503D01*
X121960416Y-85744000D01*
X121909397Y-85620827D01*
X121909390Y-85620814D01*
X121821789Y-85489711D01*
X121821786Y-85489707D01*
X121710292Y-85378213D01*
X121710288Y-85378210D01*
X121579185Y-85290609D01*
X121579172Y-85290602D01*
X121433501Y-85230264D01*
X121433489Y-85230261D01*
X121278845Y-85199500D01*
X121278842Y-85199500D01*
X121121158Y-85199500D01*
X121121155Y-85199500D01*
X120966510Y-85230261D01*
X120966498Y-85230264D01*
X120820827Y-85290602D01*
X120820814Y-85290609D01*
X120689711Y-85378210D01*
X120689707Y-85378213D01*
X120578213Y-85489707D01*
X120578210Y-85489711D01*
X120490609Y-85620814D01*
X120490602Y-85620827D01*
X120430264Y-85766498D01*
X120430261Y-85766510D01*
X120399500Y-85921153D01*
X120399500Y-86078846D01*
X120430261Y-86233489D01*
X120430264Y-86233501D01*
X120490602Y-86379172D01*
X120490609Y-86379185D01*
X120578210Y-86510288D01*
X120578213Y-86510292D01*
X120689707Y-86621786D01*
X120689711Y-86621789D01*
X120820814Y-86709390D01*
X120820821Y-86709394D01*
X120822979Y-86710288D01*
X120824549Y-86710938D01*
X120878953Y-86754778D01*
X120901019Y-86821072D01*
X120883741Y-86888771D01*
X120832605Y-86936383D01*
X120777098Y-86949500D01*
X120771155Y-86949500D01*
X120616510Y-86980261D01*
X120616498Y-86980264D01*
X120470827Y-87040602D01*
X120470814Y-87040609D01*
X120339711Y-87128210D01*
X120339707Y-87128213D01*
X120228213Y-87239707D01*
X120228210Y-87239711D01*
X120140609Y-87370814D01*
X120140602Y-87370827D01*
X120080264Y-87516498D01*
X120080261Y-87516510D01*
X120049500Y-87671153D01*
X118932138Y-87671153D01*
X118937177Y-87645821D01*
X118938161Y-87640875D01*
X118938161Y-87640874D01*
X118950500Y-87578844D01*
X118950500Y-87421155D01*
X118950499Y-87421153D01*
X118932012Y-87328213D01*
X118919737Y-87266503D01*
X118915081Y-87255263D01*
X118859397Y-87120827D01*
X118859390Y-87120814D01*
X118771789Y-86989711D01*
X118771786Y-86989707D01*
X118660292Y-86878213D01*
X118660288Y-86878210D01*
X118529185Y-86790609D01*
X118529172Y-86790602D01*
X118383501Y-86730264D01*
X118383489Y-86730261D01*
X118228845Y-86699500D01*
X118228842Y-86699500D01*
X118071158Y-86699500D01*
X118071155Y-86699500D01*
X117916510Y-86730261D01*
X117916498Y-86730264D01*
X117770827Y-86790602D01*
X117770814Y-86790609D01*
X117639711Y-86878210D01*
X117639707Y-86878213D01*
X117528213Y-86989707D01*
X117528210Y-86989711D01*
X117440609Y-87120814D01*
X117440604Y-87120824D01*
X117392057Y-87238027D01*
X117348216Y-87292430D01*
X117281921Y-87314495D01*
X117214222Y-87297216D01*
X117208605Y-87293676D01*
X117129185Y-87240609D01*
X117129172Y-87240602D01*
X116983501Y-87180264D01*
X116983492Y-87180261D01*
X116939713Y-87171553D01*
X116877803Y-87139167D01*
X116843229Y-87078451D01*
X116846970Y-87008681D01*
X116887837Y-86952010D01*
X116916449Y-86935377D01*
X116979179Y-86909394D01*
X117110289Y-86821789D01*
X117221789Y-86710289D01*
X117309394Y-86579179D01*
X117369737Y-86433497D01*
X117400500Y-86278842D01*
X117400500Y-86121158D01*
X117400500Y-86121155D01*
X117400499Y-86121153D01*
X117393009Y-86083497D01*
X117369737Y-85966503D01*
X117365081Y-85955263D01*
X117309397Y-85820827D01*
X117309390Y-85820814D01*
X117221789Y-85689711D01*
X117221786Y-85689707D01*
X117110292Y-85578213D01*
X117110288Y-85578210D01*
X116979185Y-85490609D01*
X116979172Y-85490602D01*
X116833501Y-85430264D01*
X116833489Y-85430261D01*
X116678845Y-85399500D01*
X116678842Y-85399500D01*
X116521158Y-85399500D01*
X116521155Y-85399500D01*
X116366510Y-85430261D01*
X116366498Y-85430264D01*
X116220827Y-85490602D01*
X116220814Y-85490609D01*
X116089711Y-85578210D01*
X116089707Y-85578213D01*
X115978213Y-85689707D01*
X115978210Y-85689711D01*
X115890609Y-85820814D01*
X115890602Y-85820827D01*
X115830264Y-85966498D01*
X115830261Y-85966510D01*
X115799500Y-86121153D01*
X111450656Y-86121153D01*
X111457437Y-86113075D01*
X111467639Y-86093573D01*
X111480425Y-86085694D01*
X111488213Y-86076418D01*
X111510238Y-86067323D01*
X111520085Y-86061257D01*
X111526293Y-86059328D01*
X111620738Y-86040542D01*
X111766420Y-85980199D01*
X111897530Y-85892594D01*
X111939814Y-85850309D01*
X112001136Y-85816824D01*
X112051686Y-85816373D01*
X112067757Y-85819569D01*
X112067760Y-85819570D01*
X112067762Y-85819570D01*
X112225448Y-85819570D01*
X112225449Y-85819569D01*
X112380101Y-85788807D01*
X112525783Y-85728464D01*
X112656893Y-85640859D01*
X112768393Y-85529359D01*
X112855998Y-85398249D01*
X112859166Y-85390602D01*
X112884158Y-85330264D01*
X112916341Y-85252567D01*
X112947104Y-85097912D01*
X112947104Y-84940228D01*
X112947104Y-84940225D01*
X112947103Y-84940223D01*
X112941149Y-84910289D01*
X112916341Y-84785573D01*
X112913690Y-84779172D01*
X112856001Y-84639897D01*
X112855994Y-84639884D01*
X112768393Y-84508781D01*
X112768390Y-84508777D01*
X112656896Y-84397283D01*
X112656892Y-84397280D01*
X112525789Y-84309679D01*
X112525776Y-84309672D01*
X112380105Y-84249334D01*
X112380093Y-84249331D01*
X112225449Y-84218570D01*
X112225446Y-84218570D01*
X112067762Y-84218570D01*
X112067759Y-84218570D01*
X111913114Y-84249331D01*
X111913102Y-84249334D01*
X111767431Y-84309672D01*
X111767418Y-84309679D01*
X111636318Y-84397278D01*
X111636312Y-84397282D01*
X111594027Y-84439567D01*
X111532703Y-84473051D01*
X111482161Y-84473502D01*
X111466086Y-84470305D01*
X111466083Y-84470305D01*
X111308399Y-84470305D01*
X111308394Y-84470305D01*
X111198691Y-84492126D01*
X111129099Y-84485899D01*
X111073922Y-84443035D01*
X111050678Y-84377145D01*
X111050500Y-84370509D01*
X111050500Y-84321155D01*
X111050499Y-84321153D01*
X111036213Y-84249333D01*
X111019737Y-84166503D01*
X110983569Y-84079185D01*
X110959397Y-84020827D01*
X110959390Y-84020814D01*
X110871789Y-83889711D01*
X110871786Y-83889707D01*
X110760292Y-83778213D01*
X110760288Y-83778210D01*
X110629185Y-83690609D01*
X110629176Y-83690604D01*
X110619723Y-83686689D01*
X110565320Y-83642848D01*
X110545559Y-83596319D01*
X110531600Y-83526144D01*
X110519737Y-83466503D01*
X110459394Y-83320821D01*
X110441916Y-83294664D01*
X110421040Y-83227988D01*
X110430459Y-83178322D01*
X110469737Y-83083497D01*
X110500500Y-82928842D01*
X110500500Y-82771158D01*
X110500500Y-82771155D01*
X110484209Y-82689258D01*
X110484209Y-82689257D01*
X110480608Y-82671153D01*
X116949500Y-82671153D01*
X116949500Y-82828846D01*
X116980261Y-82983489D01*
X116980264Y-82983501D01*
X117040602Y-83129172D01*
X117040609Y-83129185D01*
X117128210Y-83260288D01*
X117128213Y-83260292D01*
X117239707Y-83371786D01*
X117239711Y-83371789D01*
X117370814Y-83459390D01*
X117370827Y-83459397D01*
X117516498Y-83519735D01*
X117516503Y-83519737D01*
X117532717Y-83522962D01*
X117548711Y-83526144D01*
X117610622Y-83558529D01*
X117645196Y-83619244D01*
X117641457Y-83689014D01*
X117639082Y-83695212D01*
X117630263Y-83716503D01*
X117630261Y-83716510D01*
X117599500Y-83871153D01*
X117599500Y-84028846D01*
X117630261Y-84183489D01*
X117630264Y-84183501D01*
X117690602Y-84329172D01*
X117690609Y-84329185D01*
X117778210Y-84460288D01*
X117778213Y-84460292D01*
X117889707Y-84571786D01*
X117889711Y-84571789D01*
X118020814Y-84659390D01*
X118020827Y-84659397D01*
X118120060Y-84700500D01*
X118166503Y-84719737D01*
X118316131Y-84749500D01*
X118321153Y-84750499D01*
X118321156Y-84750500D01*
X118321158Y-84750500D01*
X118478844Y-84750500D01*
X118478845Y-84750499D01*
X118633497Y-84719737D01*
X118779179Y-84659394D01*
X118910289Y-84571789D01*
X119021789Y-84460289D01*
X119109394Y-84329179D01*
X119112719Y-84321153D01*
X119130102Y-84279185D01*
X119169737Y-84183497D01*
X119200500Y-84028842D01*
X119200500Y-83871158D01*
X119200500Y-83871155D01*
X119200499Y-83871153D01*
X119182012Y-83778213D01*
X119169737Y-83716503D01*
X119160918Y-83695212D01*
X119109397Y-83570827D01*
X119109390Y-83570814D01*
X119021789Y-83439711D01*
X119021786Y-83439707D01*
X118910292Y-83328213D01*
X118910288Y-83328210D01*
X118779185Y-83240609D01*
X118779172Y-83240602D01*
X118633501Y-83180264D01*
X118633492Y-83180261D01*
X118601286Y-83173855D01*
X118539375Y-83141469D01*
X118504802Y-83080752D01*
X118505183Y-83022159D01*
X118507406Y-83013264D01*
X118519737Y-82983497D01*
X118532138Y-82921153D01*
X121099500Y-82921153D01*
X121099500Y-83078846D01*
X121130261Y-83233489D01*
X121130264Y-83233501D01*
X121190602Y-83379172D01*
X121190609Y-83379185D01*
X121278210Y-83510288D01*
X121278213Y-83510292D01*
X121389707Y-83621786D01*
X121389711Y-83621789D01*
X121520814Y-83709390D01*
X121520827Y-83709397D01*
X121666498Y-83769735D01*
X121666503Y-83769737D01*
X121821153Y-83800499D01*
X121821156Y-83800500D01*
X121821158Y-83800500D01*
X121978844Y-83800500D01*
X121978845Y-83800499D01*
X122133497Y-83769737D01*
X122279179Y-83709394D01*
X122410289Y-83621789D01*
X122521789Y-83510289D01*
X122609394Y-83379179D01*
X122669737Y-83233497D01*
X122700500Y-83078842D01*
X122700500Y-82921158D01*
X122700500Y-82921155D01*
X122700499Y-82921153D01*
X122700217Y-82919735D01*
X122669737Y-82766503D01*
X122669735Y-82766498D01*
X122609397Y-82620827D01*
X122609390Y-82620814D01*
X122521789Y-82489711D01*
X122521786Y-82489707D01*
X122410292Y-82378213D01*
X122410288Y-82378210D01*
X122279185Y-82290609D01*
X122279172Y-82290602D01*
X122133501Y-82230264D01*
X122133489Y-82230261D01*
X121978845Y-82199500D01*
X121978842Y-82199500D01*
X121821158Y-82199500D01*
X121821155Y-82199500D01*
X121666510Y-82230261D01*
X121666498Y-82230264D01*
X121520827Y-82290602D01*
X121520814Y-82290609D01*
X121389711Y-82378210D01*
X121389707Y-82378213D01*
X121278213Y-82489707D01*
X121278210Y-82489711D01*
X121190609Y-82620814D01*
X121190602Y-82620827D01*
X121130264Y-82766498D01*
X121130261Y-82766510D01*
X121099500Y-82921153D01*
X118532138Y-82921153D01*
X118545697Y-82852983D01*
X118550500Y-82828844D01*
X118550500Y-82671155D01*
X118550499Y-82671153D01*
X118546391Y-82650499D01*
X118519737Y-82516503D01*
X118519735Y-82516498D01*
X118459397Y-82370827D01*
X118459390Y-82370814D01*
X118371789Y-82239711D01*
X118371786Y-82239707D01*
X118260292Y-82128213D01*
X118260288Y-82128210D01*
X118129185Y-82040609D01*
X118129172Y-82040602D01*
X117983501Y-81980264D01*
X117983489Y-81980261D01*
X117828845Y-81949500D01*
X117828842Y-81949500D01*
X117671158Y-81949500D01*
X117671155Y-81949500D01*
X117516510Y-81980261D01*
X117516498Y-81980264D01*
X117370827Y-82040602D01*
X117370814Y-82040609D01*
X117239711Y-82128210D01*
X117239707Y-82128213D01*
X117128213Y-82239707D01*
X117128210Y-82239711D01*
X117040609Y-82370814D01*
X117040602Y-82370827D01*
X116980264Y-82516498D01*
X116980261Y-82516510D01*
X116949500Y-82671153D01*
X110480608Y-82671153D01*
X110470596Y-82620821D01*
X110469737Y-82616503D01*
X110441141Y-82547466D01*
X110409397Y-82470827D01*
X110409390Y-82470814D01*
X110321789Y-82339711D01*
X110321786Y-82339707D01*
X110210292Y-82228213D01*
X110210288Y-82228210D01*
X110079185Y-82140609D01*
X110079172Y-82140602D01*
X109933501Y-82080264D01*
X109933489Y-82080261D01*
X109778845Y-82049500D01*
X109778842Y-82049500D01*
X109621158Y-82049500D01*
X109621155Y-82049500D01*
X109466510Y-82080261D01*
X109466498Y-82080264D01*
X109320827Y-82140602D01*
X109320814Y-82140609D01*
X109189711Y-82228210D01*
X109189707Y-82228213D01*
X109078213Y-82339707D01*
X109004616Y-82449851D01*
X109004613Y-82449857D01*
X108990606Y-82470821D01*
X108930263Y-82616503D01*
X108924658Y-82644678D01*
X108924655Y-82644687D01*
X108899500Y-82771153D01*
X108510925Y-82771153D01*
X108621789Y-82660289D01*
X108709394Y-82529179D01*
X108769737Y-82383497D01*
X108798339Y-82239707D01*
X108800500Y-82228844D01*
X108800500Y-82071155D01*
X108800499Y-82071153D01*
X108780326Y-81969737D01*
X108769737Y-81916503D01*
X108766791Y-81909390D01*
X108709397Y-81770827D01*
X108709390Y-81770814D01*
X108621789Y-81639711D01*
X108621786Y-81639707D01*
X108510292Y-81528213D01*
X108510288Y-81528210D01*
X108379185Y-81440609D01*
X108379172Y-81440602D01*
X108233501Y-81380264D01*
X108233489Y-81380261D01*
X108078845Y-81349500D01*
X108078842Y-81349500D01*
X107921158Y-81349500D01*
X107921155Y-81349500D01*
X107766510Y-81380261D01*
X107766498Y-81380264D01*
X107620827Y-81440602D01*
X107620814Y-81440609D01*
X107489711Y-81528210D01*
X107489707Y-81528213D01*
X107378213Y-81639707D01*
X107378210Y-81639711D01*
X107290609Y-81770814D01*
X107290602Y-81770827D01*
X107230264Y-81916498D01*
X107230261Y-81916510D01*
X107199500Y-82071153D01*
X36383369Y-82071153D01*
X36409556Y-82025796D01*
X36430000Y-81949496D01*
X36430000Y-81870504D01*
X36409556Y-81794204D01*
X36370060Y-81725795D01*
X36314205Y-81669940D01*
X36296988Y-81660000D01*
X37099862Y-81660000D01*
X37091569Y-81618309D01*
X37091569Y-81618307D01*
X37016192Y-81436328D01*
X37016185Y-81436315D01*
X36906751Y-81272537D01*
X36906748Y-81272533D01*
X36805368Y-81171153D01*
X104424500Y-81171153D01*
X104424500Y-81328846D01*
X104455261Y-81483489D01*
X104455264Y-81483501D01*
X104515602Y-81629172D01*
X104515609Y-81629185D01*
X104603210Y-81760288D01*
X104603213Y-81760292D01*
X104714707Y-81871786D01*
X104714711Y-81871789D01*
X104845814Y-81959390D01*
X104845827Y-81959397D01*
X104945060Y-82000500D01*
X104991503Y-82019737D01*
X105141131Y-82049500D01*
X105146153Y-82050499D01*
X105146156Y-82050500D01*
X105146158Y-82050500D01*
X105303844Y-82050500D01*
X105303845Y-82050499D01*
X105458497Y-82019737D01*
X105604179Y-81959394D01*
X105735289Y-81871789D01*
X105846789Y-81760289D01*
X105934394Y-81629179D01*
X105938897Y-81618309D01*
X105955102Y-81579185D01*
X105994737Y-81483497D01*
X106025500Y-81328842D01*
X106025500Y-81171158D01*
X106025500Y-81171155D01*
X106019155Y-81139258D01*
X106019155Y-81139257D01*
X106015554Y-81121153D01*
X111949500Y-81121153D01*
X111949500Y-81278846D01*
X111980261Y-81433489D01*
X111980264Y-81433501D01*
X112040602Y-81579172D01*
X112040609Y-81579185D01*
X112128210Y-81710288D01*
X112128213Y-81710292D01*
X112239707Y-81821786D01*
X112239711Y-81821789D01*
X112370814Y-81909390D01*
X112370827Y-81909397D01*
X112516498Y-81969735D01*
X112516503Y-81969737D01*
X112671153Y-82000499D01*
X112671156Y-82000500D01*
X112671158Y-82000500D01*
X112828844Y-82000500D01*
X112828845Y-82000499D01*
X112983497Y-81969737D01*
X113129179Y-81909394D01*
X113260289Y-81821789D01*
X113371789Y-81710289D01*
X113459394Y-81579179D01*
X113519737Y-81433497D01*
X113550500Y-81278842D01*
X113550500Y-81121158D01*
X113550500Y-81121155D01*
X113550499Y-81121153D01*
X113519739Y-80966511D01*
X113519737Y-80966505D01*
X113519737Y-80966503D01*
X113506289Y-80934037D01*
X113498821Y-80864572D01*
X113530096Y-80802093D01*
X113533154Y-80798923D01*
X113571789Y-80760289D01*
X113659394Y-80629179D01*
X113662854Y-80620827D01*
X113689803Y-80555764D01*
X113719737Y-80483497D01*
X113750500Y-80328842D01*
X113750500Y-80171158D01*
X113750500Y-80171155D01*
X113750499Y-80171153D01*
X115799500Y-80171153D01*
X115799500Y-80328846D01*
X115830261Y-80483489D01*
X115830264Y-80483501D01*
X115890602Y-80629172D01*
X115890609Y-80629185D01*
X115978210Y-80760288D01*
X115978213Y-80760292D01*
X116089707Y-80871786D01*
X116089711Y-80871789D01*
X116220814Y-80959390D01*
X116220827Y-80959397D01*
X116358159Y-81016281D01*
X116366503Y-81019737D01*
X116516131Y-81049500D01*
X116521153Y-81050499D01*
X116521156Y-81050500D01*
X116521158Y-81050500D01*
X116678844Y-81050500D01*
X116678845Y-81050499D01*
X116826378Y-81021153D01*
X117899500Y-81021153D01*
X117899500Y-81178846D01*
X117930261Y-81333489D01*
X117930264Y-81333501D01*
X117990602Y-81479172D01*
X117990609Y-81479185D01*
X118078210Y-81610288D01*
X118078213Y-81610292D01*
X118189707Y-81721786D01*
X118189711Y-81721789D01*
X118320814Y-81809390D01*
X118320827Y-81809397D01*
X118466498Y-81869735D01*
X118466503Y-81869737D01*
X118621153Y-81900499D01*
X118621156Y-81900500D01*
X118621158Y-81900500D01*
X118778844Y-81900500D01*
X118778845Y-81900499D01*
X118933497Y-81869737D01*
X119079179Y-81809394D01*
X119210289Y-81721789D01*
X119321789Y-81610289D01*
X119409394Y-81479179D01*
X119412854Y-81470827D01*
X119449030Y-81383489D01*
X119469737Y-81333497D01*
X119500500Y-81178842D01*
X119500500Y-81021158D01*
X119500500Y-81021155D01*
X119484209Y-80939258D01*
X119484209Y-80939257D01*
X119480608Y-80921153D01*
X120199500Y-80921153D01*
X120199500Y-81078846D01*
X120230261Y-81233489D01*
X120230264Y-81233501D01*
X120290602Y-81379172D01*
X120290609Y-81379185D01*
X120378210Y-81510288D01*
X120378213Y-81510292D01*
X120489707Y-81621786D01*
X120489711Y-81621789D01*
X120620814Y-81709390D01*
X120620827Y-81709397D01*
X120766498Y-81769735D01*
X120766503Y-81769737D01*
X120921153Y-81800499D01*
X120921156Y-81800500D01*
X120921158Y-81800500D01*
X121078844Y-81800500D01*
X121078845Y-81800499D01*
X121233497Y-81769737D01*
X121379179Y-81709394D01*
X121510289Y-81621789D01*
X121621789Y-81510289D01*
X121709394Y-81379179D01*
X121769737Y-81233497D01*
X121800500Y-81078842D01*
X121800500Y-81071153D01*
X127649500Y-81071153D01*
X127649500Y-81228846D01*
X127680261Y-81383489D01*
X127680264Y-81383501D01*
X127740602Y-81529172D01*
X127740609Y-81529185D01*
X127828210Y-81660288D01*
X127828213Y-81660292D01*
X127939707Y-81771786D01*
X127939711Y-81771789D01*
X128070814Y-81859390D01*
X128070827Y-81859397D01*
X128208683Y-81916498D01*
X128216503Y-81919737D01*
X128366111Y-81949496D01*
X128371153Y-81950499D01*
X128371156Y-81950500D01*
X128371158Y-81950500D01*
X128528844Y-81950500D01*
X128528845Y-81950499D01*
X128683497Y-81919737D01*
X128829179Y-81859394D01*
X128960289Y-81771789D01*
X128960925Y-81771153D01*
X132949500Y-81771153D01*
X132949500Y-81928846D01*
X132980261Y-82083489D01*
X132980264Y-82083501D01*
X133040602Y-82229172D01*
X133040609Y-82229185D01*
X133128210Y-82360288D01*
X133128213Y-82360292D01*
X133239707Y-82471786D01*
X133239711Y-82471789D01*
X133370814Y-82559390D01*
X133370827Y-82559397D01*
X133508683Y-82616498D01*
X133516503Y-82619737D01*
X133671153Y-82650499D01*
X133671156Y-82650500D01*
X133671158Y-82650500D01*
X133828844Y-82650500D01*
X133828845Y-82650499D01*
X133983497Y-82619737D01*
X134129179Y-82559394D01*
X134260289Y-82471789D01*
X134371789Y-82360289D01*
X134459394Y-82229179D01*
X134519737Y-82083497D01*
X134550500Y-81928842D01*
X134550500Y-81771158D01*
X134550500Y-81771155D01*
X134550499Y-81771153D01*
X134528447Y-81660292D01*
X134519737Y-81616503D01*
X134517043Y-81610000D01*
X134459397Y-81470827D01*
X134456521Y-81465446D01*
X134458731Y-81464264D01*
X134441125Y-81408065D01*
X134459600Y-81340683D01*
X134511572Y-81293985D01*
X134580541Y-81282798D01*
X134589297Y-81284217D01*
X134671155Y-81300500D01*
X134671158Y-81300500D01*
X134828844Y-81300500D01*
X134828845Y-81300499D01*
X134983497Y-81269737D01*
X135129179Y-81209394D01*
X135260289Y-81121789D01*
X135371789Y-81010289D01*
X135459394Y-80879179D01*
X135462854Y-80870827D01*
X135478371Y-80833364D01*
X135519737Y-80733497D01*
X135550500Y-80578842D01*
X135550500Y-80421158D01*
X135550500Y-80421155D01*
X135550499Y-80421153D01*
X135532137Y-80328842D01*
X135519737Y-80266503D01*
X135516158Y-80257863D01*
X135459397Y-80120827D01*
X135459390Y-80120814D01*
X135371789Y-79989711D01*
X135371786Y-79989707D01*
X135260292Y-79878213D01*
X135260288Y-79878210D01*
X135129185Y-79790609D01*
X135129172Y-79790602D01*
X134983501Y-79730264D01*
X134983489Y-79730261D01*
X134828845Y-79699500D01*
X134828842Y-79699500D01*
X134671158Y-79699500D01*
X134671155Y-79699500D01*
X134516510Y-79730261D01*
X134516498Y-79730264D01*
X134370827Y-79790602D01*
X134370814Y-79790609D01*
X134239711Y-79878210D01*
X134239707Y-79878213D01*
X134128213Y-79989707D01*
X134128210Y-79989711D01*
X134040609Y-80120814D01*
X134040602Y-80120827D01*
X133980264Y-80266498D01*
X133980261Y-80266510D01*
X133949500Y-80421153D01*
X133949500Y-80578846D01*
X133980261Y-80733489D01*
X133980264Y-80733501D01*
X134040602Y-80879172D01*
X134043479Y-80884554D01*
X134041272Y-80885733D01*
X134058874Y-80941958D01*
X134040386Y-81009337D01*
X133988405Y-81056025D01*
X133919434Y-81067197D01*
X133910703Y-81065782D01*
X133828846Y-81049500D01*
X133828842Y-81049500D01*
X133671158Y-81049500D01*
X133671155Y-81049500D01*
X133516510Y-81080261D01*
X133516498Y-81080264D01*
X133370827Y-81140602D01*
X133370814Y-81140609D01*
X133239711Y-81228210D01*
X133239707Y-81228213D01*
X133128213Y-81339707D01*
X133128210Y-81339711D01*
X133040609Y-81470814D01*
X133040602Y-81470827D01*
X132980264Y-81616498D01*
X132980261Y-81616510D01*
X132949500Y-81771153D01*
X128960925Y-81771153D01*
X129006283Y-81725795D01*
X129054694Y-81677385D01*
X129071786Y-81660292D01*
X129071789Y-81660289D01*
X129159394Y-81529179D01*
X129219737Y-81383497D01*
X129250500Y-81228842D01*
X129250500Y-81071158D01*
X129250500Y-81071155D01*
X129250499Y-81071153D01*
X129229683Y-80966505D01*
X129219737Y-80916503D01*
X129206992Y-80885733D01*
X129159397Y-80770827D01*
X129159390Y-80770814D01*
X129071789Y-80639711D01*
X129071786Y-80639707D01*
X128960292Y-80528213D01*
X128960288Y-80528210D01*
X128829185Y-80440609D01*
X128829172Y-80440602D01*
X128683501Y-80380264D01*
X128683489Y-80380261D01*
X128528845Y-80349500D01*
X128528842Y-80349500D01*
X128371158Y-80349500D01*
X128371155Y-80349500D01*
X128216510Y-80380261D01*
X128216498Y-80380264D01*
X128070827Y-80440602D01*
X128070814Y-80440609D01*
X127939711Y-80528210D01*
X127939707Y-80528213D01*
X127828213Y-80639707D01*
X127828210Y-80639711D01*
X127740609Y-80770814D01*
X127740602Y-80770827D01*
X127680264Y-80916498D01*
X127680261Y-80916510D01*
X127649500Y-81071153D01*
X121800500Y-81071153D01*
X121800500Y-80921158D01*
X121800500Y-80921155D01*
X121800499Y-80921153D01*
X121798671Y-80911964D01*
X121769737Y-80766503D01*
X121766791Y-80759390D01*
X121709397Y-80620827D01*
X121709390Y-80620814D01*
X121621789Y-80489711D01*
X121621786Y-80489707D01*
X121510292Y-80378213D01*
X121510288Y-80378210D01*
X121379185Y-80290609D01*
X121379172Y-80290602D01*
X121233501Y-80230264D01*
X121233489Y-80230261D01*
X121078845Y-80199500D01*
X121078842Y-80199500D01*
X120921158Y-80199500D01*
X120921155Y-80199500D01*
X120766510Y-80230261D01*
X120766498Y-80230264D01*
X120620827Y-80290602D01*
X120620814Y-80290609D01*
X120489711Y-80378210D01*
X120489707Y-80378213D01*
X120378213Y-80489707D01*
X120378210Y-80489711D01*
X120290609Y-80620814D01*
X120290602Y-80620827D01*
X120230264Y-80766498D01*
X120230261Y-80766510D01*
X120199500Y-80921153D01*
X119480608Y-80921153D01*
X119473562Y-80885733D01*
X119469737Y-80866503D01*
X119466005Y-80857493D01*
X119409397Y-80720827D01*
X119409390Y-80720814D01*
X119321789Y-80589711D01*
X119321786Y-80589707D01*
X119210292Y-80478213D01*
X119210288Y-80478210D01*
X119079185Y-80390609D01*
X119079172Y-80390602D01*
X118933501Y-80330264D01*
X118933489Y-80330261D01*
X118778845Y-80299500D01*
X118778842Y-80299500D01*
X118621158Y-80299500D01*
X118621155Y-80299500D01*
X118466510Y-80330261D01*
X118466498Y-80330264D01*
X118320827Y-80390602D01*
X118320814Y-80390609D01*
X118189711Y-80478210D01*
X118189707Y-80478213D01*
X118078213Y-80589707D01*
X118078210Y-80589711D01*
X117990609Y-80720814D01*
X117990602Y-80720827D01*
X117930264Y-80866498D01*
X117930261Y-80866510D01*
X117899500Y-81021153D01*
X116826378Y-81021153D01*
X116833497Y-81019737D01*
X116961999Y-80966510D01*
X116979172Y-80959397D01*
X116979172Y-80959396D01*
X116979179Y-80959394D01*
X116995588Y-80948430D01*
X117050164Y-80911964D01*
X117091185Y-80884554D01*
X117110289Y-80871789D01*
X117221789Y-80760289D01*
X117309394Y-80629179D01*
X117312854Y-80620827D01*
X117339803Y-80555764D01*
X117369737Y-80483497D01*
X117400500Y-80328842D01*
X117400500Y-80171158D01*
X117400500Y-80171155D01*
X117400499Y-80171153D01*
X117400217Y-80169735D01*
X117369737Y-80016503D01*
X117362384Y-79998752D01*
X117309397Y-79870827D01*
X117309390Y-79870814D01*
X117221789Y-79739711D01*
X117221786Y-79739707D01*
X117110292Y-79628213D01*
X117110288Y-79628210D01*
X116979185Y-79540609D01*
X116979172Y-79540602D01*
X116833501Y-79480264D01*
X116833489Y-79480261D01*
X116678845Y-79449500D01*
X116678842Y-79449500D01*
X116521158Y-79449500D01*
X116521155Y-79449500D01*
X116366510Y-79480261D01*
X116366498Y-79480264D01*
X116220827Y-79540602D01*
X116220814Y-79540609D01*
X116089711Y-79628210D01*
X116089707Y-79628213D01*
X115978213Y-79739707D01*
X115978210Y-79739711D01*
X115890609Y-79870814D01*
X115890602Y-79870827D01*
X115830264Y-80016498D01*
X115830261Y-80016510D01*
X115799500Y-80171153D01*
X113750499Y-80171153D01*
X113750217Y-80169735D01*
X113719737Y-80016503D01*
X113712384Y-79998752D01*
X113659397Y-79870827D01*
X113659390Y-79870814D01*
X113571789Y-79739711D01*
X113571786Y-79739707D01*
X113460292Y-79628213D01*
X113460288Y-79628210D01*
X113329185Y-79540609D01*
X113329172Y-79540602D01*
X113183501Y-79480264D01*
X113183489Y-79480261D01*
X113028845Y-79449500D01*
X113028842Y-79449500D01*
X112871158Y-79449500D01*
X112871155Y-79449500D01*
X112716510Y-79480261D01*
X112716498Y-79480264D01*
X112570827Y-79540602D01*
X112570814Y-79540609D01*
X112439711Y-79628210D01*
X112439707Y-79628213D01*
X112328213Y-79739707D01*
X112328210Y-79739711D01*
X112240609Y-79870814D01*
X112240602Y-79870827D01*
X112180264Y-80016498D01*
X112180261Y-80016510D01*
X112149500Y-80171153D01*
X112149500Y-80328846D01*
X112180260Y-80483488D01*
X112180263Y-80483498D01*
X112193709Y-80515959D01*
X112201178Y-80585429D01*
X112169902Y-80647908D01*
X112166830Y-80651091D01*
X112128212Y-80689709D01*
X112128208Y-80689714D01*
X112040609Y-80820814D01*
X112040602Y-80820827D01*
X111980264Y-80966498D01*
X111980261Y-80966510D01*
X111949500Y-81121153D01*
X106015554Y-81121153D01*
X106001499Y-81050499D01*
X105994737Y-81016503D01*
X105974030Y-80966511D01*
X105934397Y-80870827D01*
X105934390Y-80870814D01*
X105846789Y-80739711D01*
X105846786Y-80739707D01*
X105735292Y-80628213D01*
X105735288Y-80628210D01*
X105604185Y-80540609D01*
X105604172Y-80540602D01*
X105458501Y-80480264D01*
X105458489Y-80480261D01*
X105303845Y-80449500D01*
X105303842Y-80449500D01*
X105146158Y-80449500D01*
X105146155Y-80449500D01*
X104991510Y-80480261D01*
X104991498Y-80480264D01*
X104845827Y-80540602D01*
X104845814Y-80540609D01*
X104714711Y-80628210D01*
X104714707Y-80628213D01*
X104603213Y-80739707D01*
X104603210Y-80739711D01*
X104515609Y-80870814D01*
X104515602Y-80870827D01*
X104455264Y-81016498D01*
X104455261Y-81016510D01*
X104424500Y-81171153D01*
X36805368Y-81171153D01*
X36767466Y-81133251D01*
X36767462Y-81133248D01*
X36603684Y-81023814D01*
X36603671Y-81023807D01*
X36421693Y-80948430D01*
X36421681Y-80948427D01*
X36228495Y-80910000D01*
X35830000Y-80910000D01*
X35830000Y-81610000D01*
X35330000Y-81610000D01*
X35330000Y-81054463D01*
X35349685Y-80987424D01*
X35392000Y-80947076D01*
X35403365Y-80940515D01*
X35510515Y-80833365D01*
X35517754Y-80820827D01*
X35531721Y-80796637D01*
X35586279Y-80702138D01*
X35586281Y-80702135D01*
X35625500Y-80555766D01*
X35625500Y-80404234D01*
X35586281Y-80257865D01*
X35510515Y-80126635D01*
X35403365Y-80019485D01*
X35319661Y-79971158D01*
X35272136Y-79943719D01*
X35147382Y-79910292D01*
X35125766Y-79904500D01*
X34974234Y-79904500D01*
X34827863Y-79943719D01*
X34696635Y-80019485D01*
X34696632Y-80019487D01*
X34589487Y-80126632D01*
X34589485Y-80126635D01*
X34513719Y-80257863D01*
X34505386Y-80288963D01*
X34474500Y-80404234D01*
X34474500Y-80555766D01*
X34484344Y-80592506D01*
X34513719Y-80702136D01*
X34546775Y-80759390D01*
X34589485Y-80833365D01*
X34589487Y-80833367D01*
X34594432Y-80839811D01*
X34591612Y-80841974D01*
X34617302Y-80889020D01*
X34612318Y-80958712D01*
X34570446Y-81014645D01*
X34561379Y-81020416D01*
X34561387Y-81020427D01*
X34392536Y-81133248D01*
X34253251Y-81272533D01*
X34253248Y-81272537D01*
X34143814Y-81436315D01*
X34143807Y-81436328D01*
X34068430Y-81618307D01*
X34068430Y-81618309D01*
X34060138Y-81660000D01*
X32669862Y-81660000D01*
X32661569Y-81618309D01*
X32661569Y-81618307D01*
X32586192Y-81436328D01*
X32586185Y-81436315D01*
X32476751Y-81272537D01*
X32476748Y-81272533D01*
X32337466Y-81133251D01*
X32337462Y-81133248D01*
X32173684Y-81023814D01*
X32173671Y-81023807D01*
X31991693Y-80948430D01*
X31991681Y-80948427D01*
X31798495Y-80910000D01*
X31650000Y-80910000D01*
X31650000Y-81610000D01*
X31150000Y-81610000D01*
X31150000Y-80910000D01*
X31001504Y-80910000D01*
X30808318Y-80948427D01*
X30808306Y-80948430D01*
X30626328Y-81023807D01*
X30626315Y-81023814D01*
X30462537Y-81133248D01*
X30462533Y-81133251D01*
X30323251Y-81272533D01*
X30323248Y-81272537D01*
X30213814Y-81436315D01*
X30213807Y-81436328D01*
X30138430Y-81618307D01*
X30138430Y-81618309D01*
X30130138Y-81660000D01*
X27875500Y-81660000D01*
X27875500Y-79321153D01*
X76624500Y-79321153D01*
X76624500Y-79478846D01*
X76655261Y-79633489D01*
X76655264Y-79633501D01*
X76715602Y-79779172D01*
X76715609Y-79779185D01*
X76803210Y-79910288D01*
X76803213Y-79910292D01*
X76914707Y-80021786D01*
X76914711Y-80021789D01*
X77045814Y-80109390D01*
X77045827Y-80109397D01*
X77191498Y-80169735D01*
X77191503Y-80169737D01*
X77332856Y-80197854D01*
X77346153Y-80200499D01*
X77346156Y-80200500D01*
X77346158Y-80200500D01*
X77503844Y-80200500D01*
X77503845Y-80200499D01*
X77658497Y-80169737D01*
X77776592Y-80120821D01*
X77804172Y-80109397D01*
X77804172Y-80109396D01*
X77804179Y-80109394D01*
X77935289Y-80021789D01*
X78046789Y-79910289D01*
X78134394Y-79779179D01*
X78194737Y-79633497D01*
X78225500Y-79478842D01*
X78225500Y-79409617D01*
X97991807Y-79409617D01*
X97991807Y-79567310D01*
X98022568Y-79721953D01*
X98022571Y-79721965D01*
X98082909Y-79867636D01*
X98082916Y-79867649D01*
X98170517Y-79998752D01*
X98170520Y-79998756D01*
X98282014Y-80110250D01*
X98282018Y-80110253D01*
X98413121Y-80197854D01*
X98413134Y-80197861D01*
X98557994Y-80257863D01*
X98558810Y-80258201D01*
X98685941Y-80283489D01*
X98713460Y-80288963D01*
X98713463Y-80288964D01*
X98713465Y-80288964D01*
X98871151Y-80288964D01*
X98871152Y-80288963D01*
X99025804Y-80258201D01*
X99171486Y-80197858D01*
X99302596Y-80110253D01*
X99414096Y-79998753D01*
X99432538Y-79971153D01*
X106149500Y-79971153D01*
X106149500Y-80128846D01*
X106180261Y-80283489D01*
X106180264Y-80283501D01*
X106240602Y-80429172D01*
X106240609Y-80429185D01*
X106328210Y-80560288D01*
X106328213Y-80560292D01*
X106439707Y-80671786D01*
X106439711Y-80671789D01*
X106570814Y-80759390D01*
X106570827Y-80759397D01*
X106660734Y-80796637D01*
X106716503Y-80819737D01*
X106871153Y-80850499D01*
X106871156Y-80850500D01*
X106871158Y-80850500D01*
X107028844Y-80850500D01*
X107028845Y-80850499D01*
X107183497Y-80819737D01*
X107301592Y-80770821D01*
X107329172Y-80759397D01*
X107329172Y-80759396D01*
X107329179Y-80759394D01*
X107460289Y-80671789D01*
X107571789Y-80560289D01*
X107659394Y-80429179D01*
X107662719Y-80421153D01*
X107679655Y-80380264D01*
X107719737Y-80283497D01*
X107750500Y-80128842D01*
X107750500Y-79971158D01*
X107750500Y-79971155D01*
X107750499Y-79971153D01*
X107732012Y-79878213D01*
X107719737Y-79816503D01*
X107719735Y-79816498D01*
X107659397Y-79670827D01*
X107659390Y-79670814D01*
X107571789Y-79539711D01*
X107571786Y-79539707D01*
X107460292Y-79428213D01*
X107460288Y-79428210D01*
X107329185Y-79340609D01*
X107329172Y-79340602D01*
X107183501Y-79280264D01*
X107183489Y-79280261D01*
X107028845Y-79249500D01*
X107028842Y-79249500D01*
X106871158Y-79249500D01*
X106871155Y-79249500D01*
X106716510Y-79280261D01*
X106716498Y-79280264D01*
X106570827Y-79340602D01*
X106570814Y-79340609D01*
X106439711Y-79428210D01*
X106439707Y-79428213D01*
X106328213Y-79539707D01*
X106328210Y-79539711D01*
X106240609Y-79670814D01*
X106240602Y-79670827D01*
X106180264Y-79816498D01*
X106180261Y-79816510D01*
X106149500Y-79971153D01*
X99432538Y-79971153D01*
X99473206Y-79910289D01*
X99482637Y-79896175D01*
X99501697Y-79867649D01*
X99501697Y-79867648D01*
X99501701Y-79867643D01*
X99562044Y-79721961D01*
X99592807Y-79567306D01*
X99592807Y-79440633D01*
X99612492Y-79373594D01*
X99629121Y-79352956D01*
X99721789Y-79260289D01*
X99809394Y-79129179D01*
X99869737Y-78983497D01*
X99900500Y-78828842D01*
X99900500Y-78671158D01*
X99900500Y-78671155D01*
X99900499Y-78671153D01*
X99892365Y-78630261D01*
X99869737Y-78516503D01*
X99850955Y-78471158D01*
X99850953Y-78471153D01*
X120899500Y-78471153D01*
X120899500Y-78628846D01*
X120930261Y-78783489D01*
X120930264Y-78783501D01*
X120990602Y-78929172D01*
X120990609Y-78929185D01*
X121078210Y-79060288D01*
X121078213Y-79060292D01*
X121189707Y-79171786D01*
X121189711Y-79171789D01*
X121320814Y-79259390D01*
X121320827Y-79259397D01*
X121466498Y-79319735D01*
X121466503Y-79319737D01*
X121621153Y-79350499D01*
X121621156Y-79350500D01*
X121621158Y-79350500D01*
X121778844Y-79350500D01*
X121778845Y-79350499D01*
X121933497Y-79319737D01*
X122079179Y-79259394D01*
X122210289Y-79171789D01*
X122321789Y-79060289D01*
X122409394Y-78929179D01*
X122469737Y-78783497D01*
X122500500Y-78628842D01*
X122500500Y-78471158D01*
X122500500Y-78471155D01*
X122500499Y-78471153D01*
X122480543Y-78370827D01*
X122469737Y-78316503D01*
X122469735Y-78316498D01*
X122409397Y-78170827D01*
X122409390Y-78170814D01*
X122321789Y-78039711D01*
X122321786Y-78039707D01*
X122210289Y-77928210D01*
X122195259Y-77918168D01*
X122079185Y-77840609D01*
X122079172Y-77840602D01*
X122032217Y-77821153D01*
X133149500Y-77821153D01*
X133149500Y-77978846D01*
X133180261Y-78133489D01*
X133180264Y-78133501D01*
X133240602Y-78279172D01*
X133240609Y-78279185D01*
X133328210Y-78410288D01*
X133328213Y-78410292D01*
X133439707Y-78521786D01*
X133439711Y-78521789D01*
X133570814Y-78609390D01*
X133570827Y-78609397D01*
X133716498Y-78669735D01*
X133716503Y-78669737D01*
X133871153Y-78700499D01*
X133871156Y-78700500D01*
X133871158Y-78700500D01*
X134028844Y-78700500D01*
X134028845Y-78700499D01*
X134183497Y-78669737D01*
X134329179Y-78609394D01*
X134460289Y-78521789D01*
X134571789Y-78410289D01*
X134659394Y-78279179D01*
X134719737Y-78133497D01*
X134750500Y-77978842D01*
X134750500Y-77872902D01*
X134770185Y-77805863D01*
X134822989Y-77760108D01*
X134892147Y-77750164D01*
X134955703Y-77779189D01*
X134989062Y-77825451D01*
X134990605Y-77829178D01*
X134990609Y-77829185D01*
X135078210Y-77960288D01*
X135078213Y-77960292D01*
X135189707Y-78071786D01*
X135189711Y-78071789D01*
X135320814Y-78159390D01*
X135320827Y-78159397D01*
X135466498Y-78219735D01*
X135466503Y-78219737D01*
X135621153Y-78250499D01*
X135621156Y-78250500D01*
X135621158Y-78250500D01*
X135778844Y-78250500D01*
X135778845Y-78250499D01*
X135933497Y-78219737D01*
X136051592Y-78170821D01*
X136079172Y-78159397D01*
X136079172Y-78159396D01*
X136079179Y-78159394D01*
X136210289Y-78071789D01*
X136321789Y-77960289D01*
X136409394Y-77829179D01*
X136412719Y-77821153D01*
X136429655Y-77780264D01*
X136469737Y-77683497D01*
X136500500Y-77528842D01*
X136500500Y-77371158D01*
X136500500Y-77371155D01*
X136500499Y-77371153D01*
X136495245Y-77344738D01*
X136469737Y-77216503D01*
X136461570Y-77196786D01*
X136409397Y-77070827D01*
X136409390Y-77070814D01*
X136321789Y-76939711D01*
X136321786Y-76939707D01*
X136210292Y-76828213D01*
X136210288Y-76828210D01*
X136079185Y-76740609D01*
X136079172Y-76740602D01*
X135933501Y-76680264D01*
X135933489Y-76680261D01*
X135778845Y-76649500D01*
X135778842Y-76649500D01*
X135621158Y-76649500D01*
X135621155Y-76649500D01*
X135466510Y-76680261D01*
X135466498Y-76680264D01*
X135320827Y-76740602D01*
X135320814Y-76740609D01*
X135189711Y-76828210D01*
X135189707Y-76828213D01*
X135078213Y-76939707D01*
X135078210Y-76939711D01*
X134990609Y-77070814D01*
X134990602Y-77070827D01*
X134930264Y-77216498D01*
X134930261Y-77216510D01*
X134899500Y-77371153D01*
X134899500Y-77477097D01*
X134879815Y-77544136D01*
X134827011Y-77589891D01*
X134757853Y-77599835D01*
X134694297Y-77570810D01*
X134660940Y-77524552D01*
X134659396Y-77520826D01*
X134659390Y-77520814D01*
X134571789Y-77389711D01*
X134571786Y-77389707D01*
X134460292Y-77278213D01*
X134460288Y-77278210D01*
X134329185Y-77190609D01*
X134329172Y-77190602D01*
X134183501Y-77130264D01*
X134183489Y-77130261D01*
X134028845Y-77099500D01*
X134028842Y-77099500D01*
X133871158Y-77099500D01*
X133871155Y-77099500D01*
X133716510Y-77130261D01*
X133716498Y-77130264D01*
X133570827Y-77190602D01*
X133570814Y-77190609D01*
X133439711Y-77278210D01*
X133439707Y-77278213D01*
X133328213Y-77389707D01*
X133328210Y-77389711D01*
X133240609Y-77520814D01*
X133240602Y-77520827D01*
X133180264Y-77666498D01*
X133180261Y-77666510D01*
X133149500Y-77821153D01*
X122032217Y-77821153D01*
X121933501Y-77780264D01*
X121933489Y-77780261D01*
X121778845Y-77749500D01*
X121778842Y-77749500D01*
X121621158Y-77749500D01*
X121621155Y-77749500D01*
X121466510Y-77780261D01*
X121466498Y-77780264D01*
X121320827Y-77840602D01*
X121320814Y-77840609D01*
X121189711Y-77928210D01*
X121189707Y-77928213D01*
X121078213Y-78039707D01*
X121078210Y-78039711D01*
X120990609Y-78170814D01*
X120990602Y-78170827D01*
X120930264Y-78316498D01*
X120930261Y-78316510D01*
X120899500Y-78471153D01*
X99850953Y-78471153D01*
X99809397Y-78370827D01*
X99809390Y-78370814D01*
X99721789Y-78239711D01*
X99721786Y-78239707D01*
X99610292Y-78128213D01*
X99610288Y-78128210D01*
X99479185Y-78040609D01*
X99479172Y-78040602D01*
X99333501Y-77980264D01*
X99333489Y-77980261D01*
X99178845Y-77949500D01*
X99178842Y-77949500D01*
X99021158Y-77949500D01*
X99021155Y-77949500D01*
X98866510Y-77980261D01*
X98866498Y-77980264D01*
X98720827Y-78040602D01*
X98720814Y-78040609D01*
X98589711Y-78128210D01*
X98589707Y-78128213D01*
X98478213Y-78239707D01*
X98478210Y-78239711D01*
X98390609Y-78370814D01*
X98390602Y-78370827D01*
X98330264Y-78516498D01*
X98330261Y-78516510D01*
X98299500Y-78671153D01*
X98299500Y-78797830D01*
X98279815Y-78864869D01*
X98263181Y-78885511D01*
X98170520Y-78978171D01*
X98170517Y-78978175D01*
X98082916Y-79109278D01*
X98082909Y-79109291D01*
X98022571Y-79254962D01*
X98022568Y-79254974D01*
X97991807Y-79409617D01*
X78225500Y-79409617D01*
X78225500Y-79321158D01*
X78225500Y-79321155D01*
X78225499Y-79321153D01*
X78195788Y-79171789D01*
X78194737Y-79166503D01*
X78194735Y-79166498D01*
X78134397Y-79020827D01*
X78134390Y-79020814D01*
X78046789Y-78889711D01*
X78046786Y-78889707D01*
X77935292Y-78778213D01*
X77935288Y-78778210D01*
X77804185Y-78690609D01*
X77804172Y-78690602D01*
X77658501Y-78630264D01*
X77658489Y-78630261D01*
X77503845Y-78599500D01*
X77503842Y-78599500D01*
X77346158Y-78599500D01*
X77346155Y-78599500D01*
X77191510Y-78630261D01*
X77191498Y-78630264D01*
X77045827Y-78690602D01*
X77045814Y-78690609D01*
X76914711Y-78778210D01*
X76914707Y-78778213D01*
X76803213Y-78889707D01*
X76803210Y-78889711D01*
X76715609Y-79020814D01*
X76715602Y-79020827D01*
X76655264Y-79166498D01*
X76655261Y-79166510D01*
X76624500Y-79321153D01*
X27875500Y-79321153D01*
X27875500Y-76496153D01*
X66549500Y-76496153D01*
X66549500Y-76653846D01*
X66580261Y-76808489D01*
X66580264Y-76808501D01*
X66640602Y-76954172D01*
X66640609Y-76954185D01*
X66728210Y-77085288D01*
X66728213Y-77085292D01*
X66839707Y-77196786D01*
X66839711Y-77196789D01*
X66970814Y-77284390D01*
X66970827Y-77284397D01*
X67078138Y-77328846D01*
X67116503Y-77344737D01*
X67271153Y-77375499D01*
X67271156Y-77375500D01*
X67271158Y-77375500D01*
X67428844Y-77375500D01*
X67428845Y-77375499D01*
X67583497Y-77344737D01*
X67729179Y-77284394D01*
X67860289Y-77196789D01*
X67971789Y-77085289D01*
X68059394Y-76954179D01*
X68065389Y-76939707D01*
X68073067Y-76921166D01*
X68119737Y-76808497D01*
X68150500Y-76653842D01*
X68150500Y-76571153D01*
X101149500Y-76571153D01*
X101149500Y-76728846D01*
X101180261Y-76883489D01*
X101180264Y-76883501D01*
X101240602Y-77029172D01*
X101240609Y-77029185D01*
X101328210Y-77160288D01*
X101328213Y-77160292D01*
X101439707Y-77271786D01*
X101439711Y-77271789D01*
X101570814Y-77359390D01*
X101570818Y-77359392D01*
X101570821Y-77359394D01*
X101714138Y-77418757D01*
X101768537Y-77462595D01*
X101781243Y-77485864D01*
X101840602Y-77629172D01*
X101840609Y-77629185D01*
X101928210Y-77760288D01*
X101928213Y-77760292D01*
X102039707Y-77871786D01*
X102039711Y-77871789D01*
X102170814Y-77959390D01*
X102170827Y-77959397D01*
X102316498Y-78019735D01*
X102316503Y-78019737D01*
X102471153Y-78050499D01*
X102471156Y-78050500D01*
X102471158Y-78050500D01*
X102628844Y-78050500D01*
X102628845Y-78050499D01*
X102783497Y-78019737D01*
X102929179Y-77959394D01*
X103060289Y-77871789D01*
X103171789Y-77760289D01*
X103259394Y-77629179D01*
X103319737Y-77483497D01*
X103350500Y-77328842D01*
X103350500Y-77171158D01*
X103350500Y-77171155D01*
X103350499Y-77171153D01*
X103330543Y-77070827D01*
X103319737Y-77016503D01*
X103287929Y-76939711D01*
X103259397Y-76870827D01*
X103259390Y-76870814D01*
X103171789Y-76739711D01*
X103171786Y-76739707D01*
X103060292Y-76628213D01*
X103060288Y-76628210D01*
X102929185Y-76540609D01*
X102929172Y-76540602D01*
X102785864Y-76481243D01*
X102731460Y-76437402D01*
X102718761Y-76414147D01*
X102659394Y-76270821D01*
X102659392Y-76270818D01*
X102659390Y-76270814D01*
X102571789Y-76139711D01*
X102571786Y-76139707D01*
X102460292Y-76028213D01*
X102460288Y-76028210D01*
X102329185Y-75940609D01*
X102329172Y-75940602D01*
X102183501Y-75880264D01*
X102183489Y-75880261D01*
X102028845Y-75849500D01*
X102028842Y-75849500D01*
X101871158Y-75849500D01*
X101871155Y-75849500D01*
X101716510Y-75880261D01*
X101716498Y-75880264D01*
X101570827Y-75940602D01*
X101570814Y-75940609D01*
X101439711Y-76028210D01*
X101439707Y-76028213D01*
X101328213Y-76139707D01*
X101328210Y-76139711D01*
X101240609Y-76270814D01*
X101240602Y-76270827D01*
X101180264Y-76416498D01*
X101180261Y-76416510D01*
X101149500Y-76571153D01*
X68150500Y-76571153D01*
X68150500Y-76496158D01*
X68150500Y-76496155D01*
X68150499Y-76496153D01*
X68140015Y-76443449D01*
X68119737Y-76341503D01*
X68106808Y-76310289D01*
X68059397Y-76195827D01*
X68059390Y-76195814D01*
X67971789Y-76064711D01*
X67971786Y-76064707D01*
X67860292Y-75953213D01*
X67860288Y-75953210D01*
X67729185Y-75865609D01*
X67729172Y-75865602D01*
X67583501Y-75805264D01*
X67583489Y-75805261D01*
X67428845Y-75774500D01*
X67428842Y-75774500D01*
X67271158Y-75774500D01*
X67271155Y-75774500D01*
X67116510Y-75805261D01*
X67116498Y-75805264D01*
X66970827Y-75865602D01*
X66970814Y-75865609D01*
X66839711Y-75953210D01*
X66839707Y-75953213D01*
X66728213Y-76064707D01*
X66728210Y-76064711D01*
X66640609Y-76195814D01*
X66640602Y-76195827D01*
X66580264Y-76341498D01*
X66580261Y-76341510D01*
X66549500Y-76496153D01*
X27875500Y-76496153D01*
X27875500Y-75571153D01*
X94349500Y-75571153D01*
X94349500Y-75728846D01*
X94380261Y-75883489D01*
X94380264Y-75883501D01*
X94440602Y-76029172D01*
X94440609Y-76029185D01*
X94528210Y-76160288D01*
X94528213Y-76160292D01*
X94639707Y-76271786D01*
X94639711Y-76271789D01*
X94770814Y-76359390D01*
X94770827Y-76359397D01*
X94902976Y-76414134D01*
X94916503Y-76419737D01*
X95071153Y-76450499D01*
X95071156Y-76450500D01*
X95071158Y-76450500D01*
X95228844Y-76450500D01*
X95228845Y-76450499D01*
X95239179Y-76448443D01*
X95264287Y-76443450D01*
X95264292Y-76443449D01*
X95349800Y-76426439D01*
X95383497Y-76419737D01*
X95527011Y-76360292D01*
X95529172Y-76359397D01*
X95529172Y-76359396D01*
X95529179Y-76359394D01*
X95660289Y-76271789D01*
X95771789Y-76160289D01*
X95859394Y-76029179D01*
X95919737Y-75883497D01*
X95942084Y-75771153D01*
X105124500Y-75771153D01*
X105124500Y-75928846D01*
X105155261Y-76083489D01*
X105155264Y-76083501D01*
X105215602Y-76229172D01*
X105215609Y-76229185D01*
X105303210Y-76360288D01*
X105303213Y-76360292D01*
X105414707Y-76471786D01*
X105414711Y-76471789D01*
X105545814Y-76559390D01*
X105545827Y-76559397D01*
X105691498Y-76619735D01*
X105691503Y-76619737D01*
X105841131Y-76649500D01*
X105846153Y-76650499D01*
X105846156Y-76650500D01*
X105846158Y-76650500D01*
X106003844Y-76650500D01*
X106003845Y-76650499D01*
X106158497Y-76619737D01*
X106304179Y-76559394D01*
X106435289Y-76471789D01*
X106546789Y-76360289D01*
X106562894Y-76336186D01*
X106616505Y-76291382D01*
X106685830Y-76282673D01*
X106734887Y-76301975D01*
X106820814Y-76359390D01*
X106820827Y-76359397D01*
X106952976Y-76414134D01*
X106966503Y-76419737D01*
X107121153Y-76450499D01*
X107121156Y-76450500D01*
X107121158Y-76450500D01*
X107278844Y-76450500D01*
X107278845Y-76450499D01*
X107433497Y-76419737D01*
X107577011Y-76360292D01*
X107579172Y-76359397D01*
X107579172Y-76359396D01*
X107579179Y-76359394D01*
X107710289Y-76271789D01*
X107821789Y-76160289D01*
X107909394Y-76029179D01*
X107969737Y-75883497D01*
X108000500Y-75728842D01*
X108000500Y-75721153D01*
X108549500Y-75721153D01*
X108549500Y-75878846D01*
X108580261Y-76033489D01*
X108580264Y-76033501D01*
X108640602Y-76179172D01*
X108640609Y-76179185D01*
X108728210Y-76310288D01*
X108728213Y-76310292D01*
X108839707Y-76421786D01*
X108839711Y-76421789D01*
X108970814Y-76509390D01*
X108970827Y-76509397D01*
X109116498Y-76569735D01*
X109116503Y-76569737D01*
X109271153Y-76600499D01*
X109271156Y-76600500D01*
X109271158Y-76600500D01*
X109428844Y-76600500D01*
X109428845Y-76600499D01*
X109583497Y-76569737D01*
X109729179Y-76509394D01*
X109860289Y-76421789D01*
X109971789Y-76310289D01*
X110059394Y-76179179D01*
X110119737Y-76033497D01*
X110150500Y-75878842D01*
X110150500Y-75821153D01*
X123549500Y-75821153D01*
X123549500Y-75978846D01*
X123580261Y-76133489D01*
X123580264Y-76133501D01*
X123640602Y-76279172D01*
X123640609Y-76279185D01*
X123728210Y-76410288D01*
X123728213Y-76410292D01*
X123839707Y-76521786D01*
X123839711Y-76521789D01*
X123970814Y-76609390D01*
X123970827Y-76609397D01*
X124078138Y-76653846D01*
X124116503Y-76669737D01*
X124271153Y-76700499D01*
X124271156Y-76700500D01*
X124271158Y-76700500D01*
X124428844Y-76700500D01*
X124428845Y-76700499D01*
X124583497Y-76669737D01*
X124729179Y-76609394D01*
X124860289Y-76521789D01*
X124971789Y-76410289D01*
X125059394Y-76279179D01*
X125062854Y-76270827D01*
X125080102Y-76229185D01*
X125119737Y-76133497D01*
X125150500Y-75978842D01*
X125150500Y-75821158D01*
X125150500Y-75821155D01*
X125150499Y-75821153D01*
X125132137Y-75728842D01*
X125119737Y-75666503D01*
X125101215Y-75621786D01*
X125059397Y-75520827D01*
X125059390Y-75520814D01*
X124971789Y-75389711D01*
X124971786Y-75389707D01*
X124860292Y-75278213D01*
X124860288Y-75278210D01*
X124729185Y-75190609D01*
X124729172Y-75190602D01*
X124583501Y-75130264D01*
X124583489Y-75130261D01*
X124428845Y-75099500D01*
X124428842Y-75099500D01*
X124271158Y-75099500D01*
X124271155Y-75099500D01*
X124116510Y-75130261D01*
X124116498Y-75130264D01*
X123970827Y-75190602D01*
X123970814Y-75190609D01*
X123839711Y-75278210D01*
X123839707Y-75278213D01*
X123728213Y-75389707D01*
X123728210Y-75389711D01*
X123640609Y-75520814D01*
X123640602Y-75520827D01*
X123580264Y-75666498D01*
X123580261Y-75666510D01*
X123549500Y-75821153D01*
X110150500Y-75821153D01*
X110150500Y-75721158D01*
X110150500Y-75721155D01*
X110150499Y-75721153D01*
X110130734Y-75621789D01*
X110119737Y-75566503D01*
X110080102Y-75470814D01*
X110059397Y-75420827D01*
X110059390Y-75420814D01*
X109971789Y-75289711D01*
X109971786Y-75289707D01*
X109860292Y-75178213D01*
X109860288Y-75178210D01*
X109729185Y-75090609D01*
X109729172Y-75090602D01*
X109583501Y-75030264D01*
X109583489Y-75030261D01*
X109428845Y-74999500D01*
X109428842Y-74999500D01*
X109271158Y-74999500D01*
X109271155Y-74999500D01*
X109116510Y-75030261D01*
X109116498Y-75030264D01*
X108970827Y-75090602D01*
X108970814Y-75090609D01*
X108839711Y-75178210D01*
X108839707Y-75178213D01*
X108728213Y-75289707D01*
X108728210Y-75289711D01*
X108640609Y-75420814D01*
X108640602Y-75420827D01*
X108580264Y-75566498D01*
X108580261Y-75566510D01*
X108549500Y-75721153D01*
X108000500Y-75721153D01*
X108000500Y-75571158D01*
X108000500Y-75571155D01*
X108000499Y-75571153D01*
X107980543Y-75470827D01*
X107969737Y-75416503D01*
X107969735Y-75416498D01*
X107909397Y-75270827D01*
X107909390Y-75270814D01*
X107821789Y-75139711D01*
X107821786Y-75139707D01*
X107710292Y-75028213D01*
X107710288Y-75028210D01*
X107579185Y-74940609D01*
X107579172Y-74940602D01*
X107433501Y-74880264D01*
X107433489Y-74880261D01*
X107278845Y-74849500D01*
X107278842Y-74849500D01*
X107121158Y-74849500D01*
X107121155Y-74849500D01*
X106966510Y-74880261D01*
X106966498Y-74880264D01*
X106820827Y-74940602D01*
X106820814Y-74940609D01*
X106689711Y-75028210D01*
X106689707Y-75028213D01*
X106578213Y-75139707D01*
X106578209Y-75139712D01*
X106562103Y-75163816D01*
X106508490Y-75208619D01*
X106439164Y-75217325D01*
X106390112Y-75198024D01*
X106304185Y-75140609D01*
X106304172Y-75140602D01*
X106158501Y-75080264D01*
X106158489Y-75080261D01*
X106003845Y-75049500D01*
X106003842Y-75049500D01*
X105846158Y-75049500D01*
X105846155Y-75049500D01*
X105691510Y-75080261D01*
X105691498Y-75080264D01*
X105545827Y-75140602D01*
X105545814Y-75140609D01*
X105414711Y-75228210D01*
X105414707Y-75228213D01*
X105303213Y-75339707D01*
X105303210Y-75339711D01*
X105215609Y-75470814D01*
X105215602Y-75470827D01*
X105155264Y-75616498D01*
X105155261Y-75616510D01*
X105124500Y-75771153D01*
X95942084Y-75771153D01*
X95950500Y-75728842D01*
X95950500Y-75571158D01*
X95950500Y-75571155D01*
X95950499Y-75571153D01*
X95930543Y-75470827D01*
X95919737Y-75416503D01*
X95919735Y-75416498D01*
X95859397Y-75270827D01*
X95859390Y-75270814D01*
X95771789Y-75139711D01*
X95771786Y-75139707D01*
X95660292Y-75028213D01*
X95660288Y-75028210D01*
X95529185Y-74940609D01*
X95529172Y-74940602D01*
X95383501Y-74880264D01*
X95383489Y-74880261D01*
X95228845Y-74849500D01*
X95228842Y-74849500D01*
X95071158Y-74849500D01*
X95071155Y-74849500D01*
X94916510Y-74880261D01*
X94916498Y-74880264D01*
X94770827Y-74940602D01*
X94770814Y-74940609D01*
X94639711Y-75028210D01*
X94639707Y-75028213D01*
X94528213Y-75139707D01*
X94528210Y-75139711D01*
X94440609Y-75270814D01*
X94440602Y-75270827D01*
X94380264Y-75416498D01*
X94380261Y-75416510D01*
X94349500Y-75571153D01*
X27875500Y-75571153D01*
X27875500Y-73020000D01*
X30130138Y-73020000D01*
X30933012Y-73020000D01*
X30915795Y-73029940D01*
X30859940Y-73085795D01*
X30820444Y-73154204D01*
X30800000Y-73230504D01*
X30800000Y-73309496D01*
X30820444Y-73385796D01*
X30859940Y-73454205D01*
X30915795Y-73510060D01*
X30933012Y-73520000D01*
X30130138Y-73520000D01*
X30138430Y-73561690D01*
X30138430Y-73561692D01*
X30213807Y-73743671D01*
X30213814Y-73743684D01*
X30323248Y-73907462D01*
X30323251Y-73907466D01*
X30462533Y-74046748D01*
X30462537Y-74046751D01*
X30626315Y-74156185D01*
X30626328Y-74156192D01*
X30808306Y-74231569D01*
X30808318Y-74231572D01*
X31001504Y-74269999D01*
X31001508Y-74270000D01*
X31150000Y-74270000D01*
X31150000Y-73570000D01*
X31650000Y-73570000D01*
X31650000Y-74270000D01*
X31798492Y-74270000D01*
X31798495Y-74269999D01*
X31991681Y-74231572D01*
X31991693Y-74231569D01*
X32173671Y-74156192D01*
X32173684Y-74156185D01*
X32337462Y-74046751D01*
X32337466Y-74046748D01*
X32476748Y-73907466D01*
X32476751Y-73907462D01*
X32586185Y-73743684D01*
X32586192Y-73743671D01*
X32661569Y-73561692D01*
X32661569Y-73561690D01*
X32669862Y-73520000D01*
X31866988Y-73520000D01*
X31884205Y-73510060D01*
X31940060Y-73454205D01*
X31979556Y-73385796D01*
X32000000Y-73309496D01*
X32000000Y-73230504D01*
X31979556Y-73154204D01*
X31940060Y-73085795D01*
X31884205Y-73029940D01*
X31866988Y-73020000D01*
X32669862Y-73020000D01*
X34060138Y-73020000D01*
X34863012Y-73020000D01*
X34845795Y-73029940D01*
X34789940Y-73085795D01*
X34750444Y-73154204D01*
X34730000Y-73230504D01*
X34730000Y-73309496D01*
X34750444Y-73385796D01*
X34789940Y-73454205D01*
X34845795Y-73510060D01*
X34863012Y-73520000D01*
X34060138Y-73520000D01*
X34068430Y-73561690D01*
X34068430Y-73561692D01*
X34143807Y-73743671D01*
X34143814Y-73743684D01*
X34253248Y-73907462D01*
X34253251Y-73907466D01*
X34392533Y-74046748D01*
X34392537Y-74046751D01*
X34561387Y-74159574D01*
X34560430Y-74161005D01*
X34604425Y-74204211D01*
X34619895Y-74272346D01*
X34596072Y-74338029D01*
X34594309Y-74340094D01*
X34594432Y-74340189D01*
X34589485Y-74346635D01*
X34513719Y-74477863D01*
X34474500Y-74624234D01*
X34474500Y-74775765D01*
X34513719Y-74922136D01*
X34524381Y-74940602D01*
X34589485Y-75053365D01*
X34696635Y-75160515D01*
X34810281Y-75226129D01*
X34824596Y-75234394D01*
X34827865Y-75236281D01*
X34974234Y-75275500D01*
X34974236Y-75275500D01*
X35125764Y-75275500D01*
X35125766Y-75275500D01*
X35272135Y-75236281D01*
X35403365Y-75160515D01*
X35510515Y-75053365D01*
X35586281Y-74922135D01*
X35625500Y-74775766D01*
X35625500Y-74624234D01*
X35586281Y-74477865D01*
X35586279Y-74477861D01*
X35585822Y-74477069D01*
X35585821Y-74477067D01*
X35585820Y-74477066D01*
X35553538Y-74421153D01*
X98099500Y-74421153D01*
X98099500Y-74578846D01*
X98130261Y-74733489D01*
X98130264Y-74733501D01*
X98190602Y-74879172D01*
X98190609Y-74879185D01*
X98278210Y-75010288D01*
X98278213Y-75010292D01*
X98389707Y-75121786D01*
X98389711Y-75121789D01*
X98520814Y-75209390D01*
X98520827Y-75209397D01*
X98585732Y-75236281D01*
X98666503Y-75269737D01*
X98792176Y-75294735D01*
X98821153Y-75300499D01*
X98821156Y-75300500D01*
X98821158Y-75300500D01*
X98978844Y-75300500D01*
X98978845Y-75300499D01*
X99133497Y-75269737D01*
X99279179Y-75209394D01*
X99410289Y-75121789D01*
X99521789Y-75010289D01*
X99609394Y-74879179D01*
X99669737Y-74733497D01*
X99700500Y-74578842D01*
X99700500Y-74421158D01*
X99700500Y-74421155D01*
X99700499Y-74421153D01*
X99684375Y-74340094D01*
X99669737Y-74266503D01*
X99658545Y-74239483D01*
X99609397Y-74120827D01*
X99609390Y-74120814D01*
X99521789Y-73989711D01*
X99521786Y-73989707D01*
X99410292Y-73878213D01*
X99410288Y-73878210D01*
X99279185Y-73790609D01*
X99279172Y-73790602D01*
X99200232Y-73757905D01*
X99145828Y-73714065D01*
X99123763Y-73647771D01*
X99141042Y-73580071D01*
X99192179Y-73532460D01*
X99223493Y-73521726D01*
X99233497Y-73519737D01*
X99379179Y-73459394D01*
X99436411Y-73421153D01*
X112399500Y-73421153D01*
X112399500Y-73578846D01*
X112430261Y-73733489D01*
X112430264Y-73733501D01*
X112490602Y-73879172D01*
X112490609Y-73879185D01*
X112578210Y-74010288D01*
X112578213Y-74010292D01*
X112689707Y-74121786D01*
X112689711Y-74121789D01*
X112820814Y-74209390D01*
X112820827Y-74209397D01*
X112893472Y-74239487D01*
X112966503Y-74269737D01*
X113075963Y-74291510D01*
X113121153Y-74300499D01*
X113121156Y-74300500D01*
X113121158Y-74300500D01*
X113278844Y-74300500D01*
X113278845Y-74300499D01*
X113426378Y-74271153D01*
X119649500Y-74271153D01*
X119649500Y-74428846D01*
X119680261Y-74583489D01*
X119680264Y-74583501D01*
X119740602Y-74729172D01*
X119740609Y-74729185D01*
X119828210Y-74860288D01*
X119828213Y-74860292D01*
X119939707Y-74971786D01*
X119939711Y-74971789D01*
X120070814Y-75059390D01*
X120070827Y-75059397D01*
X120146181Y-75090609D01*
X120216503Y-75119737D01*
X120352487Y-75146786D01*
X120371153Y-75150499D01*
X120371156Y-75150500D01*
X120371158Y-75150500D01*
X120528844Y-75150500D01*
X120528845Y-75150499D01*
X120683497Y-75119737D01*
X120829179Y-75059394D01*
X120960289Y-74971789D01*
X121010925Y-74921153D01*
X126899500Y-74921153D01*
X126899500Y-75078846D01*
X126930261Y-75233489D01*
X126930264Y-75233501D01*
X126990602Y-75379172D01*
X126990609Y-75379185D01*
X127078210Y-75510288D01*
X127078213Y-75510292D01*
X127189707Y-75621786D01*
X127189711Y-75621789D01*
X127320814Y-75709390D01*
X127320827Y-75709397D01*
X127466498Y-75769735D01*
X127466503Y-75769737D01*
X127621153Y-75800499D01*
X127621156Y-75800500D01*
X127621158Y-75800500D01*
X127778844Y-75800500D01*
X127778845Y-75800499D01*
X127933497Y-75769737D01*
X128079179Y-75709394D01*
X128210289Y-75621789D01*
X128321789Y-75510289D01*
X128409394Y-75379179D01*
X128469737Y-75233497D01*
X128500500Y-75078842D01*
X128500500Y-74921158D01*
X128500500Y-74921155D01*
X128500499Y-74921153D01*
X128485585Y-74846175D01*
X128469737Y-74766503D01*
X128469735Y-74766498D01*
X128409397Y-74620827D01*
X128409390Y-74620814D01*
X128334649Y-74508957D01*
X128334648Y-74508955D01*
X128321792Y-74489715D01*
X128321786Y-74489707D01*
X128278232Y-74446153D01*
X132174500Y-74446153D01*
X132174500Y-74603846D01*
X132205261Y-74758489D01*
X132205264Y-74758501D01*
X132265602Y-74904172D01*
X132265609Y-74904185D01*
X132353210Y-75035288D01*
X132353213Y-75035292D01*
X132464707Y-75146786D01*
X132464711Y-75146789D01*
X132595814Y-75234390D01*
X132595827Y-75234397D01*
X132695060Y-75275500D01*
X132741503Y-75294737D01*
X132896153Y-75325499D01*
X132896156Y-75325500D01*
X132896158Y-75325500D01*
X133053844Y-75325500D01*
X133053845Y-75325499D01*
X133208497Y-75294737D01*
X133321166Y-75248067D01*
X133354172Y-75234397D01*
X133354172Y-75234396D01*
X133354179Y-75234394D01*
X133485289Y-75146789D01*
X133596789Y-75035289D01*
X133684394Y-74904179D01*
X133744737Y-74758497D01*
X133775500Y-74603842D01*
X133775500Y-74446158D01*
X133775500Y-74446155D01*
X133775499Y-74446153D01*
X133770527Y-74421158D01*
X133744737Y-74291503D01*
X133744367Y-74290609D01*
X133684397Y-74145827D01*
X133684390Y-74145814D01*
X133596789Y-74014711D01*
X133596786Y-74014707D01*
X133485292Y-73903213D01*
X133485288Y-73903210D01*
X133354185Y-73815609D01*
X133354172Y-73815602D01*
X133208501Y-73755264D01*
X133208489Y-73755261D01*
X133053845Y-73724500D01*
X133053842Y-73724500D01*
X132896158Y-73724500D01*
X132896155Y-73724500D01*
X132741510Y-73755261D01*
X132741498Y-73755264D01*
X132595827Y-73815602D01*
X132595814Y-73815609D01*
X132464711Y-73903210D01*
X132464707Y-73903213D01*
X132353213Y-74014707D01*
X132353210Y-74014711D01*
X132265609Y-74145814D01*
X132265602Y-74145827D01*
X132205264Y-74291498D01*
X132205261Y-74291510D01*
X132174500Y-74446153D01*
X128278232Y-74446153D01*
X128210292Y-74378213D01*
X128210288Y-74378210D01*
X128079185Y-74290609D01*
X128079172Y-74290602D01*
X127933501Y-74230264D01*
X127933489Y-74230261D01*
X127778845Y-74199500D01*
X127778842Y-74199500D01*
X127621158Y-74199500D01*
X127621155Y-74199500D01*
X127466510Y-74230261D01*
X127466498Y-74230264D01*
X127320827Y-74290602D01*
X127320814Y-74290609D01*
X127189711Y-74378210D01*
X127189707Y-74378213D01*
X127078213Y-74489707D01*
X127078210Y-74489711D01*
X126990609Y-74620814D01*
X126990602Y-74620827D01*
X126930264Y-74766498D01*
X126930261Y-74766510D01*
X126899500Y-74921153D01*
X121010925Y-74921153D01*
X121071789Y-74860289D01*
X121159394Y-74729179D01*
X121219737Y-74583497D01*
X121250500Y-74428842D01*
X121250500Y-74271158D01*
X121250500Y-74271155D01*
X121250499Y-74271153D01*
X121236246Y-74199500D01*
X121219737Y-74116503D01*
X121177572Y-74014707D01*
X121159397Y-73970827D01*
X121159390Y-73970814D01*
X121071789Y-73839711D01*
X121071786Y-73839707D01*
X120960292Y-73728213D01*
X120960288Y-73728210D01*
X120829185Y-73640609D01*
X120829172Y-73640602D01*
X120683501Y-73580264D01*
X120683489Y-73580261D01*
X120528845Y-73549500D01*
X120528842Y-73549500D01*
X120371158Y-73549500D01*
X120371155Y-73549500D01*
X120216510Y-73580261D01*
X120216498Y-73580264D01*
X120070827Y-73640602D01*
X120070814Y-73640609D01*
X119939711Y-73728210D01*
X119939707Y-73728213D01*
X119828213Y-73839707D01*
X119828210Y-73839711D01*
X119740609Y-73970814D01*
X119740602Y-73970827D01*
X119680264Y-74116498D01*
X119680261Y-74116510D01*
X119649500Y-74271153D01*
X113426378Y-74271153D01*
X113433497Y-74269737D01*
X113579179Y-74209394D01*
X113586936Y-74204211D01*
X113650164Y-74161964D01*
X113681224Y-74141209D01*
X113710289Y-74121789D01*
X113821789Y-74010289D01*
X113909394Y-73879179D01*
X113969737Y-73733497D01*
X114000500Y-73578842D01*
X114000500Y-73421158D01*
X114000500Y-73421155D01*
X114000499Y-73421153D01*
X113975761Y-73296789D01*
X113969737Y-73266503D01*
X113936099Y-73185292D01*
X113909397Y-73120827D01*
X113909390Y-73120814D01*
X113821789Y-72989711D01*
X113821786Y-72989707D01*
X113710292Y-72878213D01*
X113710288Y-72878210D01*
X113579185Y-72790609D01*
X113579172Y-72790602D01*
X113433501Y-72730264D01*
X113433489Y-72730261D01*
X113278845Y-72699500D01*
X113278842Y-72699500D01*
X113121158Y-72699500D01*
X113121155Y-72699500D01*
X112966510Y-72730261D01*
X112966498Y-72730264D01*
X112820827Y-72790602D01*
X112820814Y-72790609D01*
X112689711Y-72878210D01*
X112689707Y-72878213D01*
X112578213Y-72989707D01*
X112578210Y-72989711D01*
X112490609Y-73120814D01*
X112490602Y-73120827D01*
X112430264Y-73266498D01*
X112430261Y-73266510D01*
X112399500Y-73421153D01*
X99436411Y-73421153D01*
X99510289Y-73371789D01*
X99510292Y-73371786D01*
X99554694Y-73327385D01*
X99621786Y-73260292D01*
X99621789Y-73260289D01*
X99709394Y-73129179D01*
X99712854Y-73120827D01*
X99727364Y-73085795D01*
X99769737Y-72983497D01*
X99800500Y-72828842D01*
X99800500Y-72671158D01*
X99800500Y-72671155D01*
X99800499Y-72671153D01*
X99770788Y-72521789D01*
X99769737Y-72516503D01*
X99760105Y-72493248D01*
X99709397Y-72370827D01*
X99709390Y-72370814D01*
X99621789Y-72239711D01*
X99621786Y-72239707D01*
X99510292Y-72128213D01*
X99510288Y-72128210D01*
X99379185Y-72040609D01*
X99379172Y-72040602D01*
X99233501Y-71980264D01*
X99233489Y-71980261D01*
X99078845Y-71949500D01*
X99078842Y-71949500D01*
X98921158Y-71949500D01*
X98921155Y-71949500D01*
X98766510Y-71980261D01*
X98766498Y-71980264D01*
X98620827Y-72040602D01*
X98620814Y-72040609D01*
X98489711Y-72128210D01*
X98489707Y-72128213D01*
X98378213Y-72239707D01*
X98378210Y-72239711D01*
X98290609Y-72370814D01*
X98290602Y-72370827D01*
X98230264Y-72516498D01*
X98230261Y-72516510D01*
X98199500Y-72671153D01*
X98199500Y-72828846D01*
X98230261Y-72983489D01*
X98230264Y-72983501D01*
X98290602Y-73129172D01*
X98290609Y-73129185D01*
X98378210Y-73260288D01*
X98378213Y-73260292D01*
X98489707Y-73371786D01*
X98489711Y-73371789D01*
X98620814Y-73459390D01*
X98620821Y-73459394D01*
X98699768Y-73492094D01*
X98754170Y-73535934D01*
X98776236Y-73602228D01*
X98758957Y-73669927D01*
X98707821Y-73717538D01*
X98676512Y-73728271D01*
X98666511Y-73730260D01*
X98666498Y-73730264D01*
X98520827Y-73790602D01*
X98520814Y-73790609D01*
X98389711Y-73878210D01*
X98389707Y-73878213D01*
X98278213Y-73989707D01*
X98278210Y-73989711D01*
X98190609Y-74120814D01*
X98190602Y-74120827D01*
X98130264Y-74266498D01*
X98130261Y-74266510D01*
X98099500Y-74421153D01*
X35553538Y-74421153D01*
X35510515Y-74346635D01*
X35403365Y-74239485D01*
X35391998Y-74232922D01*
X35343783Y-74182354D01*
X35330000Y-74125536D01*
X35330000Y-73570000D01*
X35830000Y-73570000D01*
X35830000Y-74270000D01*
X36228492Y-74270000D01*
X36228495Y-74269999D01*
X36421681Y-74231572D01*
X36421693Y-74231569D01*
X36603671Y-74156192D01*
X36603684Y-74156185D01*
X36767462Y-74046751D01*
X36767466Y-74046748D01*
X36906748Y-73907466D01*
X36906751Y-73907462D01*
X37012553Y-73749120D01*
X37012554Y-73749118D01*
X37012555Y-73749117D01*
X37016186Y-73743682D01*
X37016192Y-73743671D01*
X37091569Y-73561692D01*
X37091569Y-73561690D01*
X37099862Y-73520000D01*
X36296988Y-73520000D01*
X36314205Y-73510060D01*
X36370060Y-73454205D01*
X36409556Y-73385796D01*
X36430000Y-73309496D01*
X36430000Y-73230504D01*
X36409556Y-73154204D01*
X36370060Y-73085795D01*
X36314205Y-73029940D01*
X36296988Y-73020000D01*
X37099862Y-73020000D01*
X37091569Y-72978309D01*
X37091569Y-72978307D01*
X37016192Y-72796328D01*
X37016185Y-72796315D01*
X36957022Y-72707772D01*
X36906751Y-72632537D01*
X36906748Y-72632533D01*
X36767466Y-72493251D01*
X36767462Y-72493248D01*
X36603684Y-72383814D01*
X36603671Y-72383807D01*
X36421693Y-72308430D01*
X36421681Y-72308427D01*
X36228495Y-72270000D01*
X35830000Y-72270000D01*
X35830000Y-72970000D01*
X35330000Y-72970000D01*
X35330000Y-72270000D01*
X34931504Y-72270000D01*
X34738318Y-72308427D01*
X34738306Y-72308430D01*
X34556328Y-72383807D01*
X34556315Y-72383814D01*
X34392537Y-72493248D01*
X34392533Y-72493251D01*
X34253251Y-72632533D01*
X34253248Y-72632537D01*
X34143814Y-72796315D01*
X34143807Y-72796328D01*
X34068430Y-72978307D01*
X34068430Y-72978309D01*
X34060138Y-73020000D01*
X32669862Y-73020000D01*
X32661569Y-72978309D01*
X32661569Y-72978307D01*
X32586192Y-72796328D01*
X32586185Y-72796315D01*
X32476751Y-72632537D01*
X32476748Y-72632533D01*
X32337466Y-72493251D01*
X32337462Y-72493248D01*
X32173684Y-72383814D01*
X32173671Y-72383807D01*
X31991693Y-72308430D01*
X31991681Y-72308427D01*
X31798495Y-72270000D01*
X31650000Y-72270000D01*
X31650000Y-72970000D01*
X31150000Y-72970000D01*
X31150000Y-72270000D01*
X31001504Y-72270000D01*
X30808318Y-72308427D01*
X30808306Y-72308430D01*
X30626328Y-72383807D01*
X30626315Y-72383814D01*
X30462537Y-72493248D01*
X30462533Y-72493251D01*
X30323251Y-72632533D01*
X30323248Y-72632537D01*
X30213814Y-72796315D01*
X30213807Y-72796328D01*
X30138430Y-72978307D01*
X30138430Y-72978309D01*
X30130138Y-73020000D01*
X27875500Y-73020000D01*
X27875500Y-65221153D01*
X56424500Y-65221153D01*
X56424500Y-65378846D01*
X56455261Y-65533489D01*
X56455264Y-65533501D01*
X56515602Y-65679172D01*
X56515609Y-65679185D01*
X56603210Y-65810288D01*
X56603213Y-65810292D01*
X56714707Y-65921786D01*
X56714711Y-65921789D01*
X56845814Y-66009390D01*
X56845827Y-66009397D01*
X56991498Y-66069735D01*
X56991503Y-66069737D01*
X57080713Y-66087482D01*
X57146153Y-66100499D01*
X57146156Y-66100500D01*
X57146158Y-66100500D01*
X57303844Y-66100500D01*
X57303845Y-66100499D01*
X57458497Y-66069737D01*
X57604179Y-66009394D01*
X57735289Y-65921789D01*
X57846789Y-65810289D01*
X57934394Y-65679179D01*
X57994737Y-65533497D01*
X58025500Y-65378842D01*
X58025500Y-65221158D01*
X58025500Y-65221155D01*
X58025499Y-65221153D01*
X57994738Y-65066510D01*
X57994737Y-65066503D01*
X57994735Y-65066498D01*
X57934397Y-64920827D01*
X57934390Y-64920814D01*
X57846789Y-64789711D01*
X57846786Y-64789707D01*
X57735292Y-64678213D01*
X57735288Y-64678210D01*
X57604185Y-64590609D01*
X57604172Y-64590602D01*
X57458501Y-64530264D01*
X57458489Y-64530261D01*
X57303845Y-64499500D01*
X57303842Y-64499500D01*
X57146158Y-64499500D01*
X57146155Y-64499500D01*
X56991510Y-64530261D01*
X56991498Y-64530264D01*
X56845827Y-64590602D01*
X56845814Y-64590609D01*
X56714711Y-64678210D01*
X56714707Y-64678213D01*
X56603213Y-64789707D01*
X56603210Y-64789711D01*
X56515609Y-64920814D01*
X56515602Y-64920827D01*
X56455264Y-65066498D01*
X56455261Y-65066510D01*
X56424500Y-65221153D01*
X27875500Y-65221153D01*
X27875500Y-64232135D01*
X59069500Y-64232135D01*
X59069500Y-66027870D01*
X59069501Y-66027876D01*
X59075908Y-66087483D01*
X59126202Y-66222328D01*
X59126206Y-66222335D01*
X59212452Y-66337544D01*
X59212455Y-66337547D01*
X59327664Y-66423793D01*
X59327671Y-66423797D01*
X59459082Y-66472810D01*
X59515016Y-66514681D01*
X59539433Y-66580145D01*
X59524582Y-66648418D01*
X59503431Y-66676673D01*
X59389889Y-66790215D01*
X59264951Y-66962179D01*
X59168444Y-67151585D01*
X59102753Y-67353760D01*
X59069500Y-67563713D01*
X59069500Y-67776286D01*
X59099484Y-67965602D01*
X59102754Y-67986243D01*
X59125583Y-68056504D01*
X59168444Y-68188414D01*
X59264951Y-68377820D01*
X59389890Y-68549786D01*
X59540213Y-68700109D01*
X59712182Y-68825050D01*
X59720946Y-68829516D01*
X59771742Y-68877491D01*
X59788536Y-68945312D01*
X59765998Y-69011447D01*
X59720946Y-69050484D01*
X59712182Y-69054949D01*
X59540213Y-69179890D01*
X59389890Y-69330213D01*
X59264951Y-69502179D01*
X59168444Y-69691585D01*
X59102753Y-69893760D01*
X59069500Y-70103713D01*
X59069500Y-70316286D01*
X59100227Y-70510292D01*
X59102754Y-70526243D01*
X59162262Y-70709390D01*
X59168444Y-70728414D01*
X59264951Y-70917820D01*
X59389890Y-71089786D01*
X59540213Y-71240109D01*
X59712179Y-71365048D01*
X59712181Y-71365049D01*
X59712184Y-71365051D01*
X59721493Y-71369794D01*
X59772290Y-71417766D01*
X59789087Y-71485587D01*
X59766552Y-71551722D01*
X59721505Y-71590760D01*
X59712446Y-71595376D01*
X59712440Y-71595380D01*
X59658282Y-71634727D01*
X59658282Y-71634728D01*
X60290591Y-72267037D01*
X60227007Y-72284075D01*
X60112993Y-72349901D01*
X60019901Y-72442993D01*
X59954075Y-72557007D01*
X59937037Y-72620591D01*
X59304728Y-71988282D01*
X59304727Y-71988282D01*
X59265380Y-72042439D01*
X59168904Y-72231782D01*
X59103242Y-72433869D01*
X59103242Y-72433872D01*
X59070000Y-72643753D01*
X59070000Y-72856246D01*
X59103242Y-73066127D01*
X59103242Y-73066130D01*
X59168904Y-73268217D01*
X59265375Y-73457550D01*
X59304728Y-73511716D01*
X59937037Y-72879408D01*
X59954075Y-72942993D01*
X60019901Y-73057007D01*
X60112993Y-73150099D01*
X60227007Y-73215925D01*
X60290590Y-73232962D01*
X59658282Y-73865269D01*
X59658282Y-73865270D01*
X59712449Y-73904624D01*
X59901782Y-74001095D01*
X60103870Y-74066757D01*
X60313754Y-74100000D01*
X60526246Y-74100000D01*
X60736127Y-74066757D01*
X60736130Y-74066757D01*
X60938217Y-74001095D01*
X61127554Y-73904622D01*
X61181716Y-73865270D01*
X61181717Y-73865270D01*
X60549408Y-73232962D01*
X60612993Y-73215925D01*
X60727007Y-73150099D01*
X60820099Y-73057007D01*
X60885925Y-72942993D01*
X60902962Y-72879408D01*
X61535270Y-73511717D01*
X61535270Y-73511716D01*
X61574622Y-73457554D01*
X61671095Y-73268217D01*
X61736757Y-73066130D01*
X61736757Y-73066127D01*
X61770000Y-72856246D01*
X61770000Y-72643753D01*
X61736757Y-72433872D01*
X61736757Y-72433869D01*
X61671095Y-72231782D01*
X61574624Y-72042449D01*
X61535270Y-71988282D01*
X61535269Y-71988282D01*
X60902962Y-72620590D01*
X60885925Y-72557007D01*
X60820099Y-72442993D01*
X60727007Y-72349901D01*
X60612993Y-72284075D01*
X60549409Y-72267037D01*
X60995292Y-71821153D01*
X124149500Y-71821153D01*
X124149500Y-71978846D01*
X124180261Y-72133489D01*
X124180264Y-72133501D01*
X124240602Y-72279172D01*
X124240609Y-72279185D01*
X124328210Y-72410288D01*
X124328213Y-72410292D01*
X124439707Y-72521786D01*
X124439711Y-72521789D01*
X124570814Y-72609390D01*
X124570827Y-72609397D01*
X124716498Y-72669735D01*
X124716503Y-72669737D01*
X124866131Y-72699500D01*
X124871153Y-72700499D01*
X124871156Y-72700500D01*
X124871158Y-72700500D01*
X125028844Y-72700500D01*
X125028845Y-72700499D01*
X125183497Y-72669737D01*
X125329179Y-72609394D01*
X125348996Y-72596153D01*
X132124500Y-72596153D01*
X132124500Y-72753846D01*
X132155261Y-72908489D01*
X132155264Y-72908501D01*
X132215602Y-73054172D01*
X132215609Y-73054185D01*
X132303210Y-73185288D01*
X132303213Y-73185292D01*
X132414707Y-73296786D01*
X132414711Y-73296789D01*
X132545814Y-73384390D01*
X132545827Y-73384397D01*
X132691498Y-73444735D01*
X132691503Y-73444737D01*
X132846153Y-73475499D01*
X132846156Y-73475500D01*
X132846158Y-73475500D01*
X133003844Y-73475500D01*
X133003845Y-73475499D01*
X133158497Y-73444737D01*
X133304179Y-73384394D01*
X133435289Y-73296789D01*
X133546789Y-73185289D01*
X133634394Y-73054179D01*
X133694737Y-72908497D01*
X133725500Y-72753842D01*
X133725500Y-72596158D01*
X133725500Y-72596155D01*
X133725499Y-72596153D01*
X133709657Y-72516510D01*
X133694737Y-72441503D01*
X133681808Y-72410289D01*
X133634397Y-72295827D01*
X133634390Y-72295814D01*
X133546789Y-72164711D01*
X133546786Y-72164707D01*
X133435292Y-72053213D01*
X133435288Y-72053210D01*
X133304185Y-71965609D01*
X133304172Y-71965602D01*
X133158501Y-71905264D01*
X133158489Y-71905261D01*
X133003845Y-71874500D01*
X133003842Y-71874500D01*
X132846158Y-71874500D01*
X132846155Y-71874500D01*
X132691510Y-71905261D01*
X132691498Y-71905264D01*
X132545827Y-71965602D01*
X132545814Y-71965609D01*
X132414711Y-72053210D01*
X132414707Y-72053213D01*
X132303213Y-72164707D01*
X132303210Y-72164711D01*
X132215609Y-72295814D01*
X132215602Y-72295827D01*
X132155264Y-72441498D01*
X132155261Y-72441510D01*
X132124500Y-72596153D01*
X125348996Y-72596153D01*
X125460289Y-72521789D01*
X125465580Y-72516498D01*
X125479694Y-72502385D01*
X125571786Y-72410292D01*
X125571789Y-72410289D01*
X125659394Y-72279179D01*
X125719737Y-72133497D01*
X125750500Y-71978842D01*
X125750500Y-71821158D01*
X125750500Y-71821155D01*
X125750499Y-71821153D01*
X125719738Y-71666510D01*
X125719737Y-71666503D01*
X125719735Y-71666498D01*
X125659397Y-71520827D01*
X125659390Y-71520814D01*
X125571789Y-71389711D01*
X125571786Y-71389707D01*
X125460292Y-71278213D01*
X125460288Y-71278210D01*
X125329185Y-71190609D01*
X125329172Y-71190602D01*
X125183501Y-71130264D01*
X125183489Y-71130261D01*
X125028845Y-71099500D01*
X125028842Y-71099500D01*
X124871158Y-71099500D01*
X124871155Y-71099500D01*
X124716510Y-71130261D01*
X124716498Y-71130264D01*
X124570827Y-71190602D01*
X124570814Y-71190609D01*
X124439711Y-71278210D01*
X124439707Y-71278213D01*
X124328213Y-71389707D01*
X124328210Y-71389711D01*
X124240609Y-71520814D01*
X124240602Y-71520827D01*
X124180264Y-71666498D01*
X124180261Y-71666510D01*
X124149500Y-71821153D01*
X60995292Y-71821153D01*
X61089060Y-71727385D01*
X61181716Y-71634728D01*
X61127547Y-71595373D01*
X61127547Y-71595372D01*
X61118500Y-71590763D01*
X61067706Y-71542788D01*
X61050912Y-71474966D01*
X61073451Y-71408832D01*
X61118508Y-71369793D01*
X61127816Y-71365051D01*
X61247342Y-71278211D01*
X61299786Y-71240109D01*
X61299788Y-71240106D01*
X61299792Y-71240104D01*
X61450104Y-71089792D01*
X61450106Y-71089788D01*
X61450109Y-71089786D01*
X61575048Y-70917820D01*
X61575047Y-70917820D01*
X61575051Y-70917816D01*
X61671557Y-70728412D01*
X61737246Y-70526243D01*
X61770500Y-70316287D01*
X61770500Y-70103713D01*
X61737246Y-69893757D01*
X61671557Y-69691588D01*
X61575051Y-69502184D01*
X61575049Y-69502181D01*
X61575048Y-69502179D01*
X61450109Y-69330213D01*
X61299786Y-69179890D01*
X61127820Y-69054951D01*
X61127115Y-69054591D01*
X61119054Y-69050485D01*
X61068259Y-69002512D01*
X61051463Y-68934692D01*
X61073999Y-68868556D01*
X61119054Y-68829515D01*
X61127816Y-68825051D01*
X61176463Y-68789707D01*
X61299786Y-68700109D01*
X61299788Y-68700106D01*
X61299792Y-68700104D01*
X61403743Y-68596153D01*
X76174500Y-68596153D01*
X76174500Y-68753846D01*
X76205261Y-68908489D01*
X76205264Y-68908501D01*
X76265602Y-69054172D01*
X76265609Y-69054185D01*
X76353210Y-69185288D01*
X76353213Y-69185292D01*
X76464707Y-69296786D01*
X76464711Y-69296789D01*
X76595814Y-69384390D01*
X76595827Y-69384397D01*
X76741498Y-69444735D01*
X76741503Y-69444737D01*
X76896153Y-69475499D01*
X76896156Y-69475500D01*
X76896158Y-69475500D01*
X77053844Y-69475500D01*
X77053845Y-69475499D01*
X77208497Y-69444737D01*
X77354179Y-69384394D01*
X77448826Y-69321153D01*
X80174500Y-69321153D01*
X80174500Y-69478846D01*
X80205261Y-69633489D01*
X80205264Y-69633501D01*
X80265602Y-69779172D01*
X80265609Y-69779185D01*
X80353210Y-69910288D01*
X80353213Y-69910292D01*
X80464707Y-70021786D01*
X80464711Y-70021789D01*
X80595814Y-70109390D01*
X80595827Y-70109397D01*
X80741498Y-70169735D01*
X80741503Y-70169737D01*
X80896153Y-70200499D01*
X80896156Y-70200500D01*
X80896158Y-70200500D01*
X81053844Y-70200500D01*
X81053845Y-70200499D01*
X81208497Y-70169737D01*
X81354179Y-70109394D01*
X81485289Y-70021789D01*
X81585925Y-69921153D01*
X98599500Y-69921153D01*
X98599500Y-70078846D01*
X98630261Y-70233489D01*
X98630264Y-70233501D01*
X98690602Y-70379172D01*
X98690609Y-70379185D01*
X98778210Y-70510288D01*
X98778213Y-70510292D01*
X98889707Y-70621786D01*
X98889711Y-70621789D01*
X99020814Y-70709390D01*
X99020827Y-70709397D01*
X99166498Y-70769735D01*
X99166503Y-70769737D01*
X99321153Y-70800499D01*
X99321156Y-70800500D01*
X99321158Y-70800500D01*
X99478844Y-70800500D01*
X99478845Y-70800499D01*
X99633497Y-70769737D01*
X99779179Y-70709394D01*
X99910289Y-70621789D01*
X100021789Y-70510289D01*
X100109394Y-70379179D01*
X100169737Y-70233497D01*
X100200500Y-70078842D01*
X100200500Y-69921158D01*
X100200500Y-69921155D01*
X100200499Y-69921153D01*
X100195050Y-69893760D01*
X100169737Y-69766503D01*
X100169735Y-69766498D01*
X100109397Y-69620827D01*
X100109390Y-69620814D01*
X100021789Y-69489711D01*
X100021786Y-69489707D01*
X99910292Y-69378213D01*
X99910288Y-69378210D01*
X99779185Y-69290609D01*
X99779172Y-69290602D01*
X99633501Y-69230264D01*
X99633489Y-69230261D01*
X99478845Y-69199500D01*
X99478842Y-69199500D01*
X99321158Y-69199500D01*
X99321155Y-69199500D01*
X99166510Y-69230261D01*
X99166498Y-69230264D01*
X99020827Y-69290602D01*
X99020814Y-69290609D01*
X98889711Y-69378210D01*
X98889707Y-69378213D01*
X98778213Y-69489707D01*
X98778210Y-69489711D01*
X98690609Y-69620814D01*
X98690602Y-69620827D01*
X98630264Y-69766498D01*
X98630261Y-69766510D01*
X98599500Y-69921153D01*
X81585925Y-69921153D01*
X81596789Y-69910289D01*
X81684394Y-69779179D01*
X81744737Y-69633497D01*
X81775500Y-69478842D01*
X81775500Y-69321158D01*
X81775317Y-69320237D01*
X81775361Y-69319744D01*
X81774903Y-69315093D01*
X81775785Y-69315006D01*
X81781544Y-69250645D01*
X81824406Y-69195467D01*
X81890295Y-69172222D01*
X81944386Y-69181483D01*
X81953575Y-69185289D01*
X82002193Y-69205427D01*
X82156843Y-69236189D01*
X82156846Y-69236190D01*
X82156848Y-69236190D01*
X82314534Y-69236190D01*
X82314535Y-69236189D01*
X82469187Y-69205427D01*
X82614869Y-69145084D01*
X82725514Y-69071153D01*
X104399500Y-69071153D01*
X104399500Y-69228846D01*
X104430261Y-69383489D01*
X104430264Y-69383501D01*
X104490602Y-69529172D01*
X104490609Y-69529185D01*
X104578210Y-69660288D01*
X104578213Y-69660292D01*
X104689707Y-69771786D01*
X104689711Y-69771789D01*
X104820814Y-69859390D01*
X104820827Y-69859397D01*
X104966498Y-69919735D01*
X104966503Y-69919737D01*
X105121153Y-69950499D01*
X105121156Y-69950500D01*
X105121158Y-69950500D01*
X105278844Y-69950500D01*
X105278845Y-69950499D01*
X105433497Y-69919737D01*
X105579179Y-69859394D01*
X105710289Y-69771789D01*
X105821789Y-69660289D01*
X105909394Y-69529179D01*
X105969737Y-69383497D01*
X106000500Y-69228842D01*
X106000500Y-69071158D01*
X106000500Y-69071155D01*
X106000499Y-69071153D01*
X105978079Y-68958443D01*
X105969737Y-68916503D01*
X105969735Y-68916498D01*
X105909397Y-68770827D01*
X105909390Y-68770814D01*
X105821790Y-68639712D01*
X105821784Y-68639705D01*
X105753232Y-68571153D01*
X109199500Y-68571153D01*
X109199500Y-68728846D01*
X109230261Y-68883489D01*
X109230264Y-68883501D01*
X109290602Y-69029172D01*
X109290609Y-69029185D01*
X109378210Y-69160288D01*
X109378213Y-69160292D01*
X109489707Y-69271786D01*
X109489711Y-69271789D01*
X109620814Y-69359390D01*
X109620827Y-69359397D01*
X109766498Y-69419735D01*
X109766503Y-69419737D01*
X109892176Y-69444735D01*
X109921153Y-69450499D01*
X109921156Y-69450500D01*
X109921158Y-69450500D01*
X110078844Y-69450500D01*
X110078845Y-69450499D01*
X110233497Y-69419737D01*
X110379179Y-69359394D01*
X110510289Y-69271789D01*
X110560925Y-69221153D01*
X129399500Y-69221153D01*
X129399500Y-69378846D01*
X129430261Y-69533489D01*
X129430264Y-69533501D01*
X129490602Y-69679172D01*
X129490609Y-69679185D01*
X129578210Y-69810288D01*
X129578213Y-69810292D01*
X129689707Y-69921786D01*
X129689711Y-69921789D01*
X129820814Y-70009390D01*
X129820827Y-70009397D01*
X129966498Y-70069735D01*
X129966503Y-70069737D01*
X130121153Y-70100499D01*
X130121156Y-70100500D01*
X130121158Y-70100500D01*
X130278844Y-70100500D01*
X130278845Y-70100499D01*
X130433497Y-70069737D01*
X130579179Y-70009394D01*
X130710289Y-69921789D01*
X130821789Y-69810289D01*
X130909394Y-69679179D01*
X130969737Y-69533497D01*
X131000500Y-69378842D01*
X131000500Y-69221158D01*
X131000500Y-69221155D01*
X131000499Y-69221153D01*
X130969738Y-69066510D01*
X130969737Y-69066503D01*
X130963102Y-69050484D01*
X130909397Y-68920827D01*
X130909390Y-68920814D01*
X130821789Y-68789711D01*
X130821786Y-68789707D01*
X130710292Y-68678213D01*
X130710288Y-68678210D01*
X130579185Y-68590609D01*
X130579172Y-68590602D01*
X130433501Y-68530264D01*
X130433489Y-68530261D01*
X130278845Y-68499500D01*
X130278842Y-68499500D01*
X130121158Y-68499500D01*
X130121155Y-68499500D01*
X129966510Y-68530261D01*
X129966498Y-68530264D01*
X129820827Y-68590602D01*
X129820814Y-68590609D01*
X129689711Y-68678210D01*
X129689707Y-68678213D01*
X129578213Y-68789707D01*
X129578210Y-68789711D01*
X129490609Y-68920814D01*
X129490602Y-68920827D01*
X129430264Y-69066498D01*
X129430261Y-69066510D01*
X129399500Y-69221153D01*
X110560925Y-69221153D01*
X110621789Y-69160289D01*
X110631952Y-69145080D01*
X110709390Y-69029185D01*
X110709390Y-69029184D01*
X110709394Y-69029179D01*
X110712854Y-69020827D01*
X110730848Y-68977385D01*
X110769737Y-68883497D01*
X110800500Y-68728842D01*
X110800500Y-68571158D01*
X110800500Y-68571155D01*
X110800499Y-68571153D01*
X110789763Y-68517179D01*
X110769737Y-68416503D01*
X110769735Y-68416498D01*
X110709397Y-68270827D01*
X110709390Y-68270814D01*
X110621789Y-68139711D01*
X110621786Y-68139707D01*
X110510292Y-68028213D01*
X110510288Y-68028210D01*
X110379185Y-67940609D01*
X110379172Y-67940602D01*
X110233501Y-67880264D01*
X110233489Y-67880261D01*
X110078845Y-67849500D01*
X110078842Y-67849500D01*
X109921158Y-67849500D01*
X109921155Y-67849500D01*
X109766510Y-67880261D01*
X109766498Y-67880264D01*
X109620827Y-67940602D01*
X109620814Y-67940609D01*
X109489711Y-68028210D01*
X109489707Y-68028213D01*
X109378213Y-68139707D01*
X109378210Y-68139711D01*
X109290609Y-68270814D01*
X109290602Y-68270827D01*
X109230264Y-68416498D01*
X109230261Y-68416510D01*
X109199500Y-68571153D01*
X105753232Y-68571153D01*
X105710292Y-68528213D01*
X105710288Y-68528210D01*
X105579185Y-68440609D01*
X105579172Y-68440602D01*
X105433501Y-68380264D01*
X105433489Y-68380261D01*
X105278845Y-68349500D01*
X105278842Y-68349500D01*
X105121158Y-68349500D01*
X105121155Y-68349500D01*
X104966510Y-68380261D01*
X104966498Y-68380264D01*
X104820827Y-68440602D01*
X104820814Y-68440609D01*
X104689711Y-68528210D01*
X104689707Y-68528213D01*
X104578213Y-68639707D01*
X104578210Y-68639711D01*
X104490609Y-68770814D01*
X104490602Y-68770827D01*
X104430264Y-68916498D01*
X104430261Y-68916510D01*
X104399500Y-69071153D01*
X82725514Y-69071153D01*
X82745979Y-69057479D01*
X82782644Y-69020814D01*
X82826074Y-68977385D01*
X82857476Y-68945982D01*
X82857479Y-68945979D01*
X82945084Y-68814869D01*
X83005427Y-68669187D01*
X83036190Y-68514532D01*
X83036190Y-68356848D01*
X83036190Y-68356845D01*
X83036189Y-68356843D01*
X83024051Y-68295821D01*
X83005427Y-68202193D01*
X82989900Y-68164707D01*
X82945087Y-68056517D01*
X82945080Y-68056504D01*
X82857479Y-67925401D01*
X82857476Y-67925397D01*
X82745982Y-67813903D01*
X82745978Y-67813900D01*
X82614875Y-67726299D01*
X82614862Y-67726292D01*
X82469191Y-67665954D01*
X82469179Y-67665951D01*
X82314535Y-67635190D01*
X82314532Y-67635190D01*
X82156848Y-67635190D01*
X82156845Y-67635190D01*
X82002200Y-67665951D01*
X82002188Y-67665954D01*
X81856517Y-67726292D01*
X81856504Y-67726299D01*
X81725401Y-67813900D01*
X81725397Y-67813903D01*
X81613903Y-67925397D01*
X81613900Y-67925401D01*
X81526299Y-68056504D01*
X81526292Y-68056517D01*
X81465954Y-68202188D01*
X81465951Y-68202200D01*
X81435190Y-68356843D01*
X81435190Y-68514536D01*
X81435375Y-68515466D01*
X81435330Y-68515961D01*
X81435787Y-68520597D01*
X81434907Y-68520683D01*
X81429140Y-68585057D01*
X81386272Y-68640230D01*
X81320380Y-68663468D01*
X81266304Y-68654207D01*
X81243969Y-68644956D01*
X81208497Y-68630263D01*
X81208493Y-68630262D01*
X81208489Y-68630261D01*
X81053845Y-68599500D01*
X81053842Y-68599500D01*
X80896158Y-68599500D01*
X80896155Y-68599500D01*
X80741510Y-68630261D01*
X80741498Y-68630264D01*
X80595827Y-68690602D01*
X80595814Y-68690609D01*
X80464711Y-68778210D01*
X80464707Y-68778213D01*
X80353213Y-68889707D01*
X80353210Y-68889711D01*
X80265609Y-69020814D01*
X80265602Y-69020827D01*
X80205264Y-69166498D01*
X80205261Y-69166510D01*
X80174500Y-69321153D01*
X77448826Y-69321153D01*
X77485289Y-69296789D01*
X77510292Y-69271786D01*
X77554694Y-69227385D01*
X77596786Y-69185292D01*
X77596789Y-69185289D01*
X77684394Y-69054179D01*
X77744737Y-68908497D01*
X77775500Y-68753842D01*
X77775500Y-68596158D01*
X77775500Y-68596155D01*
X77775499Y-68596153D01*
X77770527Y-68571158D01*
X77744737Y-68441503D01*
X77744367Y-68440609D01*
X77684397Y-68295827D01*
X77684390Y-68295814D01*
X77596789Y-68164711D01*
X77596786Y-68164707D01*
X77485292Y-68053213D01*
X77485288Y-68053210D01*
X77354185Y-67965609D01*
X77354172Y-67965602D01*
X77208501Y-67905264D01*
X77208489Y-67905261D01*
X77053845Y-67874500D01*
X77053842Y-67874500D01*
X76896158Y-67874500D01*
X76896155Y-67874500D01*
X76741510Y-67905261D01*
X76741498Y-67905264D01*
X76595827Y-67965602D01*
X76595814Y-67965609D01*
X76464711Y-68053210D01*
X76464707Y-68053213D01*
X76353213Y-68164707D01*
X76353210Y-68164711D01*
X76265609Y-68295814D01*
X76265602Y-68295827D01*
X76205264Y-68441498D01*
X76205261Y-68441510D01*
X76174500Y-68596153D01*
X61403743Y-68596153D01*
X61450104Y-68549792D01*
X61474684Y-68515961D01*
X61528780Y-68441503D01*
X61575051Y-68377816D01*
X61671557Y-68188412D01*
X61737246Y-67986243D01*
X61770500Y-67776287D01*
X61770500Y-67563713D01*
X61737246Y-67353757D01*
X61671557Y-67151588D01*
X61575051Y-66962184D01*
X61575049Y-66962181D01*
X61575048Y-66962179D01*
X61450109Y-66790213D01*
X61336569Y-66676673D01*
X61303084Y-66615350D01*
X61308068Y-66545658D01*
X61349940Y-66489725D01*
X61380915Y-66472810D01*
X61512331Y-66423796D01*
X61627546Y-66337546D01*
X61677248Y-66271153D01*
X99499500Y-66271153D01*
X99499500Y-66428846D01*
X99530261Y-66583489D01*
X99530264Y-66583501D01*
X99590602Y-66729172D01*
X99590609Y-66729185D01*
X99678210Y-66860288D01*
X99678213Y-66860292D01*
X99789707Y-66971786D01*
X99789711Y-66971789D01*
X99920814Y-67059390D01*
X99920827Y-67059397D01*
X100066498Y-67119735D01*
X100066503Y-67119737D01*
X100221153Y-67150499D01*
X100221156Y-67150500D01*
X100221158Y-67150500D01*
X100378844Y-67150500D01*
X100378845Y-67150499D01*
X100533497Y-67119737D01*
X100679179Y-67059394D01*
X100810289Y-66971789D01*
X100921789Y-66860289D01*
X101009394Y-66729179D01*
X101069737Y-66583497D01*
X101100500Y-66428842D01*
X101100500Y-66271158D01*
X101100500Y-66271155D01*
X101100499Y-66271153D01*
X101069738Y-66116510D01*
X101069737Y-66116503D01*
X101069735Y-66116498D01*
X101009397Y-65970827D01*
X101009390Y-65970814D01*
X100921789Y-65839711D01*
X100921786Y-65839707D01*
X100810292Y-65728213D01*
X100810288Y-65728210D01*
X100679185Y-65640609D01*
X100679172Y-65640602D01*
X100533501Y-65580264D01*
X100533489Y-65580261D01*
X100378845Y-65549500D01*
X100378842Y-65549500D01*
X100221158Y-65549500D01*
X100221155Y-65549500D01*
X100066510Y-65580261D01*
X100066498Y-65580264D01*
X99920827Y-65640602D01*
X99920814Y-65640609D01*
X99789711Y-65728210D01*
X99789707Y-65728213D01*
X99678213Y-65839707D01*
X99678210Y-65839711D01*
X99590609Y-65970814D01*
X99590602Y-65970827D01*
X99530264Y-66116498D01*
X99530261Y-66116510D01*
X99499500Y-66271153D01*
X61677248Y-66271153D01*
X61713796Y-66222331D01*
X61764091Y-66087483D01*
X61770500Y-66027873D01*
X61770499Y-64232128D01*
X61764091Y-64172517D01*
X61755879Y-64150500D01*
X61713797Y-64037671D01*
X61713793Y-64037664D01*
X61627547Y-63922455D01*
X61627544Y-63922452D01*
X61512335Y-63836206D01*
X61512328Y-63836202D01*
X61377482Y-63785908D01*
X61377483Y-63785908D01*
X61317883Y-63779501D01*
X61317881Y-63779500D01*
X61317873Y-63779500D01*
X61317864Y-63779500D01*
X59522129Y-63779500D01*
X59522123Y-63779501D01*
X59462516Y-63785908D01*
X59327671Y-63836202D01*
X59327664Y-63836206D01*
X59212455Y-63922452D01*
X59212452Y-63922455D01*
X59126206Y-64037664D01*
X59126202Y-64037671D01*
X59075908Y-64172517D01*
X59069501Y-64232116D01*
X59069501Y-64232123D01*
X59069500Y-64232135D01*
X27875500Y-64232135D01*
X27875500Y-62646153D01*
X76774500Y-62646153D01*
X76774500Y-62803846D01*
X76805261Y-62958489D01*
X76805264Y-62958501D01*
X76865602Y-63104172D01*
X76865609Y-63104185D01*
X76953210Y-63235288D01*
X76953213Y-63235292D01*
X77064707Y-63346786D01*
X77064711Y-63346789D01*
X77195814Y-63434390D01*
X77195827Y-63434397D01*
X77341498Y-63494735D01*
X77341503Y-63494737D01*
X77496153Y-63525499D01*
X77496156Y-63525500D01*
X77496158Y-63525500D01*
X77653844Y-63525500D01*
X77653845Y-63525499D01*
X77808497Y-63494737D01*
X77954179Y-63434394D01*
X78085289Y-63346789D01*
X78196789Y-63235289D01*
X78284394Y-63104179D01*
X78325972Y-63003798D01*
X78369811Y-62949398D01*
X78436105Y-62927332D01*
X78503804Y-62944610D01*
X78551415Y-62995747D01*
X78555092Y-63003799D01*
X78565601Y-63029170D01*
X78565609Y-63029185D01*
X78653210Y-63160288D01*
X78653213Y-63160292D01*
X78764707Y-63271786D01*
X78764711Y-63271789D01*
X78895814Y-63359390D01*
X78895827Y-63359397D01*
X78995060Y-63400500D01*
X79041503Y-63419737D01*
X79196153Y-63450499D01*
X79196156Y-63450500D01*
X79196158Y-63450500D01*
X79353844Y-63450500D01*
X79353845Y-63450499D01*
X79508497Y-63419737D01*
X79654179Y-63359394D01*
X79785289Y-63271789D01*
X79896789Y-63160289D01*
X79984394Y-63029179D01*
X80044737Y-62883497D01*
X80075500Y-62728842D01*
X80075500Y-62571158D01*
X80075500Y-62571155D01*
X80075499Y-62571153D01*
X80074128Y-62564257D01*
X80070527Y-62546153D01*
X87624500Y-62546153D01*
X87624500Y-62703846D01*
X87655261Y-62858489D01*
X87655264Y-62858501D01*
X87715602Y-63004172D01*
X87715609Y-63004185D01*
X87803210Y-63135288D01*
X87803213Y-63135292D01*
X87914707Y-63246786D01*
X87914711Y-63246789D01*
X88045814Y-63334390D01*
X88045827Y-63334397D01*
X88191498Y-63394735D01*
X88191503Y-63394737D01*
X88317176Y-63419735D01*
X88346153Y-63425499D01*
X88346156Y-63425500D01*
X88346158Y-63425500D01*
X88503844Y-63425500D01*
X88503845Y-63425499D01*
X88658497Y-63394737D01*
X88804179Y-63334394D01*
X88935289Y-63246789D01*
X89046789Y-63135289D01*
X89134394Y-63004179D01*
X89194737Y-62858497D01*
X89225500Y-62703842D01*
X89225500Y-62546158D01*
X89225500Y-62546155D01*
X89225499Y-62546153D01*
X89224128Y-62539257D01*
X89220527Y-62521153D01*
X92349500Y-62521153D01*
X92349500Y-62678846D01*
X92380261Y-62833489D01*
X92380264Y-62833501D01*
X92440602Y-62979172D01*
X92440609Y-62979185D01*
X92528210Y-63110288D01*
X92528213Y-63110292D01*
X92639707Y-63221786D01*
X92639711Y-63221789D01*
X92770814Y-63309390D01*
X92770827Y-63309397D01*
X92916498Y-63369735D01*
X92916503Y-63369737D01*
X93042176Y-63394735D01*
X93071153Y-63400499D01*
X93071156Y-63400500D01*
X93071158Y-63400500D01*
X93228844Y-63400500D01*
X93228845Y-63400499D01*
X93383497Y-63369737D01*
X93529179Y-63309394D01*
X93586411Y-63271153D01*
X98849500Y-63271153D01*
X98849500Y-63428846D01*
X98880261Y-63583489D01*
X98880264Y-63583501D01*
X98940602Y-63729172D01*
X98940609Y-63729185D01*
X99028210Y-63860288D01*
X99028213Y-63860292D01*
X99139707Y-63971786D01*
X99139711Y-63971789D01*
X99270814Y-64059390D01*
X99270827Y-64059397D01*
X99416498Y-64119735D01*
X99416503Y-64119737D01*
X99571153Y-64150499D01*
X99571156Y-64150500D01*
X99571158Y-64150500D01*
X99728844Y-64150500D01*
X99728845Y-64150499D01*
X99883497Y-64119737D01*
X100029179Y-64059394D01*
X100160289Y-63971789D01*
X100271789Y-63860289D01*
X100359394Y-63729179D01*
X100419737Y-63583497D01*
X100450500Y-63428842D01*
X100450500Y-63271158D01*
X100450500Y-63271155D01*
X100450499Y-63271153D01*
X100428447Y-63160292D01*
X100419737Y-63116503D01*
X100383569Y-63029185D01*
X100359397Y-62970827D01*
X100359390Y-62970814D01*
X100271789Y-62839711D01*
X100271786Y-62839707D01*
X100160292Y-62728213D01*
X100160288Y-62728210D01*
X100029185Y-62640609D01*
X100029172Y-62640602D01*
X99883501Y-62580264D01*
X99883489Y-62580261D01*
X99728845Y-62549500D01*
X99728842Y-62549500D01*
X99571158Y-62549500D01*
X99571155Y-62549500D01*
X99416510Y-62580261D01*
X99416498Y-62580264D01*
X99270827Y-62640602D01*
X99270814Y-62640609D01*
X99139711Y-62728210D01*
X99139707Y-62728213D01*
X99028213Y-62839707D01*
X99028210Y-62839711D01*
X98940609Y-62970814D01*
X98940602Y-62970827D01*
X98880264Y-63116498D01*
X98880261Y-63116510D01*
X98849500Y-63271153D01*
X93586411Y-63271153D01*
X93660289Y-63221789D01*
X93660292Y-63221786D01*
X93704694Y-63177385D01*
X93771786Y-63110292D01*
X93771789Y-63110289D01*
X93859394Y-62979179D01*
X93862854Y-62970827D01*
X93909380Y-62858501D01*
X93919737Y-62833497D01*
X93950500Y-62678842D01*
X93950500Y-62521158D01*
X93950500Y-62521155D01*
X93950499Y-62521153D01*
X93944600Y-62491498D01*
X93919737Y-62366503D01*
X93911170Y-62345821D01*
X93859397Y-62220827D01*
X93859390Y-62220814D01*
X93771789Y-62089711D01*
X93771786Y-62089707D01*
X93660292Y-61978213D01*
X93660288Y-61978210D01*
X93529185Y-61890609D01*
X93529172Y-61890602D01*
X93383501Y-61830264D01*
X93383489Y-61830261D01*
X93228845Y-61799500D01*
X93228842Y-61799500D01*
X93071158Y-61799500D01*
X93071155Y-61799500D01*
X92916510Y-61830261D01*
X92916498Y-61830264D01*
X92770827Y-61890602D01*
X92770814Y-61890609D01*
X92639711Y-61978210D01*
X92639707Y-61978213D01*
X92528213Y-62089707D01*
X92528210Y-62089711D01*
X92440609Y-62220814D01*
X92440602Y-62220827D01*
X92380264Y-62366498D01*
X92380261Y-62366510D01*
X92349500Y-62521153D01*
X89220527Y-62521153D01*
X89194738Y-62391508D01*
X89194737Y-62391507D01*
X89194737Y-62391503D01*
X89186327Y-62371199D01*
X89134397Y-62245827D01*
X89134390Y-62245814D01*
X89046789Y-62114711D01*
X89046786Y-62114707D01*
X88935292Y-62003213D01*
X88935288Y-62003210D01*
X88804185Y-61915609D01*
X88804172Y-61915602D01*
X88658501Y-61855264D01*
X88658489Y-61855261D01*
X88503845Y-61824500D01*
X88503842Y-61824500D01*
X88346158Y-61824500D01*
X88346155Y-61824500D01*
X88191510Y-61855261D01*
X88191498Y-61855264D01*
X88045827Y-61915602D01*
X88045814Y-61915609D01*
X87914711Y-62003210D01*
X87914707Y-62003213D01*
X87803213Y-62114707D01*
X87803210Y-62114711D01*
X87715609Y-62245814D01*
X87715602Y-62245827D01*
X87655264Y-62391498D01*
X87655261Y-62391510D01*
X87624500Y-62546153D01*
X80070527Y-62546153D01*
X80044738Y-62416508D01*
X80044737Y-62416507D01*
X80044737Y-62416503D01*
X80025971Y-62371198D01*
X79984397Y-62270827D01*
X79984390Y-62270814D01*
X79896789Y-62139711D01*
X79896786Y-62139707D01*
X79785292Y-62028213D01*
X79785288Y-62028210D01*
X79654185Y-61940609D01*
X79654172Y-61940602D01*
X79508501Y-61880264D01*
X79508489Y-61880261D01*
X79353845Y-61849500D01*
X79353842Y-61849500D01*
X79196158Y-61849500D01*
X79196155Y-61849500D01*
X79041510Y-61880261D01*
X79041498Y-61880264D01*
X78895827Y-61940602D01*
X78895814Y-61940609D01*
X78764711Y-62028210D01*
X78764707Y-62028213D01*
X78653213Y-62139707D01*
X78653210Y-62139711D01*
X78565609Y-62270814D01*
X78565604Y-62270823D01*
X78524028Y-62371199D01*
X78480187Y-62425602D01*
X78413893Y-62447667D01*
X78346194Y-62430388D01*
X78298583Y-62379251D01*
X78294906Y-62371198D01*
X78284397Y-62345827D01*
X78284390Y-62345814D01*
X78196789Y-62214711D01*
X78196786Y-62214707D01*
X78085292Y-62103213D01*
X78085288Y-62103210D01*
X77954185Y-62015609D01*
X77954172Y-62015602D01*
X77808501Y-61955264D01*
X77808489Y-61955261D01*
X77653845Y-61924500D01*
X77653842Y-61924500D01*
X77496158Y-61924500D01*
X77496155Y-61924500D01*
X77341510Y-61955261D01*
X77341498Y-61955264D01*
X77195827Y-62015602D01*
X77195814Y-62015609D01*
X77064711Y-62103210D01*
X77064707Y-62103213D01*
X76953213Y-62214707D01*
X76953210Y-62214711D01*
X76865609Y-62345814D01*
X76865602Y-62345827D01*
X76805264Y-62491498D01*
X76805261Y-62491510D01*
X76774500Y-62646153D01*
X27875500Y-62646153D01*
X27875500Y-59421153D01*
X46649500Y-59421153D01*
X46649500Y-59578846D01*
X46680261Y-59733489D01*
X46680264Y-59733501D01*
X46740602Y-59879172D01*
X46740609Y-59879185D01*
X46828210Y-60010288D01*
X46828213Y-60010292D01*
X46939707Y-60121786D01*
X46939711Y-60121789D01*
X47070814Y-60209390D01*
X47070827Y-60209397D01*
X47216498Y-60269735D01*
X47216503Y-60269737D01*
X47371153Y-60300499D01*
X47371156Y-60300500D01*
X47371158Y-60300500D01*
X47528844Y-60300500D01*
X47528845Y-60300499D01*
X47683497Y-60269737D01*
X47829179Y-60209394D01*
X47960289Y-60121789D01*
X48071789Y-60010289D01*
X48159394Y-59879179D01*
X48219737Y-59733497D01*
X48250500Y-59578842D01*
X48250500Y-59421158D01*
X48250500Y-59421155D01*
X48250499Y-59421153D01*
X48219738Y-59266510D01*
X48219737Y-59266503D01*
X48219735Y-59266498D01*
X48159397Y-59120827D01*
X48159390Y-59120814D01*
X48071789Y-58989711D01*
X48071786Y-58989707D01*
X47960292Y-58878213D01*
X47960288Y-58878210D01*
X47829185Y-58790609D01*
X47829172Y-58790602D01*
X47683501Y-58730264D01*
X47683489Y-58730261D01*
X47528845Y-58699500D01*
X47528842Y-58699500D01*
X47371158Y-58699500D01*
X47371155Y-58699500D01*
X47216510Y-58730261D01*
X47216498Y-58730264D01*
X47070827Y-58790602D01*
X47070814Y-58790609D01*
X46939711Y-58878210D01*
X46939707Y-58878213D01*
X46828213Y-58989707D01*
X46828210Y-58989711D01*
X46740609Y-59120814D01*
X46740602Y-59120827D01*
X46680264Y-59266498D01*
X46680261Y-59266510D01*
X46649500Y-59421153D01*
X27875500Y-59421153D01*
X27875500Y-49571153D01*
X102949500Y-49571153D01*
X102949500Y-49728846D01*
X102980261Y-49883489D01*
X102980264Y-49883501D01*
X103040602Y-50029172D01*
X103040609Y-50029185D01*
X103128210Y-50160288D01*
X103128213Y-50160292D01*
X103239707Y-50271786D01*
X103239711Y-50271789D01*
X103370814Y-50359390D01*
X103370827Y-50359397D01*
X103516498Y-50419735D01*
X103516503Y-50419737D01*
X103671153Y-50450499D01*
X103671156Y-50450500D01*
X103671158Y-50450500D01*
X103828844Y-50450500D01*
X103828845Y-50450499D01*
X103983497Y-50419737D01*
X104129179Y-50359394D01*
X104260289Y-50271789D01*
X104371789Y-50160289D01*
X104459394Y-50029179D01*
X104519737Y-49883497D01*
X104550500Y-49728842D01*
X104550500Y-49571158D01*
X104550500Y-49571155D01*
X104550499Y-49571153D01*
X104519738Y-49416510D01*
X104519737Y-49416503D01*
X104519735Y-49416498D01*
X104459397Y-49270827D01*
X104459390Y-49270814D01*
X104371789Y-49139711D01*
X104371786Y-49139707D01*
X104260292Y-49028213D01*
X104260288Y-49028210D01*
X104129185Y-48940609D01*
X104129172Y-48940602D01*
X103983501Y-48880264D01*
X103983489Y-48880261D01*
X103828845Y-48849500D01*
X103828842Y-48849500D01*
X103671158Y-48849500D01*
X103671155Y-48849500D01*
X103516510Y-48880261D01*
X103516498Y-48880264D01*
X103370827Y-48940602D01*
X103370814Y-48940609D01*
X103239711Y-49028210D01*
X103239707Y-49028213D01*
X103128213Y-49139707D01*
X103128210Y-49139711D01*
X103040609Y-49270814D01*
X103040602Y-49270827D01*
X102980264Y-49416498D01*
X102980261Y-49416510D01*
X102949500Y-49571153D01*
X27875500Y-49571153D01*
X27875500Y-47946153D01*
X63124500Y-47946153D01*
X63124500Y-48103846D01*
X63155261Y-48258489D01*
X63155264Y-48258501D01*
X63215602Y-48404172D01*
X63215609Y-48404185D01*
X63303210Y-48535288D01*
X63303213Y-48535292D01*
X63414707Y-48646786D01*
X63414711Y-48646789D01*
X63545814Y-48734390D01*
X63545827Y-48734397D01*
X63691498Y-48794735D01*
X63691503Y-48794737D01*
X63846153Y-48825499D01*
X63846156Y-48825500D01*
X63846158Y-48825500D01*
X64003844Y-48825500D01*
X64003845Y-48825499D01*
X64158497Y-48794737D01*
X64304179Y-48734394D01*
X64435289Y-48646789D01*
X64546789Y-48535289D01*
X64634394Y-48404179D01*
X64694737Y-48258497D01*
X64725500Y-48103842D01*
X64725500Y-47946158D01*
X64725500Y-47946155D01*
X64725499Y-47946153D01*
X64694738Y-47791510D01*
X64694737Y-47791503D01*
X64694735Y-47791498D01*
X64634397Y-47645827D01*
X64634390Y-47645814D01*
X64559649Y-47533957D01*
X64559648Y-47533955D01*
X64546792Y-47514715D01*
X64546786Y-47514707D01*
X64503232Y-47471153D01*
X84199500Y-47471153D01*
X84199500Y-47628846D01*
X84230261Y-47783489D01*
X84230264Y-47783501D01*
X84290602Y-47929172D01*
X84290609Y-47929185D01*
X84378210Y-48060288D01*
X84378213Y-48060292D01*
X84489707Y-48171786D01*
X84489711Y-48171789D01*
X84620814Y-48259390D01*
X84620827Y-48259397D01*
X84766498Y-48319735D01*
X84766503Y-48319737D01*
X84921153Y-48350499D01*
X84921156Y-48350500D01*
X84921158Y-48350500D01*
X85078844Y-48350500D01*
X85078845Y-48350499D01*
X85233497Y-48319737D01*
X85379179Y-48259394D01*
X85510289Y-48171789D01*
X85621789Y-48060289D01*
X85709394Y-47929179D01*
X85769737Y-47783497D01*
X85800500Y-47628842D01*
X85800500Y-47471158D01*
X85800500Y-47471155D01*
X85800499Y-47471153D01*
X85769738Y-47316510D01*
X85769737Y-47316503D01*
X85769367Y-47315609D01*
X85709397Y-47170827D01*
X85709390Y-47170814D01*
X85621789Y-47039711D01*
X85621786Y-47039707D01*
X85510292Y-46928213D01*
X85510288Y-46928210D01*
X85379185Y-46840609D01*
X85379172Y-46840602D01*
X85233501Y-46780264D01*
X85233489Y-46780261D01*
X85078845Y-46749500D01*
X85078842Y-46749500D01*
X84921158Y-46749500D01*
X84921155Y-46749500D01*
X84766510Y-46780261D01*
X84766498Y-46780264D01*
X84620827Y-46840602D01*
X84620814Y-46840609D01*
X84489711Y-46928210D01*
X84489707Y-46928213D01*
X84378213Y-47039707D01*
X84378210Y-47039711D01*
X84290609Y-47170814D01*
X84290602Y-47170827D01*
X84230264Y-47316498D01*
X84230261Y-47316510D01*
X84199500Y-47471153D01*
X64503232Y-47471153D01*
X64435292Y-47403213D01*
X64435288Y-47403210D01*
X64304185Y-47315609D01*
X64304172Y-47315602D01*
X64158501Y-47255264D01*
X64158489Y-47255261D01*
X64003845Y-47224500D01*
X64003842Y-47224500D01*
X63846158Y-47224500D01*
X63846155Y-47224500D01*
X63691510Y-47255261D01*
X63691498Y-47255264D01*
X63545827Y-47315602D01*
X63545814Y-47315609D01*
X63414711Y-47403210D01*
X63414707Y-47403213D01*
X63303213Y-47514707D01*
X63303210Y-47514711D01*
X63215609Y-47645814D01*
X63215602Y-47645827D01*
X63155264Y-47791498D01*
X63155261Y-47791510D01*
X63124500Y-47946153D01*
X27875500Y-47946153D01*
X27875500Y-42421153D01*
X60349500Y-42421153D01*
X60349500Y-42578846D01*
X60380261Y-42733489D01*
X60380264Y-42733501D01*
X60440602Y-42879172D01*
X60440609Y-42879185D01*
X60528210Y-43010288D01*
X60528213Y-43010292D01*
X60639707Y-43121786D01*
X60639711Y-43121789D01*
X60770814Y-43209390D01*
X60770827Y-43209397D01*
X60916498Y-43269735D01*
X60916503Y-43269737D01*
X61071153Y-43300499D01*
X61071156Y-43300500D01*
X61071158Y-43300500D01*
X61228844Y-43300500D01*
X61228845Y-43300499D01*
X61383497Y-43269737D01*
X61529179Y-43209394D01*
X61660289Y-43121789D01*
X61771789Y-43010289D01*
X61859394Y-42879179D01*
X61919737Y-42733497D01*
X61950500Y-42578842D01*
X61950500Y-42421158D01*
X61950500Y-42421155D01*
X61950499Y-42421153D01*
X88949500Y-42421153D01*
X88949500Y-42578846D01*
X88980261Y-42733489D01*
X88980264Y-42733501D01*
X89040602Y-42879172D01*
X89040609Y-42879185D01*
X89128210Y-43010288D01*
X89128213Y-43010292D01*
X89239707Y-43121786D01*
X89239711Y-43121789D01*
X89370814Y-43209390D01*
X89370827Y-43209397D01*
X89516498Y-43269735D01*
X89516503Y-43269737D01*
X89671153Y-43300499D01*
X89671156Y-43300500D01*
X89671158Y-43300500D01*
X89828844Y-43300500D01*
X89828845Y-43300499D01*
X89983497Y-43269737D01*
X90129179Y-43209394D01*
X90260289Y-43121789D01*
X90371789Y-43010289D01*
X90459394Y-42879179D01*
X90519737Y-42733497D01*
X90550500Y-42578842D01*
X90550500Y-42421158D01*
X90550500Y-42421155D01*
X90550499Y-42421153D01*
X90519738Y-42266510D01*
X90519737Y-42266503D01*
X90519735Y-42266498D01*
X90459397Y-42120827D01*
X90459390Y-42120814D01*
X90371789Y-41989711D01*
X90371786Y-41989707D01*
X90260292Y-41878213D01*
X90260288Y-41878210D01*
X90129185Y-41790609D01*
X90129172Y-41790602D01*
X89983501Y-41730264D01*
X89983489Y-41730261D01*
X89828845Y-41699500D01*
X89828842Y-41699500D01*
X89671158Y-41699500D01*
X89671155Y-41699500D01*
X89516510Y-41730261D01*
X89516498Y-41730264D01*
X89370827Y-41790602D01*
X89370814Y-41790609D01*
X89239711Y-41878210D01*
X89239707Y-41878213D01*
X89128213Y-41989707D01*
X89128210Y-41989711D01*
X89040609Y-42120814D01*
X89040602Y-42120827D01*
X88980264Y-42266498D01*
X88980261Y-42266510D01*
X88949500Y-42421153D01*
X61950499Y-42421153D01*
X61919738Y-42266510D01*
X61919737Y-42266503D01*
X61919735Y-42266498D01*
X61859397Y-42120827D01*
X61859390Y-42120814D01*
X61771789Y-41989711D01*
X61771786Y-41989707D01*
X61660292Y-41878213D01*
X61660288Y-41878210D01*
X61529185Y-41790609D01*
X61529172Y-41790602D01*
X61383501Y-41730264D01*
X61383489Y-41730261D01*
X61228845Y-41699500D01*
X61228842Y-41699500D01*
X61071158Y-41699500D01*
X61071155Y-41699500D01*
X60916510Y-41730261D01*
X60916498Y-41730264D01*
X60770827Y-41790602D01*
X60770814Y-41790609D01*
X60639711Y-41878210D01*
X60639707Y-41878213D01*
X60528213Y-41989707D01*
X60528210Y-41989711D01*
X60440609Y-42120814D01*
X60440602Y-42120827D01*
X60380264Y-42266498D01*
X60380261Y-42266510D01*
X60349500Y-42421153D01*
X27875500Y-42421153D01*
X27875500Y-38496153D01*
X47574500Y-38496153D01*
X47574500Y-38653846D01*
X47605261Y-38808489D01*
X47605264Y-38808501D01*
X47665602Y-38954172D01*
X47665609Y-38954185D01*
X47753210Y-39085288D01*
X47753213Y-39085292D01*
X47864707Y-39196786D01*
X47864711Y-39196789D01*
X47995814Y-39284390D01*
X47995827Y-39284397D01*
X48141498Y-39344735D01*
X48141503Y-39344737D01*
X48296153Y-39375499D01*
X48296156Y-39375500D01*
X48296158Y-39375500D01*
X48453844Y-39375500D01*
X48453845Y-39375499D01*
X48608497Y-39344737D01*
X48754179Y-39284394D01*
X48885289Y-39196789D01*
X48996789Y-39085289D01*
X49084394Y-38954179D01*
X49144737Y-38808497D01*
X49175500Y-38653842D01*
X49175500Y-38496158D01*
X49175500Y-38496155D01*
X49175499Y-38496153D01*
X49144738Y-38341510D01*
X49144737Y-38341503D01*
X49085022Y-38197337D01*
X49084397Y-38195827D01*
X49084390Y-38195814D01*
X48996789Y-38064711D01*
X48996786Y-38064707D01*
X48885292Y-37953213D01*
X48885288Y-37953210D01*
X48754185Y-37865609D01*
X48754172Y-37865602D01*
X48608501Y-37805264D01*
X48608489Y-37805261D01*
X48453845Y-37774500D01*
X48453842Y-37774500D01*
X48296158Y-37774500D01*
X48296155Y-37774500D01*
X48141510Y-37805261D01*
X48141498Y-37805264D01*
X47995827Y-37865602D01*
X47995814Y-37865609D01*
X47864711Y-37953210D01*
X47864707Y-37953213D01*
X47753213Y-38064707D01*
X47753210Y-38064711D01*
X47665609Y-38195814D01*
X47665602Y-38195827D01*
X47605264Y-38341498D01*
X47605261Y-38341510D01*
X47574500Y-38496153D01*
X27875500Y-38496153D01*
X27875500Y-36517483D01*
X68524500Y-36517483D01*
X68524500Y-38717501D01*
X68524501Y-38717518D01*
X68535000Y-38820296D01*
X68535001Y-38820299D01*
X68579363Y-38954172D01*
X68590186Y-38986834D01*
X68682288Y-39136156D01*
X68806344Y-39260212D01*
X68955666Y-39352314D01*
X69122203Y-39407499D01*
X69224991Y-39418000D01*
X71425008Y-39417999D01*
X71527797Y-39407499D01*
X71694334Y-39352314D01*
X71843656Y-39260212D01*
X71967712Y-39136156D01*
X72059814Y-38986834D01*
X72114999Y-38820297D01*
X72125500Y-38717509D01*
X72125499Y-37499514D01*
X73525000Y-37499514D01*
X73525000Y-37735485D01*
X73555799Y-37969414D01*
X73616870Y-38197337D01*
X73707160Y-38415319D01*
X73707165Y-38415328D01*
X73825144Y-38619671D01*
X73825145Y-38619672D01*
X73887721Y-38701223D01*
X74723958Y-37864987D01*
X74748978Y-37925390D01*
X74820112Y-38031851D01*
X74910649Y-38122388D01*
X75017110Y-38193522D01*
X75077511Y-38218541D01*
X74241275Y-39054777D01*
X74322827Y-39117354D01*
X74322828Y-39117355D01*
X74527171Y-39235334D01*
X74527180Y-39235339D01*
X74745163Y-39325629D01*
X74745161Y-39325629D01*
X74973085Y-39386700D01*
X75207014Y-39417499D01*
X75207029Y-39417500D01*
X75442971Y-39417500D01*
X75442985Y-39417499D01*
X75676914Y-39386700D01*
X75904837Y-39325629D01*
X76122819Y-39235339D01*
X76122828Y-39235334D01*
X76327181Y-39117350D01*
X76408723Y-39054779D01*
X76408723Y-39054776D01*
X75572487Y-38218541D01*
X75632890Y-38193522D01*
X75739351Y-38122388D01*
X75829888Y-38031851D01*
X75901022Y-37925390D01*
X75926041Y-37864988D01*
X76762276Y-38701223D01*
X76762279Y-38701223D01*
X76824850Y-38619681D01*
X76942834Y-38415328D01*
X76942839Y-38415319D01*
X77033129Y-38197337D01*
X77094200Y-37969414D01*
X77124999Y-37735485D01*
X77125000Y-37735471D01*
X77125000Y-37499528D01*
X77124999Y-37499514D01*
X77094200Y-37265585D01*
X77033129Y-37037662D01*
X76942839Y-36819680D01*
X76942834Y-36819671D01*
X76824855Y-36615328D01*
X76824854Y-36615327D01*
X76762277Y-36533775D01*
X75926041Y-37370011D01*
X75901022Y-37309610D01*
X75829888Y-37203149D01*
X75739351Y-37112612D01*
X75632890Y-37041478D01*
X75572488Y-37016458D01*
X76408723Y-36180221D01*
X76327172Y-36117645D01*
X76327171Y-36117644D01*
X76122828Y-35999665D01*
X76122819Y-35999660D01*
X75904836Y-35909370D01*
X75904838Y-35909370D01*
X75676914Y-35848299D01*
X75442985Y-35817500D01*
X75207014Y-35817500D01*
X74973085Y-35848299D01*
X74745162Y-35909370D01*
X74527180Y-35999660D01*
X74527171Y-35999665D01*
X74322828Y-36117644D01*
X74322818Y-36117650D01*
X74241275Y-36180220D01*
X74241275Y-36180221D01*
X75077512Y-37016458D01*
X75017110Y-37041478D01*
X74910649Y-37112612D01*
X74820112Y-37203149D01*
X74748978Y-37309610D01*
X74723958Y-37370011D01*
X73887721Y-36533775D01*
X73887720Y-36533775D01*
X73825150Y-36615318D01*
X73825144Y-36615328D01*
X73707165Y-36819671D01*
X73707160Y-36819680D01*
X73616870Y-37037662D01*
X73555799Y-37265585D01*
X73525000Y-37499514D01*
X72125499Y-37499514D01*
X72125499Y-36517492D01*
X72114999Y-36414703D01*
X72059814Y-36248166D01*
X71967712Y-36098844D01*
X71843656Y-35974788D01*
X71694334Y-35882686D01*
X71527797Y-35827501D01*
X71527795Y-35827500D01*
X71425010Y-35817000D01*
X69224998Y-35817000D01*
X69224981Y-35817001D01*
X69122203Y-35827500D01*
X69122200Y-35827501D01*
X68955668Y-35882685D01*
X68955663Y-35882687D01*
X68806342Y-35974789D01*
X68682289Y-36098842D01*
X68590187Y-36248163D01*
X68590185Y-36248168D01*
X68583886Y-36267178D01*
X68535001Y-36414703D01*
X68535001Y-36414704D01*
X68535000Y-36414704D01*
X68524500Y-36517483D01*
X27875500Y-36517483D01*
X27875500Y-30449500D01*
X27895185Y-30382461D01*
X27947989Y-30336706D01*
X27999500Y-30325500D01*
X136750500Y-30325500D01*
X136817539Y-30345185D01*
G37*
%TD.AperFunction*%
%TD*%
M02*
