M48
; DRILL file KiCad 10.0.6 date 2026-09-19T17:13:54
; FORMAT={-:-/ absolute / metric / decimal}
; #@! TF.CreationDate,2026-09-19T17:13:54+03:00
; #@! TF.GenerationSoftware,Kicad,Pcbnew,10.0.6
; #@! TF.FileFunction,Plated,1,6,PTH
FMAT,2
METRIC
; #@! TA.AperFunction,Plated,PTH,ViaDrill
T1C0.300
; #@! TA.AperFunction,Plated,PTH,ComponentDrill
T2C0.600
; #@! TA.AperFunction,Plated,PTH,ComponentDrill
T3C1.000
; #@! TA.AperFunction,Plated,PTH,ComponentDrill
T4C1.300
%
G90
G05
T1
X33.1Y-71.775
X33.3Y-83.775
X41.3Y-66.75
X42.175Y-80.5
X42.8Y-92.875
X42.925Y-76.225
X44.625Y-97.0
X45.925Y-93.925
X47.45Y-59.5
X47.725Y-92.175
X48.125Y-93.2
X48.175Y-89.95
X48.35Y-33.2
X48.375Y-38.575
X50.375Y-87.45
X51.425Y-69.475
X51.625Y-95.65
X52.075Y-43.375
X53.725Y-33.425
X55.25Y-47.775
X55.925Y-33.3
X57.225Y-65.3
X58.0Y-73.2
X60.85Y-91.275
X61.15Y-42.5
X63.925Y-48.025
X67.25Y-81.275
X67.35Y-76.575
X67.55Y-88.25
X67.725Y-57.0
X68.25Y-51.05
X73.225Y-90.65
X74.575Y-87.95
X74.7Y-78.65
X75.0Y-68.7
X75.5Y-101.825
X75.625Y-62.775
X76.8Y-88.025
X76.975Y-68.675
X77.425Y-79.4
X77.5Y-93.2
X77.575Y-62.725
X78.0Y-87.875
X78.8Y-87.875
X79.275Y-62.65
X80.675Y-86.1
X80.975Y-69.4
X81.45Y-85.85
X82.236Y-68.436
X82.725Y-86.725
X82.775Y-62.65
X83.25Y-92.75
X83.3Y-90.85
X84.95Y-101.625
X85.0Y-47.55
X86.625Y-62.6
X88.425Y-62.625
X88.625Y-95.775
X89.75Y-42.5
X90.225Y-91.05
X91.225Y-62.525
X91.562Y-91.0
X92.35Y-85.9
X93.15Y-62.6
X95.15Y-75.65
X95.2Y-85.55
X95.625Y-91.95
X95.725Y-93.775
X95.8Y-86.45
X96.516Y-86.808
X96.562Y-89.95
X96.725Y-63.45
X98.792Y-79.488
X98.9Y-74.5
X99.0Y-72.75
X99.05Y-83.9
X99.1Y-78.75
X99.3Y-89.05
X99.4Y-70.0
X99.65Y-63.35
X100.05Y-90.0
X100.3Y-66.35
X100.425Y-59.7
X101.025Y-39.475
X101.95Y-76.65
X102.176Y-84.974
X102.55Y-77.25
X102.75Y-88.85
X103.7Y-90.4
X103.75Y-49.65
X103.95Y-93.35
X104.475Y-64.95
X104.8Y-94.05
X105.05Y-83.325
X105.1Y-71.0
X105.2Y-69.15
X105.225Y-81.25
X105.65Y-92.2
X105.725Y-44.8
X105.925Y-75.85
X106.2Y-78.25
X106.6Y-95.85
X106.95Y-80.05
X107.15Y-93.3
X107.2Y-75.65
X108.0Y-82.15
X108.5Y-92.8
X108.7Y-93.65
X109.35Y-75.8
X109.7Y-82.85
X109.725Y-78.126
X109.75Y-83.7
X110.0Y-68.65
X110.2Y-70.5
X110.2Y-86.8
X110.25Y-84.4
X110.65Y-86.0
X111.387Y-85.271
X111.8Y-91.6
X112.147Y-85.019
X112.75Y-81.2
X112.95Y-80.25
X113.2Y-73.5
X113.25Y-87.95
X113.35Y-71.55
X113.4Y-75.7
X114.05Y-45.125
X116.6Y-80.25
X116.6Y-86.2
X116.75Y-87.95
X117.75Y-82.75
X118.15Y-87.5
X118.4Y-83.95
X118.7Y-81.1
X120.45Y-74.35
X120.85Y-87.75
X121.0Y-52.05
X121.0Y-81.0
X121.2Y-86.0
X121.7Y-78.55
X121.9Y-83.0
X124.0Y-86.2
X124.15Y-96.8
X124.35Y-75.9
X124.95Y-71.9
X125.625Y-65.65
X127.7Y-75.0
X127.7Y-88.15
X128.45Y-81.15
X130.2Y-69.3
X130.85Y-73.0
X131.15Y-76.95
X132.925Y-72.675
X132.975Y-74.525
X133.75Y-81.85
X133.95Y-77.9
X134.75Y-80.5
X135.7Y-77.45
T3
X60.42Y-65.13
X60.42Y-67.67
X60.42Y-70.21
X60.42Y-72.75
T4
X34.025Y-90.425
X34.025Y-95.425
X70.325Y-37.617
X75.325Y-37.617
T2
G00X31.7Y-73.27
M15
G01X31.1Y-73.27
M16
G05
G00X31.7Y-81.91
M15
G01X31.1Y-81.91
M16
G05
G00X36.13Y-73.27
M15
G01X35.03Y-73.27
M16
G05
G00X36.13Y-81.91
M15
G01X35.03Y-81.91
M16
G05
M30
