%TF.GenerationSoftware,KiCad,Pcbnew,10.0.6*%
%TF.CreationDate,2026-09-19T17:13:57+03:00*%
%TF.ProjectId,Gateway-X6,47617465-7761-4792-9d58-362e6b696361,rev?*%
%TF.SameCoordinates,Original*%
%TF.FileFunction,Copper,L1,Top*%
%TF.FilePolarity,Positive*%
%FSLAX46Y46*%
G04 Gerber Fmt 4.6, Leading zero omitted, Abs format (unit mm)*
G04 Created by KiCad (PCBNEW 10.0.6) date 2026-09-19 17:13:57*
%MOMM*%
%LPD*%
G01*
G04 APERTURE LIST*
G04 Aperture macros list*
%AMRoundRect*
0 Rectangle with rounded corners*
0 $1 Rounding radius*
0 $2 $3 $4 $5 $6 $7 $8 $9 X,Y pos of 4 corners*
0 Add a 4 corners polygon primitive as box body*
4,1,4,$2,$3,$4,$5,$6,$7,$8,$9,$2,$3,0*
0 Add four circle primitives for the rounded corners*
1,1,$1+$1,$2,$3*
1,1,$1+$1,$4,$5*
1,1,$1+$1,$6,$7*
1,1,$1+$1,$8,$9*
0 Add four rect primitives between the rounded corners*
20,1,$1+$1,$2,$3,$4,$5,0*
20,1,$1+$1,$4,$5,$6,$7,0*
20,1,$1+$1,$6,$7,$8,$9,0*
20,1,$1+$1,$8,$9,$2,$3,0*%
G04 Aperture macros list end*
%TA.AperFunction,SMDPad,CuDef*%
%ADD10RoundRect,0.225000X-0.250000X0.225000X-0.250000X-0.225000X0.250000X-0.225000X0.250000X0.225000X0*%
%TD*%
%TA.AperFunction,SMDPad,CuDef*%
%ADD11RoundRect,0.250000X-0.262500X-0.450000X0.262500X-0.450000X0.262500X0.450000X-0.262500X0.450000X0*%
%TD*%
%TA.AperFunction,ComponentPad*%
%ADD12R,1.700000X1.700000*%
%TD*%
%TA.AperFunction,ComponentPad*%
%ADD13C,1.700000*%
%TD*%
%TA.AperFunction,SMDPad,CuDef*%
%ADD14RoundRect,0.250000X-0.250000X-0.475000X0.250000X-0.475000X0.250000X0.475000X-0.250000X0.475000X0*%
%TD*%
%TA.AperFunction,ComponentPad*%
%ADD15C,2.600000*%
%TD*%
%TA.AperFunction,ComponentPad*%
%ADD16RoundRect,0.250000X-1.050000X1.050000X-1.050000X-1.050000X1.050000X-1.050000X1.050000X1.050000X0*%
%TD*%
%TA.AperFunction,ComponentPad*%
%ADD17O,1.600000X1.000000*%
%TD*%
%TA.AperFunction,ComponentPad*%
%ADD18O,2.100000X1.000000*%
%TD*%
%TA.AperFunction,SMDPad,CuDef*%
%ADD19RoundRect,0.150000X-0.575000X0.150000X-0.575000X-0.150000X0.575000X-0.150000X0.575000X0.150000X0*%
%TD*%
%TA.AperFunction,SMDPad,CuDef*%
%ADD20RoundRect,0.075000X-0.650000X0.075000X-0.650000X-0.075000X0.650000X-0.075000X0.650000X0.075000X0*%
%TD*%
%TA.AperFunction,SMDPad,CuDef*%
%ADD21RoundRect,0.250000X0.450000X-0.262500X0.450000X0.262500X-0.450000X0.262500X-0.450000X-0.262500X0*%
%TD*%
%TA.AperFunction,SMDPad,CuDef*%
%ADD22RoundRect,0.250000X-0.525000X-0.400000X0.525000X-0.400000X0.525000X0.400000X-0.525000X0.400000X0*%
%TD*%
%TA.AperFunction,SMDPad,CuDef*%
%ADD23RoundRect,0.150000X-0.825000X-0.150000X0.825000X-0.150000X0.825000X0.150000X-0.825000X0.150000X0*%
%TD*%
%TA.AperFunction,SMDPad,CuDef*%
%ADD24RoundRect,0.112500X-0.350000X-0.112500X0.350000X-0.112500X0.350000X0.112500X-0.350000X0.112500X0*%
%TD*%
%TA.AperFunction,SMDPad,CuDef*%
%ADD25RoundRect,0.250000X-0.475000X0.250000X-0.475000X-0.250000X0.475000X-0.250000X0.475000X0.250000X0*%
%TD*%
%TA.AperFunction,SMDPad,CuDef*%
%ADD26R,1.510000X0.458000*%
%TD*%
%TA.AperFunction,SMDPad,CuDef*%
%ADD27RoundRect,0.075000X-0.662500X-0.075000X0.662500X-0.075000X0.662500X0.075000X-0.662500X0.075000X0*%
%TD*%
%TA.AperFunction,SMDPad,CuDef*%
%ADD28RoundRect,0.075000X-0.075000X-0.662500X0.075000X-0.662500X0.075000X0.662500X-0.075000X0.662500X0*%
%TD*%
%TA.AperFunction,SMDPad,CuDef*%
%ADD29RoundRect,0.250000X-1.000000X-0.650000X1.000000X-0.650000X1.000000X0.650000X-1.000000X0.650000X0*%
%TD*%
%TA.AperFunction,ComponentPad*%
%ADD30RoundRect,0.250000X-1.050000X-1.050000X1.050000X-1.050000X1.050000X1.050000X-1.050000X1.050000X0*%
%TD*%
%TA.AperFunction,SMDPad,CuDef*%
%ADD31R,2.900000X5.400000*%
%TD*%
%TA.AperFunction,SMDPad,CuDef*%
%ADD32RoundRect,0.250000X-0.450000X0.262500X-0.450000X-0.262500X0.450000X-0.262500X0.450000X0.262500X0*%
%TD*%
%TA.AperFunction,SMDPad,CuDef*%
%ADD33RoundRect,0.250000X-2.050000X-0.300000X2.050000X-0.300000X2.050000X0.300000X-2.050000X0.300000X0*%
%TD*%
%TA.AperFunction,SMDPad,CuDef*%
%ADD34RoundRect,0.250002X-4.449998X-5.149998X4.449998X-5.149998X4.449998X5.149998X-4.449998X5.149998X0*%
%TD*%
%TA.AperFunction,SMDPad,CuDef*%
%ADD35R,1.000000X1.800000*%
%TD*%
%TA.AperFunction,SMDPad,CuDef*%
%ADD36RoundRect,0.250000X-0.450000X-0.350000X0.450000X-0.350000X0.450000X0.350000X-0.450000X0.350000X0*%
%TD*%
%TA.AperFunction,SMDPad,CuDef*%
%ADD37RoundRect,0.375000X-0.625000X-0.375000X0.625000X-0.375000X0.625000X0.375000X-0.625000X0.375000X0*%
%TD*%
%TA.AperFunction,SMDPad,CuDef*%
%ADD38RoundRect,0.500000X-0.500000X-1.400000X0.500000X-1.400000X0.500000X1.400000X-0.500000X1.400000X0*%
%TD*%
%TA.AperFunction,SMDPad,CuDef*%
%ADD39RoundRect,0.218750X-0.381250X0.218750X-0.381250X-0.218750X0.381250X-0.218750X0.381250X0.218750X0*%
%TD*%
%TA.AperFunction,SMDPad,CuDef*%
%ADD40RoundRect,0.250000X1.450000X-0.312500X1.450000X0.312500X-1.450000X0.312500X-1.450000X-0.312500X0*%
%TD*%
%TA.AperFunction,SMDPad,CuDef*%
%ADD41RoundRect,0.243750X0.243750X0.456250X-0.243750X0.456250X-0.243750X-0.456250X0.243750X-0.456250X0*%
%TD*%
%TA.AperFunction,SMDPad,CuDef*%
%ADD42RoundRect,0.243750X-0.243750X-0.456250X0.243750X-0.456250X0.243750X0.456250X-0.243750X0.456250X0*%
%TD*%
%TA.AperFunction,SMDPad,CuDef*%
%ADD43RoundRect,0.250000X1.400000X1.000000X-1.400000X1.000000X-1.400000X-1.000000X1.400000X-1.000000X0*%
%TD*%
%TA.AperFunction,SMDPad,CuDef*%
%ADD44RoundRect,0.250000X-0.650000X1.000000X-0.650000X-1.000000X0.650000X-1.000000X0.650000X1.000000X0*%
%TD*%
%TA.AperFunction,SMDPad,CuDef*%
%ADD45RoundRect,0.250000X0.250000X0.475000X-0.250000X0.475000X-0.250000X-0.475000X0.250000X-0.475000X0*%
%TD*%
%TA.AperFunction,SMDPad,CuDef*%
%ADD46RoundRect,0.250000X0.475000X-0.250000X0.475000X0.250000X-0.475000X0.250000X-0.475000X-0.250000X0*%
%TD*%
%TA.AperFunction,SMDPad,CuDef*%
%ADD47RoundRect,0.250000X1.100000X-0.325000X1.100000X0.325000X-1.100000X0.325000X-1.100000X-0.325000X0*%
%TD*%
%TA.AperFunction,SMDPad,CuDef*%
%ADD48RoundRect,0.250000X-1.100000X0.325000X-1.100000X-0.325000X1.100000X-0.325000X1.100000X0.325000X0*%
%TD*%
%TA.AperFunction,SMDPad,CuDef*%
%ADD49RoundRect,0.250000X-1.000000X1.950000X-1.000000X-1.950000X1.000000X-1.950000X1.000000X1.950000X0*%
%TD*%
%TA.AperFunction,ViaPad*%
%ADD50C,0.600000*%
%TD*%
%TA.AperFunction,Conductor*%
%ADD51C,0.200000*%
%TD*%
%TA.AperFunction,Conductor*%
%ADD52C,1.000000*%
%TD*%
G04 APERTURE END LIST*
D10*
%TO.P,C33,1*%
%TO.N,Net-(U5-GND)*%
X45760000Y-95190000D03*
%TO.P,C33,2*%
%TO.N,GND*%
X45760000Y-96740000D03*
%TD*%
D11*
%TO.P,R8,2*%
%TO.N,GND*%
X41825000Y-74125000D03*
%TO.P,R8,1*%
%TO.N,Net-(J4-CC1)*%
X40000000Y-74125000D03*
%TD*%
D12*
%TO.P,J3,1,Pin_1_1*%
%TO.N,+3.3V*%
X60420000Y-65130000D03*
D13*
%TO.P,J3,2,Pin_2_2*%
%TO.N,/SWDIO*%
X60420000Y-67670000D03*
%TO.P,J3,3,Pin_3_3*%
%TO.N,/SWCLK*%
X60420000Y-70210000D03*
%TO.P,J3,4,Pin_4_4*%
%TO.N,GND*%
X60420000Y-72750000D03*
%TD*%
D14*
%TO.P,C35,2*%
%TO.N,GND*%
X41825000Y-82125000D03*
%TO.P,C35,1*%
%TO.N,/USB_VBUS*%
X39925000Y-82125000D03*
%TD*%
D15*
%TO.P,J2,2,Pin_2_2*%
%TO.N,Net-(J2-Pin_2)*%
X34025000Y-95425000D03*
D16*
%TO.P,J2,1,Pin_1_1*%
%TO.N,Net-(J2-Pin_1)*%
X34025000Y-90425000D03*
%TD*%
D17*
%TO.P,J4,SH,SHIELD_SH*%
%TO.N,GND*%
X31400000Y-81910000D03*
D18*
X35580000Y-81910000D03*
D17*
X31400000Y-73270000D03*
D18*
X35580000Y-73270000D03*
D19*
%TO.P,J4,B12,GND_B12*%
X36495000Y-74340000D03*
%TO.P,J4,B9,VBUS_B9*%
%TO.N,/USB_VBUS*%
X36495000Y-75140000D03*
D20*
%TO.P,J4,B8*%
%TO.N,N/C*%
X36495000Y-75840000D03*
%TO.P,J4,B7,D-_B7*%
%TO.N,/USB_DM*%
X36495000Y-76840000D03*
%TO.P,J4,B6,D+_B6*%
%TO.N,/USB_DP*%
X36495000Y-78340000D03*
%TO.P,J4,B5,CC2_B5*%
%TO.N,Net-(J4-CC2)*%
X36495000Y-79340000D03*
D19*
%TO.P,J4,B4,VBUS_B4*%
%TO.N,/USB_VBUS*%
X36495000Y-80040000D03*
%TO.P,J4,B1,GND_B1*%
%TO.N,GND*%
X36495000Y-80840000D03*
%TO.P,J4,A12,GND_A12*%
X36495000Y-80840000D03*
%TO.P,J4,A9,VBUS_A9*%
%TO.N,/USB_VBUS*%
X36495000Y-80040000D03*
D20*
%TO.P,J4,A8*%
%TO.N,N/C*%
X36495000Y-78840000D03*
%TO.P,J4,A7,D-_A7*%
%TO.N,/USB_DM*%
X36495000Y-77840000D03*
%TO.P,J4,A6,D+_A6*%
%TO.N,/USB_DP*%
X36495000Y-77340000D03*
%TO.P,J4,A5,CC1_A5*%
%TO.N,Net-(J4-CC1)*%
X36495000Y-76340000D03*
D19*
%TO.P,J4,A4,VBUS_A4*%
%TO.N,/USB_VBUS*%
X36495000Y-75140000D03*
%TO.P,J4,A1,GND_A1*%
%TO.N,GND*%
X36495000Y-74340000D03*
%TD*%
D11*
%TO.P,R3,1*%
%TO.N,Net-(U5-Rs)*%
X58160000Y-89940000D03*
%TO.P,R3,2*%
%TO.N,GND*%
X59985000Y-89940000D03*
%TD*%
%TO.P,R4,1*%
%TO.N,Net-(J2-Pin_1)*%
X44635000Y-90440000D03*
%TO.P,R4,2*%
%TO.N,Net-(J2-Pin_2)*%
X46460000Y-90440000D03*
%TD*%
D21*
%TO.P,R6,1*%
%TO.N,+3.3V*%
X54825000Y-65250000D03*
%TO.P,R6,2*%
%TO.N,/USER_BTN*%
X54825000Y-63425000D03*
%TD*%
D11*
%TO.P,R9,2*%
%TO.N,GND*%
X41750000Y-77875000D03*
%TO.P,R9,1*%
%TO.N,Net-(J4-CC2)*%
X39925000Y-77875000D03*
%TD*%
D22*
%TO.P,SW1,1,1_1*%
%TO.N,/USER_BTN*%
X43465000Y-63400000D03*
X51425000Y-63400000D03*
%TO.P,SW1,2,2_2*%
%TO.N,GND*%
X43465000Y-67900000D03*
X51425000Y-67900000D03*
%TD*%
D23*
%TO.P,U5,8,Rs_8*%
%TO.N,Net-(U5-Rs)*%
X54885000Y-89830000D03*
%TO.P,U5,7,CANH_7*%
%TO.N,Net-(J2-Pin_1)*%
X54885000Y-91100000D03*
%TO.P,U5,6,CANL_6*%
%TO.N,Net-(J2-Pin_2)*%
X54885000Y-92370000D03*
%TO.P,U5,5,Vref_5*%
%TO.N,unconnected-(U5-Vref-Pad5)*%
X54885000Y-93640000D03*
%TO.P,U5,4,R_4*%
%TO.N,/CAN1_RX*%
X49935000Y-93640000D03*
%TO.P,U5,3,VCC_3*%
%TO.N,+3.3V*%
X49935000Y-92370000D03*
%TO.P,U5,2,GND_2*%
%TO.N,Net-(U5-GND)*%
X49935000Y-91100000D03*
%TO.P,U5,1,D_1*%
%TO.N,/CAN1_TX*%
X49935000Y-89830000D03*
%TD*%
D24*
%TO.P,U6,3*%
%TO.N,GND*%
X42250000Y-92100000D03*
%TO.P,U6,2*%
%TO.N,Net-(J2-Pin_2)*%
X40475000Y-92750000D03*
%TO.P,U6,1*%
%TO.N,Net-(J2-Pin_1)*%
X40475000Y-91450000D03*
%TD*%
D25*
%TO.P,C34,1*%
%TO.N,/USER_BTN*%
X40950000Y-62975000D03*
%TO.P,C34,2*%
%TO.N,GND*%
X40950000Y-64875000D03*
%TD*%
%TO.P,C32,2*%
%TO.N,GND*%
X129700000Y-77250000D03*
%TO.P,C32,1*%
%TO.N,+3.3V*%
X129700000Y-75350000D03*
%TD*%
%TO.P,C15,1*%
%TO.N,+3.3V*%
X103625000Y-81325000D03*
%TO.P,C15,2*%
%TO.N,GND*%
X103625000Y-83225000D03*
%TD*%
D26*
%TO.P,U4,54,GND_54*%
%TO.N,GND*%
X126250000Y-67100000D03*
%TO.P,U4,53,DQ15_53*%
%TO.N,/FMC_D15*%
X126250000Y-67900000D03*
%TO.P,U4,52,GNDQ_52*%
%TO.N,GND*%
X126250000Y-68700000D03*
%TO.P,U4,51,DQ14_51*%
%TO.N,/FMC_D14*%
X126250000Y-69500000D03*
%TO.P,U4,50,DQ13_50*%
%TO.N,/FMC_D13*%
X126250000Y-70300000D03*
%TO.P,U4,49,VDDQ_49*%
%TO.N,+3.3V*%
X126250000Y-71100000D03*
%TO.P,U4,48,DQ12_48*%
%TO.N,/FMC_D12*%
X126250000Y-71900000D03*
%TO.P,U4,47,DQ11_47*%
%TO.N,/FMC_D11*%
X126250000Y-72700000D03*
%TO.P,U4,46,GNDQ_46*%
%TO.N,GND*%
X126250000Y-73500000D03*
%TO.P,U4,45,DQ10_45*%
%TO.N,/FMC_D10*%
X126250000Y-74300000D03*
%TO.P,U4,44,DQ9_44*%
%TO.N,/FMC_D9*%
X126250000Y-75100000D03*
%TO.P,U4,43,VDDQ_43*%
%TO.N,+3.3V*%
X126250000Y-75900000D03*
%TO.P,U4,42,DQ8_42*%
%TO.N,/FMC_D8*%
X126250000Y-76700000D03*
%TO.P,U4,41,GND_41*%
%TO.N,GND*%
X126250000Y-77500000D03*
%TO.P,U4,40,NC_40*%
%TO.N,unconnected-(U4-NC-Pad40)*%
X126250000Y-78300000D03*
%TO.P,U4,39,UDQM_39*%
%TO.N,/FMC_NBL1*%
X126250000Y-79100000D03*
%TO.P,U4,38,CLK_38*%
%TO.N,/FMC_SDCLK*%
X126250000Y-79900000D03*
%TO.P,U4,37,CKE_37*%
%TO.N,/FMC_SDCKE*%
X126250000Y-80700000D03*
%TO.P,U4,36,NC_36*%
%TO.N,unconnected-(U4-NC-Pad36)*%
X126250000Y-81500000D03*
%TO.P,U4,35,A11_35*%
%TO.N,/FMC_A11*%
X126250000Y-82300000D03*
%TO.P,U4,34,A9_34*%
%TO.N,/FMC_A9*%
X126250000Y-83100000D03*
%TO.P,U4,33,A8_33*%
%TO.N,/FMC_A8*%
X126250000Y-83900000D03*
%TO.P,U4,32,A7_32*%
%TO.N,/FMC_A7*%
X126250000Y-84700000D03*
%TO.P,U4,31,A6_31*%
%TO.N,/FMC_A6*%
X126250000Y-85500000D03*
%TO.P,U4,30,A5_30*%
%TO.N,/FMC_A5*%
X126250000Y-86300000D03*
%TO.P,U4,29,A4_29*%
%TO.N,/FMC_A4*%
X126250000Y-87100000D03*
%TO.P,U4,28,GND_28*%
%TO.N,GND*%
X126250000Y-87900000D03*
%TO.P,U4,27,VDD_27*%
%TO.N,+3.3V*%
X114750000Y-87900000D03*
%TO.P,U4,26,A3_26*%
%TO.N,/FMC_A3*%
X114750000Y-87100000D03*
%TO.P,U4,25,A2_25*%
%TO.N,/FMC_A2*%
X114750000Y-86300000D03*
%TO.P,U4,24,A1_24*%
%TO.N,/FMC_A1*%
X114750000Y-85500000D03*
%TO.P,U4,23,A0_23*%
%TO.N,/FMC_A0*%
X114750000Y-84700000D03*
%TO.P,U4,22,A10_22*%
%TO.N,/FMC_A10*%
X114750000Y-83900000D03*
%TO.P,U4,21,BA1_21*%
%TO.N,/FMC_BA1*%
X114750000Y-83100000D03*
%TO.P,U4,20,BA0_20*%
%TO.N,/FMC_BA0*%
X114750000Y-82300000D03*
%TO.P,U4,19,~{CS}_19*%
%TO.N,/FMC_SDNE0*%
X114750000Y-81500000D03*
%TO.P,U4,18,~{RAS}_18*%
%TO.N,/FMC_NRAS*%
X114750000Y-80700000D03*
%TO.P,U4,17,~{CAS}_17*%
%TO.N,/FMC_NCAS*%
X114750000Y-79900000D03*
%TO.P,U4,16,~{WE}_16*%
%TO.N,/FMC_SDWE*%
X114750000Y-79100000D03*
%TO.P,U4,15,LDQM_15*%
%TO.N,/FMC_NBL0*%
X114750000Y-78300000D03*
%TO.P,U4,14,VDD_14*%
%TO.N,+3.3V*%
X114750000Y-77500000D03*
%TO.P,U4,13,DQ7_13*%
%TO.N,/FMC_D7*%
X114750000Y-76700000D03*
%TO.P,U4,12,GNDQ_12*%
%TO.N,GND*%
X114750000Y-75900000D03*
%TO.P,U4,11,DQ6_11*%
%TO.N,/FMC_D6*%
X114750000Y-75100000D03*
%TO.P,U4,10,DQ5_10*%
%TO.N,/FMC_D5*%
X114750000Y-74300000D03*
%TO.P,U4,9,VDDQ_9*%
%TO.N,+3.3V*%
X114750000Y-73500000D03*
%TO.P,U4,8,DQ4_8*%
%TO.N,/FMC_D4*%
X114750000Y-72700000D03*
%TO.P,U4,7,DQ3_7*%
%TO.N,/FMC_D3*%
X114750000Y-71900000D03*
%TO.P,U4,6,GNDQ_6*%
%TO.N,GND*%
X114750000Y-71100000D03*
%TO.P,U4,5,DQ2_5*%
%TO.N,/FMC_D2*%
X114750000Y-70300000D03*
%TO.P,U4,4,DQ1_4*%
%TO.N,/FMC_D1*%
X114750000Y-69500000D03*
%TO.P,U4,3,VDDQ_3*%
%TO.N,+3.3V*%
X114750000Y-68700000D03*
%TO.P,U4,2,DQ0_2*%
%TO.N,/FMC_D0*%
X114750000Y-67900000D03*
%TO.P,U4,1,VDD_1*%
%TO.N,+3.3V*%
X114750000Y-67100000D03*
%TD*%
D25*
%TO.P,C31,2*%
%TO.N,GND*%
X129300000Y-72450000D03*
%TO.P,C31,1*%
%TO.N,+3.3V*%
X129300000Y-70550000D03*
%TD*%
D27*
%TO.P,U3,1,PE2_1*%
%TO.N,unconnected-(U3-PE2-Pad1)*%
X79250000Y-69000000D03*
%TO.P,U3,2,PE3_2*%
%TO.N,unconnected-(U3-PE3-Pad2)*%
X79250000Y-69500000D03*
%TO.P,U3,3,PE4_3*%
%TO.N,unconnected-(U3-PE4-Pad3)*%
X79250000Y-70000000D03*
%TO.P,U3,4,PE5_4*%
%TO.N,unconnected-(U3-PE5-Pad4)*%
X79250000Y-70500000D03*
%TO.P,U3,5,PE6_5*%
%TO.N,unconnected-(U3-PE6-Pad5)*%
X79250000Y-71000000D03*
%TO.P,U3,6,VBAT_6*%
%TO.N,+3.3V*%
X79250000Y-71500000D03*
%TO.P,U3,7,PC13_7*%
%TO.N,unconnected-(U3-PC13-Pad7)*%
X79250000Y-72000000D03*
%TO.P,U3,8,PC14_8*%
%TO.N,Net-(U3-PC14)*%
X79250000Y-72500000D03*
%TO.P,U3,9,PC15_9*%
%TO.N,Net-(U3-PC15)*%
X79250000Y-73000000D03*
%TO.P,U3,10,PF0_10*%
%TO.N,unconnected-(U3-PF0-Pad10)*%
X79250000Y-73500000D03*
%TO.P,U3,11,PF1_11*%
%TO.N,unconnected-(U3-PF1-Pad11)*%
X79250000Y-74000000D03*
%TO.P,U3,12,PF2_12*%
%TO.N,unconnected-(U3-PF2-Pad12)*%
X79250000Y-74500000D03*
%TO.P,U3,13,PF3_13*%
%TO.N,unconnected-(U3-PF3-Pad13)*%
X79250000Y-75000000D03*
%TO.P,U3,14,PF4_14*%
%TO.N,unconnected-(U3-PF4-Pad14)*%
X79250000Y-75500000D03*
%TO.P,U3,15,PF5_15*%
%TO.N,unconnected-(U3-PF5-Pad15)*%
X79250000Y-76000000D03*
%TO.P,U3,16,VSS_16*%
%TO.N,GND*%
X79250000Y-76500000D03*
%TO.P,U3,17,VDD_17*%
%TO.N,+3.3V*%
X79250000Y-77000000D03*
%TO.P,U3,18,PF6_18*%
%TO.N,unconnected-(U3-PF6-Pad18)*%
X79250000Y-77500000D03*
%TO.P,U3,19,PF7_19*%
%TO.N,unconnected-(U3-PF7-Pad19)*%
X79250000Y-78000000D03*
%TO.P,U3,20,PF8_20*%
%TO.N,unconnected-(U3-PF8-Pad20)*%
X79250000Y-78500000D03*
%TO.P,U3,21,PF9_21*%
%TO.N,unconnected-(U3-PF9-Pad21)*%
X79250000Y-79000000D03*
%TO.P,U3,22,PF10_22*%
%TO.N,unconnected-(U3-PF10-Pad22)*%
X79250000Y-79500000D03*
%TO.P,U3,23,PH0_23*%
%TO.N,Net-(U3-PH0)*%
X79250000Y-80000000D03*
%TO.P,U3,24,PH1_24*%
%TO.N,Net-(U3-PH1)*%
X79250000Y-80500000D03*
%TO.P,U3,25,NRST_25*%
%TO.N,Net-(U3-NRST)*%
X79250000Y-81000000D03*
%TO.P,U3,26,PC0_26*%
%TO.N,unconnected-(U3-PC0-Pad26)*%
X79250000Y-81500000D03*
%TO.P,U3,27,PC1_27*%
%TO.N,unconnected-(U3-PC1-Pad27)*%
X79250000Y-82000000D03*
%TO.P,U3,28,PC2_28*%
%TO.N,unconnected-(U3-PC2-Pad28)*%
X79250000Y-82500000D03*
%TO.P,U3,29,PC3_29*%
%TO.N,unconnected-(U3-PC3-Pad29)*%
X79250000Y-83000000D03*
%TO.P,U3,30,VDD_30*%
%TO.N,+3.3V*%
X79250000Y-83500000D03*
%TO.P,U3,31,VSSA_31*%
%TO.N,GND*%
X79250000Y-84000000D03*
%TO.P,U3,32,VREF+_32*%
X79250000Y-84500000D03*
%TO.P,U3,33,VDDA_33*%
%TO.N,Net-(U3-VDDA)*%
X79250000Y-85000000D03*
%TO.P,U3,34,PA0_34*%
%TO.N,unconnected-(U3-PA0-Pad34)*%
X79250000Y-85500000D03*
%TO.P,U3,35,PA1_35*%
%TO.N,unconnected-(U3-PA1-Pad35)*%
X79250000Y-86000000D03*
%TO.P,U3,36,PA2_36*%
%TO.N,unconnected-(U3-PA2-Pad36)*%
X79250000Y-86500000D03*
D28*
%TO.P,U3,37,PA3_37*%
%TO.N,unconnected-(U3-PA3-Pad37)*%
X81162500Y-88412500D03*
%TO.P,U3,38,VSS_38*%
%TO.N,GND*%
X81662500Y-88412500D03*
%TO.P,U3,39,VDD_39*%
%TO.N,+3.3V*%
X82162500Y-88412500D03*
%TO.P,U3,40,PA4_40*%
%TO.N,/USER_BTN*%
X82662500Y-88412500D03*
%TO.P,U3,41,PA5_41*%
%TO.N,/MCU_LED*%
X83162500Y-88412500D03*
%TO.P,U3,42,PA6_42*%
%TO.N,unconnected-(U3-PA6-Pad42)*%
X83662500Y-88412500D03*
%TO.P,U3,43,PA7_43*%
%TO.N,unconnected-(U3-PA7-Pad43)*%
X84162500Y-88412500D03*
%TO.P,U3,44,PC4_44*%
%TO.N,unconnected-(U3-PC4-Pad44)*%
X84662500Y-88412500D03*
%TO.P,U3,45,PC5_45*%
%TO.N,unconnected-(U3-PC5-Pad45)*%
X85162500Y-88412500D03*
%TO.P,U3,46,PB0_46*%
%TO.N,unconnected-(U3-PB0-Pad46)*%
X85662500Y-88412500D03*
%TO.P,U3,47,PB1_47*%
%TO.N,unconnected-(U3-PB1-Pad47)*%
X86162500Y-88412500D03*
%TO.P,U3,48,PB2_48*%
%TO.N,unconnected-(U3-PB2-Pad48)*%
X86662500Y-88412500D03*
%TO.P,U3,49,PF11_49*%
%TO.N,unconnected-(U3-PF11-Pad49)*%
X87162500Y-88412500D03*
%TO.P,U3,50,PF12_50*%
%TO.N,unconnected-(U3-PF12-Pad50)*%
X87662500Y-88412500D03*
%TO.P,U3,51,VSS_51*%
%TO.N,GND*%
X88162500Y-88412500D03*
%TO.P,U3,52,VDD_52*%
%TO.N,+3.3V*%
X88662500Y-88412500D03*
%TO.P,U3,53,PF13_53*%
%TO.N,unconnected-(U3-PF13-Pad53)*%
X89162500Y-88412500D03*
%TO.P,U3,54,PF14_54*%
%TO.N,unconnected-(U3-PF14-Pad54)*%
X89662500Y-88412500D03*
%TO.P,U3,55,PF15_55*%
%TO.N,unconnected-(U3-PF15-Pad55)*%
X90162500Y-88412500D03*
%TO.P,U3,56,PG0_56*%
%TO.N,unconnected-(U3-PG0-Pad56)*%
X90662500Y-88412500D03*
%TO.P,U3,57,PG1_57*%
%TO.N,/FMC_SDCKE*%
X91162500Y-88412500D03*
%TO.P,U3,58,PE7_58*%
%TO.N,/FMC_SDCLK*%
X91662500Y-88412500D03*
%TO.P,U3,59,PE8_59*%
%TO.N,/FMC_NBL1*%
X92162500Y-88412500D03*
%TO.P,U3,60,PE9_60*%
%TO.N,/FMC_NBL0*%
X92662500Y-88412500D03*
%TO.P,U3,61,VSS_61*%
%TO.N,GND*%
X93162500Y-88412500D03*
%TO.P,U3,62,VDD_62*%
%TO.N,+3.3V*%
X93662500Y-88412500D03*
%TO.P,U3,63,PE10_63*%
%TO.N,/FMC_D15*%
X94162500Y-88412500D03*
%TO.P,U3,64,PE11_64*%
%TO.N,/FMC_D14*%
X94662500Y-88412500D03*
%TO.P,U3,65,PE12_65*%
%TO.N,/FMC_D13*%
X95162500Y-88412500D03*
%TO.P,U3,66,PE13_66*%
%TO.N,/FMC_D12*%
X95662500Y-88412500D03*
%TO.P,U3,67,PE14_67*%
%TO.N,/FMC_D11*%
X96162500Y-88412500D03*
%TO.P,U3,68,PE15_68*%
%TO.N,/FMC_D10*%
X96662500Y-88412500D03*
%TO.P,U3,69,PB10_69*%
%TO.N,/FMC_D9*%
X97162500Y-88412500D03*
%TO.P,U3,70,PB11_70*%
%TO.N,/FMC_D8*%
X97662500Y-88412500D03*
%TO.P,U3,71,VCAP_1_71*%
%TO.N,Net-(U3-VCAP_1)*%
X98162500Y-88412500D03*
%TO.P,U3,72,VDD_72*%
%TO.N,+3.3V*%
X98662500Y-88412500D03*
D27*
%TO.P,U3,73,PB12_73*%
%TO.N,unconnected-(U3-PB12-Pad73)*%
X100575000Y-86500000D03*
%TO.P,U3,74,PB13_74*%
%TO.N,unconnected-(U3-PB13-Pad74)*%
X100575000Y-86000000D03*
%TO.P,U3,75,PB14_75*%
%TO.N,unconnected-(U3-PB14-Pad75)*%
X100575000Y-85500000D03*
%TO.P,U3,76,PB15_76*%
%TO.N,unconnected-(U3-PB15-Pad76)*%
X100575000Y-85000000D03*
%TO.P,U3,77,PD8_77*%
%TO.N,/FMC_BA1*%
X100575000Y-84500000D03*
%TO.P,U3,78,PD9_78*%
%TO.N,/FMC_BA0*%
X100575000Y-84000000D03*
%TO.P,U3,79,PD10_79*%
%TO.N,unconnected-(U3-PD10-Pad79)*%
X100575000Y-83500000D03*
%TO.P,U3,80,PD11_80*%
%TO.N,unconnected-(U3-PD11-Pad80)*%
X100575000Y-83000000D03*
%TO.P,U3,81,PD12_81*%
%TO.N,unconnected-(U3-PD12-Pad81)*%
X100575000Y-82500000D03*
%TO.P,U3,82,PD13_82*%
%TO.N,/FMC_A11*%
X100575000Y-82000000D03*
%TO.P,U3,83,VSS_83*%
%TO.N,GND*%
X100575000Y-81500000D03*
%TO.P,U3,84,VDD_84*%
%TO.N,+3.3V*%
X100575000Y-81000000D03*
%TO.P,U3,85,PD14_85*%
%TO.N,/FMC_A10*%
X100575000Y-80500000D03*
%TO.P,U3,86,PD15_86*%
%TO.N,/FMC_A9*%
X100575000Y-80000000D03*
%TO.P,U3,87,PG2_87*%
%TO.N,/FMC_A8*%
X100575000Y-79500000D03*
%TO.P,U3,88,PG3_88*%
%TO.N,/FMC_A7*%
X100575000Y-79000000D03*
%TO.P,U3,89,PG4_89*%
%TO.N,/FMC_A6*%
X100575000Y-78500000D03*
%TO.P,U3,90,PG5_90*%
%TO.N,/FMC_A5*%
X100575000Y-78000000D03*
%TO.P,U3,91,PG6_91*%
%TO.N,/FMC_A4*%
X100575000Y-77500000D03*
%TO.P,U3,92,PG7_92*%
%TO.N,/FMC_A3*%
X100575000Y-77000000D03*
%TO.P,U3,93,PG8_93*%
%TO.N,/FMC_A2*%
X100575000Y-76500000D03*
%TO.P,U3,94,VSS_94*%
%TO.N,GND*%
X100575000Y-76000000D03*
%TO.P,U3,95,VDD_95*%
%TO.N,+3.3V*%
X100575000Y-75500000D03*
%TO.P,U3,96,PC6_96*%
%TO.N,/FMC_A1*%
X100575000Y-75000000D03*
%TO.P,U3,97,PC7_97*%
%TO.N,/FMC_A0*%
X100575000Y-74500000D03*
%TO.P,U3,98,PC8_98*%
%TO.N,/FMC_D7*%
X100575000Y-74000000D03*
%TO.P,U3,99,PC9_99*%
%TO.N,/FMC_D6*%
X100575000Y-73500000D03*
%TO.P,U3,100,PA8_100*%
%TO.N,/FMC_D5*%
X100575000Y-73000000D03*
%TO.P,U3,101,PA9_101*%
%TO.N,/FMC_D4*%
X100575000Y-72500000D03*
%TO.P,U3,102,PA10_102*%
%TO.N,/FMC_D3*%
X100575000Y-72000000D03*
%TO.P,U3,103,PA11_103*%
%TO.N,/FMC_D2*%
X100575000Y-71500000D03*
%TO.P,U3,104,PA12_104*%
%TO.N,/FMC_D1*%
X100575000Y-71000000D03*
%TO.P,U3,105,PA13_105*%
%TO.N,/FMC_D0*%
X100575000Y-70500000D03*
%TO.P,U3,106,VCAP_2_106*%
%TO.N,Net-(U3-VCAP_2)*%
X100575000Y-70000000D03*
%TO.P,U3,107,VSS_107*%
%TO.N,GND*%
X100575000Y-69500000D03*
%TO.P,U3,108,VDD_108*%
%TO.N,+3.3V*%
X100575000Y-69000000D03*
D28*
%TO.P,U3,109,PA14_109*%
%TO.N,/SWDIO*%
X98662500Y-67087500D03*
%TO.P,U3,110,PA15_110*%
%TO.N,/SWCLK*%
X98162500Y-67087500D03*
%TO.P,U3,111,PC10_111*%
%TO.N,unconnected-(U3-PC10-Pad111)*%
X97662500Y-67087500D03*
%TO.P,U3,112,PC11_112*%
%TO.N,unconnected-(U3-PC11-Pad112)*%
X97162500Y-67087500D03*
%TO.P,U3,113,PC12_113*%
%TO.N,unconnected-(U3-PC12-Pad113)*%
X96662500Y-67087500D03*
%TO.P,U3,114,PD0_114*%
%TO.N,unconnected-(U3-PD0-Pad114)*%
X96162500Y-67087500D03*
%TO.P,U3,115,PD1_115*%
%TO.N,unconnected-(U3-PD1-Pad115)*%
X95662500Y-67087500D03*
%TO.P,U3,116,PD2_116*%
%TO.N,unconnected-(U3-PD2-Pad116)*%
X95162500Y-67087500D03*
%TO.P,U3,117,PD3_117*%
%TO.N,unconnected-(U3-PD3-Pad117)*%
X94662500Y-67087500D03*
%TO.P,U3,118,PD4_118*%
%TO.N,unconnected-(U3-PD4-Pad118)*%
X94162500Y-67087500D03*
%TO.P,U3,119,PD5_119*%
%TO.N,unconnected-(U3-PD5-Pad119)*%
X93662500Y-67087500D03*
%TO.P,U3,120,VSS_120*%
%TO.N,GND*%
X93162500Y-67087500D03*
%TO.P,U3,121,VDD_121*%
%TO.N,+3.3V*%
X92662500Y-67087500D03*
%TO.P,U3,122,PD6_122*%
%TO.N,unconnected-(U3-PD6-Pad122)*%
X92162500Y-67087500D03*
%TO.P,U3,123,PD7_123*%
%TO.N,unconnected-(U3-PD7-Pad123)*%
X91662500Y-67087500D03*
%TO.P,U3,124,PG9_124*%
%TO.N,unconnected-(U3-PG9-Pad124)*%
X91162500Y-67087500D03*
%TO.P,U3,125,PG10_125*%
%TO.N,unconnected-(U3-PG10-Pad125)*%
X90662500Y-67087500D03*
%TO.P,U3,126,PG11_126*%
%TO.N,unconnected-(U3-PG11-Pad126)*%
X90162500Y-67087500D03*
%TO.P,U3,127,PG12_127*%
%TO.N,unconnected-(U3-PG12-Pad127)*%
X89662500Y-67087500D03*
%TO.P,U3,128,PG13_128*%
%TO.N,unconnected-(U3-PG13-Pad128)*%
X89162500Y-67087500D03*
%TO.P,U3,129,PG14_129*%
%TO.N,unconnected-(U3-PG14-Pad129)*%
X88662500Y-67087500D03*
%TO.P,U3,130,VSS_130*%
%TO.N,GND*%
X88162500Y-67087500D03*
%TO.P,U3,131,VDD_131*%
%TO.N,+3.3V*%
X87662500Y-67087500D03*
%TO.P,U3,132,PG15_132*%
%TO.N,unconnected-(U3-PG15-Pad132)*%
X87162500Y-67087500D03*
%TO.P,U3,133,PB3_133*%
%TO.N,unconnected-(U3-PB3-Pad133)*%
X86662500Y-67087500D03*
%TO.P,U3,134,PB4_134*%
%TO.N,unconnected-(U3-PB4-Pad134)*%
X86162500Y-67087500D03*
%TO.P,U3,135,PB5_135*%
%TO.N,unconnected-(U3-PB5-Pad135)*%
X85662500Y-67087500D03*
%TO.P,U3,136,PB6_136*%
%TO.N,unconnected-(U3-PB6-Pad136)*%
X85162500Y-67087500D03*
%TO.P,U3,137,PB7_137*%
%TO.N,unconnected-(U3-PB7-Pad137)*%
X84662500Y-67087500D03*
%TO.P,U3,138,BOOT0_138*%
%TO.N,Net-(U3-BOOT0)*%
X84162500Y-67087500D03*
%TO.P,U3,139,PB8_139*%
%TO.N,/CAN1_RX*%
X83662500Y-67087500D03*
%TO.P,U3,140,PB9_140*%
%TO.N,/CAN1_TX*%
X83162500Y-67087500D03*
%TO.P,U3,141,PE0_141*%
%TO.N,unconnected-(U3-PE0-Pad141)*%
X82662500Y-67087500D03*
%TO.P,U3,142,PE1_142*%
%TO.N,unconnected-(U3-PE1-Pad142)*%
X82162500Y-67087500D03*
%TO.P,U3,143,PDR_ON_143*%
%TO.N,+3.3V*%
X81662500Y-67087500D03*
%TO.P,U3,144,VDD_144*%
X81162500Y-67087500D03*
%TD*%
D25*
%TO.P,C29,2*%
%TO.N,GND*%
X111500000Y-70400000D03*
%TO.P,C29,1*%
%TO.N,+3.3V*%
X111500000Y-68500000D03*
%TD*%
%TO.P,C30,2*%
%TO.N,GND*%
X111450000Y-78750000D03*
%TO.P,C30,1*%
%TO.N,+3.3V*%
X111450000Y-76850000D03*
%TD*%
%TO.P,C16,1*%
%TO.N,+3.3V*%
X104500000Y-76050000D03*
%TO.P,C16,2*%
%TO.N,GND*%
X104500000Y-77950000D03*
%TD*%
%TO.P,C27,2*%
%TO.N,GND*%
X73450000Y-77900000D03*
%TO.P,C27,1*%
%TO.N,Net-(U3-PC14)*%
X73450000Y-76000000D03*
%TD*%
D14*
%TO.P,C4,1*%
%TO.N,+5V*%
X98050000Y-39800000D03*
%TO.P,C4,2*%
%TO.N,GND*%
X99950000Y-39800000D03*
%TD*%
D29*
%TO.P,D2,1,K_1*%
%TO.N,/+24V_FILT*%
X71750000Y-54700000D03*
%TO.P,D2,2,A_2*%
%TO.N,Net-(D2-A)*%
X75750000Y-54700000D03*
%TD*%
D15*
%TO.P,J1,2,Pin_2_2*%
%TO.N,GND*%
X75325000Y-37617500D03*
D30*
%TO.P,J1,1,Pin_1_1*%
%TO.N,+24V*%
X70325000Y-37617500D03*
%TD*%
D31*
%TO.P,L1,1,1_1*%
%TO.N,Net-(D3-K)*%
X84650000Y-39750000D03*
%TO.P,L1,2,2_2*%
%TO.N,+5V*%
X94550000Y-39750000D03*
%TD*%
D25*
%TO.P,C13,1*%
%TO.N,+3.3V*%
X88500000Y-91050000D03*
%TO.P,C13,2*%
%TO.N,GND*%
X88500000Y-92950000D03*
%TD*%
D32*
%TO.P,R1,2*%
%TO.N,Net-(U3-NRST)*%
X67275000Y-79425000D03*
%TO.P,R1,1*%
%TO.N,+3.3V*%
X67275000Y-77600000D03*
%TD*%
D25*
%TO.P,C8,2*%
%TO.N,Net-(U3-NRST)*%
X67300000Y-84125000D03*
%TO.P,C8,1*%
%TO.N,GND*%
X67300000Y-82225000D03*
%TD*%
D33*
%TO.P,U1,1,VIN_1*%
%TO.N,/+24V_FILT*%
X117450000Y-41950000D03*
%TO.P,U1,2,OUT_2*%
%TO.N,Net-(D3-K)*%
X117450000Y-43650000D03*
%TO.P,U1,3,GND_3*%
%TO.N,GND*%
X117450000Y-45350000D03*
D34*
X126600000Y-45350000D03*
D33*
%TO.P,U1,4,FB_4*%
%TO.N,+5V*%
X117450000Y-47050000D03*
%TO.P,U1,5,~{ON}/OFF_5*%
%TO.N,GND*%
X117450000Y-48750000D03*
%TD*%
D35*
%TO.P,Y2,1,1_1*%
%TO.N,Net-(U3-PC14)*%
X73450000Y-73750000D03*
%TO.P,Y2,2,2_2*%
%TO.N,Net-(U3-PC15)*%
X75950000Y-73750000D03*
%TD*%
D36*
%TO.P,Y1,1,1_1*%
%TO.N,Net-(U3-PH0)*%
X73900000Y-82650000D03*
%TO.P,Y1,2,2_2*%
%TO.N,Net-(U3-PH1)*%
X76100000Y-82650000D03*
%TO.P,Y1,3*%
%TO.N,N/C*%
X76100000Y-80950000D03*
%TO.P,Y1,4*%
X73900000Y-80950000D03*
%TD*%
D37*
%TO.P,U2,3,VI_3*%
%TO.N,+5V*%
X57600000Y-39100000D03*
D38*
%TO.P,U2,2,VO_2*%
%TO.N,+3.3V*%
X63900000Y-36800000D03*
D37*
X57600000Y-36800000D03*
%TO.P,U2,1,GND_1*%
%TO.N,GND*%
X57600000Y-34500000D03*
%TD*%
D11*
%TO.P,R7,2*%
%TO.N,/MCU_LED*%
X83350000Y-97525000D03*
%TO.P,R7,1*%
%TO.N,Net-(D5-A)*%
X81525000Y-97525000D03*
%TD*%
%TO.P,R5,2*%
%TO.N,+3.3V*%
X63200000Y-46900000D03*
%TO.P,R5,1*%
%TO.N,Net-(D4-A)*%
X61375000Y-46900000D03*
%TD*%
%TO.P,R2,1*%
%TO.N,Net-(U3-BOOT0)*%
X84425000Y-64000000D03*
%TO.P,R2,2*%
%TO.N,GND*%
X86250000Y-64000000D03*
%TD*%
D39*
%TO.P,FB1,1*%
%TO.N,+3.3V*%
X76250000Y-94400000D03*
%TO.P,FB1,2*%
%TO.N,Net-(U3-VDDA)*%
X76250000Y-96525000D03*
%TD*%
D40*
%TO.P,F1,2*%
%TO.N,+24V*%
X75650000Y-45925000D03*
%TO.P,F1,1*%
%TO.N,Net-(D2-A)*%
X75650000Y-50200000D03*
%TD*%
D41*
%TO.P,D5,2,A_2*%
%TO.N,Net-(D5-A)*%
X81600000Y-100875000D03*
%TO.P,D5,1,K_1*%
%TO.N,GND*%
X83475000Y-100875000D03*
%TD*%
D42*
%TO.P,D4,2,A_2*%
%TO.N,Net-(D4-A)*%
X58475000Y-46900000D03*
%TO.P,D4,1,K_1*%
%TO.N,GND*%
X56600000Y-46900000D03*
%TD*%
D43*
%TO.P,D3,1,K_1*%
%TO.N,Net-(D3-K)*%
X108075000Y-54950000D03*
%TO.P,D3,2,A_2*%
%TO.N,GND*%
X108075000Y-48150000D03*
%TD*%
D44*
%TO.P,D1,2,A2_2*%
%TO.N,GND*%
X70400000Y-49900000D03*
%TO.P,D1,1,A1_1*%
%TO.N,+24V*%
X70400000Y-45900000D03*
%TD*%
D25*
%TO.P,C28,1*%
%TO.N,Net-(U3-PC15)*%
X76450000Y-76000000D03*
%TO.P,C28,2*%
%TO.N,GND*%
X76450000Y-77900000D03*
%TD*%
%TO.P,C26,2*%
%TO.N,GND*%
X76075000Y-86700000D03*
%TO.P,C26,1*%
%TO.N,Net-(U3-PH1)*%
X76075000Y-84800000D03*
%TD*%
%TO.P,C25,1*%
%TO.N,Net-(U3-PH0)*%
X73350000Y-84800000D03*
%TO.P,C25,2*%
%TO.N,GND*%
X73350000Y-86700000D03*
%TD*%
D14*
%TO.P,C24,1*%
%TO.N,Net-(U3-VCAP_2)*%
X101250000Y-65000000D03*
%TO.P,C24,2*%
%TO.N,GND*%
X103150000Y-65000000D03*
%TD*%
%TO.P,C23,1*%
%TO.N,Net-(U3-VCAP_1)*%
X98300000Y-91350000D03*
%TO.P,C23,2*%
%TO.N,GND*%
X100200000Y-91350000D03*
%TD*%
D45*
%TO.P,C22,1*%
%TO.N,GND*%
X78250000Y-100150000D03*
%TO.P,C22,2*%
%TO.N,Net-(U3-VDDA)*%
X76350000Y-100150000D03*
%TD*%
%TO.P,C21,1*%
%TO.N,GND*%
X74250000Y-100150000D03*
%TO.P,C21,2*%
%TO.N,Net-(U3-VDDA)*%
X72350000Y-100150000D03*
%TD*%
D14*
%TO.P,C20,1*%
%TO.N,+3.3V*%
X80300000Y-64050000D03*
%TO.P,C20,2*%
%TO.N,GND*%
X82200000Y-64050000D03*
%TD*%
%TO.P,C19,1*%
%TO.N,+3.3V*%
X89050000Y-64000000D03*
%TO.P,C19,2*%
%TO.N,GND*%
X90950000Y-64000000D03*
%TD*%
%TO.P,C18,1*%
%TO.N,+3.3V*%
X93625000Y-64000000D03*
%TO.P,C18,2*%
%TO.N,GND*%
X95525000Y-64000000D03*
%TD*%
D25*
%TO.P,C17,1*%
%TO.N,+3.3V*%
X103750000Y-69100000D03*
%TO.P,C17,2*%
%TO.N,GND*%
X103750000Y-71000000D03*
%TD*%
%TO.P,C14,1*%
%TO.N,+3.3V*%
X94250000Y-91050000D03*
%TO.P,C14,2*%
%TO.N,GND*%
X94250000Y-92950000D03*
%TD*%
%TO.P,C12,2*%
%TO.N,GND*%
X81750000Y-92700000D03*
%TO.P,C12,1*%
%TO.N,+3.3V*%
X81750000Y-90800000D03*
%TD*%
%TO.P,C11,1*%
%TO.N,+3.3V*%
X76500000Y-90100000D03*
%TO.P,C11,2*%
%TO.N,GND*%
X76500000Y-92000000D03*
%TD*%
D45*
%TO.P,C10,1*%
%TO.N,+3.3V*%
X77500000Y-64100000D03*
%TO.P,C10,2*%
%TO.N,GND*%
X75600000Y-64100000D03*
%TD*%
%TO.P,C9,1*%
%TO.N,+3.3V*%
X76925000Y-70250000D03*
%TO.P,C9,2*%
%TO.N,GND*%
X75025000Y-70250000D03*
%TD*%
D46*
%TO.P,C7,2*%
%TO.N,GND*%
X53600000Y-34700000D03*
%TO.P,C7,1*%
%TO.N,+3.3V*%
X53600000Y-36600000D03*
%TD*%
D47*
%TO.P,C6,2*%
%TO.N,GND*%
X48500000Y-34400000D03*
%TO.P,C6,1*%
%TO.N,+3.3V*%
X48500000Y-37350000D03*
%TD*%
D48*
%TO.P,C5,2*%
%TO.N,GND*%
X53650000Y-42100000D03*
%TO.P,C5,1*%
%TO.N,+5V*%
X53650000Y-39150000D03*
%TD*%
D49*
%TO.P,C3,2*%
%TO.N,GND*%
X98150000Y-56700000D03*
%TO.P,C3,1*%
%TO.N,+5V*%
X98150000Y-49300000D03*
%TD*%
D25*
%TO.P,C2,2*%
%TO.N,GND*%
X68150000Y-55800000D03*
%TO.P,C2,1*%
%TO.N,/+24V_FILT*%
X68150000Y-53900000D03*
%TD*%
D49*
%TO.P,C1,2*%
%TO.N,GND*%
X108500000Y-42400000D03*
%TO.P,C1,1*%
%TO.N,/+24V_FILT*%
X108500000Y-35000000D03*
%TD*%
D50*
%TO.N,GND*%
X83250000Y-92750000D03*
%TO.N,+3.3V*%
X83300000Y-90850000D03*
X48125000Y-93200000D03*
%TO.N,+5V*%
X89750000Y-42500000D03*
X61150000Y-42500000D03*
%TO.N,+3.3V*%
X76800000Y-88025000D03*
%TO.N,GND*%
X77999997Y-87875000D03*
%TO.N,+3.3V*%
X95625000Y-91950000D03*
X105925000Y-75850000D03*
X113200000Y-73500000D03*
%TO.N,GND*%
X106200000Y-78250000D03*
%TO.N,+3.3V*%
X77425000Y-79400000D03*
%TO.N,GND*%
X105050000Y-83325000D03*
X130850000Y-73000000D03*
X125625000Y-65650000D03*
%TO.N,+3.3V*%
X132975000Y-74525000D03*
X132925000Y-72675000D03*
%TO.N,GND*%
X109725000Y-78126473D03*
X104475000Y-64950000D03*
X100425000Y-59700000D03*
X95725000Y-93775000D03*
X88625000Y-95775000D03*
X74575000Y-87950000D03*
X75500000Y-101825000D03*
X68250000Y-51050000D03*
X60850000Y-91275000D03*
%TO.N,/USER_BTN*%
X47450000Y-59500000D03*
%TO.N,+3.3V*%
X57225000Y-65300000D03*
%TO.N,GND*%
X51425000Y-69475000D03*
X42800000Y-92875000D03*
X58000000Y-73200000D03*
%TO.N,Net-(U5-GND)*%
X45925000Y-93925000D03*
%TO.N,/CAN1_RX*%
X51625000Y-95650000D03*
%TO.N,GND*%
X41300000Y-66750000D03*
X33300000Y-83775000D03*
%TO.N,/CAN1_TX*%
X50375000Y-87450000D03*
%TO.N,GND*%
X33100000Y-71775000D03*
%TO.N,/CAN1_TX*%
X48175000Y-89950000D03*
%TO.N,GND*%
X42925000Y-76225000D03*
%TO.N,Net-(U5-GND)*%
X47725000Y-92175000D03*
%TO.N,GND*%
X42175000Y-80500000D03*
X44625000Y-97000000D03*
X101025000Y-39475000D03*
X121000000Y-52050000D03*
%TO.N,Net-(D3-K)*%
X103750000Y-49650000D03*
X85000000Y-47550000D03*
%TO.N,GND*%
X67725000Y-57000000D03*
X55250000Y-47775000D03*
%TO.N,+3.3V*%
X63925000Y-48025000D03*
%TO.N,GND*%
X48350000Y-33200000D03*
X55925000Y-33300000D03*
X53725000Y-33425000D03*
X52075000Y-43375000D03*
%TO.N,+3.3V*%
X48375000Y-38575000D03*
%TO.N,GND*%
X114050000Y-45125000D03*
X105725000Y-44800000D03*
%TO.N,/CAN1_TX*%
X82235690Y-68435690D03*
X73225000Y-90650000D03*
%TO.N,/CAN1_RX*%
X80975000Y-69400000D03*
%TO.N,/USER_BTN*%
X82725000Y-86725000D03*
%TO.N,GND*%
X77500000Y-93200000D03*
%TO.N,Net-(U3-VDDA)*%
X80675000Y-86100000D03*
X78800000Y-87875000D03*
%TO.N,Net-(U3-NRST)*%
X81450000Y-85850000D03*
X67550000Y-88250000D03*
%TO.N,GND*%
X67250000Y-81275000D03*
%TO.N,+3.3V*%
X67350000Y-76575000D03*
%TO.N,GND*%
X84950000Y-101625000D03*
X75000000Y-68700000D03*
%TO.N,+3.3V*%
X76975000Y-68675000D03*
%TO.N,GND*%
X75625000Y-62775000D03*
%TO.N,+3.3V*%
X77575000Y-62725000D03*
X79275000Y-62650000D03*
%TO.N,GND*%
X82775000Y-62650000D03*
X86625000Y-62600000D03*
%TO.N,+3.3V*%
X88425000Y-62625000D03*
%TO.N,GND*%
X91225000Y-62525000D03*
%TO.N,+3.3V*%
X93150000Y-62600000D03*
%TO.N,GND*%
X96725000Y-63450000D03*
%TO.N,/FMC_SDCKE*%
X124150000Y-96800000D03*
X128450000Y-81150000D03*
%TO.N,+3.3V*%
X90225000Y-91050000D03*
%TO.N,/FMC_SDCLK*%
X91562500Y-91000000D03*
X111800000Y-91600000D03*
%TO.N,/FMC_D10*%
X96562500Y-89950000D03*
X105650000Y-92200000D03*
X133750000Y-81850000D03*
X135700000Y-77450000D03*
%TO.N,/FMC_D9*%
X127700000Y-75000000D03*
X134750000Y-80500000D03*
X108500000Y-92800000D03*
X104800000Y-94050000D03*
%TO.N,/FMC_NBL1*%
X106600000Y-95850000D03*
X108700000Y-93650000D03*
%TO.N,/FMC_D8*%
X133950000Y-77900000D03*
X124350000Y-75900000D03*
%TO.N,GND*%
X131150000Y-76950000D03*
%TO.N,/FMC_D8*%
X107150000Y-93300000D03*
X103950000Y-93350000D03*
%TO.N,GND*%
X100050000Y-90000000D03*
%TO.N,+3.3V*%
X99300000Y-89050000D03*
%TO.N,/FMC_D11*%
X96515544Y-86807772D03*
X102750000Y-88850000D03*
X103700000Y-90400000D03*
X116750000Y-87950000D03*
X121000000Y-81000000D03*
X116600000Y-86200000D03*
%TO.N,/FMC_D12*%
X95800000Y-86450000D03*
X120850000Y-87750000D03*
X121200000Y-86000000D03*
X121900000Y-83000000D03*
X120450000Y-74350000D03*
X124950000Y-71900000D03*
%TO.N,+3.3V*%
X130200000Y-69300000D03*
%TO.N,/FMC_D13*%
X121700000Y-78550000D03*
X117750000Y-82750000D03*
X95200000Y-85550000D03*
%TO.N,/FMC_BA1*%
X109750000Y-83700000D03*
X102175735Y-84974265D03*
%TO.N,/FMC_BA0*%
X99050000Y-83900000D03*
X109700000Y-82850000D03*
%TO.N,/FMC_A10*%
X99000000Y-72750000D03*
X118400000Y-83950000D03*
%TO.N,/FMC_D15*%
X95150000Y-75650000D03*
X99650000Y-63350000D03*
%TO.N,/FMC_NBL0*%
X92350000Y-85900000D03*
X107200000Y-75650000D03*
%TO.N,/FMC_A0*%
X110250000Y-84400000D03*
%TO.N,+3.3V*%
X105225000Y-81250000D03*
%TO.N,/FMC_A8*%
X98792307Y-79488464D03*
X108000000Y-82150000D03*
%TO.N,/FMC_A5*%
X106950000Y-80050000D03*
X99100000Y-78750000D03*
X110200000Y-86800000D03*
X124000000Y-86200000D03*
%TO.N,/FMC_A6*%
X118700000Y-81100000D03*
%TO.N,/FMC_A4*%
X116600000Y-80250000D03*
%TO.N,/FMC_A6*%
X112750000Y-81200000D03*
%TO.N,GND*%
X127700000Y-88150000D03*
%TO.N,/FMC_A4*%
X112950000Y-80250000D03*
%TO.N,/FMC_A0*%
X98900000Y-74500000D03*
%TO.N,+3.3V*%
X113250000Y-87950000D03*
%TO.N,/FMC_A3*%
X110650000Y-86000000D03*
X102550000Y-77250000D03*
%TO.N,/FMC_A2*%
X111387241Y-85270805D03*
X101950000Y-76650000D03*
%TO.N,/FMC_A1*%
X112146604Y-85019070D03*
X109350000Y-75800000D03*
%TO.N,GND*%
X113400000Y-75700000D03*
X113350000Y-71550000D03*
X110200000Y-70500000D03*
X105100000Y-71000000D03*
%TO.N,+3.3V*%
X110000000Y-68650000D03*
X105200000Y-69150000D03*
%TO.N,Net-(U3-VCAP_2)*%
X100300000Y-66350000D03*
X99400000Y-70000000D03*
%TO.N,/FMC_D13*%
X118150000Y-87500000D03*
%TO.N,GND*%
X74700000Y-78650000D03*
%TD*%
%TO.N,GND*%
D51*
X83200000Y-92700000D02*
X83250000Y-92750000D01*
X81750000Y-92700000D02*
X83200000Y-92700000D01*
%TO.N,+3.3V*%
X83250000Y-90800000D02*
X83300000Y-90850000D01*
X81750000Y-90800000D02*
X83250000Y-90800000D01*
X48955000Y-92370000D02*
X48125000Y-93200000D01*
X49935000Y-92370000D02*
X48955000Y-92370000D01*
%TO.N,+5V*%
D52*
X89750000Y-42500000D02*
X91800000Y-42500000D01*
X91800000Y-42500000D02*
X94550000Y-39750000D01*
X57750000Y-39100000D02*
X61150000Y-42500000D01*
X57600000Y-39100000D02*
X57750000Y-39100000D01*
%TO.N,+3.3V*%
D51*
X76500000Y-90100000D02*
X76500000Y-88325000D01*
X76500000Y-88325000D02*
X76800000Y-88025000D01*
X76500000Y-90100000D02*
X75675000Y-90925000D01*
X75675000Y-90925000D02*
X75275000Y-90925000D01*
X76850000Y-88025000D02*
X76800000Y-88025000D01*
X77575000Y-87300000D02*
X76850000Y-88025000D01*
X77575000Y-84200000D02*
X77575000Y-87300000D01*
X78275000Y-83500000D02*
X77575000Y-84200000D01*
X79250000Y-83500000D02*
X78275000Y-83500000D01*
%TO.N,GND*%
X78125000Y-84825000D02*
X78125000Y-87875000D01*
X78450000Y-84500000D02*
X78125000Y-84825000D01*
X79250000Y-84500000D02*
X78450000Y-84500000D01*
X78125000Y-87875000D02*
X77999997Y-87875000D01*
%TO.N,+3.3V*%
X94725000Y-91050000D02*
X95625000Y-91950000D01*
X94250000Y-91050000D02*
X94725000Y-91050000D01*
X93662500Y-88412500D02*
X93662500Y-90462500D01*
X93662500Y-90462500D02*
X94250000Y-91050000D01*
X105725000Y-76050000D02*
X105925000Y-75850000D01*
X104500000Y-76050000D02*
X105725000Y-76050000D01*
X114750000Y-73500000D02*
X116200000Y-73500000D01*
X116200000Y-77005000D02*
X115705000Y-77500000D01*
X116200000Y-73500000D02*
X116200000Y-77005000D01*
X115705000Y-77500000D02*
X114750000Y-77500000D01*
X114750000Y-73500000D02*
X113200000Y-73500000D01*
X113175000Y-73525000D02*
X113200000Y-73500000D01*
%TO.N,GND*%
X104500000Y-77950000D02*
X104975000Y-77950000D01*
X104975000Y-77950000D02*
X105275000Y-78250000D01*
X105275000Y-78250000D02*
X106200000Y-78250000D01*
%TO.N,+3.3V*%
X88500000Y-91050000D02*
X90225000Y-91050000D01*
X78475000Y-77000000D02*
X78075000Y-77400000D01*
X78075000Y-78750000D02*
X77425000Y-79400000D01*
X78075000Y-77400000D02*
X78075000Y-78750000D01*
X79250000Y-77000000D02*
X78475000Y-77000000D01*
%TO.N,GND*%
X104950000Y-83225000D02*
X105050000Y-83325000D01*
X103625000Y-83225000D02*
X104950000Y-83225000D01*
X100575000Y-81500000D02*
X101871573Y-81500000D01*
X101871573Y-81500000D02*
X103596573Y-83225000D01*
X103596573Y-83225000D02*
X103625000Y-83225000D01*
%TO.N,+3.3V*%
X103625000Y-81325000D02*
X105150000Y-81325000D01*
X105150000Y-81325000D02*
X105225000Y-81250000D01*
X101937259Y-81000000D02*
X102262259Y-81325000D01*
X102262259Y-81325000D02*
X103625000Y-81325000D01*
%TO.N,GND*%
X130300000Y-72450000D02*
X130850000Y-73000000D01*
X129300000Y-72450000D02*
X130300000Y-72450000D01*
X126250000Y-73500000D02*
X128250000Y-73500000D01*
X128250000Y-73500000D02*
X129300000Y-72450000D01*
X124900000Y-68300000D02*
X124900000Y-67150000D01*
X126250000Y-68700000D02*
X125300000Y-68700000D01*
X125300000Y-68700000D02*
X124900000Y-68300000D01*
X124900000Y-67150000D02*
X124950000Y-67100000D01*
X124950000Y-67100000D02*
X126250000Y-67100000D01*
X126250000Y-66275000D02*
X125625000Y-65650000D01*
X126250000Y-67100000D02*
X126250000Y-66275000D01*
%TO.N,+3.3V*%
X132975000Y-74525000D02*
X132150000Y-75350000D01*
X132150000Y-75350000D02*
X129700000Y-75350000D01*
X130800000Y-70550000D02*
X132925000Y-72675000D01*
X129300000Y-70550000D02*
X130800000Y-70550000D01*
%TO.N,/FMC_D10*%
X126250000Y-74300000D02*
X128075000Y-74300000D01*
X128075000Y-74300000D02*
X128675000Y-73700000D01*
X128675000Y-73700000D02*
X135425000Y-73700000D01*
X135775000Y-74050000D02*
X135775000Y-77375000D01*
X135425000Y-73700000D02*
X135775000Y-74050000D01*
X135775000Y-77375000D02*
X135700000Y-77450000D01*
%TO.N,+3.3V*%
X126250000Y-71100000D02*
X128750000Y-71100000D01*
X128750000Y-71100000D02*
X129300000Y-70550000D01*
X126250000Y-75900000D02*
X129150000Y-75900000D01*
X129150000Y-75900000D02*
X129700000Y-75350000D01*
%TO.N,+5V*%
D52*
X94550000Y-39750000D02*
X94550000Y-45700000D01*
X94550000Y-45700000D02*
X98150000Y-49300000D01*
%TO.N,GND*%
D51*
X109951471Y-78126473D02*
X109725000Y-78126473D01*
X110175000Y-78350000D02*
X109951471Y-78126473D01*
X111450000Y-78750000D02*
X110575000Y-78750000D01*
X110575000Y-78750000D02*
X110175000Y-78350000D01*
X104425000Y-65000000D02*
X104475000Y-64950000D01*
X103150000Y-65000000D02*
X104425000Y-65000000D01*
%TO.N,+3.3V*%
X100575000Y-75500000D02*
X103950000Y-75500000D01*
X103950000Y-75500000D02*
X104500000Y-76050000D01*
%TO.N,GND*%
X100425000Y-58975000D02*
X100425000Y-59700000D01*
X98150000Y-56700000D02*
X100425000Y-58975000D01*
X95075000Y-93775000D02*
X95725000Y-93775000D01*
X94250000Y-92950000D02*
X95075000Y-93775000D01*
X88500000Y-95650000D02*
X88625000Y-95775000D01*
X88500000Y-92950000D02*
X88500000Y-95650000D01*
X94250000Y-92950000D02*
X93325000Y-92950000D01*
X93325000Y-92950000D02*
X93162500Y-92787500D01*
%TO.N,Net-(U3-PH1)*%
X76075000Y-84800000D02*
X76075000Y-82675000D01*
X76075000Y-82675000D02*
X76100000Y-82650000D01*
%TO.N,GND*%
X76075000Y-86700000D02*
X74825000Y-87950000D01*
X74825000Y-87950000D02*
X74575000Y-87950000D01*
X73350000Y-86725000D02*
X74575000Y-87950000D01*
X73350000Y-86700000D02*
X73350000Y-86725000D01*
X79250000Y-84000000D02*
X79250000Y-84500000D01*
X77500000Y-76850000D02*
X77600000Y-76850000D01*
X77950000Y-76500000D02*
X79250000Y-76500000D01*
X76450000Y-77900000D02*
X77500000Y-76850000D01*
X77600000Y-76850000D02*
X77950000Y-76500000D01*
X75500000Y-101825000D02*
X76575000Y-101825000D01*
X76575000Y-101825000D02*
X78250000Y-100150000D01*
X75225000Y-101825000D02*
X75500000Y-101825000D01*
X74250000Y-100850000D02*
X75225000Y-101825000D01*
X74250000Y-100150000D02*
X74250000Y-100850000D01*
%TO.N,Net-(U3-VDDA)*%
X76350000Y-96750000D02*
X76350000Y-98400000D01*
X72350000Y-100150000D02*
X72350000Y-99175000D01*
X72350000Y-99175000D02*
X73125000Y-98400000D01*
X73125000Y-98400000D02*
X76350000Y-98400000D01*
X76250000Y-96525000D02*
X76250000Y-96650000D01*
X76250000Y-96650000D02*
X76350000Y-96750000D01*
X76350000Y-98400000D02*
X76350000Y-100150000D01*
%TO.N,GND*%
X69400000Y-49900000D02*
X68250000Y-51050000D01*
X70400000Y-49900000D02*
X69400000Y-49900000D01*
X59985000Y-90410000D02*
X60850000Y-91275000D01*
X59985000Y-89940000D02*
X59985000Y-90410000D01*
%TO.N,/USER_BTN*%
X43550000Y-63400000D02*
X47450000Y-59500000D01*
X43465000Y-63400000D02*
X43550000Y-63400000D01*
%TO.N,/FMC_D14*%
X126250000Y-69500000D02*
X128150000Y-69500000D01*
X129500000Y-68050000D02*
X136050000Y-68050000D01*
X98100000Y-83300000D02*
X94575000Y-83300000D01*
X128150000Y-69500000D02*
X129500000Y-68150000D01*
X99050000Y-84500000D02*
X98801471Y-84500000D01*
X129500000Y-68150000D02*
X129500000Y-68050000D01*
X136050000Y-68050000D02*
X136450000Y-68450000D01*
X98400000Y-84098529D02*
X98400000Y-83600000D01*
X136450000Y-68450000D02*
X136450000Y-94450000D01*
X136450000Y-94450000D02*
X135200000Y-95700000D01*
X135200000Y-95700000D02*
X108000000Y-95700000D01*
X108000000Y-95700000D02*
X99450000Y-87150000D01*
X99450000Y-87150000D02*
X99450000Y-84900000D01*
X99450000Y-84900000D02*
X99050000Y-84500000D01*
X98400000Y-83600000D02*
X98100000Y-83300000D01*
X98801471Y-84500000D02*
X98400000Y-84098529D01*
X94662500Y-87287500D02*
X94662500Y-88412500D01*
X94575000Y-83300000D02*
X94100000Y-83775000D01*
X94100000Y-83775000D02*
X94100000Y-86725000D01*
X94100000Y-86725000D02*
X94662500Y-87287500D01*
%TO.N,/FMC_D15*%
X93525000Y-85475000D02*
X93525000Y-87125000D01*
X92975000Y-84925000D02*
X93525000Y-85475000D01*
X93525000Y-87125000D02*
X93575000Y-87175000D01*
X92975000Y-80875000D02*
X92975000Y-84925000D01*
X95150000Y-78700000D02*
X92975000Y-80875000D01*
X95150000Y-75650000D02*
X95150000Y-78700000D01*
X93575000Y-87175000D02*
X93700000Y-87175000D01*
X93700000Y-87175000D02*
X94162500Y-87637500D01*
X94162500Y-87637500D02*
X94162500Y-88412500D01*
%TO.N,+3.3V*%
X60420000Y-65130000D02*
X57395000Y-65130000D01*
X57395000Y-65130000D02*
X57225000Y-65300000D01*
X57175000Y-65250000D02*
X57225000Y-65300000D01*
X54825000Y-65250000D02*
X57175000Y-65250000D01*
%TO.N,GND*%
X51425000Y-67900000D02*
X51425000Y-69475000D01*
%TO.N,/USER_BTN*%
X51425000Y-63400000D02*
X43465000Y-63400000D01*
X43465000Y-63400000D02*
X43600000Y-63400000D01*
X40950000Y-62975000D02*
X43040000Y-62975000D01*
X43040000Y-62975000D02*
X43465000Y-63400000D01*
%TO.N,GND*%
X41300000Y-66750000D02*
X40950000Y-66400000D01*
X40950000Y-66400000D02*
X40950000Y-64875000D01*
%TO.N,Net-(J2-Pin_2)*%
X40475000Y-92750000D02*
X36700000Y-92750000D01*
X36700000Y-92750000D02*
X34025000Y-95425000D01*
%TO.N,Net-(J2-Pin_1)*%
X40475000Y-91450000D02*
X35050000Y-91450000D01*
X35050000Y-91450000D02*
X34025000Y-90425000D01*
%TO.N,Net-(U5-Rs)*%
X58050000Y-89830000D02*
X58160000Y-89940000D01*
X54885000Y-89830000D02*
X58050000Y-89830000D01*
%TO.N,Net-(J2-Pin_1)*%
X45950000Y-89125000D02*
X48175000Y-89125000D01*
X48700000Y-88600000D02*
X50625000Y-88600000D01*
X44635000Y-90440000D02*
X45950000Y-89125000D01*
X48175000Y-89125000D02*
X48700000Y-88600000D01*
X53125000Y-91100000D02*
X54885000Y-91100000D01*
X50625000Y-88600000D02*
X53125000Y-91100000D01*
%TO.N,GND*%
X42450000Y-67900000D02*
X41300000Y-66750000D01*
X43465000Y-67900000D02*
X42450000Y-67900000D01*
%TO.N,/USER_BTN*%
X51425000Y-63400000D02*
X54800000Y-63400000D01*
X54800000Y-63400000D02*
X54825000Y-63425000D01*
%TO.N,GND*%
X41825000Y-75125000D02*
X42925000Y-76225000D01*
X41825000Y-74125000D02*
X41825000Y-75125000D01*
X34595000Y-73270000D02*
X33100000Y-71775000D01*
X35580000Y-73270000D02*
X34595000Y-73270000D01*
X41750000Y-77875000D02*
X41750000Y-77400000D01*
X41750000Y-77400000D02*
X42925000Y-76225000D01*
X36495000Y-80840000D02*
X36495000Y-80995000D01*
X36495000Y-80995000D02*
X35580000Y-81910000D01*
%TO.N,Net-(U5-GND)*%
X45760000Y-94090000D02*
X45925000Y-93925000D01*
%TO.N,/USB_VBUS*%
X36495000Y-80040000D02*
X35740000Y-80040000D01*
X34375000Y-75675000D02*
X34675000Y-75375000D01*
X34350000Y-75675000D02*
X34375000Y-75675000D01*
%TO.N,Net-(U5-GND)*%
X45760000Y-95190000D02*
X45760000Y-94090000D01*
%TO.N,/USB_VBUS*%
X35740000Y-80040000D02*
X34350000Y-78650000D01*
X34350000Y-78650000D02*
X34350000Y-75675000D01*
%TO.N,GND*%
X36495000Y-74185000D02*
X35580000Y-73270000D01*
X36495000Y-74340000D02*
X36495000Y-74185000D01*
X35165000Y-81910000D02*
X33300000Y-83775000D01*
X35580000Y-81910000D02*
X35165000Y-81910000D01*
%TO.N,Net-(J2-Pin_2)*%
X56875000Y-94700000D02*
X55175000Y-96400000D01*
%TO.N,/CAN1_TX*%
X55800000Y-87250000D02*
X60650000Y-87250000D01*
%TO.N,Net-(J2-Pin_2)*%
X55100000Y-96325000D02*
X49500000Y-96325000D01*
X46460000Y-93285000D02*
X46460000Y-90440000D01*
%TO.N,/CAN1_TX*%
X50375000Y-87450000D02*
X55600000Y-87450000D01*
%TO.N,Net-(J2-Pin_2)*%
X54885000Y-92370000D02*
X56345000Y-92370000D01*
X56875000Y-92900000D02*
X56875000Y-94700000D01*
%TO.N,GND*%
X31400000Y-81910000D02*
X31435000Y-81910000D01*
%TO.N,Net-(J2-Pin_2)*%
X55175000Y-96400000D02*
X55100000Y-96325000D01*
X56345000Y-92370000D02*
X56875000Y-92900000D01*
%TO.N,/CAN1_TX*%
X55600000Y-87450000D02*
X55800000Y-87250000D01*
%TO.N,Net-(J2-Pin_2)*%
X49500000Y-96325000D02*
X46460000Y-93285000D01*
%TO.N,GND*%
X58450000Y-72750000D02*
X58000000Y-73200000D01*
X60420000Y-72750000D02*
X58450000Y-72750000D01*
%TO.N,Net-(J2-Pin_1)*%
X40475000Y-91450000D02*
X43625000Y-91450000D01*
%TO.N,+3.3V*%
X60275000Y-65275000D02*
X60420000Y-65130000D01*
%TO.N,Net-(J2-Pin_1)*%
X43625000Y-91450000D02*
X44635000Y-90440000D01*
%TO.N,/USB_DM*%
X36495000Y-76840000D02*
X35510000Y-76840000D01*
%TO.N,/USB_VBUS*%
X37840000Y-80040000D02*
X39925000Y-82125000D01*
%TO.N,/USB_DM*%
X36480000Y-77825000D02*
X36495000Y-77840000D01*
%TO.N,/USB_VBUS*%
X36495000Y-80040000D02*
X37840000Y-80040000D01*
%TO.N,/USB_DM*%
X35375000Y-77477410D02*
X35722590Y-77825000D01*
X35375000Y-76975000D02*
X35375000Y-77477410D01*
X35722590Y-77825000D02*
X36480000Y-77825000D01*
X35510000Y-76840000D02*
X35375000Y-76975000D01*
%TO.N,/USB_DP*%
X36495000Y-78340000D02*
X37510000Y-78340000D01*
X37515000Y-77340000D02*
X36495000Y-77340000D01*
X37510000Y-78340000D02*
X37625000Y-78225000D01*
X37625000Y-78225000D02*
X37625000Y-77450000D01*
X37625000Y-77450000D02*
X37515000Y-77340000D01*
%TO.N,Net-(J2-Pin_2)*%
X44050000Y-93650000D02*
X46460000Y-91240000D01*
X41375000Y-93650000D02*
X44050000Y-93650000D01*
X40475000Y-92750000D02*
X41375000Y-93650000D01*
X46460000Y-91240000D02*
X46460000Y-90440000D01*
%TO.N,Net-(U5-GND)*%
X48800000Y-91100000D02*
X49935000Y-91100000D01*
X47725000Y-92175000D02*
X48800000Y-91100000D01*
%TO.N,/CAN1_RX*%
X51625000Y-95650000D02*
X51625000Y-95330000D01*
X51625000Y-95330000D02*
X49935000Y-93640000D01*
%TO.N,/USB_VBUS*%
X36260000Y-75375000D02*
X36495000Y-75140000D01*
X34675000Y-75375000D02*
X36260000Y-75375000D01*
%TO.N,GND*%
X41825000Y-82125000D02*
X41825000Y-80850000D01*
X41825000Y-80850000D02*
X42175000Y-80500000D01*
%TO.N,Net-(J4-CC1)*%
X36495000Y-76340000D02*
X37252410Y-76340000D01*
X37252410Y-76340000D02*
X39467410Y-74125000D01*
X39467410Y-74125000D02*
X40000000Y-74125000D01*
%TO.N,GND*%
X32895000Y-71775000D02*
X33100000Y-71775000D01*
X31400000Y-73270000D02*
X32895000Y-71775000D01*
X42800000Y-92650000D02*
X42800000Y-92875000D01*
X42250000Y-92100000D02*
X42800000Y-92650000D01*
X45760000Y-96740000D02*
X44885000Y-96740000D01*
X44885000Y-96740000D02*
X44625000Y-97000000D01*
%TO.N,Net-(J2-Pin_1)*%
X34770000Y-91450000D02*
X33760000Y-90440000D01*
%TO.N,/CAN1_TX*%
X49935000Y-89830000D02*
X48295000Y-89830000D01*
X48295000Y-89830000D02*
X48175000Y-89950000D01*
%TO.N,Net-(J4-CC2)*%
X36495000Y-79340000D02*
X38460000Y-79340000D01*
X38460000Y-79340000D02*
X39925000Y-77875000D01*
%TO.N,GND*%
X31435000Y-81910000D02*
X33300000Y-83775000D01*
X100700000Y-39800000D02*
X101025000Y-39475000D01*
X99950000Y-39800000D02*
X100700000Y-39800000D01*
X126600000Y-45350000D02*
X126600000Y-46450000D01*
X126600000Y-46450000D02*
X121000000Y-52050000D01*
X120750000Y-52050000D02*
X121000000Y-52050000D01*
X117450000Y-48750000D02*
X120750000Y-52050000D01*
%TO.N,Net-(D3-K)*%
X103750000Y-49650000D02*
X103750000Y-50625000D01*
X103750000Y-50625000D02*
X108075000Y-54950000D01*
X84650000Y-47200000D02*
X85000000Y-47550000D01*
X84650000Y-39750000D02*
X84650000Y-47200000D01*
%TO.N,/+24V_FILT*%
D52*
X68150000Y-53900000D02*
X70950000Y-53900000D01*
X70950000Y-53900000D02*
X71750000Y-54700000D01*
%TO.N,GND*%
D51*
X68150000Y-56575000D02*
X67725000Y-57000000D01*
X68150000Y-55800000D02*
X68150000Y-56575000D01*
%TO.N,Net-(D2-A)*%
X75650000Y-50200000D02*
X75650000Y-54600000D01*
X75650000Y-54600000D02*
X75750000Y-54700000D01*
%TO.N,GND*%
X55725000Y-47775000D02*
X55250000Y-47775000D01*
X56600000Y-46900000D02*
X55725000Y-47775000D01*
%TO.N,+3.3V*%
X63200000Y-47300000D02*
X63925000Y-48025000D01*
X63200000Y-46900000D02*
X63200000Y-47300000D01*
%TO.N,Net-(D4-A)*%
X58475000Y-46900000D02*
X61375000Y-46900000D01*
%TO.N,GND*%
X48500000Y-33350000D02*
X48350000Y-33200000D01*
X48500000Y-34400000D02*
X48500000Y-33350000D01*
X57125000Y-34500000D02*
X55925000Y-33300000D01*
X57600000Y-34500000D02*
X57125000Y-34500000D01*
X53600000Y-33550000D02*
X53725000Y-33425000D01*
X53600000Y-34700000D02*
X53600000Y-33550000D01*
X52375000Y-43375000D02*
X52075000Y-43375000D01*
X53650000Y-42100000D02*
X52375000Y-43375000D01*
%TO.N,+3.3V*%
X57600000Y-36800000D02*
X63900000Y-36800000D01*
X53600000Y-36600000D02*
X49250000Y-36600000D01*
X49250000Y-36600000D02*
X48500000Y-37350000D01*
X53600000Y-36600000D02*
X57400000Y-36600000D01*
X57400000Y-36600000D02*
X57600000Y-36800000D01*
X48500000Y-38450000D02*
X48375000Y-38575000D01*
X48500000Y-37350000D02*
X48500000Y-38450000D01*
%TO.N,+24V*%
D52*
X70325000Y-37617500D02*
X70325000Y-45825000D01*
X70325000Y-45825000D02*
X70400000Y-45900000D01*
%TO.N,/+24V_FILT*%
X71750000Y-54700000D02*
X71750000Y-57950000D01*
X71750000Y-57950000D02*
X71725000Y-57975000D01*
X80225000Y-59100000D02*
X81050000Y-58275000D01*
X81050000Y-33350000D02*
X83350000Y-31050000D01*
X71725000Y-57975000D02*
X72850000Y-59100000D01*
X72850000Y-59100000D02*
X80225000Y-59100000D01*
X81050000Y-58275000D02*
X81050000Y-33350000D01*
X83350000Y-31050000D02*
X104550000Y-31050000D01*
X104550000Y-31050000D02*
X108500000Y-35000000D01*
X108500000Y-35000000D02*
X115450000Y-41950000D01*
X115450000Y-41950000D02*
X117450000Y-41950000D01*
%TO.N,+5V*%
X98050000Y-39800000D02*
X94600000Y-39800000D01*
X94600000Y-39800000D02*
X94550000Y-39750000D01*
X57600000Y-39100000D02*
X53700000Y-39100000D01*
X53700000Y-39100000D02*
X53650000Y-39150000D01*
%TO.N,+24V*%
X70400000Y-45900000D02*
X75625000Y-45900000D01*
X75625000Y-45900000D02*
X75650000Y-45925000D01*
%TO.N,+5V*%
X102500000Y-56425000D02*
X102500000Y-53250000D01*
X112925000Y-47900000D02*
X112925000Y-56125000D01*
X104200000Y-58125000D02*
X102500000Y-56425000D01*
X111075000Y-58125000D02*
X104200000Y-58125000D01*
X112925000Y-56125000D02*
X113000000Y-56200000D01*
X113775000Y-47050000D02*
X112925000Y-47900000D01*
X113000000Y-56200000D02*
X111075000Y-58125000D01*
X117450000Y-47050000D02*
X113775000Y-47050000D01*
X102500000Y-53250000D02*
X102100000Y-53250000D01*
X102100000Y-53250000D02*
X98150000Y-49300000D01*
%TO.N,GND*%
D51*
X114275000Y-45350000D02*
X114050000Y-45125000D01*
X117450000Y-45350000D02*
X114275000Y-45350000D01*
%TO.N,Net-(D3-K)*%
X117450000Y-43650000D02*
X113075000Y-43650000D01*
X113075000Y-43650000D02*
X110675000Y-46050000D01*
X110675000Y-46050000D02*
X110675000Y-52350000D01*
X110675000Y-52350000D02*
X108075000Y-54950000D01*
%TO.N,GND*%
X108075000Y-48150000D02*
X105725000Y-45800000D01*
X105725000Y-45800000D02*
X105725000Y-44800000D01*
X106100000Y-44800000D02*
X105725000Y-44800000D01*
X108500000Y-42400000D02*
X106100000Y-44800000D01*
%TO.N,/CAN1_TX*%
X82235690Y-68435690D02*
X82584220Y-68435690D01*
X82584220Y-68435690D02*
X83162500Y-67857410D01*
X83162500Y-67857410D02*
X83162500Y-67087500D01*
%TO.N,/CAN1_RX*%
X80975000Y-69400000D02*
X83350000Y-69400000D01*
X84025000Y-68725000D02*
X84025000Y-68219910D01*
X83662500Y-67857410D02*
X83662500Y-67087500D01*
X83350000Y-69400000D02*
X84025000Y-68725000D01*
X84025000Y-68219910D02*
X83662500Y-67857410D01*
%TO.N,/CAN1_TX*%
X64050000Y-90650000D02*
X73225000Y-90650000D01*
X60650000Y-87250000D02*
X64050000Y-90650000D01*
%TO.N,/SWDIO*%
X98662500Y-67087500D02*
X98662500Y-65012500D01*
X96925000Y-60800000D02*
X73525000Y-60800000D01*
X98662500Y-65012500D02*
X97875000Y-64225000D01*
X97875000Y-64225000D02*
X97875000Y-61600000D01*
X73525000Y-60800000D02*
X73100000Y-60375000D01*
X97875000Y-61600000D02*
X97000000Y-60725000D01*
X97000000Y-60725000D02*
X96925000Y-60800000D01*
X73100000Y-60375000D02*
X71400000Y-60375000D01*
X71400000Y-60375000D02*
X64105000Y-67670000D01*
X64105000Y-67670000D02*
X60420000Y-67670000D01*
%TO.N,/SWCLK*%
X97325000Y-61900000D02*
X97325000Y-64500000D01*
X98162500Y-65337500D02*
X98162500Y-67087500D01*
X71425000Y-61575000D02*
X71950000Y-61050000D01*
X96625000Y-61200000D02*
X97325000Y-61900000D01*
X71425000Y-62450000D02*
X71425000Y-61575000D01*
X63665000Y-70210000D02*
X71425000Y-62450000D01*
X60420000Y-70210000D02*
X63665000Y-70210000D01*
X72100000Y-61200000D02*
X96625000Y-61200000D01*
X71950000Y-61050000D02*
X72100000Y-61200000D01*
X97325000Y-64500000D02*
X98162500Y-65337500D01*
%TO.N,/USER_BTN*%
X82662500Y-86787500D02*
X82725000Y-86725000D01*
X82662500Y-88412500D02*
X82662500Y-86787500D01*
%TO.N,GND*%
X77500000Y-93000000D02*
X77500000Y-93200000D01*
X76500000Y-92000000D02*
X77500000Y-93000000D01*
%TO.N,+3.3V*%
X75275000Y-90925000D02*
X75275000Y-94025000D01*
X75275000Y-94025000D02*
X75875000Y-94025000D01*
X75875000Y-94025000D02*
X76250000Y-94400000D01*
%TO.N,Net-(U3-VDDA)*%
X80675000Y-86100000D02*
X80675000Y-85555090D01*
X80675000Y-85555090D02*
X80119910Y-85000000D01*
X80119910Y-85000000D02*
X79250000Y-85000000D01*
X78800000Y-93975000D02*
X78800000Y-87875000D01*
X76250000Y-96525000D02*
X78800000Y-93975000D01*
%TO.N,Net-(U3-NRST)*%
X81450000Y-81775000D02*
X80600000Y-80925000D01*
X80600000Y-80925000D02*
X80525000Y-81000000D01*
X81450000Y-85850000D02*
X81450000Y-81775000D01*
X80525000Y-81000000D02*
X79250000Y-81000000D01*
X67300000Y-88000000D02*
X67550000Y-88250000D01*
X67300000Y-84125000D02*
X67300000Y-88000000D01*
%TO.N,GND*%
X67300000Y-81325000D02*
X67250000Y-81275000D01*
X67300000Y-82225000D02*
X67300000Y-81325000D01*
%TO.N,Net-(U3-NRST)*%
X66100000Y-80125000D02*
X65800000Y-80425000D01*
X67275000Y-79425000D02*
X66575000Y-80125000D01*
X65800000Y-80425000D02*
X65800000Y-83825000D01*
X66575000Y-80125000D02*
X66100000Y-80125000D01*
X65800000Y-83825000D02*
X66100000Y-84125000D01*
X66100000Y-84125000D02*
X67300000Y-84125000D01*
%TO.N,+3.3V*%
X67275000Y-76650000D02*
X67350000Y-76575000D01*
X67275000Y-77600000D02*
X67275000Y-76650000D01*
%TO.N,Net-(U3-PH0)*%
X73900000Y-82650000D02*
X72875000Y-81625000D01*
X72875000Y-81625000D02*
X72875000Y-80390256D01*
X72875000Y-80390256D02*
X73265256Y-80000000D01*
X73265256Y-80000000D02*
X79250000Y-80000000D01*
%TO.N,Net-(U3-PC14)*%
X73450000Y-73750000D02*
X73450000Y-72875000D01*
X73450000Y-72875000D02*
X74100000Y-72225000D01*
X74100000Y-72225000D02*
X77650000Y-72225000D01*
X77650000Y-72225000D02*
X77925000Y-72500000D01*
X77925000Y-72500000D02*
X79250000Y-72500000D01*
%TO.N,Net-(U3-PC15)*%
X75950000Y-73750000D02*
X76700000Y-73000000D01*
X76700000Y-73000000D02*
X79250000Y-73000000D01*
%TO.N,GND*%
X76450000Y-77900000D02*
X75450000Y-77900000D01*
X75450000Y-77900000D02*
X74700000Y-78650000D01*
X73450000Y-77900000D02*
X74200000Y-78650000D01*
%TO.N,Net-(U3-PC14)*%
X73450000Y-76000000D02*
X73450000Y-73750000D01*
%TO.N,Net-(U3-PC15)*%
X76450000Y-76000000D02*
X75950000Y-75500000D01*
X75950000Y-75500000D02*
X75950000Y-73750000D01*
%TO.N,Net-(U3-PH0)*%
X73900000Y-82650000D02*
X73900000Y-84250000D01*
X73900000Y-84250000D02*
X73350000Y-84800000D01*
%TO.N,Net-(U3-PH1)*%
X76100000Y-82650000D02*
X76275000Y-82650000D01*
X76275000Y-82650000D02*
X78425000Y-80500000D01*
X78425000Y-80500000D02*
X79250000Y-80500000D01*
%TO.N,GND*%
X84200000Y-100875000D02*
X84950000Y-101625000D01*
X83475000Y-100875000D02*
X84200000Y-100875000D01*
%TO.N,Net-(D5-A)*%
X81525000Y-97525000D02*
X81525000Y-100800000D01*
X81525000Y-100800000D02*
X81600000Y-100875000D01*
%TO.N,/MCU_LED*%
X83350000Y-97525000D02*
X83350000Y-94775000D01*
X83350000Y-94775000D02*
X84225000Y-93900000D01*
X84225000Y-93900000D02*
X84225000Y-90500000D01*
X84225000Y-90500000D02*
X83162500Y-89437500D01*
X83162500Y-89437500D02*
X83162500Y-88412500D01*
%TO.N,GND*%
X75025000Y-68725000D02*
X75000000Y-68700000D01*
X75025000Y-70250000D02*
X75025000Y-68725000D01*
%TO.N,+3.3V*%
X76925000Y-68725000D02*
X76975000Y-68675000D01*
X76925000Y-70250000D02*
X76925000Y-68725000D01*
X79250000Y-71500000D02*
X78175000Y-71500000D01*
X78175000Y-71500000D02*
X76925000Y-70250000D01*
%TO.N,GND*%
X75600000Y-62800000D02*
X75625000Y-62775000D01*
X75600000Y-64100000D02*
X75600000Y-62800000D01*
%TO.N,+3.3V*%
X77500000Y-62800000D02*
X77575000Y-62725000D01*
X77500000Y-64100000D02*
X77500000Y-62800000D01*
X77500000Y-64100000D02*
X80487500Y-67087500D01*
X80487500Y-67087500D02*
X81162500Y-67087500D01*
X79275000Y-63025000D02*
X79275000Y-62650000D01*
X80300000Y-64050000D02*
X79275000Y-63025000D01*
X80300000Y-64050000D02*
X80900000Y-64650000D01*
X80900000Y-64650000D02*
X81250000Y-64650000D01*
X81250000Y-64650000D02*
X81662500Y-65062500D01*
X81662500Y-65062500D02*
X81662500Y-67087500D01*
%TO.N,GND*%
X82200000Y-63225000D02*
X82775000Y-62650000D01*
X82200000Y-64050000D02*
X82200000Y-63225000D01*
X86250000Y-62975000D02*
X86625000Y-62600000D01*
X86250000Y-64000000D02*
X86250000Y-62975000D01*
%TO.N,+3.3V*%
X89050000Y-63250000D02*
X88425000Y-62625000D01*
X89050000Y-64000000D02*
X89050000Y-63250000D01*
%TO.N,GND*%
X90950000Y-62800000D02*
X91225000Y-62525000D01*
X90950000Y-64000000D02*
X90950000Y-62800000D01*
%TO.N,+3.3V*%
X93625000Y-63075000D02*
X93150000Y-62600000D01*
X93625000Y-64000000D02*
X93625000Y-63075000D01*
%TO.N,GND*%
X96075000Y-63450000D02*
X96725000Y-63450000D01*
X95525000Y-64000000D02*
X96075000Y-63450000D01*
X93162500Y-67087500D02*
X93162500Y-66317590D01*
X93162500Y-66317590D02*
X95480090Y-64000000D01*
X95480090Y-64000000D02*
X95525000Y-64000000D01*
%TO.N,+3.3V*%
X92662500Y-67087500D02*
X92662500Y-64962500D01*
X92662500Y-64962500D02*
X93625000Y-64000000D01*
%TO.N,GND*%
X88162500Y-67087500D02*
X88162500Y-66317590D01*
X89925000Y-65025000D02*
X90950000Y-64000000D01*
X88162500Y-66317590D02*
X89455090Y-65025000D01*
X89455090Y-65025000D02*
X89925000Y-65025000D01*
%TO.N,Net-(U3-BOOT0)*%
X84162500Y-67087500D02*
X84162500Y-64262500D01*
X84162500Y-64262500D02*
X84425000Y-64000000D01*
%TO.N,+3.3V*%
X87662500Y-67087500D02*
X87662500Y-65387500D01*
X87662500Y-65387500D02*
X89050000Y-64000000D01*
%TO.N,/FMC_SDCKE*%
X128450000Y-81150000D02*
X128000000Y-80700000D01*
X128000000Y-80700000D02*
X126250000Y-80700000D01*
X91162500Y-90551471D02*
X90962500Y-90751471D01*
X90962500Y-90751471D02*
X90962500Y-94862500D01*
X92900000Y-96800000D02*
X124150000Y-96800000D01*
X90962500Y-94862500D02*
X92900000Y-96800000D01*
X91162500Y-88412500D02*
X91162500Y-90551471D01*
%TO.N,GND*%
X81662500Y-88412500D02*
X81662500Y-89377756D01*
X81662500Y-89377756D02*
X80650000Y-90390256D01*
X80650000Y-90390256D02*
X80650000Y-91600000D01*
X80650000Y-91600000D02*
X81750000Y-92700000D01*
%TO.N,+3.3V*%
X82162500Y-88412500D02*
X82162500Y-90387500D01*
X82162500Y-90387500D02*
X81750000Y-90800000D01*
%TO.N,GND*%
X88162500Y-88412500D02*
X88162500Y-89587500D01*
X88162500Y-89587500D02*
X87400000Y-90350000D01*
X87400000Y-90350000D02*
X87400000Y-92500000D01*
X87400000Y-92500000D02*
X87850000Y-92950000D01*
X87850000Y-92950000D02*
X88500000Y-92950000D01*
%TO.N,+3.3V*%
X88662500Y-88412500D02*
X88662500Y-90887500D01*
X88662500Y-90887500D02*
X88500000Y-91050000D01*
%TO.N,/FMC_SDCLK*%
X133500000Y-83165686D02*
X132500000Y-82165686D01*
X132500000Y-82165686D02*
X132500000Y-81300000D01*
X133500000Y-90700000D02*
X133500000Y-83165686D01*
X132600000Y-91600000D02*
X133500000Y-90700000D01*
X111800000Y-91600000D02*
X132600000Y-91600000D01*
X132500000Y-81300000D02*
X131100000Y-79900000D01*
X131100000Y-79900000D02*
X126250000Y-79900000D01*
X91662500Y-88412500D02*
X91662500Y-90900000D01*
X91662500Y-90900000D02*
X91562500Y-91000000D01*
%TO.N,/FMC_D10*%
X96562500Y-89950000D02*
X96662500Y-89850000D01*
X96662500Y-89850000D02*
X96662500Y-88412500D01*
X133100000Y-82200000D02*
X134050000Y-83150000D01*
X134050000Y-83150000D02*
X134050000Y-91300000D01*
X133750000Y-81850000D02*
X133450000Y-81850000D01*
X134050000Y-91300000D02*
X133150000Y-92200000D01*
X133150000Y-92200000D02*
X105650000Y-92200000D01*
X133450000Y-81850000D02*
X133100000Y-82200000D01*
%TO.N,/FMC_D9*%
X127700000Y-75000000D02*
X126350000Y-75000000D01*
X126350000Y-75000000D02*
X126250000Y-75100000D01*
X133600000Y-92800000D02*
X134750000Y-91650000D01*
X134750000Y-91650000D02*
X134750000Y-80500000D01*
X108500000Y-92800000D02*
X133600000Y-92800000D01*
X104350000Y-94500000D02*
X104800000Y-94050000D01*
X97000000Y-93200000D02*
X98300000Y-94500000D01*
X97162500Y-90412071D02*
X97000000Y-90574571D01*
X98300000Y-94500000D02*
X104350000Y-94500000D01*
X97162500Y-88412500D02*
X97162500Y-90412071D01*
X97000000Y-90574571D02*
X97000000Y-93200000D01*
%TO.N,GND*%
X93162500Y-88412500D02*
X93162500Y-92787500D01*
%TO.N,/FMC_NBL1*%
X106600000Y-95850000D02*
X93000000Y-95850000D01*
X93000000Y-95850000D02*
X92162500Y-95012500D01*
X92162500Y-95012500D02*
X92162500Y-88412500D01*
X134250000Y-93650000D02*
X108700000Y-93650000D01*
X134450000Y-93850000D02*
X134250000Y-93650000D01*
X126250000Y-79100000D02*
X134450000Y-79100000D01*
X134450000Y-79100000D02*
X135400000Y-80050000D01*
X135400000Y-80050000D02*
X135400000Y-92900000D01*
X135400000Y-92900000D02*
X134450000Y-93850000D01*
%TO.N,GND*%
X126250000Y-77500000D02*
X129450000Y-77500000D01*
X129450000Y-77500000D02*
X129700000Y-77250000D01*
%TO.N,/FMC_D8*%
X124350000Y-75900000D02*
X125150000Y-76700000D01*
X125150000Y-76700000D02*
X126250000Y-76700000D01*
X134350000Y-77900000D02*
X133950000Y-77900000D01*
X135950000Y-93300000D02*
X135950000Y-79500000D01*
X134300000Y-94650000D02*
X134450000Y-94800000D01*
X108500000Y-94650000D02*
X134300000Y-94650000D01*
X134450000Y-94800000D02*
X135950000Y-93300000D01*
X135950000Y-79500000D02*
X134350000Y-77900000D01*
X107150000Y-93300000D02*
X108500000Y-94650000D01*
%TO.N,GND*%
X130850000Y-77250000D02*
X131150000Y-76950000D01*
X129700000Y-77250000D02*
X130850000Y-77250000D01*
%TO.N,/FMC_D8*%
X97800000Y-93350000D02*
X103950000Y-93350000D01*
X97500000Y-93050000D02*
X97800000Y-93350000D01*
X97662500Y-88412500D02*
X97662500Y-90477756D01*
X97500000Y-90640256D02*
X97500000Y-93050000D01*
X97662500Y-90477756D02*
X97500000Y-90640256D01*
%TO.N,GND*%
X100200000Y-90150000D02*
X100050000Y-90000000D01*
X100200000Y-91350000D02*
X100200000Y-90150000D01*
%TO.N,Net-(U3-VCAP_1)*%
X98162500Y-88412500D02*
X98162500Y-91212500D01*
X98162500Y-91212500D02*
X98300000Y-91350000D01*
%TO.N,+3.3V*%
X98662500Y-88412500D02*
X99300000Y-89050000D01*
%TO.N,/FMC_D11*%
X96162500Y-87160816D02*
X96162500Y-88412500D01*
X96515544Y-86807772D02*
X96162500Y-87160816D01*
X103700000Y-89800000D02*
X103700000Y-90400000D01*
X102750000Y-88850000D02*
X103700000Y-89800000D01*
%TO.N,/FMC_D12*%
X95662500Y-88412500D02*
X95662500Y-86587500D01*
X95662500Y-86587500D02*
X95800000Y-86450000D01*
%TO.N,/FMC_D13*%
X95162500Y-88412500D02*
X95162500Y-85587500D01*
X95162500Y-85587500D02*
X95200000Y-85550000D01*
%TO.N,/FMC_D11*%
X116600000Y-87800000D02*
X116750000Y-87950000D01*
X116600000Y-86200000D02*
X116600000Y-87800000D01*
X124950000Y-72700000D02*
X122850000Y-74800000D01*
X121250000Y-81000000D02*
X121000000Y-81000000D01*
X122850000Y-79400000D02*
X121250000Y-81000000D01*
X126250000Y-72700000D02*
X124950000Y-72700000D01*
X122850000Y-74800000D02*
X122850000Y-79400000D01*
%TO.N,/FMC_D12*%
X121200000Y-87400000D02*
X120850000Y-87750000D01*
X121200000Y-86000000D02*
X121200000Y-87400000D01*
X119700000Y-80800000D02*
X121900000Y-83000000D01*
X119700000Y-75100000D02*
X119700000Y-80800000D01*
X120450000Y-74350000D02*
X119700000Y-75100000D01*
X126250000Y-71900000D02*
X124950000Y-71900000D01*
%TO.N,+3.3V*%
X130200000Y-69650000D02*
X130200000Y-69300000D01*
X129300000Y-70550000D02*
X130200000Y-69650000D01*
%TO.N,/FMC_D13*%
X121700000Y-72100000D02*
X123500000Y-70300000D01*
X121700000Y-78550000D02*
X121700000Y-72100000D01*
X123500000Y-70300000D02*
X126250000Y-70300000D01*
X119150000Y-83450000D02*
X118450000Y-82750000D01*
X118450000Y-82750000D02*
X117750000Y-82750000D01*
X118150000Y-87500000D02*
X119150000Y-86500000D01*
X119150000Y-86500000D02*
X119150000Y-83450000D01*
%TO.N,/FMC_BA1*%
X109750000Y-83700000D02*
X110079000Y-83371000D01*
X110079000Y-83371000D02*
X114479000Y-83371000D01*
X114479000Y-83371000D02*
X114750000Y-83100000D01*
X101850000Y-84500000D02*
X102250000Y-84900000D01*
X100575000Y-84500000D02*
X101850000Y-84500000D01*
X102250000Y-84900000D02*
X102175735Y-84974265D01*
%TO.N,/FMC_BA0*%
X109700000Y-82850000D02*
X112050000Y-82850000D01*
X100575000Y-84000000D02*
X99150000Y-84000000D01*
X99150000Y-84000000D02*
X99050000Y-83900000D01*
X112050000Y-82850000D02*
X112750000Y-82150000D01*
X112750000Y-82150000D02*
X112900000Y-82300000D01*
X112900000Y-82300000D02*
X114750000Y-82300000D01*
%TO.N,/FMC_A10*%
X118400000Y-83950000D02*
X118350000Y-83900000D01*
X118350000Y-83900000D02*
X114750000Y-83900000D01*
X98700000Y-80500000D02*
X98150000Y-79950000D01*
X98150000Y-79950000D02*
X98150000Y-73100000D01*
X100575000Y-80500000D02*
X98700000Y-80500000D01*
X98650000Y-73100000D02*
X99000000Y-72750000D01*
X98150000Y-73100000D02*
X98650000Y-73100000D01*
%TO.N,/FMC_D15*%
X100650000Y-62350000D02*
X99650000Y-63350000D01*
X128300000Y-66550000D02*
X128300000Y-65800000D01*
X126250000Y-67900000D02*
X126950000Y-67900000D01*
X126950000Y-67900000D02*
X128300000Y-66550000D01*
X128300000Y-65800000D02*
X126450000Y-63950000D01*
X104800000Y-62350000D02*
X100650000Y-62350000D01*
X126450000Y-63950000D02*
X106400000Y-63950000D01*
X106400000Y-63950000D02*
X104800000Y-62350000D01*
%TO.N,/FMC_A11*%
X100575000Y-82000000D02*
X101500000Y-82000000D01*
X128950000Y-90300000D02*
X130050000Y-90300000D01*
X106750000Y-85200000D02*
X106750000Y-86550000D01*
X129550000Y-84284314D02*
X127565686Y-82300000D01*
X110600000Y-90400000D02*
X111600000Y-90400000D01*
X111600000Y-90400000D02*
X111750000Y-90250000D01*
X102200000Y-82700000D02*
X102200000Y-84150000D01*
X102200000Y-84150000D02*
X102800000Y-84750000D01*
X106100000Y-84550000D02*
X106750000Y-85200000D01*
X127565686Y-82300000D02*
X126250000Y-82300000D01*
X102800000Y-84750000D02*
X105700000Y-84750000D01*
X131000000Y-87650000D02*
X129550000Y-86200000D01*
X105900000Y-84550000D02*
X106100000Y-84550000D01*
X101500000Y-82000000D02*
X102200000Y-82700000D01*
X106750000Y-86550000D02*
X110600000Y-90400000D01*
X105700000Y-84750000D02*
X105900000Y-84550000D01*
X111750000Y-90250000D02*
X128900000Y-90250000D01*
X128900000Y-90250000D02*
X128950000Y-90300000D01*
X130050000Y-90300000D02*
X131000000Y-89350000D01*
X131000000Y-89350000D02*
X131000000Y-87650000D01*
X129550000Y-86200000D02*
X129550000Y-84284314D01*
%TO.N,/FMC_NBL0*%
X92350000Y-85900000D02*
X92662500Y-86212500D01*
X92662500Y-86212500D02*
X92662500Y-88412500D01*
X108800000Y-77250000D02*
X107200000Y-75650000D01*
X108800000Y-78300000D02*
X108800000Y-77250000D01*
X114750000Y-78300000D02*
X113800000Y-78300000D01*
X110400000Y-79750000D02*
X108950000Y-78300000D01*
X112350000Y-79750000D02*
X110400000Y-79750000D01*
X113800000Y-78300000D02*
X112350000Y-79750000D01*
X108950000Y-78300000D02*
X108800000Y-78300000D01*
%TO.N,/FMC_A0*%
X110250000Y-84400000D02*
X112350000Y-84400000D01*
X112350000Y-84400000D02*
X112450000Y-84300000D01*
%TO.N,+3.3V*%
X103650000Y-81650000D02*
X104050000Y-81650000D01*
X100575000Y-81000000D02*
X101937259Y-81000000D01*
%TO.N,/FMC_A9*%
X100575000Y-80000000D02*
X102068629Y-80000000D01*
X130600000Y-88150000D02*
X130600000Y-88050000D01*
X102318630Y-80250000D02*
X105400000Y-80250000D01*
X102068629Y-80000000D02*
X102318630Y-80250000D01*
X107250000Y-82100000D02*
X107250000Y-86300000D01*
X130550000Y-88765685D02*
X130550000Y-88200000D01*
X130550000Y-88200000D02*
X130600000Y-88150000D01*
X110950000Y-90000000D02*
X111000000Y-90000000D01*
X111000000Y-90000000D02*
X111150000Y-89850000D01*
X107250000Y-86300000D02*
X110950000Y-90000000D01*
X111150000Y-89850000D02*
X129465686Y-89850000D01*
X129465686Y-89850000D02*
X130550000Y-88765685D01*
X105400000Y-80250000D02*
X107250000Y-82100000D01*
X130600000Y-88050000D02*
X128950000Y-86400000D01*
X127800000Y-83100000D02*
X126250000Y-83100000D01*
X128950000Y-86400000D02*
X128950000Y-84250000D01*
X128950000Y-84250000D02*
X127800000Y-83100000D01*
%TO.N,/FMC_A8*%
X98792307Y-79488464D02*
X100563464Y-79488464D01*
X100563464Y-79488464D02*
X100575000Y-79500000D01*
X111100000Y-89450000D02*
X108000000Y-86350000D01*
X129850000Y-88900000D02*
X129300000Y-89450000D01*
X129300000Y-89450000D02*
X111100000Y-89450000D01*
X128400000Y-86700000D02*
X129850000Y-88150000D01*
X128400000Y-84500000D02*
X128400000Y-86700000D01*
X127800000Y-83900000D02*
X128400000Y-84500000D01*
X108000000Y-86350000D02*
X108000000Y-82150000D01*
X129850000Y-88150000D02*
X129850000Y-88900000D01*
X126250000Y-83900000D02*
X127800000Y-83900000D01*
%TO.N,/FMC_A7*%
X127800000Y-86750000D02*
X127800000Y-84750000D01*
X108700000Y-81800000D02*
X108700000Y-86300000D01*
X129300000Y-88250000D02*
X127800000Y-86750000D01*
X100575000Y-79000000D02*
X101634314Y-79000000D01*
X102484315Y-79850000D02*
X105850000Y-79850000D01*
X105850000Y-79850000D02*
X106700000Y-80700000D01*
X127750000Y-84700000D02*
X126250000Y-84700000D01*
X101634314Y-79000000D02*
X102484315Y-79850000D01*
X106700000Y-80700000D02*
X107450000Y-80700000D01*
X108700000Y-86300000D02*
X111450000Y-89050000D01*
X128500000Y-89050000D02*
X129300000Y-88250000D01*
X108550000Y-81800000D02*
X108700000Y-81800000D01*
X107450000Y-80700000D02*
X108550000Y-81800000D01*
X111450000Y-89050000D02*
X128500000Y-89050000D01*
X127800000Y-84750000D02*
X127750000Y-84700000D01*
%TO.N,/FMC_A5*%
X99100000Y-78750000D02*
X99100000Y-78705090D01*
X99100000Y-78705090D02*
X99805090Y-78000000D01*
X99805090Y-78000000D02*
X100575000Y-78000000D01*
X107450000Y-79900000D02*
X107100000Y-79900000D01*
X107100000Y-79900000D02*
X106950000Y-80050000D01*
X124100000Y-86300000D02*
X124000000Y-86200000D01*
X126250000Y-86300000D02*
X124100000Y-86300000D01*
%TO.N,/FMC_A6*%
X124100000Y-84550000D02*
X125050000Y-85500000D01*
X118700000Y-81100000D02*
X122150000Y-84550000D01*
X122150000Y-84550000D02*
X124100000Y-84550000D01*
X125050000Y-85500000D02*
X126250000Y-85500000D01*
%TO.N,/FMC_A4*%
X116600000Y-80250000D02*
X123450000Y-87100000D01*
X123450000Y-87100000D02*
X126250000Y-87100000D01*
%TO.N,/FMC_A6*%
X112400000Y-80850000D02*
X112750000Y-81200000D01*
X101700000Y-78500000D02*
X102650000Y-79450000D01*
X108650000Y-79450000D02*
X110050000Y-80850000D01*
X102650000Y-79450000D02*
X108650000Y-79450000D01*
X110050000Y-80850000D02*
X112400000Y-80850000D01*
X100575000Y-78500000D02*
X101700000Y-78500000D01*
%TO.N,GND*%
X127450000Y-87900000D02*
X127700000Y-88150000D01*
X126250000Y-87900000D02*
X127450000Y-87900000D01*
%TO.N,/FMC_A4*%
X101344910Y-77500000D02*
X102894910Y-79050000D01*
X102894910Y-79050000D02*
X109050000Y-79050000D01*
X110250000Y-80250000D02*
X112950000Y-80250000D01*
X100575000Y-77500000D02*
X101344910Y-77500000D01*
X109050000Y-79050000D02*
X110250000Y-80250000D01*
%TO.N,/FMC_A0*%
X98900000Y-74500000D02*
X100575000Y-74500000D01*
X112900000Y-84750000D02*
X112450000Y-84300000D01*
X114700000Y-84750000D02*
X112900000Y-84750000D01*
X114750000Y-84700000D02*
X114700000Y-84750000D01*
%TO.N,+3.3V*%
X113300000Y-87900000D02*
X113250000Y-87950000D01*
X114750000Y-87900000D02*
X113300000Y-87900000D01*
%TO.N,/FMC_A3*%
X110650000Y-86000000D02*
X111750000Y-87100000D01*
X111750000Y-87100000D02*
X114750000Y-87100000D01*
X101701471Y-77250000D02*
X102550000Y-77250000D01*
X101451471Y-77000000D02*
X101701471Y-77250000D01*
X100575000Y-77000000D02*
X101451471Y-77000000D01*
%TO.N,/FMC_A2*%
X112400000Y-86250000D02*
X112550000Y-86100000D01*
X112750000Y-86300000D02*
X114750000Y-86300000D01*
X112366436Y-86250000D02*
X112400000Y-86250000D01*
X111387241Y-85270805D02*
X112366436Y-86250000D01*
X112550000Y-86100000D02*
X112750000Y-86300000D01*
X101800000Y-76500000D02*
X101950000Y-76650000D01*
X100575000Y-76500000D02*
X101800000Y-76500000D01*
%TO.N,GND*%
X100575000Y-76000000D02*
X102550000Y-76000000D01*
X102550000Y-76000000D02*
X104500000Y-77950000D01*
%TO.N,/FMC_A1*%
X112146604Y-85019070D02*
X112627534Y-85500000D01*
X112627534Y-85500000D02*
X114750000Y-85500000D01*
X108550000Y-75000000D02*
X109350000Y-75800000D01*
X100575000Y-75000000D02*
X108550000Y-75000000D01*
%TO.N,/FMC_A0*%
X100575000Y-74500000D02*
X100625000Y-74550000D01*
%TO.N,+3.3V*%
X114750000Y-77500000D02*
X112100000Y-77500000D01*
X112100000Y-77500000D02*
X111450000Y-76850000D01*
%TO.N,GND*%
X113650000Y-75900000D02*
X113400000Y-75650000D01*
X114750000Y-75900000D02*
X113650000Y-75900000D01*
X113400000Y-75650000D02*
X113400000Y-75700000D01*
%TO.N,/FMC_D7*%
X100575000Y-74000000D02*
X101421574Y-74000000D01*
X101421574Y-74000000D02*
X101571574Y-74150000D01*
X101571574Y-74150000D02*
X111000000Y-74150000D01*
X111000000Y-74150000D02*
X113550000Y-76700000D01*
X113550000Y-76700000D02*
X114750000Y-76700000D01*
%TO.N,/FMC_D6*%
X100575000Y-73500000D02*
X101487259Y-73500000D01*
X101487259Y-73500000D02*
X101687259Y-73700000D01*
X111600000Y-73700000D02*
X113000000Y-75100000D01*
X101687259Y-73700000D02*
X111600000Y-73700000D01*
X113000000Y-75100000D02*
X114750000Y-75100000D01*
%TO.N,/FMC_D5*%
X101852944Y-73300000D02*
X101452943Y-72900000D01*
X112250000Y-73300000D02*
X101852944Y-73300000D01*
X112951471Y-74300000D02*
X112250000Y-73598529D01*
X112250000Y-73598529D02*
X112250000Y-73300000D01*
X101452943Y-72900000D02*
X101352943Y-73000000D01*
X101352943Y-73000000D02*
X100575000Y-73000000D01*
%TO.N,/FMC_D4*%
X100575000Y-72500000D02*
X101618628Y-72500000D01*
X114550000Y-72900000D02*
X114750000Y-72700000D01*
X101618628Y-72500000D02*
X102018629Y-72900000D01*
X102018629Y-72900000D02*
X114550000Y-72900000D01*
%TO.N,/FMC_D5*%
X114750000Y-74300000D02*
X112951471Y-74300000D01*
%TO.N,/FMC_D3*%
X101684314Y-72000000D02*
X102184314Y-72500000D01*
X112450000Y-72500000D02*
X112600000Y-72350000D01*
X100575000Y-72000000D02*
X101684314Y-72000000D01*
X102184314Y-72500000D02*
X112450000Y-72500000D01*
X112600000Y-72350000D02*
X113398529Y-72350000D01*
X113398529Y-72350000D02*
X113848529Y-71900000D01*
X113848529Y-71900000D02*
X114750000Y-71900000D01*
%TO.N,/FMC_D2*%
X102100000Y-71850000D02*
X101750000Y-71500000D01*
X111950000Y-71850000D02*
X102100000Y-71850000D01*
X113500000Y-70300000D02*
X111950000Y-71850000D01*
X101750000Y-71500000D02*
X100575000Y-71500000D01*
X114750000Y-70300000D02*
X113500000Y-70300000D01*
%TO.N,GND*%
X113800000Y-71100000D02*
X113350000Y-71550000D01*
X114750000Y-71100000D02*
X113800000Y-71100000D01*
%TO.N,/FMC_D1*%
X100575000Y-71000000D02*
X98150000Y-71000000D01*
X98150000Y-71000000D02*
X98150000Y-69800000D01*
X98150000Y-69800000D02*
X97650000Y-69300000D01*
X97650000Y-69300000D02*
X97600000Y-69300000D01*
X97600000Y-69300000D02*
X97350000Y-69050000D01*
X97350000Y-69050000D02*
X97650000Y-68750000D01*
X97650000Y-68750000D02*
X98500000Y-68750000D01*
X116800000Y-68405000D02*
X115705000Y-69500000D01*
X98500000Y-68750000D02*
X99750000Y-67500000D01*
X110400000Y-65600000D02*
X110400000Y-65500000D01*
X99750000Y-67500000D02*
X108500000Y-67500000D01*
X108500000Y-67500000D02*
X110400000Y-65600000D01*
X110400000Y-65500000D02*
X116150000Y-65500000D01*
X116150000Y-65500000D02*
X116800000Y-66150000D01*
X116800000Y-66150000D02*
X116800000Y-68405000D01*
X115705000Y-69500000D02*
X114750000Y-69500000D01*
%TO.N,GND*%
X110300000Y-70400000D02*
X110200000Y-70500000D01*
X111500000Y-70400000D02*
X110300000Y-70400000D01*
X103750000Y-71000000D02*
X105100000Y-71000000D01*
%TO.N,+3.3V*%
X110150000Y-68500000D02*
X110000000Y-68650000D01*
X111500000Y-68500000D02*
X110150000Y-68500000D01*
X105150000Y-69100000D02*
X105200000Y-69150000D01*
X103750000Y-69100000D02*
X105150000Y-69100000D01*
X114750000Y-68700000D02*
X111700000Y-68700000D01*
X111700000Y-68700000D02*
X111500000Y-68500000D01*
X114750000Y-67100000D02*
X112400000Y-67100000D01*
X112400000Y-67100000D02*
X111500000Y-68000000D01*
X111500000Y-68000000D02*
X111500000Y-68500000D01*
%TO.N,/FMC_D0*%
X115850000Y-66600000D02*
X115850000Y-67950000D01*
X98850000Y-70600000D02*
X98750000Y-70500000D01*
X100575000Y-70500000D02*
X99748529Y-70500000D01*
X115950000Y-66500000D02*
X115850000Y-66600000D01*
X100050000Y-68200000D02*
X108800000Y-68200000D01*
X99648529Y-70600000D02*
X98850000Y-70600000D01*
X99748529Y-70500000D02*
X99648529Y-70600000D01*
X98750000Y-70500000D02*
X98750000Y-69600000D01*
X108800000Y-68200000D02*
X110850000Y-66150000D01*
X98750000Y-69600000D02*
X98900000Y-69450000D01*
X98900000Y-69450000D02*
X98900000Y-69350000D01*
X98900000Y-69350000D02*
X100050000Y-68200000D01*
X110850000Y-66150000D02*
X115600000Y-66150000D01*
X115600000Y-66150000D02*
X115950000Y-66500000D01*
X115850000Y-67950000D02*
X114800000Y-67950000D01*
X114800000Y-67950000D02*
X114750000Y-67900000D01*
%TO.N,Net-(U3-VCAP_2)*%
X100300000Y-66350000D02*
X100300000Y-65950000D01*
X100300000Y-65950000D02*
X101250000Y-65000000D01*
X100575000Y-70000000D02*
X99400000Y-70000000D01*
%TO.N,GND*%
X100575000Y-69500000D02*
X102250000Y-69500000D01*
X102250000Y-69500000D02*
X103750000Y-71000000D01*
%TO.N,+3.3V*%
X100575000Y-69000000D02*
X103650000Y-69000000D01*
X103650000Y-69000000D02*
X103750000Y-69100000D01*
%TO.N,/FMC_A5*%
X110200000Y-86800000D02*
X109100000Y-85700000D01*
X109100000Y-85700000D02*
X109100000Y-81550000D01*
X109100000Y-81550000D02*
X107450000Y-79900000D01*
%TO.N,GND*%
X74200000Y-78650000D02*
X74700000Y-78650000D01*
%TD*%
M02*
