%TF.GenerationSoftware,KiCad,Pcbnew,10.0.6*%
%TF.CreationDate,2026-09-19T17:13:58+03:00*%
%TF.ProjectId,Gateway-X6,47617465-7761-4792-9d58-362e6b696361,rev?*%
%TF.SameCoordinates,Original*%
%TF.FileFunction,Copper,L6,Bot*%
%TF.FilePolarity,Positive*%
%FSLAX46Y46*%
G04 Gerber Fmt 4.6, Leading zero omitted, Abs format (unit mm)*
G04 Created by KiCad (PCBNEW 10.0.6) date 2026-09-19 17:13:58*
%MOMM*%
%LPD*%
G01*
G04 APERTURE LIST*
G04 Aperture macros list*
%AMRoundRect*
0 Rectangle with rounded corners*
0 $1 Rounding radius*
0 $2 $3 $4 $5 $6 $7 $8 $9 X,Y pos of 4 corners*
0 Add a 4 corners polygon primitive as box body*
4,1,4,$2,$3,$4,$5,$6,$7,$8,$9,$2,$3,0*
0 Add four circle primitives for the rounded corners*
1,1,$1+$1,$2,$3*
1,1,$1+$1,$4,$5*
1,1,$1+$1,$6,$7*
1,1,$1+$1,$8,$9*
0 Add four rect primitives between the rounded corners*
20,1,$1+$1,$2,$3,$4,$5,0*
20,1,$1+$1,$4,$5,$6,$7,0*
20,1,$1+$1,$6,$7,$8,$9,0*
20,1,$1+$1,$8,$9,$2,$3,0*%
G04 Aperture macros list end*
%TA.AperFunction,ComponentPad*%
%ADD10R,1.700000X1.700000*%
%TD*%
%TA.AperFunction,ComponentPad*%
%ADD11C,1.700000*%
%TD*%
%TA.AperFunction,ComponentPad*%
%ADD12C,2.600000*%
%TD*%
%TA.AperFunction,ComponentPad*%
%ADD13RoundRect,0.250000X-1.050000X1.050000X-1.050000X-1.050000X1.050000X-1.050000X1.050000X1.050000X0*%
%TD*%
%TA.AperFunction,ComponentPad*%
%ADD14O,1.600000X1.000000*%
%TD*%
%TA.AperFunction,ComponentPad*%
%ADD15O,2.100000X1.000000*%
%TD*%
%TA.AperFunction,ComponentPad*%
%ADD16RoundRect,0.250000X-1.050000X-1.050000X1.050000X-1.050000X1.050000X1.050000X-1.050000X1.050000X0*%
%TD*%
%TA.AperFunction,ViaPad*%
%ADD17C,0.600000*%
%TD*%
%TA.AperFunction,Conductor*%
%ADD18C,1.000000*%
%TD*%
%TA.AperFunction,Conductor*%
%ADD19C,0.200000*%
%TD*%
G04 APERTURE END LIST*
D10*
%TO.P,J3,1,Pin_1_1*%
%TO.N,+3.3V*%
X60420000Y-65130000D03*
D11*
%TO.P,J3,2,Pin_2_2*%
%TO.N,/SWDIO*%
X60420000Y-67670000D03*
%TO.P,J3,3,Pin_3_3*%
%TO.N,/SWCLK*%
X60420000Y-70210000D03*
%TO.P,J3,4,Pin_4_4*%
%TO.N,GND*%
X60420000Y-72750000D03*
%TD*%
D12*
%TO.P,J2,2,Pin_2_2*%
%TO.N,Net-(J2-Pin_2)*%
X34025000Y-95425000D03*
D13*
%TO.P,J2,1,Pin_1_1*%
%TO.N,Net-(J2-Pin_1)*%
X34025000Y-90425000D03*
%TD*%
D14*
%TO.P,J4,SH,SHIELD_SH*%
%TO.N,GND*%
X31400000Y-81910000D03*
D15*
X35580000Y-81910000D03*
D14*
X31400000Y-73270000D03*
D15*
X35580000Y-73270000D03*
%TD*%
D12*
%TO.P,J1,2,Pin_2_2*%
%TO.N,GND*%
X75325000Y-37617500D03*
D16*
%TO.P,J1,1,Pin_1_1*%
%TO.N,+24V*%
X70325000Y-37617500D03*
%TD*%
D17*
%TO.N,GND*%
X83250000Y-92750000D03*
%TO.N,+3.3V*%
X83300000Y-90850000D03*
X48125000Y-93200000D03*
%TO.N,+5V*%
X89750000Y-42500000D03*
X61150000Y-42500000D03*
%TO.N,+3.3V*%
X76800000Y-88025000D03*
%TO.N,GND*%
X77999997Y-87875000D03*
%TO.N,+3.3V*%
X95625000Y-91950000D03*
X105925000Y-75850000D03*
X113200000Y-73500000D03*
%TO.N,GND*%
X106200000Y-78250000D03*
%TO.N,+3.3V*%
X77425000Y-79400000D03*
%TO.N,GND*%
X105050000Y-83325000D03*
X130850000Y-73000000D03*
X125625000Y-65650000D03*
%TO.N,+3.3V*%
X132975000Y-74525000D03*
X132925000Y-72675000D03*
%TO.N,GND*%
X109725000Y-78126473D03*
X104475000Y-64950000D03*
X100425000Y-59700000D03*
X95725000Y-93775000D03*
X88625000Y-95775000D03*
X74575000Y-87950000D03*
X75500000Y-101825000D03*
X68250000Y-51050000D03*
X60850000Y-91275000D03*
%TO.N,/USER_BTN*%
X47450000Y-59500000D03*
%TO.N,+3.3V*%
X57225000Y-65300000D03*
%TO.N,GND*%
X51425000Y-69475000D03*
X42800000Y-92875000D03*
X58000000Y-73200000D03*
%TO.N,Net-(U5-GND)*%
X45925000Y-93925000D03*
%TO.N,/CAN1_RX*%
X51625000Y-95650000D03*
%TO.N,GND*%
X41300000Y-66750000D03*
X33300000Y-83775000D03*
%TO.N,/CAN1_TX*%
X50375000Y-87450000D03*
%TO.N,GND*%
X33100000Y-71775000D03*
%TO.N,/CAN1_TX*%
X48175000Y-89950000D03*
%TO.N,GND*%
X42925000Y-76225000D03*
%TO.N,Net-(U5-GND)*%
X47725000Y-92175000D03*
%TO.N,GND*%
X42175000Y-80500000D03*
X44625000Y-97000000D03*
X101025000Y-39475000D03*
X121000000Y-52050000D03*
%TO.N,Net-(D3-K)*%
X103750000Y-49650000D03*
X85000000Y-47550000D03*
%TO.N,GND*%
X67725000Y-57000000D03*
X55250000Y-47775000D03*
%TO.N,+3.3V*%
X63925000Y-48025000D03*
%TO.N,GND*%
X48350000Y-33200000D03*
X55925000Y-33300000D03*
X53725000Y-33425000D03*
X52075000Y-43375000D03*
%TO.N,+3.3V*%
X48375000Y-38575000D03*
%TO.N,GND*%
X114050000Y-45125000D03*
X105725000Y-44800000D03*
%TO.N,/CAN1_TX*%
X82235690Y-68435690D03*
X73225000Y-90650000D03*
%TO.N,/CAN1_RX*%
X80975000Y-69400000D03*
%TO.N,/USER_BTN*%
X82725000Y-86725000D03*
%TO.N,GND*%
X77500000Y-93200000D03*
%TO.N,Net-(U3-VDDA)*%
X80675000Y-86100000D03*
X78800000Y-87875000D03*
%TO.N,Net-(U3-NRST)*%
X81450000Y-85850000D03*
X67550000Y-88250000D03*
%TO.N,GND*%
X67250000Y-81275000D03*
%TO.N,+3.3V*%
X67350000Y-76575000D03*
%TO.N,GND*%
X84950000Y-101625000D03*
X75000000Y-68700000D03*
%TO.N,+3.3V*%
X76975000Y-68675000D03*
%TO.N,GND*%
X75625000Y-62775000D03*
%TO.N,+3.3V*%
X77575000Y-62725000D03*
X79275000Y-62650000D03*
%TO.N,GND*%
X82775000Y-62650000D03*
X86625000Y-62600000D03*
%TO.N,+3.3V*%
X88425000Y-62625000D03*
%TO.N,GND*%
X91225000Y-62525000D03*
%TO.N,+3.3V*%
X93150000Y-62600000D03*
%TO.N,GND*%
X96725000Y-63450000D03*
%TO.N,/FMC_SDCKE*%
X124150000Y-96800000D03*
X128450000Y-81150000D03*
%TO.N,+3.3V*%
X90225000Y-91050000D03*
%TO.N,/FMC_SDCLK*%
X91562500Y-91000000D03*
X111800000Y-91600000D03*
%TO.N,/FMC_D10*%
X96562500Y-89950000D03*
X105650000Y-92200000D03*
X133750000Y-81850000D03*
X135700000Y-77450000D03*
%TO.N,/FMC_D9*%
X127700000Y-75000000D03*
X134750000Y-80500000D03*
X108500000Y-92800000D03*
X104800000Y-94050000D03*
%TO.N,/FMC_NBL1*%
X106600000Y-95850000D03*
X108700000Y-93650000D03*
%TO.N,/FMC_D8*%
X133950000Y-77900000D03*
X124350000Y-75900000D03*
%TO.N,GND*%
X131150000Y-76950000D03*
%TO.N,/FMC_D8*%
X107150000Y-93300000D03*
X103950000Y-93350000D03*
%TO.N,GND*%
X100050000Y-90000000D03*
%TO.N,+3.3V*%
X99300000Y-89050000D03*
%TO.N,/FMC_D11*%
X96515544Y-86807772D03*
X102750000Y-88850000D03*
X103700000Y-90400000D03*
X116750000Y-87950000D03*
X121000000Y-81000000D03*
X116600000Y-86200000D03*
%TO.N,/FMC_D12*%
X95800000Y-86450000D03*
X120850000Y-87750000D03*
X121200000Y-86000000D03*
X121900000Y-83000000D03*
X120450000Y-74350000D03*
X124950000Y-71900000D03*
%TO.N,+3.3V*%
X130200000Y-69300000D03*
%TO.N,/FMC_D13*%
X121700000Y-78550000D03*
X117750000Y-82750000D03*
X95200000Y-85550000D03*
%TO.N,/FMC_BA1*%
X109750000Y-83700000D03*
X102175735Y-84974265D03*
%TO.N,/FMC_BA0*%
X99050000Y-83900000D03*
X109700000Y-82850000D03*
%TO.N,/FMC_A10*%
X99000000Y-72750000D03*
X118400000Y-83950000D03*
%TO.N,/FMC_D15*%
X95150000Y-75650000D03*
X99650000Y-63350000D03*
%TO.N,/FMC_NBL0*%
X92350000Y-85900000D03*
X107200000Y-75650000D03*
%TO.N,/FMC_A0*%
X110250000Y-84400000D03*
%TO.N,+3.3V*%
X105225000Y-81250000D03*
%TO.N,/FMC_A8*%
X98792307Y-79488464D03*
X108000000Y-82150000D03*
%TO.N,/FMC_A5*%
X106950000Y-80050000D03*
X99100000Y-78750000D03*
X110200000Y-86800000D03*
X124000000Y-86200000D03*
%TO.N,/FMC_A6*%
X118700000Y-81100000D03*
%TO.N,/FMC_A4*%
X116600000Y-80250000D03*
%TO.N,/FMC_A6*%
X112750000Y-81200000D03*
%TO.N,GND*%
X127700000Y-88150000D03*
%TO.N,/FMC_A4*%
X112950000Y-80250000D03*
%TO.N,/FMC_A0*%
X98900000Y-74500000D03*
%TO.N,+3.3V*%
X113250000Y-87950000D03*
%TO.N,/FMC_A3*%
X110650000Y-86000000D03*
X102550000Y-77250000D03*
%TO.N,/FMC_A2*%
X111387241Y-85270805D03*
X101950000Y-76650000D03*
%TO.N,/FMC_A1*%
X112146604Y-85019070D03*
X109350000Y-75800000D03*
%TO.N,GND*%
X113400000Y-75700000D03*
X113350000Y-71550000D03*
X110200000Y-70500000D03*
X105100000Y-71000000D03*
%TO.N,+3.3V*%
X110000000Y-68650000D03*
X105200000Y-69150000D03*
%TO.N,Net-(U3-VCAP_2)*%
X100300000Y-66350000D03*
X99400000Y-70000000D03*
%TO.N,/FMC_D13*%
X118150000Y-87500000D03*
%TO.N,GND*%
X74700000Y-78650000D03*
%TD*%
%TO.N,+5V*%
D18*
X61150000Y-42500000D02*
X89750000Y-42500000D01*
%TO.N,/FMC_A0*%
D19*
X110250000Y-84400000D02*
X110350000Y-84300000D01*
X110350000Y-84300000D02*
X110350000Y-81800000D01*
X110350000Y-81800000D02*
X107325000Y-78775000D01*
X107325000Y-78775000D02*
X107275000Y-78775000D01*
X107275000Y-78400000D02*
X106525000Y-77650000D01*
X104100000Y-77650000D02*
X103900000Y-77850000D01*
X98850000Y-77050000D02*
X98850000Y-74550000D01*
X106525000Y-77650000D02*
X104100000Y-77650000D01*
X99650000Y-77850000D02*
X98850000Y-77050000D01*
X103900000Y-77850000D02*
X99650000Y-77850000D01*
X107275000Y-78775000D02*
X107275000Y-78400000D01*
X98850000Y-74550000D02*
X98900000Y-74500000D01*
%TO.N,+3.3V*%
X132925000Y-74475000D02*
X132975000Y-74525000D01*
X132925000Y-72675000D02*
X132925000Y-74475000D01*
%TO.N,/FMC_BA0*%
X109700000Y-82850000D02*
X109600000Y-82750000D01*
X109600000Y-82750000D02*
X107751471Y-82750000D01*
X106951471Y-81950000D02*
X101425000Y-81950000D01*
X101425000Y-81950000D02*
X101025000Y-82350000D01*
X107751471Y-82750000D02*
X106951471Y-81950000D01*
X101025000Y-82350000D02*
X101025000Y-82775000D01*
X101025000Y-82775000D02*
X100325000Y-83475000D01*
X100325000Y-83475000D02*
X99475000Y-83475000D01*
X99475000Y-83475000D02*
X99050000Y-83900000D01*
%TO.N,/FMC_A1*%
X112146604Y-85019070D02*
X112146604Y-80521604D01*
X112146604Y-80521604D02*
X111275000Y-79650000D01*
X111275000Y-79650000D02*
X110965686Y-79650000D01*
X110965686Y-79650000D02*
X110325000Y-79009314D01*
X110325000Y-79009314D02*
X110325000Y-76775000D01*
X110325000Y-76775000D02*
X109350000Y-75800000D01*
%TO.N,GND*%
X74575000Y-87950000D02*
X74700000Y-87825000D01*
%TO.N,/CAN1_RX*%
X51625000Y-85350000D02*
X51625000Y-95650000D01*
%TO.N,/USER_BTN*%
X60575000Y-59450000D02*
X47550000Y-59450000D01*
%TO.N,/CAN1_TX*%
X48625000Y-87450000D02*
X50375000Y-87450000D01*
X47700000Y-89475000D02*
X47700000Y-88375000D01*
X48175000Y-89950000D02*
X47700000Y-89475000D01*
X47700000Y-88375000D02*
X48625000Y-87450000D01*
%TO.N,Net-(U5-GND)*%
X47675000Y-92175000D02*
X47725000Y-92175000D01*
X45925000Y-93925000D02*
X47675000Y-92175000D01*
%TO.N,Net-(D3-K)*%
X101650000Y-47550000D02*
X103750000Y-49650000D01*
X85000000Y-47550000D02*
X101650000Y-47550000D01*
%TO.N,/CAN1_TX*%
X73225000Y-90650000D02*
X80125000Y-90650000D01*
X80125000Y-90650000D02*
X83675000Y-87100000D01*
X83675000Y-87100000D02*
X83675000Y-69875000D01*
X83675000Y-69875000D02*
X82235690Y-68435690D01*
%TO.N,/CAN1_RX*%
X67500000Y-69475000D02*
X51625000Y-85350000D01*
X80975000Y-69400000D02*
X80900000Y-69475000D01*
X80900000Y-69475000D02*
X67500000Y-69475000D01*
%TO.N,/USER_BTN*%
X66625000Y-65500000D02*
X60575000Y-59450000D01*
X82725000Y-70225000D02*
X78000000Y-65500000D01*
X78000000Y-65500000D02*
X66625000Y-65500000D01*
X82725000Y-86725000D02*
X82725000Y-70225000D01*
%TO.N,Net-(U3-VDDA)*%
X80575000Y-86100000D02*
X80675000Y-86100000D01*
X78800000Y-87875000D02*
X80575000Y-86100000D01*
%TO.N,Net-(U3-NRST)*%
X81450000Y-86525000D02*
X81450000Y-85850000D01*
X67975000Y-88675000D02*
X79300000Y-88675000D01*
X79300000Y-88675000D02*
X81450000Y-86525000D01*
X67550000Y-88250000D02*
X67975000Y-88675000D01*
%TO.N,/FMC_SDCKE*%
X128450000Y-92500000D02*
X128450000Y-81150000D01*
X124150000Y-96800000D02*
X128450000Y-92500000D01*
%TO.N,/FMC_SDCLK*%
X107000000Y-96450000D02*
X111800000Y-91650000D01*
X106050000Y-96450000D02*
X107000000Y-96450000D01*
X91562500Y-91000000D02*
X97000000Y-91000000D01*
X97000000Y-91000000D02*
X101200000Y-95200000D01*
X101200000Y-95200000D02*
X105850000Y-95200000D01*
X105850000Y-95200000D02*
X105900000Y-95250000D01*
X105900000Y-96300000D02*
X106050000Y-96450000D01*
X105900000Y-95250000D02*
X105900000Y-96300000D01*
X111800000Y-91650000D02*
X111800000Y-91600000D01*
%TO.N,/FMC_D10*%
X98812500Y-92200000D02*
X96562500Y-89950000D01*
X105650000Y-92200000D02*
X98812500Y-92200000D01*
X135150000Y-81850000D02*
X133750000Y-81850000D01*
X135700000Y-81300000D02*
X135150000Y-81850000D01*
X135700000Y-77450000D02*
X135700000Y-81300000D01*
%TO.N,/FMC_D9*%
X134750000Y-77700000D02*
X132050000Y-75000000D01*
X132050000Y-75000000D02*
X127700000Y-75000000D01*
X134750000Y-80500000D02*
X134750000Y-77700000D01*
X108500000Y-92850000D02*
X108500000Y-92800000D01*
X107350000Y-94000000D02*
X108500000Y-92850000D01*
X104850000Y-94000000D02*
X107350000Y-94000000D01*
X104800000Y-94050000D02*
X104850000Y-94000000D01*
%TO.N,/FMC_NBL1*%
X108700000Y-93750000D02*
X106600000Y-95850000D01*
X108700000Y-93650000D02*
X108700000Y-93750000D01*
%TO.N,/FMC_D8*%
X128050000Y-77900000D02*
X126050000Y-75900000D01*
X133950000Y-77900000D02*
X128050000Y-77900000D01*
X126050000Y-75900000D02*
X124350000Y-75900000D01*
X104000000Y-93300000D02*
X107150000Y-93300000D01*
X103950000Y-93350000D02*
X104000000Y-93300000D01*
%TO.N,/FMC_D11*%
X116750000Y-87950000D02*
X116200000Y-88500000D01*
X116200000Y-88500000D02*
X114300000Y-88500000D01*
X114300000Y-88500000D02*
X114100000Y-88300000D01*
X114100000Y-88300000D02*
X113550000Y-88850000D01*
X113550000Y-88850000D02*
X102750000Y-88850000D01*
X98650000Y-86800000D02*
X96523316Y-86800000D01*
X96523316Y-86800000D02*
X96515544Y-86807772D01*
X103700000Y-90400000D02*
X101850000Y-90400000D01*
X101850000Y-90400000D02*
X98650000Y-87200000D01*
X98650000Y-87200000D02*
X98650000Y-86800000D01*
%TO.N,/FMC_D12*%
X120850000Y-87750000D02*
X119150000Y-89450000D01*
X102150000Y-89450000D02*
X98800000Y-86100000D01*
X119150000Y-89450000D02*
X102150000Y-89450000D01*
X98800000Y-86100000D02*
X96150000Y-86100000D01*
X96150000Y-86100000D02*
X95800000Y-86450000D01*
%TO.N,/FMC_D13*%
X95200000Y-85550000D02*
X96000000Y-85550000D01*
X96000000Y-85550000D02*
X96150000Y-85700000D01*
%TO.N,/FMC_D11*%
X116600000Y-85000000D02*
X116600000Y-86200000D01*
X117300000Y-84300000D02*
X116600000Y-85000000D01*
X121000000Y-81000000D02*
X120500000Y-81000000D01*
X120500000Y-81000000D02*
X117300000Y-84200000D01*
X117300000Y-84200000D02*
X117300000Y-84300000D01*
%TO.N,/FMC_D12*%
X121900000Y-85300000D02*
X121200000Y-86000000D01*
X121900000Y-83000000D02*
X121900000Y-85300000D01*
X122900000Y-71900000D02*
X120450000Y-74350000D01*
X124950000Y-71900000D02*
X122900000Y-71900000D01*
%TO.N,/FMC_D13*%
X121700000Y-78948529D02*
X121700000Y-78550000D01*
X117898529Y-82750000D02*
X121700000Y-78948529D01*
X117750000Y-82750000D02*
X117898529Y-82750000D01*
%TO.N,/FMC_BA1*%
X109350000Y-83700000D02*
X109750000Y-83700000D01*
X108075735Y-84974265D02*
X109350000Y-83700000D01*
X102175735Y-84974265D02*
X108075735Y-84974265D01*
%TO.N,/FMC_A10*%
X119650000Y-83950000D02*
X118400000Y-83950000D01*
X99000000Y-72750000D02*
X99250000Y-72500000D01*
X122500000Y-81100000D02*
X119650000Y-83950000D01*
X116950000Y-72500000D02*
X117000000Y-72450000D01*
X99250000Y-72500000D02*
X116950000Y-72500000D01*
X122500000Y-77950000D02*
X122500000Y-81100000D01*
X117000000Y-72450000D02*
X122500000Y-77950000D01*
%TO.N,/FMC_D15*%
X99650000Y-64800000D02*
X95150000Y-69300000D01*
X99650000Y-63350000D02*
X99650000Y-64800000D01*
X95150000Y-69300000D02*
X95150000Y-75650000D01*
%TO.N,/FMC_NBL0*%
X98450000Y-73750000D02*
X92350000Y-79850000D01*
X99750000Y-73750000D02*
X98450000Y-73750000D01*
X100500000Y-74500000D02*
X99750000Y-73750000D01*
X106500000Y-74500000D02*
X100500000Y-74500000D01*
X92350000Y-79850000D02*
X92350000Y-85900000D01*
X106600000Y-74800000D02*
X106700000Y-74700000D01*
X106600000Y-75200000D02*
X106600000Y-74800000D01*
X106750000Y-75200000D02*
X106600000Y-75200000D01*
X107200000Y-75650000D02*
X106750000Y-75200000D01*
X106700000Y-74700000D02*
X106500000Y-74500000D01*
%TO.N,/FMC_A0*%
X110350000Y-84400000D02*
X110250000Y-84400000D01*
X110450000Y-84300000D02*
X110350000Y-84400000D01*
%TO.N,/FMC_A8*%
X98850000Y-79350000D02*
X98850000Y-79430771D01*
X100700000Y-79150000D02*
X100500000Y-79350000D01*
X108000000Y-82150000D02*
X105000000Y-79150000D01*
X100500000Y-79350000D02*
X98850000Y-79350000D01*
X105000000Y-79150000D02*
X100700000Y-79150000D01*
X98850000Y-79430771D02*
X98792307Y-79488464D01*
%TO.N,/FMC_A5*%
X106950000Y-80050000D02*
X105650000Y-78750000D01*
X105650000Y-78750000D02*
X99100000Y-78750000D01*
X123400000Y-86800000D02*
X110200000Y-86800000D01*
X124000000Y-86200000D02*
X123400000Y-86800000D01*
%TO.N,/FMC_A6*%
X112750000Y-81200000D02*
X118600000Y-81200000D01*
X118600000Y-81200000D02*
X118700000Y-81100000D01*
%TO.N,/FMC_A4*%
X112950000Y-80250000D02*
X116600000Y-80250000D01*
%TO.N,/FMC_A3*%
X110600000Y-85950000D02*
X110650000Y-86000000D01*
X110850000Y-84750000D02*
X110600000Y-85000000D01*
X110600000Y-85000000D02*
X110600000Y-85950000D01*
X106900000Y-77250000D02*
X110850000Y-81200000D01*
X102550000Y-77250000D02*
X106900000Y-77250000D01*
X110850000Y-81200000D02*
X110850000Y-84750000D01*
%TO.N,/FMC_A2*%
X107400000Y-76650000D02*
X111550000Y-80800000D01*
X111387241Y-80962759D02*
X111387241Y-85270805D01*
X101950000Y-76650000D02*
X107400000Y-76650000D01*
X111550000Y-80800000D02*
X111387241Y-80962759D01*
%TO.N,Net-(U3-VCAP_2)*%
X99400000Y-67250000D02*
X100300000Y-66350000D01*
X99400000Y-70000000D02*
X99400000Y-67250000D01*
%TO.N,/FMC_D13*%
X113001471Y-87350000D02*
X118000000Y-87350000D01*
X112901471Y-87450000D02*
X113001471Y-87350000D01*
X109350000Y-87450000D02*
X112901471Y-87450000D01*
X107600000Y-85700000D02*
X109350000Y-87450000D01*
X118000000Y-87350000D02*
X118150000Y-87500000D01*
X96150000Y-85700000D02*
X107600000Y-85700000D01*
%TD*%
M02*
