%TF.GenerationSoftware,KiCad,Pcbnew,10.0.6*%
%TF.CreationDate,2026-09-19T17:13:58+03:00*%
%TF.ProjectId,Gateway-X6,47617465-7761-4792-9d58-362e6b696361,rev?*%
%TF.SameCoordinates,Original*%
%TF.FileFunction,Soldermask,Top*%
%TF.FilePolarity,Negative*%
%FSLAX46Y46*%
G04 Gerber Fmt 4.6, Leading zero omitted, Abs format (unit mm)*
G04 Created by KiCad (PCBNEW 10.0.6) date 2026-09-19 17:13:58*
%MOMM*%
%LPD*%
G01*
G04 APERTURE LIST*
G04 Aperture macros list*
%AMRoundRect*
0 Rectangle with rounded corners*
0 $1 Rounding radius*
0 $2 $3 $4 $5 $6 $7 $8 $9 X,Y pos of 4 corners*
0 Add a 4 corners polygon primitive as box body*
4,1,4,$2,$3,$4,$5,$6,$7,$8,$9,$2,$3,0*
0 Add four circle primitives for the rounded corners*
1,1,$1+$1,$2,$3*
1,1,$1+$1,$4,$5*
1,1,$1+$1,$6,$7*
1,1,$1+$1,$8,$9*
0 Add four rect primitives between the rounded corners*
20,1,$1+$1,$2,$3,$4,$5,0*
20,1,$1+$1,$4,$5,$6,$7,0*
20,1,$1+$1,$6,$7,$8,$9,0*
20,1,$1+$1,$8,$9,$2,$3,0*%
G04 Aperture macros list end*
%ADD10RoundRect,0.225000X-0.250000X0.225000X-0.250000X-0.225000X0.250000X-0.225000X0.250000X0.225000X0*%
%ADD11RoundRect,0.250000X-0.262500X-0.450000X0.262500X-0.450000X0.262500X0.450000X-0.262500X0.450000X0*%
%ADD12R,1.700000X1.700000*%
%ADD13C,1.700000*%
%ADD14RoundRect,0.250000X-0.250000X-0.475000X0.250000X-0.475000X0.250000X0.475000X-0.250000X0.475000X0*%
%ADD15C,2.600000*%
%ADD16RoundRect,0.250000X-1.050000X1.050000X-1.050000X-1.050000X1.050000X-1.050000X1.050000X1.050000X0*%
%ADD17O,1.600000X1.000000*%
%ADD18O,2.100000X1.000000*%
%ADD19RoundRect,0.150000X-0.575000X0.150000X-0.575000X-0.150000X0.575000X-0.150000X0.575000X0.150000X0*%
%ADD20RoundRect,0.075000X-0.650000X0.075000X-0.650000X-0.075000X0.650000X-0.075000X0.650000X0.075000X0*%
%ADD21C,0.650000*%
%ADD22RoundRect,0.250000X0.450000X-0.262500X0.450000X0.262500X-0.450000X0.262500X-0.450000X-0.262500X0*%
%ADD23RoundRect,0.250000X-0.525000X-0.400000X0.525000X-0.400000X0.525000X0.400000X-0.525000X0.400000X0*%
%ADD24RoundRect,0.150000X-0.825000X-0.150000X0.825000X-0.150000X0.825000X0.150000X-0.825000X0.150000X0*%
%ADD25RoundRect,0.112500X-0.350000X-0.112500X0.350000X-0.112500X0.350000X0.112500X-0.350000X0.112500X0*%
%ADD26RoundRect,0.250000X-0.475000X0.250000X-0.475000X-0.250000X0.475000X-0.250000X0.475000X0.250000X0*%
%ADD27R,1.510000X0.458000*%
%ADD28RoundRect,0.075000X-0.662500X-0.075000X0.662500X-0.075000X0.662500X0.075000X-0.662500X0.075000X0*%
%ADD29RoundRect,0.075000X-0.075000X-0.662500X0.075000X-0.662500X0.075000X0.662500X-0.075000X0.662500X0*%
%ADD30RoundRect,0.250000X-1.000000X-0.650000X1.000000X-0.650000X1.000000X0.650000X-1.000000X0.650000X0*%
%ADD31RoundRect,0.250000X-1.050000X-1.050000X1.050000X-1.050000X1.050000X1.050000X-1.050000X1.050000X0*%
%ADD32R,2.900000X5.400000*%
%ADD33RoundRect,0.250000X-0.450000X0.262500X-0.450000X-0.262500X0.450000X-0.262500X0.450000X0.262500X0*%
%ADD34RoundRect,0.250000X-2.050000X-0.300000X2.050000X-0.300000X2.050000X0.300000X-2.050000X0.300000X0*%
%ADD35RoundRect,0.250002X-4.449998X-5.149998X4.449998X-5.149998X4.449998X5.149998X-4.449998X5.149998X0*%
%ADD36R,1.000000X1.800000*%
%ADD37RoundRect,0.250000X-0.450000X-0.350000X0.450000X-0.350000X0.450000X0.350000X-0.450000X0.350000X0*%
%ADD38RoundRect,0.375000X-0.625000X-0.375000X0.625000X-0.375000X0.625000X0.375000X-0.625000X0.375000X0*%
%ADD39RoundRect,0.500000X-0.500000X-1.400000X0.500000X-1.400000X0.500000X1.400000X-0.500000X1.400000X0*%
%ADD40RoundRect,0.218750X-0.381250X0.218750X-0.381250X-0.218750X0.381250X-0.218750X0.381250X0.218750X0*%
%ADD41RoundRect,0.250000X1.450000X-0.312500X1.450000X0.312500X-1.450000X0.312500X-1.450000X-0.312500X0*%
%ADD42RoundRect,0.243750X0.243750X0.456250X-0.243750X0.456250X-0.243750X-0.456250X0.243750X-0.456250X0*%
%ADD43RoundRect,0.243750X-0.243750X-0.456250X0.243750X-0.456250X0.243750X0.456250X-0.243750X0.456250X0*%
%ADD44RoundRect,0.250000X1.400000X1.000000X-1.400000X1.000000X-1.400000X-1.000000X1.400000X-1.000000X0*%
%ADD45RoundRect,0.250000X-0.650000X1.000000X-0.650000X-1.000000X0.650000X-1.000000X0.650000X1.000000X0*%
%ADD46RoundRect,0.250000X0.250000X0.475000X-0.250000X0.475000X-0.250000X-0.475000X0.250000X-0.475000X0*%
%ADD47RoundRect,0.250000X0.475000X-0.250000X0.475000X0.250000X-0.475000X0.250000X-0.475000X-0.250000X0*%
%ADD48RoundRect,0.250000X1.100000X-0.325000X1.100000X0.325000X-1.100000X0.325000X-1.100000X-0.325000X0*%
%ADD49RoundRect,0.250000X-1.100000X0.325000X-1.100000X-0.325000X1.100000X-0.325000X1.100000X0.325000X0*%
%ADD50RoundRect,0.250000X-1.000000X1.950000X-1.000000X-1.950000X1.000000X-1.950000X1.000000X1.950000X0*%
G04 APERTURE END LIST*
D10*
%TO.C,C33*%
X45760000Y-95190000D03*
X45760000Y-96740000D03*
%TD*%
D11*
%TO.C,R8*%
X41825000Y-74125000D03*
X40000000Y-74125000D03*
%TD*%
D12*
%TO.C,J3*%
X60420000Y-65130000D03*
D13*
X60420000Y-67670000D03*
X60420000Y-70210000D03*
X60420000Y-72750000D03*
%TD*%
D14*
%TO.C,C35*%
X41825000Y-82125000D03*
X39925000Y-82125000D03*
%TD*%
D15*
%TO.C,J2*%
X34025000Y-95425000D03*
D16*
X34025000Y-90425000D03*
%TD*%
D17*
%TO.C,J4*%
X31400000Y-81910000D03*
D18*
X35580000Y-81910000D03*
D17*
X31400000Y-73270000D03*
D18*
X35580000Y-73270000D03*
D19*
X36495000Y-74340000D03*
X36495000Y-75140000D03*
D20*
X36495000Y-75840000D03*
X36495000Y-76840000D03*
X36495000Y-78340000D03*
X36495000Y-79340000D03*
D19*
X36495000Y-80040000D03*
X36495000Y-80840000D03*
X36495000Y-80840000D03*
X36495000Y-80040000D03*
D20*
X36495000Y-78840000D03*
X36495000Y-77840000D03*
X36495000Y-77340000D03*
X36495000Y-76340000D03*
D19*
X36495000Y-75140000D03*
X36495000Y-74340000D03*
D21*
X35050000Y-80480000D03*
X35050000Y-74700000D03*
%TD*%
D11*
%TO.C,R3*%
X58160000Y-89940000D03*
X59985000Y-89940000D03*
%TD*%
%TO.C,R4*%
X44635000Y-90440000D03*
X46460000Y-90440000D03*
%TD*%
D22*
%TO.C,R6*%
X54825000Y-65250000D03*
X54825000Y-63425000D03*
%TD*%
D11*
%TO.C,R9*%
X41750000Y-77875000D03*
X39925000Y-77875000D03*
%TD*%
D23*
%TO.C,SW1*%
X43465000Y-63400000D03*
X51425000Y-63400000D03*
X43465000Y-67900000D03*
X51425000Y-67900000D03*
%TD*%
D24*
%TO.C,U5*%
X54885000Y-89830000D03*
X54885000Y-91100000D03*
X54885000Y-92370000D03*
X54885000Y-93640000D03*
X49935000Y-93640000D03*
X49935000Y-92370000D03*
X49935000Y-91100000D03*
X49935000Y-89830000D03*
%TD*%
D25*
%TO.C,U6*%
X42250000Y-92100000D03*
X40475000Y-92750000D03*
X40475000Y-91450000D03*
%TD*%
D26*
%TO.C,C34*%
X40950000Y-62975000D03*
X40950000Y-64875000D03*
%TD*%
%TO.C,C32*%
X129700000Y-77250000D03*
X129700000Y-75350000D03*
%TD*%
%TO.C,C15*%
X103625000Y-81325000D03*
X103625000Y-83225000D03*
%TD*%
D27*
%TO.C,U4*%
X126250000Y-67100000D03*
X126250000Y-67900000D03*
X126250000Y-68700000D03*
X126250000Y-69500000D03*
X126250000Y-70300000D03*
X126250000Y-71100000D03*
X126250000Y-71900000D03*
X126250000Y-72700000D03*
X126250000Y-73500000D03*
X126250000Y-74300000D03*
X126250000Y-75100000D03*
X126250000Y-75900000D03*
X126250000Y-76700000D03*
X126250000Y-77500000D03*
X126250000Y-78300000D03*
X126250000Y-79100000D03*
X126250000Y-79900000D03*
X126250000Y-80700000D03*
X126250000Y-81500000D03*
X126250000Y-82300000D03*
X126250000Y-83100000D03*
X126250000Y-83900000D03*
X126250000Y-84700000D03*
X126250000Y-85500000D03*
X126250000Y-86300000D03*
X126250000Y-87100000D03*
X126250000Y-87900000D03*
X114750000Y-87900000D03*
X114750000Y-87100000D03*
X114750000Y-86300000D03*
X114750000Y-85500000D03*
X114750000Y-84700000D03*
X114750000Y-83900000D03*
X114750000Y-83100000D03*
X114750000Y-82300000D03*
X114750000Y-81500000D03*
X114750000Y-80700000D03*
X114750000Y-79900000D03*
X114750000Y-79100000D03*
X114750000Y-78300000D03*
X114750000Y-77500000D03*
X114750000Y-76700000D03*
X114750000Y-75900000D03*
X114750000Y-75100000D03*
X114750000Y-74300000D03*
X114750000Y-73500000D03*
X114750000Y-72700000D03*
X114750000Y-71900000D03*
X114750000Y-71100000D03*
X114750000Y-70300000D03*
X114750000Y-69500000D03*
X114750000Y-68700000D03*
X114750000Y-67900000D03*
X114750000Y-67100000D03*
%TD*%
D26*
%TO.C,C31*%
X129300000Y-72450000D03*
X129300000Y-70550000D03*
%TD*%
D28*
%TO.C,U3*%
X79250000Y-69000000D03*
X79250000Y-69500000D03*
X79250000Y-70000000D03*
X79250000Y-70500000D03*
X79250000Y-71000000D03*
X79250000Y-71500000D03*
X79250000Y-72000000D03*
X79250000Y-72500000D03*
X79250000Y-73000000D03*
X79250000Y-73500000D03*
X79250000Y-74000000D03*
X79250000Y-74500000D03*
X79250000Y-75000000D03*
X79250000Y-75500000D03*
X79250000Y-76000000D03*
X79250000Y-76500000D03*
X79250000Y-77000000D03*
X79250000Y-77500000D03*
X79250000Y-78000000D03*
X79250000Y-78500000D03*
X79250000Y-79000000D03*
X79250000Y-79500000D03*
X79250000Y-80000000D03*
X79250000Y-80500000D03*
X79250000Y-81000000D03*
X79250000Y-81500000D03*
X79250000Y-82000000D03*
X79250000Y-82500000D03*
X79250000Y-83000000D03*
X79250000Y-83500000D03*
X79250000Y-84000000D03*
X79250000Y-84500000D03*
X79250000Y-85000000D03*
X79250000Y-85500000D03*
X79250000Y-86000000D03*
X79250000Y-86500000D03*
D29*
X81162500Y-88412500D03*
X81662500Y-88412500D03*
X82162500Y-88412500D03*
X82662500Y-88412500D03*
X83162500Y-88412500D03*
X83662500Y-88412500D03*
X84162500Y-88412500D03*
X84662500Y-88412500D03*
X85162500Y-88412500D03*
X85662500Y-88412500D03*
X86162500Y-88412500D03*
X86662500Y-88412500D03*
X87162500Y-88412500D03*
X87662500Y-88412500D03*
X88162500Y-88412500D03*
X88662500Y-88412500D03*
X89162500Y-88412500D03*
X89662500Y-88412500D03*
X90162500Y-88412500D03*
X90662500Y-88412500D03*
X91162500Y-88412500D03*
X91662500Y-88412500D03*
X92162500Y-88412500D03*
X92662500Y-88412500D03*
X93162500Y-88412500D03*
X93662500Y-88412500D03*
X94162500Y-88412500D03*
X94662500Y-88412500D03*
X95162500Y-88412500D03*
X95662500Y-88412500D03*
X96162500Y-88412500D03*
X96662500Y-88412500D03*
X97162500Y-88412500D03*
X97662500Y-88412500D03*
X98162500Y-88412500D03*
X98662500Y-88412500D03*
D28*
X100575000Y-86500000D03*
X100575000Y-86000000D03*
X100575000Y-85500000D03*
X100575000Y-85000000D03*
X100575000Y-84500000D03*
X100575000Y-84000000D03*
X100575000Y-83500000D03*
X100575000Y-83000000D03*
X100575000Y-82500000D03*
X100575000Y-82000000D03*
X100575000Y-81500000D03*
X100575000Y-81000000D03*
X100575000Y-80500000D03*
X100575000Y-80000000D03*
X100575000Y-79500000D03*
X100575000Y-79000000D03*
X100575000Y-78500000D03*
X100575000Y-78000000D03*
X100575000Y-77500000D03*
X100575000Y-77000000D03*
X100575000Y-76500000D03*
X100575000Y-76000000D03*
X100575000Y-75500000D03*
X100575000Y-75000000D03*
X100575000Y-74500000D03*
X100575000Y-74000000D03*
X100575000Y-73500000D03*
X100575000Y-73000000D03*
X100575000Y-72500000D03*
X100575000Y-72000000D03*
X100575000Y-71500000D03*
X100575000Y-71000000D03*
X100575000Y-70500000D03*
X100575000Y-70000000D03*
X100575000Y-69500000D03*
X100575000Y-69000000D03*
D29*
X98662500Y-67087500D03*
X98162500Y-67087500D03*
X97662500Y-67087500D03*
X97162500Y-67087500D03*
X96662500Y-67087500D03*
X96162500Y-67087500D03*
X95662500Y-67087500D03*
X95162500Y-67087500D03*
X94662500Y-67087500D03*
X94162500Y-67087500D03*
X93662500Y-67087500D03*
X93162500Y-67087500D03*
X92662500Y-67087500D03*
X92162500Y-67087500D03*
X91662500Y-67087500D03*
X91162500Y-67087500D03*
X90662500Y-67087500D03*
X90162500Y-67087500D03*
X89662500Y-67087500D03*
X89162500Y-67087500D03*
X88662500Y-67087500D03*
X88162500Y-67087500D03*
X87662500Y-67087500D03*
X87162500Y-67087500D03*
X86662500Y-67087500D03*
X86162500Y-67087500D03*
X85662500Y-67087500D03*
X85162500Y-67087500D03*
X84662500Y-67087500D03*
X84162500Y-67087500D03*
X83662500Y-67087500D03*
X83162500Y-67087500D03*
X82662500Y-67087500D03*
X82162500Y-67087500D03*
X81662500Y-67087500D03*
X81162500Y-67087500D03*
%TD*%
D26*
%TO.C,C29*%
X111500000Y-70400000D03*
X111500000Y-68500000D03*
%TD*%
%TO.C,C30*%
X111450000Y-78750000D03*
X111450000Y-76850000D03*
%TD*%
%TO.C,C16*%
X104500000Y-76050000D03*
X104500000Y-77950000D03*
%TD*%
%TO.C,C27*%
X73450000Y-77900000D03*
X73450000Y-76000000D03*
%TD*%
D14*
%TO.C,C4*%
X98050000Y-39800000D03*
X99950000Y-39800000D03*
%TD*%
D30*
%TO.C,D2*%
X71750000Y-54700000D03*
X75750000Y-54700000D03*
%TD*%
D15*
%TO.C,J1*%
X75325000Y-37617500D03*
D31*
X70325000Y-37617500D03*
%TD*%
D32*
%TO.C,L1*%
X84650000Y-39750000D03*
X94550000Y-39750000D03*
%TD*%
D26*
%TO.C,C13*%
X88500000Y-91050000D03*
X88500000Y-92950000D03*
%TD*%
D33*
%TO.C,R1*%
X67275000Y-79425000D03*
X67275000Y-77600000D03*
%TD*%
D26*
%TO.C,C8*%
X67300000Y-84125000D03*
X67300000Y-82225000D03*
%TD*%
D34*
%TO.C,U1*%
X117450000Y-41950000D03*
X117450000Y-43650000D03*
X117450000Y-45350000D03*
D35*
X126600000Y-45350000D03*
D34*
X117450000Y-47050000D03*
X117450000Y-48750000D03*
%TD*%
D36*
%TO.C,Y2*%
X73450000Y-73750000D03*
X75950000Y-73750000D03*
%TD*%
D37*
%TO.C,Y1*%
X73900000Y-82650000D03*
X76100000Y-82650000D03*
X76100000Y-80950000D03*
X73900000Y-80950000D03*
%TD*%
D38*
%TO.C,U2*%
X57600000Y-39100000D03*
D39*
X63900000Y-36800000D03*
D38*
X57600000Y-36800000D03*
X57600000Y-34500000D03*
%TD*%
D11*
%TO.C,R7*%
X83350000Y-97525000D03*
X81525000Y-97525000D03*
%TD*%
%TO.C,R5*%
X63200000Y-46900000D03*
X61375000Y-46900000D03*
%TD*%
%TO.C,R2*%
X84425000Y-64000000D03*
X86250000Y-64000000D03*
%TD*%
D40*
%TO.C,FB1*%
X76250000Y-94400000D03*
X76250000Y-96525000D03*
%TD*%
D41*
%TO.C,F1*%
X75650000Y-45925000D03*
X75650000Y-50200000D03*
%TD*%
D42*
%TO.C,D5*%
X81600000Y-100875000D03*
X83475000Y-100875000D03*
%TD*%
D43*
%TO.C,D4*%
X58475000Y-46900000D03*
X56600000Y-46900000D03*
%TD*%
D44*
%TO.C,D3*%
X108075000Y-54950000D03*
X108075000Y-48150000D03*
%TD*%
D45*
%TO.C,D1*%
X70400000Y-49900000D03*
X70400000Y-45900000D03*
%TD*%
D26*
%TO.C,C28*%
X76450000Y-76000000D03*
X76450000Y-77900000D03*
%TD*%
%TO.C,C26*%
X76075000Y-86700000D03*
X76075000Y-84800000D03*
%TD*%
%TO.C,C25*%
X73350000Y-84800000D03*
X73350000Y-86700000D03*
%TD*%
D14*
%TO.C,C24*%
X101250000Y-65000000D03*
X103150000Y-65000000D03*
%TD*%
%TO.C,C23*%
X98300000Y-91350000D03*
X100200000Y-91350000D03*
%TD*%
D46*
%TO.C,C22*%
X78250000Y-100150000D03*
X76350000Y-100150000D03*
%TD*%
%TO.C,C21*%
X74250000Y-100150000D03*
X72350000Y-100150000D03*
%TD*%
D14*
%TO.C,C20*%
X80300000Y-64050000D03*
X82200000Y-64050000D03*
%TD*%
%TO.C,C19*%
X89050000Y-64000000D03*
X90950000Y-64000000D03*
%TD*%
%TO.C,C18*%
X93625000Y-64000000D03*
X95525000Y-64000000D03*
%TD*%
D26*
%TO.C,C17*%
X103750000Y-69100000D03*
X103750000Y-71000000D03*
%TD*%
%TO.C,C14*%
X94250000Y-91050000D03*
X94250000Y-92950000D03*
%TD*%
%TO.C,C12*%
X81750000Y-92700000D03*
X81750000Y-90800000D03*
%TD*%
%TO.C,C11*%
X76500000Y-90100000D03*
X76500000Y-92000000D03*
%TD*%
D46*
%TO.C,C10*%
X77500000Y-64100000D03*
X75600000Y-64100000D03*
%TD*%
%TO.C,C9*%
X76925000Y-70250000D03*
X75025000Y-70250000D03*
%TD*%
D47*
%TO.C,C7*%
X53600000Y-34700000D03*
X53600000Y-36600000D03*
%TD*%
D48*
%TO.C,C6*%
X48500000Y-34400000D03*
X48500000Y-37350000D03*
%TD*%
D49*
%TO.C,C5*%
X53650000Y-42100000D03*
X53650000Y-39150000D03*
%TD*%
D50*
%TO.C,C3*%
X98150000Y-56700000D03*
X98150000Y-49300000D03*
%TD*%
D26*
%TO.C,C2*%
X68150000Y-55800000D03*
X68150000Y-53900000D03*
%TD*%
D50*
%TO.C,C1*%
X108500000Y-42400000D03*
X108500000Y-35000000D03*
%TD*%
M02*
